M48
; DRILL file {KiCad 5.1.9-73d0e3b20d~88~ubuntu20.04.1} date Wed Jan  6 22:15:50 2021
; FORMAT={-:-/ absolute / inch / decimal}
; #@! TF.CreationDate,2021-01-06T22:15:50+03:00
; #@! TF.GenerationSoftware,Kicad,Pcbnew,5.1.9-73d0e3b20d~88~ubuntu20.04.1
; #@! TF.FileFunction,Plated,1,2,PTH
FMAT,2
INCH
T1C0.0157
T2C0.0394
T3C0.0512
%
G90
G05
T1
X4.3Y-3.65
X4.45Y-3.15
X4.45Y-3.2
X4.45Y-3.25
X4.45Y-3.3
X4.45Y-3.35
X4.45Y-3.4
X5.05Y-2.45
X5.05Y-2.65
X5.05Y-3.15
X5.05Y-3.35
X5.05Y-3.75
X5.05Y-3.95
X5.05Y-4.35
X5.05Y-4.55
X5.1Y-2.45
X5.1Y-2.65
X5.1Y-3.15
X5.1Y-3.35
X5.1Y-3.75
X5.1Y-3.95
X5.1Y-4.35
X5.1Y-4.55
X5.15Y-2.45
X5.15Y-2.65
X5.15Y-3.15
X5.15Y-3.35
X5.15Y-3.75
X5.15Y-3.95
X5.15Y-4.35
X5.15Y-4.55
X5.2Y-2.45
X5.2Y-2.65
X5.2Y-3.15
X5.2Y-3.35
X5.2Y-3.75
X5.2Y-3.95
X5.2Y-4.15
X5.2Y-4.35
X5.25Y-2.45
X5.25Y-2.5
X5.25Y-2.55
X5.25Y-2.6
X5.25Y-2.65
X5.25Y-3.2
X5.25Y-3.25
X5.25Y-3.3
X5.25Y-3.35
X5.25Y-4.35
X5.3Y-3.65
X5.3Y-3.75
X5.3Y-3.95
X5.35Y-2.9
X5.35Y-4.25
X5.7Y-3.55
X6.25Y-4.05
T2
X4.7Y-3.0
X4.8Y-3.0
X4.9Y-3.0
X5.0Y-3.0
X5.5Y-2.8
X5.5Y-2.9
X5.5Y-3.0
X5.5Y-3.1
X5.5Y-3.2
X5.5Y-3.3
X5.5Y-3.4
X5.5Y-3.5
X5.5Y-3.6
X5.5Y-3.7
X5.5Y-3.8
X5.5Y-3.9
X5.5Y-4.0
X5.5Y-4.1
X5.5Y-4.2
X6.09Y-2.8
X6.09Y-2.9
X6.09Y-3.0
X6.09Y-3.1
X6.09Y-3.2
X6.09Y-3.3
X6.09Y-3.4
X6.09Y-3.5
X6.09Y-3.6
X6.09Y-3.7
X6.09Y-3.8
X6.09Y-3.9
X6.09Y-4.0
X6.09Y-4.1
X6.09Y-4.2
T3
X4.2Y-3.45
X4.2Y-3.6469
X4.2Y-3.8437
X4.2Y-4.0406
X4.2Y-4.2374
X4.2Y-4.4343
X5.7Y-2.6
X5.7Y-3.0921
X5.7Y-3.3
X5.7Y-3.7921
X5.7Y-4.2
X5.7Y-4.6921
X5.8969Y-2.6
X5.8969Y-3.0921
X5.8969Y-3.3
X5.8969Y-3.7921
X5.8969Y-4.2
X5.8969Y-4.6921
T2
G00X4.0Y-2.8106
M15
G01X4.0Y-2.8894
M16
G05
G00X4.0787Y-3.035
M15
G01X4.1575Y-3.035
M16
G05
G00X4.2362Y-2.8106
M15
G01X4.2362Y-2.8894
M16
G05
T0
M30
