%TF.GenerationSoftware,KiCad,Pcbnew,5.1.9-73d0e3b20d~88~ubuntu20.04.1*%
%TF.CreationDate,2021-01-06T22:16:02+03:00*%
%TF.ProjectId,RGBschildD2PAK,52474273-6368-4696-9c64-443250414b2e,rev?*%
%TF.SameCoordinates,Original*%
%TF.FileFunction,Copper,L2,Bot*%
%TF.FilePolarity,Positive*%
%FSLAX46Y46*%
G04 Gerber Fmt 4.6, Leading zero omitted, Abs format (unit mm)*
G04 Created by KiCad (PCBNEW 5.1.9-73d0e3b20d~88~ubuntu20.04.1) date 2021-01-06 22:16:02*
%MOMM*%
%LPD*%
G01*
G04 APERTURE LIST*
%TA.AperFunction,Profile*%
%ADD10C,0.100000*%
%TD*%
%TA.AperFunction,NonConductor*%
%ADD11C,0.150000*%
%TD*%
%TA.AperFunction,ComponentPad*%
%ADD12O,1.700000X1.700000*%
%TD*%
%TA.AperFunction,ComponentPad*%
%ADD13R,1.700000X1.700000*%
%TD*%
%TA.AperFunction,ComponentPad*%
%ADD14O,1.850000X3.048000*%
%TD*%
%TA.AperFunction,ComponentPad*%
%ADD15C,2.600000*%
%TD*%
%TA.AperFunction,ComponentPad*%
%ADD16R,2.600000X2.600000*%
%TD*%
%TA.AperFunction,ComponentPad*%
%ADD17R,3.500000X3.500000*%
%TD*%
%TA.AperFunction,ViaPad*%
%ADD18C,0.600000*%
%TD*%
%TA.AperFunction,Conductor*%
%ADD19C,0.250000*%
%TD*%
%TA.AperFunction,Conductor*%
%ADD20C,1.800000*%
%TD*%
%TA.AperFunction,Conductor*%
%ADD21C,4.000000*%
%TD*%
%TA.AperFunction,Conductor*%
%ADD22C,3.000000*%
%TD*%
%TA.AperFunction,Conductor*%
%ADD23C,0.254000*%
%TD*%
%TA.AperFunction,Conductor*%
%ADD24C,0.150000*%
%TD*%
G04 APERTURE END LIST*
D10*
X159080000Y-120650000D02*
G75*
G03*
X159080000Y-120650000I-1600000J0D01*
G01*
D11*
X160080000Y-120650000D02*
G75*
G03*
X160080000Y-120650000I-2600000J0D01*
G01*
D10*
X101930000Y-120650000D02*
G75*
G03*
X101930000Y-120650000I-1600000J0D01*
G01*
D11*
X102930000Y-120650000D02*
G75*
G03*
X102930000Y-120650000I-2600000J0D01*
G01*
D10*
X159080000Y-62230000D02*
G75*
G03*
X159080000Y-62230000I-1600000J0D01*
G01*
D11*
X160080000Y-62230000D02*
G75*
G03*
X160080000Y-62230000I-2600000J0D01*
G01*
X102930000Y-62230000D02*
G75*
G03*
X102930000Y-62230000I-2600000J0D01*
G01*
D10*
X101930000Y-62230000D02*
G75*
G03*
X101930000Y-62230000I-1600000J0D01*
G01*
X96520000Y-58420000D02*
X161290000Y-58420000D01*
X96520000Y-58420000D02*
X96520000Y-124460000D01*
X161290000Y-124460000D02*
X161290000Y-58420000D01*
X96520000Y-124460000D02*
X161290000Y-124460000D01*
D12*
%TO.P,J1,4*%
%TO.N,5V*%
X127000000Y-76200000D03*
%TO.P,J1,3*%
%TO.N,GND*%
X124460000Y-76200000D03*
%TO.P,J1,2*%
%TO.N,D2*%
X121920000Y-76200000D03*
D13*
%TO.P,J1,1*%
%TO.N,D7*%
X119380000Y-76200000D03*
%TD*%
D14*
%TO.P,SW3,2*%
%TO.N,GND*%
X149780000Y-106680000D03*
%TO.P,SW3,1*%
%TO.N,D6*%
X144780000Y-106680000D03*
%TO.P,SW3,2*%
%TO.N,GND*%
X149780000Y-119180000D03*
%TO.P,SW3,1*%
%TO.N,D6*%
X144780000Y-119180000D03*
%TD*%
D12*
%TO.P,P2,15*%
%TO.N,/13(SCK)*%
X154686000Y-106680000D03*
%TO.P,P2,14*%
%TO.N,Net-(P2-Pad14)*%
X154686000Y-104140000D03*
%TO.P,P2,13*%
%TO.N,/AREF*%
X154686000Y-101600000D03*
%TO.P,P2,12*%
%TO.N,A0*%
X154686000Y-99060000D03*
%TO.P,P2,11*%
%TO.N,/A1*%
X154686000Y-96520000D03*
%TO.P,P2,10*%
%TO.N,/A2*%
X154686000Y-93980000D03*
%TO.P,P2,9*%
%TO.N,/A3*%
X154686000Y-91440000D03*
%TO.P,P2,8*%
%TO.N,/A4*%
X154686000Y-88900000D03*
%TO.P,P2,7*%
%TO.N,/A5*%
X154686000Y-86360000D03*
%TO.P,P2,6*%
%TO.N,/A6*%
X154686000Y-83820000D03*
%TO.P,P2,5*%
%TO.N,/A7*%
X154686000Y-81280000D03*
%TO.P,P2,4*%
%TO.N,5V*%
X154686000Y-78740000D03*
%TO.P,P2,3*%
%TO.N,Net-(P2-Pad3)*%
X154686000Y-76200000D03*
%TO.P,P2,2*%
%TO.N,GND*%
X154686000Y-73660000D03*
D13*
%TO.P,P2,1*%
%TO.N,12V*%
X154686000Y-71120000D03*
%TD*%
D14*
%TO.P,SW2,2*%
%TO.N,GND*%
X149780000Y-83820000D03*
%TO.P,SW2,1*%
%TO.N,D5*%
X144780000Y-83820000D03*
%TO.P,SW2,2*%
%TO.N,GND*%
X149780000Y-96320000D03*
%TO.P,SW2,1*%
%TO.N,D5*%
X144780000Y-96320000D03*
%TD*%
%TO.P,SW1,2*%
%TO.N,GND*%
X149780000Y-66040000D03*
%TO.P,SW1,1*%
%TO.N,D4*%
X144780000Y-66040000D03*
%TO.P,SW1,2*%
%TO.N,GND*%
X149780000Y-78540000D03*
%TO.P,SW1,1*%
%TO.N,D4*%
X144780000Y-78540000D03*
%TD*%
D12*
%TO.P,P1,15*%
%TO.N,/12(MISO)*%
X139700000Y-106680000D03*
%TO.P,P1,14*%
%TO.N,D11*%
X139700000Y-104140000D03*
%TO.P,P1,13*%
%TO.N,D10*%
X139700000Y-101600000D03*
%TO.P,P1,12*%
%TO.N,D9*%
X139700000Y-99060000D03*
%TO.P,P1,11*%
%TO.N,/8*%
X139700000Y-96520000D03*
%TO.P,P1,10*%
%TO.N,D7*%
X139700000Y-93980000D03*
%TO.P,P1,9*%
%TO.N,D6*%
X139700000Y-91440000D03*
%TO.P,P1,8*%
%TO.N,D5*%
X139700000Y-88900000D03*
%TO.P,P1,7*%
%TO.N,D4*%
X139700000Y-86360000D03*
%TO.P,P1,6*%
%TO.N,D3*%
X139700000Y-83820000D03*
%TO.P,P1,5*%
%TO.N,D2*%
X139700000Y-81280000D03*
%TO.P,P1,4*%
%TO.N,GND*%
X139700000Y-78740000D03*
%TO.P,P1,3*%
%TO.N,/Reset*%
X139700000Y-76200000D03*
%TO.P,P1,2*%
%TO.N,/0(Rx)*%
X139700000Y-73660000D03*
D13*
%TO.P,P1,1*%
%TO.N,/1(Tx)*%
X139700000Y-71120000D03*
%TD*%
D15*
%TO.P,J3,6*%
%TO.N,W*%
X106680000Y-112630000D03*
%TO.P,J3,5*%
%TO.N,B*%
X106680000Y-107630000D03*
%TO.P,J3,4*%
%TO.N,G*%
X106680000Y-102630000D03*
%TO.P,J3,3*%
%TO.N,R*%
X106680000Y-97630000D03*
%TO.P,J3,2*%
%TO.N,12V*%
X106680000Y-92630000D03*
D16*
%TO.P,J3,1*%
%TO.N,GND*%
X106680000Y-87630000D03*
%TD*%
%TO.P,J2,3*%
%TO.N,N/C*%
%TA.AperFunction,ComponentPad*%
G36*
G01*
X102850000Y-77965000D02*
X102850000Y-76215000D01*
G75*
G02*
X103725000Y-75340000I875000J0D01*
G01*
X105475000Y-75340000D01*
G75*
G02*
X106350000Y-76215000I0J-875000D01*
G01*
X106350000Y-77965000D01*
G75*
G02*
X105475000Y-78840000I-875000J0D01*
G01*
X103725000Y-78840000D01*
G75*
G02*
X102850000Y-77965000I0J875000D01*
G01*
G37*
%TD.AperFunction*%
%TO.P,J2,2*%
%TO.N,GND*%
%TA.AperFunction,ComponentPad*%
G36*
G01*
X100100000Y-73390000D02*
X100100000Y-71390000D01*
G75*
G02*
X100850000Y-70640000I750000J0D01*
G01*
X102350000Y-70640000D01*
G75*
G02*
X103100000Y-71390000I0J-750000D01*
G01*
X103100000Y-73390000D01*
G75*
G02*
X102350000Y-74140000I-750000J0D01*
G01*
X100850000Y-74140000D01*
G75*
G02*
X100100000Y-73390000I0J750000D01*
G01*
G37*
%TD.AperFunction*%
D17*
%TO.P,J2,1*%
%TO.N,12V*%
X107600000Y-72390000D03*
%TD*%
D18*
%TO.N,*%
X135890000Y-107950000D03*
%TO.N,GND*%
X158750000Y-102870000D03*
X144780000Y-90170000D03*
X133350000Y-110490000D03*
X133350000Y-64770000D03*
X129540000Y-80010000D03*
X130810000Y-80010000D03*
X132080000Y-80010000D03*
X133350000Y-81280000D03*
X133350000Y-82550000D03*
X133350000Y-83820000D03*
X132080000Y-110490000D03*
X130810000Y-110490000D03*
X129540000Y-110490000D03*
X128270000Y-110490000D03*
X130810000Y-115570000D03*
X129540000Y-115570000D03*
X128270000Y-115570000D03*
X129540000Y-95250000D03*
X130810000Y-95250000D03*
X132080000Y-95250000D03*
X128270000Y-95250000D03*
X129540000Y-100330000D03*
X130810000Y-100330000D03*
X132080000Y-100330000D03*
X128270000Y-100330000D03*
X128270000Y-80010000D03*
X130810000Y-85090000D03*
X129540000Y-85090000D03*
X128270000Y-85090000D03*
X132080000Y-85090000D03*
X133350000Y-85090000D03*
X128270000Y-62230000D03*
X129540000Y-62230000D03*
X130810000Y-62230000D03*
X132080000Y-62230000D03*
X133350000Y-62230000D03*
X133350000Y-63500000D03*
X133350000Y-66040000D03*
X133350000Y-67310000D03*
X132080000Y-67310000D03*
X130810000Y-67310000D03*
X129540000Y-67310000D03*
X128270000Y-67310000D03*
%TO.N,12V*%
X132080000Y-105410000D03*
X135890000Y-73660000D03*
X134620000Y-92710000D03*
X134620000Y-100330000D03*
X134620000Y-95250000D03*
X109220000Y-92710000D03*
X113030000Y-86360000D03*
X113030000Y-83820000D03*
X113030000Y-85090000D03*
X113030000Y-82550000D03*
X113030000Y-81280000D03*
X113030000Y-80010000D03*
%TD*%
D19*
%TO.N,12V*%
X135890000Y-91440000D02*
X134620000Y-92710000D01*
X135890000Y-73660000D02*
X135890000Y-91440000D01*
X134620000Y-102870000D02*
X132080000Y-105410000D01*
X134620000Y-92710000D02*
X134620000Y-102870000D01*
D20*
X106760000Y-92710000D02*
X106680000Y-92630000D01*
X134620000Y-92710000D02*
X109220000Y-92710000D01*
X106680000Y-92630000D02*
X109300000Y-92630000D01*
D21*
X109300000Y-92630000D02*
X113030000Y-88900000D01*
D22*
X113030000Y-77820000D02*
X107600000Y-72390000D01*
D21*
X113030000Y-88900000D02*
X113030000Y-86360000D01*
D20*
X109220000Y-92710000D02*
X106760000Y-92710000D01*
D21*
X113030000Y-86360000D02*
X113030000Y-85090000D01*
X113030000Y-83820000D02*
X113030000Y-82550000D01*
X113030000Y-85090000D02*
X113030000Y-83820000D01*
X113030000Y-82550000D02*
X113030000Y-81280000D01*
X113030000Y-81280000D02*
X113030000Y-80010000D01*
X113030000Y-80010000D02*
X113030000Y-77820000D01*
D19*
%TO.N,D2*%
X121920000Y-76200000D02*
X121920000Y-77470000D01*
X129630588Y-77470000D02*
X138520588Y-68580000D01*
X121920000Y-77470000D02*
X129630588Y-77470000D01*
X138520588Y-68580000D02*
X142240000Y-68580000D01*
X142240000Y-68580000D02*
X142240000Y-81280000D01*
X142240000Y-81280000D02*
X139700000Y-81280000D01*
%TO.N,5V*%
X127000000Y-76200000D02*
X137160000Y-66040000D01*
X137160000Y-66040000D02*
X139700000Y-66040000D01*
X139700000Y-66040000D02*
X142240000Y-63500000D01*
X142240000Y-63500000D02*
X151130000Y-63500000D01*
X151130000Y-63500000D02*
X158750000Y-71120000D01*
X158750000Y-71120000D02*
X158750000Y-77470000D01*
X157353000Y-78867000D02*
X154686000Y-78867000D01*
X158750000Y-77470000D02*
X157353000Y-78867000D01*
%TO.N,D7*%
X119380000Y-76200000D02*
X119380000Y-77470000D01*
X119380000Y-77470000D02*
X120650000Y-78740000D01*
X128996998Y-78740000D02*
X135346998Y-72390000D01*
X120650000Y-78740000D02*
X128996998Y-78740000D01*
X136433002Y-72390000D02*
X137160000Y-73116998D01*
X135346998Y-72390000D02*
X136433002Y-72390000D01*
X137160000Y-73116998D02*
X137160000Y-92710000D01*
X138430000Y-93980000D02*
X139700000Y-93980000D01*
X137160000Y-92710000D02*
X138430000Y-93980000D01*
%TD*%
D23*
%TO.N,GND*%
X155910249Y-59293202D02*
X155367470Y-59655875D01*
X154905875Y-60117470D01*
X154543202Y-60660249D01*
X154293389Y-61263352D01*
X154166035Y-61903603D01*
X154166035Y-62556397D01*
X154293389Y-63196648D01*
X154543202Y-63799751D01*
X154905875Y-64342530D01*
X155367470Y-64804125D01*
X155910249Y-65166798D01*
X156513352Y-65416611D01*
X157153603Y-65543965D01*
X157806397Y-65543965D01*
X158446648Y-65416611D01*
X159049751Y-65166798D01*
X159592530Y-64804125D01*
X160054125Y-64342530D01*
X160416798Y-63799751D01*
X160605001Y-63345388D01*
X160605000Y-119534610D01*
X160416798Y-119080249D01*
X160054125Y-118537470D01*
X159592530Y-118075875D01*
X159049751Y-117713202D01*
X158446648Y-117463389D01*
X157806397Y-117336035D01*
X157153603Y-117336035D01*
X156513352Y-117463389D01*
X155910249Y-117713202D01*
X155367470Y-118075875D01*
X154905875Y-118537470D01*
X154543202Y-119080249D01*
X154293389Y-119683352D01*
X154166035Y-120323603D01*
X154166035Y-120976397D01*
X154293389Y-121616648D01*
X154543202Y-122219751D01*
X154905875Y-122762530D01*
X155367470Y-123224125D01*
X155910249Y-123586798D01*
X156364610Y-123775000D01*
X101445390Y-123775000D01*
X101899751Y-123586798D01*
X102442530Y-123224125D01*
X102904125Y-122762530D01*
X103266798Y-122219751D01*
X103516611Y-121616648D01*
X103643965Y-120976397D01*
X103643965Y-120323603D01*
X103516611Y-119683352D01*
X103266798Y-119080249D01*
X102904125Y-118537470D01*
X102871019Y-118504364D01*
X143220000Y-118504364D01*
X143220000Y-119855635D01*
X143242572Y-120084812D01*
X143331774Y-120378874D01*
X143476631Y-120649882D01*
X143671576Y-120887424D01*
X143909117Y-121082369D01*
X144180125Y-121227226D01*
X144474187Y-121316428D01*
X144780000Y-121346548D01*
X145085812Y-121316428D01*
X145379874Y-121227226D01*
X145650882Y-121082369D01*
X145888424Y-120887424D01*
X146083369Y-120649883D01*
X146228226Y-120378875D01*
X146317428Y-120084813D01*
X146340000Y-119855636D01*
X146340000Y-119307000D01*
X148220000Y-119307000D01*
X148220000Y-119906000D01*
X148274751Y-120207901D01*
X148387348Y-120493319D01*
X148553464Y-120751286D01*
X148766715Y-120971889D01*
X149018906Y-121146650D01*
X149300345Y-121268853D01*
X149411336Y-121294812D01*
X149653000Y-121174483D01*
X149653000Y-119307000D01*
X149907000Y-119307000D01*
X149907000Y-121174483D01*
X150148664Y-121294812D01*
X150259655Y-121268853D01*
X150541094Y-121146650D01*
X150793285Y-120971889D01*
X151006536Y-120751286D01*
X151172652Y-120493319D01*
X151285249Y-120207901D01*
X151340000Y-119906000D01*
X151340000Y-119307000D01*
X149907000Y-119307000D01*
X149653000Y-119307000D01*
X148220000Y-119307000D01*
X146340000Y-119307000D01*
X146340000Y-118504364D01*
X146335040Y-118454000D01*
X148220000Y-118454000D01*
X148220000Y-119053000D01*
X149653000Y-119053000D01*
X149653000Y-117185517D01*
X149907000Y-117185517D01*
X149907000Y-119053000D01*
X151340000Y-119053000D01*
X151340000Y-118454000D01*
X151285249Y-118152099D01*
X151172652Y-117866681D01*
X151006536Y-117608714D01*
X150793285Y-117388111D01*
X150541094Y-117213350D01*
X150259655Y-117091147D01*
X150148664Y-117065188D01*
X149907000Y-117185517D01*
X149653000Y-117185517D01*
X149411336Y-117065188D01*
X149300345Y-117091147D01*
X149018906Y-117213350D01*
X148766715Y-117388111D01*
X148553464Y-117608714D01*
X148387348Y-117866681D01*
X148274751Y-118152099D01*
X148220000Y-118454000D01*
X146335040Y-118454000D01*
X146317428Y-118275187D01*
X146228226Y-117981125D01*
X146083369Y-117710117D01*
X145888424Y-117472576D01*
X145650883Y-117277631D01*
X145379875Y-117132774D01*
X145085813Y-117043572D01*
X144780000Y-117013452D01*
X144474188Y-117043572D01*
X144180126Y-117132774D01*
X143909118Y-117277631D01*
X143671577Y-117472576D01*
X143476632Y-117710117D01*
X143331774Y-117981125D01*
X143242572Y-118275187D01*
X143220000Y-118504364D01*
X102871019Y-118504364D01*
X102442530Y-118075875D01*
X101899751Y-117713202D01*
X101296648Y-117463389D01*
X100656397Y-117336035D01*
X100003603Y-117336035D01*
X99363352Y-117463389D01*
X98760249Y-117713202D01*
X98217470Y-118075875D01*
X97755875Y-118537470D01*
X97393202Y-119080249D01*
X97205000Y-119534610D01*
X97205000Y-112439419D01*
X104745000Y-112439419D01*
X104745000Y-112820581D01*
X104819361Y-113194419D01*
X104965225Y-113546566D01*
X105176987Y-113863491D01*
X105446509Y-114133013D01*
X105763434Y-114344775D01*
X106115581Y-114490639D01*
X106489419Y-114565000D01*
X106870581Y-114565000D01*
X107244419Y-114490639D01*
X107596566Y-114344775D01*
X107913491Y-114133013D01*
X108183013Y-113863491D01*
X108394775Y-113546566D01*
X108540639Y-113194419D01*
X108615000Y-112820581D01*
X108615000Y-112439419D01*
X108540639Y-112065581D01*
X108394775Y-111713434D01*
X108183013Y-111396509D01*
X107913491Y-111126987D01*
X107596566Y-110915225D01*
X107244419Y-110769361D01*
X106870581Y-110695000D01*
X106489419Y-110695000D01*
X106115581Y-110769361D01*
X105763434Y-110915225D01*
X105446509Y-111126987D01*
X105176987Y-111396509D01*
X104965225Y-111713434D01*
X104819361Y-112065581D01*
X104745000Y-112439419D01*
X97205000Y-112439419D01*
X97205000Y-107439419D01*
X104745000Y-107439419D01*
X104745000Y-107820581D01*
X104819361Y-108194419D01*
X104965225Y-108546566D01*
X105176987Y-108863491D01*
X105446509Y-109133013D01*
X105763434Y-109344775D01*
X106115581Y-109490639D01*
X106489419Y-109565000D01*
X106870581Y-109565000D01*
X107244419Y-109490639D01*
X107596566Y-109344775D01*
X107913491Y-109133013D01*
X108183013Y-108863491D01*
X108394775Y-108546566D01*
X108540639Y-108194419D01*
X108607574Y-107857911D01*
X134955000Y-107857911D01*
X134955000Y-108042089D01*
X134990932Y-108222729D01*
X135061414Y-108392889D01*
X135163738Y-108546028D01*
X135293972Y-108676262D01*
X135447111Y-108778586D01*
X135617271Y-108849068D01*
X135797911Y-108885000D01*
X135982089Y-108885000D01*
X136162729Y-108849068D01*
X136332889Y-108778586D01*
X136486028Y-108676262D01*
X136616262Y-108546028D01*
X136718586Y-108392889D01*
X136789068Y-108222729D01*
X136825000Y-108042089D01*
X136825000Y-107857911D01*
X136789068Y-107677271D01*
X136718586Y-107507111D01*
X136616262Y-107353972D01*
X136486028Y-107223738D01*
X136332889Y-107121414D01*
X136162729Y-107050932D01*
X135982089Y-107015000D01*
X135797911Y-107015000D01*
X135617271Y-107050932D01*
X135447111Y-107121414D01*
X135293972Y-107223738D01*
X135163738Y-107353972D01*
X135061414Y-107507111D01*
X134990932Y-107677271D01*
X134955000Y-107857911D01*
X108607574Y-107857911D01*
X108615000Y-107820581D01*
X108615000Y-107439419D01*
X108540639Y-107065581D01*
X108394775Y-106713434D01*
X108183013Y-106396509D01*
X107913491Y-106126987D01*
X107596566Y-105915225D01*
X107244419Y-105769361D01*
X106870581Y-105695000D01*
X106489419Y-105695000D01*
X106115581Y-105769361D01*
X105763434Y-105915225D01*
X105446509Y-106126987D01*
X105176987Y-106396509D01*
X104965225Y-106713434D01*
X104819361Y-107065581D01*
X104745000Y-107439419D01*
X97205000Y-107439419D01*
X97205000Y-102439419D01*
X104745000Y-102439419D01*
X104745000Y-102820581D01*
X104819361Y-103194419D01*
X104965225Y-103546566D01*
X105176987Y-103863491D01*
X105446509Y-104133013D01*
X105763434Y-104344775D01*
X106115581Y-104490639D01*
X106489419Y-104565000D01*
X106870581Y-104565000D01*
X107244419Y-104490639D01*
X107596566Y-104344775D01*
X107913491Y-104133013D01*
X108183013Y-103863491D01*
X108394775Y-103546566D01*
X108540639Y-103194419D01*
X108615000Y-102820581D01*
X108615000Y-102439419D01*
X108540639Y-102065581D01*
X108394775Y-101713434D01*
X108183013Y-101396509D01*
X107913491Y-101126987D01*
X107596566Y-100915225D01*
X107244419Y-100769361D01*
X106870581Y-100695000D01*
X106489419Y-100695000D01*
X106115581Y-100769361D01*
X105763434Y-100915225D01*
X105446509Y-101126987D01*
X105176987Y-101396509D01*
X104965225Y-101713434D01*
X104819361Y-102065581D01*
X104745000Y-102439419D01*
X97205000Y-102439419D01*
X97205000Y-97439419D01*
X104745000Y-97439419D01*
X104745000Y-97820581D01*
X104819361Y-98194419D01*
X104965225Y-98546566D01*
X105176987Y-98863491D01*
X105446509Y-99133013D01*
X105763434Y-99344775D01*
X106115581Y-99490639D01*
X106489419Y-99565000D01*
X106870581Y-99565000D01*
X107244419Y-99490639D01*
X107596566Y-99344775D01*
X107913491Y-99133013D01*
X108183013Y-98863491D01*
X108394775Y-98546566D01*
X108540639Y-98194419D01*
X108615000Y-97820581D01*
X108615000Y-97439419D01*
X108540639Y-97065581D01*
X108394775Y-96713434D01*
X108183013Y-96396509D01*
X107913491Y-96126987D01*
X107596566Y-95915225D01*
X107244419Y-95769361D01*
X106870581Y-95695000D01*
X106489419Y-95695000D01*
X106115581Y-95769361D01*
X105763434Y-95915225D01*
X105446509Y-96126987D01*
X105176987Y-96396509D01*
X104965225Y-96713434D01*
X104819361Y-97065581D01*
X104745000Y-97439419D01*
X97205000Y-97439419D01*
X97205000Y-88930000D01*
X104741928Y-88930000D01*
X104754188Y-89054482D01*
X104790498Y-89174180D01*
X104849463Y-89284494D01*
X104928815Y-89381185D01*
X105025506Y-89460537D01*
X105135820Y-89519502D01*
X105255518Y-89555812D01*
X105380000Y-89568072D01*
X106394250Y-89565000D01*
X106553000Y-89406250D01*
X106553000Y-87757000D01*
X106807000Y-87757000D01*
X106807000Y-89406250D01*
X106965750Y-89565000D01*
X107980000Y-89568072D01*
X108104482Y-89555812D01*
X108224180Y-89519502D01*
X108334494Y-89460537D01*
X108431185Y-89381185D01*
X108510537Y-89284494D01*
X108569502Y-89174180D01*
X108605812Y-89054482D01*
X108618072Y-88930000D01*
X108615000Y-87915750D01*
X108456250Y-87757000D01*
X106807000Y-87757000D01*
X106553000Y-87757000D01*
X104903750Y-87757000D01*
X104745000Y-87915750D01*
X104741928Y-88930000D01*
X97205000Y-88930000D01*
X97205000Y-86330000D01*
X104741928Y-86330000D01*
X104745000Y-87344250D01*
X104903750Y-87503000D01*
X106553000Y-87503000D01*
X106553000Y-85853750D01*
X106807000Y-85853750D01*
X106807000Y-87503000D01*
X108456250Y-87503000D01*
X108615000Y-87344250D01*
X108618072Y-86330000D01*
X108605812Y-86205518D01*
X108569502Y-86085820D01*
X108510537Y-85975506D01*
X108431185Y-85878815D01*
X108334494Y-85799463D01*
X108224180Y-85740498D01*
X108104482Y-85704188D01*
X107980000Y-85691928D01*
X106965750Y-85695000D01*
X106807000Y-85853750D01*
X106553000Y-85853750D01*
X106394250Y-85695000D01*
X105380000Y-85691928D01*
X105255518Y-85704188D01*
X105135820Y-85740498D01*
X105025506Y-85799463D01*
X104928815Y-85878815D01*
X104849463Y-85975506D01*
X104790498Y-86085820D01*
X104754188Y-86205518D01*
X104741928Y-86330000D01*
X97205000Y-86330000D01*
X97205000Y-76215000D01*
X102211928Y-76215000D01*
X102211928Y-77965000D01*
X102241001Y-78260186D01*
X102327104Y-78544028D01*
X102466927Y-78805618D01*
X102655097Y-79034903D01*
X102884382Y-79223073D01*
X103145972Y-79362896D01*
X103429814Y-79448999D01*
X103725000Y-79478072D01*
X105475000Y-79478072D01*
X105770186Y-79448999D01*
X106054028Y-79362896D01*
X106315618Y-79223073D01*
X106544903Y-79034903D01*
X106733073Y-78805618D01*
X106872896Y-78544028D01*
X106958999Y-78260186D01*
X106988072Y-77965000D01*
X106988072Y-76215000D01*
X106958999Y-75919814D01*
X106872896Y-75635972D01*
X106733073Y-75374382D01*
X106544903Y-75145097D01*
X106315618Y-74956927D01*
X106054028Y-74817104D01*
X105925357Y-74778072D01*
X106968727Y-74778072D01*
X110395000Y-78204346D01*
X110395000Y-87808548D01*
X107378605Y-90824943D01*
X107244419Y-90769361D01*
X106870581Y-90695000D01*
X106489419Y-90695000D01*
X106115581Y-90769361D01*
X105763434Y-90915225D01*
X105446509Y-91126987D01*
X105176987Y-91396509D01*
X104965225Y-91713434D01*
X104819361Y-92065581D01*
X104745000Y-92439419D01*
X104745000Y-92820581D01*
X104819361Y-93194419D01*
X104965225Y-93546566D01*
X105176987Y-93863491D01*
X105446509Y-94133013D01*
X105763434Y-94344775D01*
X106115581Y-94490639D01*
X106489419Y-94565000D01*
X106870581Y-94565000D01*
X107244419Y-94490639D01*
X107374141Y-94436907D01*
X107427759Y-94502241D01*
X107828990Y-94831522D01*
X108286751Y-95076201D01*
X108783451Y-95226873D01*
X109300000Y-95277748D01*
X109816549Y-95226873D01*
X110313249Y-95076201D01*
X110771010Y-94831522D01*
X111071697Y-94584755D01*
X111411452Y-94245000D01*
X133860000Y-94245000D01*
X133860000Y-94704464D01*
X133791414Y-94807111D01*
X133720932Y-94977271D01*
X133685000Y-95157911D01*
X133685000Y-95342089D01*
X133720932Y-95522729D01*
X133791414Y-95692889D01*
X133860000Y-95795536D01*
X133860001Y-99784464D01*
X133791414Y-99887111D01*
X133720932Y-100057271D01*
X133685000Y-100237911D01*
X133685000Y-100422089D01*
X133720932Y-100602729D01*
X133791414Y-100772889D01*
X133860001Y-100875537D01*
X133860001Y-102555196D01*
X131928351Y-104486847D01*
X131807271Y-104510932D01*
X131637111Y-104581414D01*
X131483972Y-104683738D01*
X131353738Y-104813972D01*
X131251414Y-104967111D01*
X131180932Y-105137271D01*
X131145000Y-105317911D01*
X131145000Y-105502089D01*
X131180932Y-105682729D01*
X131251414Y-105852889D01*
X131353738Y-106006028D01*
X131483972Y-106136262D01*
X131637111Y-106238586D01*
X131807271Y-106309068D01*
X131987911Y-106345000D01*
X132172089Y-106345000D01*
X132352729Y-106309068D01*
X132522889Y-106238586D01*
X132676028Y-106136262D01*
X132806262Y-106006028D01*
X132908586Y-105852889D01*
X132979068Y-105682729D01*
X133003153Y-105561649D01*
X135131008Y-103433795D01*
X135160001Y-103410001D01*
X135183795Y-103381008D01*
X135183799Y-103381004D01*
X135254973Y-103294277D01*
X135308349Y-103194419D01*
X135325546Y-103162247D01*
X135369003Y-103018986D01*
X135380000Y-102907333D01*
X135380000Y-102907324D01*
X135383676Y-102870001D01*
X135380000Y-102832678D01*
X135380000Y-100875535D01*
X135448586Y-100772889D01*
X135519068Y-100602729D01*
X135555000Y-100422089D01*
X135555000Y-100237911D01*
X135519068Y-100057271D01*
X135448586Y-99887111D01*
X135380000Y-99784465D01*
X135380000Y-95795535D01*
X135448586Y-95692889D01*
X135519068Y-95522729D01*
X135555000Y-95342089D01*
X135555000Y-95157911D01*
X135519068Y-94977271D01*
X135448586Y-94807111D01*
X135380000Y-94704465D01*
X135380000Y-94044290D01*
X135476927Y-93992481D01*
X135710661Y-93800661D01*
X135902481Y-93566927D01*
X136045017Y-93300261D01*
X136132790Y-93010913D01*
X136162427Y-92710000D01*
X136132790Y-92409087D01*
X136100886Y-92303915D01*
X136400001Y-92004801D01*
X136400001Y-92672667D01*
X136396324Y-92710000D01*
X136410998Y-92858985D01*
X136454454Y-93002246D01*
X136525026Y-93134276D01*
X136574385Y-93194419D01*
X136620000Y-93250001D01*
X136648998Y-93273799D01*
X137866201Y-94491003D01*
X137889999Y-94520001D01*
X138005724Y-94614974D01*
X138137753Y-94685546D01*
X138281014Y-94729003D01*
X138392667Y-94740000D01*
X138392676Y-94740000D01*
X138423875Y-94743073D01*
X138546525Y-94926632D01*
X138753368Y-95133475D01*
X138927760Y-95250000D01*
X138753368Y-95366525D01*
X138546525Y-95573368D01*
X138384010Y-95816589D01*
X138272068Y-96086842D01*
X138215000Y-96373740D01*
X138215000Y-96666260D01*
X138272068Y-96953158D01*
X138384010Y-97223411D01*
X138546525Y-97466632D01*
X138753368Y-97673475D01*
X138927760Y-97790000D01*
X138753368Y-97906525D01*
X138546525Y-98113368D01*
X138384010Y-98356589D01*
X138272068Y-98626842D01*
X138215000Y-98913740D01*
X138215000Y-99206260D01*
X138272068Y-99493158D01*
X138384010Y-99763411D01*
X138546525Y-100006632D01*
X138753368Y-100213475D01*
X138927760Y-100330000D01*
X138753368Y-100446525D01*
X138546525Y-100653368D01*
X138384010Y-100896589D01*
X138272068Y-101166842D01*
X138215000Y-101453740D01*
X138215000Y-101746260D01*
X138272068Y-102033158D01*
X138384010Y-102303411D01*
X138546525Y-102546632D01*
X138753368Y-102753475D01*
X138927760Y-102870000D01*
X138753368Y-102986525D01*
X138546525Y-103193368D01*
X138384010Y-103436589D01*
X138272068Y-103706842D01*
X138215000Y-103993740D01*
X138215000Y-104286260D01*
X138272068Y-104573158D01*
X138384010Y-104843411D01*
X138546525Y-105086632D01*
X138753368Y-105293475D01*
X138927760Y-105410000D01*
X138753368Y-105526525D01*
X138546525Y-105733368D01*
X138384010Y-105976589D01*
X138272068Y-106246842D01*
X138215000Y-106533740D01*
X138215000Y-106826260D01*
X138272068Y-107113158D01*
X138384010Y-107383411D01*
X138546525Y-107626632D01*
X138753368Y-107833475D01*
X138996589Y-107995990D01*
X139266842Y-108107932D01*
X139553740Y-108165000D01*
X139846260Y-108165000D01*
X140133158Y-108107932D01*
X140403411Y-107995990D01*
X140646632Y-107833475D01*
X140853475Y-107626632D01*
X141015990Y-107383411D01*
X141127932Y-107113158D01*
X141185000Y-106826260D01*
X141185000Y-106533740D01*
X141127932Y-106246842D01*
X141027495Y-106004364D01*
X143220000Y-106004364D01*
X143220000Y-107355635D01*
X143242572Y-107584812D01*
X143331774Y-107878874D01*
X143476631Y-108149882D01*
X143671576Y-108387424D01*
X143909117Y-108582369D01*
X144180125Y-108727226D01*
X144474187Y-108816428D01*
X144780000Y-108846548D01*
X145085812Y-108816428D01*
X145379874Y-108727226D01*
X145650882Y-108582369D01*
X145888424Y-108387424D01*
X146083369Y-108149883D01*
X146228226Y-107878875D01*
X146317428Y-107584813D01*
X146340000Y-107355636D01*
X146340000Y-106807000D01*
X148220000Y-106807000D01*
X148220000Y-107406000D01*
X148274751Y-107707901D01*
X148387348Y-107993319D01*
X148553464Y-108251286D01*
X148766715Y-108471889D01*
X149018906Y-108646650D01*
X149300345Y-108768853D01*
X149411336Y-108794812D01*
X149653000Y-108674483D01*
X149653000Y-106807000D01*
X149907000Y-106807000D01*
X149907000Y-108674483D01*
X150148664Y-108794812D01*
X150259655Y-108768853D01*
X150541094Y-108646650D01*
X150793285Y-108471889D01*
X151006536Y-108251286D01*
X151172652Y-107993319D01*
X151285249Y-107707901D01*
X151340000Y-107406000D01*
X151340000Y-106807000D01*
X149907000Y-106807000D01*
X149653000Y-106807000D01*
X148220000Y-106807000D01*
X146340000Y-106807000D01*
X146340000Y-106004364D01*
X146335040Y-105954000D01*
X148220000Y-105954000D01*
X148220000Y-106553000D01*
X149653000Y-106553000D01*
X149653000Y-104685517D01*
X149907000Y-104685517D01*
X149907000Y-106553000D01*
X151340000Y-106553000D01*
X151340000Y-105954000D01*
X151285249Y-105652099D01*
X151172652Y-105366681D01*
X151006536Y-105108714D01*
X150793285Y-104888111D01*
X150541094Y-104713350D01*
X150259655Y-104591147D01*
X150148664Y-104565188D01*
X149907000Y-104685517D01*
X149653000Y-104685517D01*
X149411336Y-104565188D01*
X149300345Y-104591147D01*
X149018906Y-104713350D01*
X148766715Y-104888111D01*
X148553464Y-105108714D01*
X148387348Y-105366681D01*
X148274751Y-105652099D01*
X148220000Y-105954000D01*
X146335040Y-105954000D01*
X146317428Y-105775187D01*
X146228226Y-105481125D01*
X146083369Y-105210117D01*
X145888424Y-104972576D01*
X145650883Y-104777631D01*
X145379875Y-104632774D01*
X145085813Y-104543572D01*
X144780000Y-104513452D01*
X144474188Y-104543572D01*
X144180126Y-104632774D01*
X143909118Y-104777631D01*
X143671577Y-104972576D01*
X143476632Y-105210117D01*
X143331774Y-105481125D01*
X143242572Y-105775187D01*
X143220000Y-106004364D01*
X141027495Y-106004364D01*
X141015990Y-105976589D01*
X140853475Y-105733368D01*
X140646632Y-105526525D01*
X140472240Y-105410000D01*
X140646632Y-105293475D01*
X140853475Y-105086632D01*
X141015990Y-104843411D01*
X141127932Y-104573158D01*
X141185000Y-104286260D01*
X141185000Y-103993740D01*
X141127932Y-103706842D01*
X141015990Y-103436589D01*
X140853475Y-103193368D01*
X140646632Y-102986525D01*
X140472240Y-102870000D01*
X140646632Y-102753475D01*
X140853475Y-102546632D01*
X141015990Y-102303411D01*
X141127932Y-102033158D01*
X141185000Y-101746260D01*
X141185000Y-101453740D01*
X141127932Y-101166842D01*
X141015990Y-100896589D01*
X140853475Y-100653368D01*
X140646632Y-100446525D01*
X140472240Y-100330000D01*
X140646632Y-100213475D01*
X140853475Y-100006632D01*
X141015990Y-99763411D01*
X141127932Y-99493158D01*
X141185000Y-99206260D01*
X141185000Y-98913740D01*
X141127932Y-98626842D01*
X141015990Y-98356589D01*
X140853475Y-98113368D01*
X140646632Y-97906525D01*
X140472240Y-97790000D01*
X140646632Y-97673475D01*
X140853475Y-97466632D01*
X141015990Y-97223411D01*
X141127932Y-96953158D01*
X141185000Y-96666260D01*
X141185000Y-96373740D01*
X141127932Y-96086842D01*
X141015990Y-95816589D01*
X140900913Y-95644364D01*
X143220000Y-95644364D01*
X143220000Y-96995635D01*
X143242572Y-97224812D01*
X143331774Y-97518874D01*
X143476631Y-97789882D01*
X143671576Y-98027424D01*
X143909117Y-98222369D01*
X144180125Y-98367226D01*
X144474187Y-98456428D01*
X144780000Y-98486548D01*
X145085812Y-98456428D01*
X145379874Y-98367226D01*
X145650882Y-98222369D01*
X145888424Y-98027424D01*
X146083369Y-97789883D01*
X146228226Y-97518875D01*
X146317428Y-97224813D01*
X146340000Y-96995636D01*
X146340000Y-96447000D01*
X148220000Y-96447000D01*
X148220000Y-97046000D01*
X148274751Y-97347901D01*
X148387348Y-97633319D01*
X148553464Y-97891286D01*
X148766715Y-98111889D01*
X149018906Y-98286650D01*
X149300345Y-98408853D01*
X149411336Y-98434812D01*
X149653000Y-98314483D01*
X149653000Y-96447000D01*
X149907000Y-96447000D01*
X149907000Y-98314483D01*
X150148664Y-98434812D01*
X150259655Y-98408853D01*
X150541094Y-98286650D01*
X150793285Y-98111889D01*
X151006536Y-97891286D01*
X151172652Y-97633319D01*
X151285249Y-97347901D01*
X151340000Y-97046000D01*
X151340000Y-96447000D01*
X149907000Y-96447000D01*
X149653000Y-96447000D01*
X148220000Y-96447000D01*
X146340000Y-96447000D01*
X146340000Y-95644364D01*
X146335040Y-95594000D01*
X148220000Y-95594000D01*
X148220000Y-96193000D01*
X149653000Y-96193000D01*
X149653000Y-94325517D01*
X149907000Y-94325517D01*
X149907000Y-96193000D01*
X151340000Y-96193000D01*
X151340000Y-95594000D01*
X151285249Y-95292099D01*
X151172652Y-95006681D01*
X151006536Y-94748714D01*
X150793285Y-94528111D01*
X150541094Y-94353350D01*
X150259655Y-94231147D01*
X150148664Y-94205188D01*
X149907000Y-94325517D01*
X149653000Y-94325517D01*
X149411336Y-94205188D01*
X149300345Y-94231147D01*
X149018906Y-94353350D01*
X148766715Y-94528111D01*
X148553464Y-94748714D01*
X148387348Y-95006681D01*
X148274751Y-95292099D01*
X148220000Y-95594000D01*
X146335040Y-95594000D01*
X146317428Y-95415187D01*
X146228226Y-95121125D01*
X146083369Y-94850117D01*
X145888424Y-94612576D01*
X145650883Y-94417631D01*
X145379875Y-94272774D01*
X145085813Y-94183572D01*
X144780000Y-94153452D01*
X144474188Y-94183572D01*
X144180126Y-94272774D01*
X143909118Y-94417631D01*
X143671577Y-94612576D01*
X143476632Y-94850117D01*
X143331774Y-95121125D01*
X143242572Y-95415187D01*
X143220000Y-95644364D01*
X140900913Y-95644364D01*
X140853475Y-95573368D01*
X140646632Y-95366525D01*
X140472240Y-95250000D01*
X140646632Y-95133475D01*
X140853475Y-94926632D01*
X141015990Y-94683411D01*
X141127932Y-94413158D01*
X141185000Y-94126260D01*
X141185000Y-93833740D01*
X141127932Y-93546842D01*
X141015990Y-93276589D01*
X140853475Y-93033368D01*
X140646632Y-92826525D01*
X140472240Y-92710000D01*
X140646632Y-92593475D01*
X140853475Y-92386632D01*
X141015990Y-92143411D01*
X141127932Y-91873158D01*
X141185000Y-91586260D01*
X141185000Y-91293740D01*
X141127932Y-91006842D01*
X141015990Y-90736589D01*
X140853475Y-90493368D01*
X140646632Y-90286525D01*
X140472240Y-90170000D01*
X140646632Y-90053475D01*
X140853475Y-89846632D01*
X141015990Y-89603411D01*
X141127932Y-89333158D01*
X141185000Y-89046260D01*
X141185000Y-88753740D01*
X141127932Y-88466842D01*
X141015990Y-88196589D01*
X140853475Y-87953368D01*
X140646632Y-87746525D01*
X140472240Y-87630000D01*
X140646632Y-87513475D01*
X140853475Y-87306632D01*
X141015990Y-87063411D01*
X141127932Y-86793158D01*
X141185000Y-86506260D01*
X141185000Y-86213740D01*
X141127932Y-85926842D01*
X141015990Y-85656589D01*
X140853475Y-85413368D01*
X140646632Y-85206525D01*
X140472240Y-85090000D01*
X140646632Y-84973475D01*
X140853475Y-84766632D01*
X141015990Y-84523411D01*
X141127932Y-84253158D01*
X141185000Y-83966260D01*
X141185000Y-83673740D01*
X141127932Y-83386842D01*
X141027495Y-83144364D01*
X143220000Y-83144364D01*
X143220000Y-84495635D01*
X143242572Y-84724812D01*
X143331774Y-85018874D01*
X143476631Y-85289882D01*
X143671576Y-85527424D01*
X143909117Y-85722369D01*
X144180125Y-85867226D01*
X144474187Y-85956428D01*
X144780000Y-85986548D01*
X145085812Y-85956428D01*
X145379874Y-85867226D01*
X145650882Y-85722369D01*
X145888424Y-85527424D01*
X146083369Y-85289883D01*
X146228226Y-85018875D01*
X146317428Y-84724813D01*
X146340000Y-84495636D01*
X146340000Y-83947000D01*
X148220000Y-83947000D01*
X148220000Y-84546000D01*
X148274751Y-84847901D01*
X148387348Y-85133319D01*
X148553464Y-85391286D01*
X148766715Y-85611889D01*
X149018906Y-85786650D01*
X149300345Y-85908853D01*
X149411336Y-85934812D01*
X149653000Y-85814483D01*
X149653000Y-83947000D01*
X149907000Y-83947000D01*
X149907000Y-85814483D01*
X150148664Y-85934812D01*
X150259655Y-85908853D01*
X150541094Y-85786650D01*
X150793285Y-85611889D01*
X151006536Y-85391286D01*
X151172652Y-85133319D01*
X151285249Y-84847901D01*
X151340000Y-84546000D01*
X151340000Y-83947000D01*
X149907000Y-83947000D01*
X149653000Y-83947000D01*
X148220000Y-83947000D01*
X146340000Y-83947000D01*
X146340000Y-83144364D01*
X146335040Y-83094000D01*
X148220000Y-83094000D01*
X148220000Y-83693000D01*
X149653000Y-83693000D01*
X149653000Y-81825517D01*
X149907000Y-81825517D01*
X149907000Y-83693000D01*
X151340000Y-83693000D01*
X151340000Y-83094000D01*
X151285249Y-82792099D01*
X151172652Y-82506681D01*
X151006536Y-82248714D01*
X150793285Y-82028111D01*
X150541094Y-81853350D01*
X150259655Y-81731147D01*
X150148664Y-81705188D01*
X149907000Y-81825517D01*
X149653000Y-81825517D01*
X149411336Y-81705188D01*
X149300345Y-81731147D01*
X149018906Y-81853350D01*
X148766715Y-82028111D01*
X148553464Y-82248714D01*
X148387348Y-82506681D01*
X148274751Y-82792099D01*
X148220000Y-83094000D01*
X146335040Y-83094000D01*
X146317428Y-82915187D01*
X146228226Y-82621125D01*
X146083369Y-82350117D01*
X145888424Y-82112576D01*
X145650883Y-81917631D01*
X145379875Y-81772774D01*
X145085813Y-81683572D01*
X144780000Y-81653452D01*
X144474188Y-81683572D01*
X144180126Y-81772774D01*
X143909118Y-81917631D01*
X143671577Y-82112576D01*
X143476632Y-82350117D01*
X143331774Y-82621125D01*
X143242572Y-82915187D01*
X143220000Y-83144364D01*
X141027495Y-83144364D01*
X141015990Y-83116589D01*
X140853475Y-82873368D01*
X140646632Y-82666525D01*
X140472240Y-82550000D01*
X140646632Y-82433475D01*
X140853475Y-82226632D01*
X140978178Y-82040000D01*
X142202667Y-82040000D01*
X142240000Y-82043677D01*
X142388986Y-82029003D01*
X142532247Y-81985546D01*
X142664276Y-81914974D01*
X142780001Y-81820001D01*
X142874974Y-81704276D01*
X142945546Y-81572247D01*
X142989003Y-81428986D01*
X143000000Y-81317333D01*
X143003677Y-81280000D01*
X143000000Y-81242667D01*
X143000000Y-77864364D01*
X143220000Y-77864364D01*
X143220000Y-79215635D01*
X143242572Y-79444812D01*
X143331774Y-79738874D01*
X143476631Y-80009882D01*
X143671576Y-80247424D01*
X143909117Y-80442369D01*
X144180125Y-80587226D01*
X144474187Y-80676428D01*
X144780000Y-80706548D01*
X145085812Y-80676428D01*
X145379874Y-80587226D01*
X145650882Y-80442369D01*
X145888424Y-80247424D01*
X146083369Y-80009883D01*
X146228226Y-79738875D01*
X146317428Y-79444813D01*
X146340000Y-79215636D01*
X146340000Y-78667000D01*
X148220000Y-78667000D01*
X148220000Y-79266000D01*
X148274751Y-79567901D01*
X148387348Y-79853319D01*
X148553464Y-80111286D01*
X148766715Y-80331889D01*
X149018906Y-80506650D01*
X149300345Y-80628853D01*
X149411336Y-80654812D01*
X149653000Y-80534483D01*
X149653000Y-78667000D01*
X149907000Y-78667000D01*
X149907000Y-80534483D01*
X150148664Y-80654812D01*
X150259655Y-80628853D01*
X150541094Y-80506650D01*
X150793285Y-80331889D01*
X151006536Y-80111286D01*
X151172652Y-79853319D01*
X151285249Y-79567901D01*
X151340000Y-79266000D01*
X151340000Y-78667000D01*
X149907000Y-78667000D01*
X149653000Y-78667000D01*
X148220000Y-78667000D01*
X146340000Y-78667000D01*
X146340000Y-77864364D01*
X146335040Y-77814000D01*
X148220000Y-77814000D01*
X148220000Y-78413000D01*
X149653000Y-78413000D01*
X149653000Y-76545517D01*
X149907000Y-76545517D01*
X149907000Y-78413000D01*
X151340000Y-78413000D01*
X151340000Y-77814000D01*
X151285249Y-77512099D01*
X151172652Y-77226681D01*
X151006536Y-76968714D01*
X150793285Y-76748111D01*
X150541094Y-76573350D01*
X150259655Y-76451147D01*
X150148664Y-76425188D01*
X149907000Y-76545517D01*
X149653000Y-76545517D01*
X149411336Y-76425188D01*
X149300345Y-76451147D01*
X149018906Y-76573350D01*
X148766715Y-76748111D01*
X148553464Y-76968714D01*
X148387348Y-77226681D01*
X148274751Y-77512099D01*
X148220000Y-77814000D01*
X146335040Y-77814000D01*
X146317428Y-77635187D01*
X146228226Y-77341125D01*
X146083369Y-77070117D01*
X145888424Y-76832576D01*
X145650883Y-76637631D01*
X145379875Y-76492774D01*
X145085813Y-76403572D01*
X144780000Y-76373452D01*
X144474188Y-76403572D01*
X144180126Y-76492774D01*
X143909118Y-76637631D01*
X143671577Y-76832576D01*
X143476632Y-77070117D01*
X143331774Y-77341125D01*
X143242572Y-77635187D01*
X143220000Y-77864364D01*
X143000000Y-77864364D01*
X143000000Y-70270000D01*
X153197928Y-70270000D01*
X153197928Y-71970000D01*
X153210188Y-72094482D01*
X153246498Y-72214180D01*
X153305463Y-72324494D01*
X153384815Y-72421185D01*
X153481506Y-72500537D01*
X153591820Y-72559502D01*
X153672466Y-72583966D01*
X153588412Y-72659731D01*
X153414359Y-72893080D01*
X153289175Y-73155901D01*
X153244524Y-73303110D01*
X153365845Y-73533000D01*
X154559000Y-73533000D01*
X154559000Y-73513000D01*
X154813000Y-73513000D01*
X154813000Y-73533000D01*
X156006155Y-73533000D01*
X156127476Y-73303110D01*
X156082825Y-73155901D01*
X155957641Y-72893080D01*
X155783588Y-72659731D01*
X155699534Y-72583966D01*
X155780180Y-72559502D01*
X155890494Y-72500537D01*
X155987185Y-72421185D01*
X156066537Y-72324494D01*
X156125502Y-72214180D01*
X156161812Y-72094482D01*
X156174072Y-71970000D01*
X156174072Y-70270000D01*
X156161812Y-70145518D01*
X156125502Y-70025820D01*
X156066537Y-69915506D01*
X155987185Y-69818815D01*
X155890494Y-69739463D01*
X155780180Y-69680498D01*
X155660482Y-69644188D01*
X155536000Y-69631928D01*
X153836000Y-69631928D01*
X153711518Y-69644188D01*
X153591820Y-69680498D01*
X153481506Y-69739463D01*
X153384815Y-69818815D01*
X153305463Y-69915506D01*
X153246498Y-70025820D01*
X153210188Y-70145518D01*
X153197928Y-70270000D01*
X143000000Y-70270000D01*
X143000000Y-68617333D01*
X143003677Y-68580000D01*
X142989003Y-68431014D01*
X142945546Y-68287753D01*
X142874974Y-68155724D01*
X142780001Y-68039999D01*
X142664276Y-67945026D01*
X142532247Y-67874454D01*
X142388986Y-67830997D01*
X142277333Y-67820000D01*
X142240000Y-67816323D01*
X142202667Y-67820000D01*
X138557921Y-67820000D01*
X138520588Y-67816323D01*
X138483255Y-67820000D01*
X138371602Y-67830997D01*
X138228341Y-67874454D01*
X138096312Y-67945026D01*
X137980587Y-68039999D01*
X137956789Y-68068997D01*
X129315787Y-76710000D01*
X128396103Y-76710000D01*
X128427932Y-76633158D01*
X128485000Y-76346260D01*
X128485000Y-76053740D01*
X128441209Y-75833592D01*
X137474802Y-66800000D01*
X139662678Y-66800000D01*
X139700000Y-66803676D01*
X139737322Y-66800000D01*
X139737333Y-66800000D01*
X139848986Y-66789003D01*
X139992247Y-66745546D01*
X140124276Y-66674974D01*
X140240001Y-66580001D01*
X140263804Y-66550997D01*
X142554803Y-64260000D01*
X143760011Y-64260000D01*
X143671577Y-64332576D01*
X143476632Y-64570117D01*
X143331774Y-64841125D01*
X143242572Y-65135187D01*
X143220000Y-65364364D01*
X143220000Y-66715635D01*
X143242572Y-66944812D01*
X143331774Y-67238874D01*
X143476631Y-67509882D01*
X143671576Y-67747424D01*
X143909117Y-67942369D01*
X144180125Y-68087226D01*
X144474187Y-68176428D01*
X144780000Y-68206548D01*
X145085812Y-68176428D01*
X145379874Y-68087226D01*
X145650882Y-67942369D01*
X145888424Y-67747424D01*
X146083369Y-67509883D01*
X146228226Y-67238875D01*
X146317428Y-66944813D01*
X146340000Y-66715636D01*
X146340000Y-66167000D01*
X148220000Y-66167000D01*
X148220000Y-66766000D01*
X148274751Y-67067901D01*
X148387348Y-67353319D01*
X148553464Y-67611286D01*
X148766715Y-67831889D01*
X149018906Y-68006650D01*
X149300345Y-68128853D01*
X149411336Y-68154812D01*
X149653000Y-68034483D01*
X149653000Y-66167000D01*
X149907000Y-66167000D01*
X149907000Y-68034483D01*
X150148664Y-68154812D01*
X150259655Y-68128853D01*
X150541094Y-68006650D01*
X150793285Y-67831889D01*
X151006536Y-67611286D01*
X151172652Y-67353319D01*
X151285249Y-67067901D01*
X151340000Y-66766000D01*
X151340000Y-66167000D01*
X149907000Y-66167000D01*
X149653000Y-66167000D01*
X148220000Y-66167000D01*
X146340000Y-66167000D01*
X146340000Y-65364364D01*
X146317428Y-65135187D01*
X146228226Y-64841125D01*
X146083369Y-64570117D01*
X145888424Y-64332576D01*
X145799990Y-64260000D01*
X148755222Y-64260000D01*
X148553464Y-64468714D01*
X148387348Y-64726681D01*
X148274751Y-65012099D01*
X148220000Y-65314000D01*
X148220000Y-65913000D01*
X149653000Y-65913000D01*
X149653000Y-65893000D01*
X149907000Y-65893000D01*
X149907000Y-65913000D01*
X151340000Y-65913000D01*
X151340000Y-65314000D01*
X151285249Y-65012099D01*
X151172652Y-64726681D01*
X151006536Y-64468714D01*
X150804778Y-64260000D01*
X150815199Y-64260000D01*
X157990000Y-71434802D01*
X157990001Y-77155197D01*
X157038199Y-78107000D01*
X156031155Y-78107000D01*
X156001990Y-78036589D01*
X155839475Y-77793368D01*
X155632632Y-77586525D01*
X155458240Y-77470000D01*
X155632632Y-77353475D01*
X155839475Y-77146632D01*
X156001990Y-76903411D01*
X156113932Y-76633158D01*
X156171000Y-76346260D01*
X156171000Y-76053740D01*
X156113932Y-75766842D01*
X156001990Y-75496589D01*
X155839475Y-75253368D01*
X155632632Y-75046525D01*
X155450466Y-74924805D01*
X155567355Y-74855178D01*
X155783588Y-74660269D01*
X155957641Y-74426920D01*
X156082825Y-74164099D01*
X156127476Y-74016890D01*
X156006155Y-73787000D01*
X154813000Y-73787000D01*
X154813000Y-73807000D01*
X154559000Y-73807000D01*
X154559000Y-73787000D01*
X153365845Y-73787000D01*
X153244524Y-74016890D01*
X153289175Y-74164099D01*
X153414359Y-74426920D01*
X153588412Y-74660269D01*
X153804645Y-74855178D01*
X153921534Y-74924805D01*
X153739368Y-75046525D01*
X153532525Y-75253368D01*
X153370010Y-75496589D01*
X153258068Y-75766842D01*
X153201000Y-76053740D01*
X153201000Y-76346260D01*
X153258068Y-76633158D01*
X153370010Y-76903411D01*
X153532525Y-77146632D01*
X153739368Y-77353475D01*
X153913760Y-77470000D01*
X153739368Y-77586525D01*
X153532525Y-77793368D01*
X153370010Y-78036589D01*
X153258068Y-78306842D01*
X153201000Y-78593740D01*
X153201000Y-78886260D01*
X153258068Y-79173158D01*
X153370010Y-79443411D01*
X153532525Y-79686632D01*
X153739368Y-79893475D01*
X153913760Y-80010000D01*
X153739368Y-80126525D01*
X153532525Y-80333368D01*
X153370010Y-80576589D01*
X153258068Y-80846842D01*
X153201000Y-81133740D01*
X153201000Y-81426260D01*
X153258068Y-81713158D01*
X153370010Y-81983411D01*
X153532525Y-82226632D01*
X153739368Y-82433475D01*
X153913760Y-82550000D01*
X153739368Y-82666525D01*
X153532525Y-82873368D01*
X153370010Y-83116589D01*
X153258068Y-83386842D01*
X153201000Y-83673740D01*
X153201000Y-83966260D01*
X153258068Y-84253158D01*
X153370010Y-84523411D01*
X153532525Y-84766632D01*
X153739368Y-84973475D01*
X153913760Y-85090000D01*
X153739368Y-85206525D01*
X153532525Y-85413368D01*
X153370010Y-85656589D01*
X153258068Y-85926842D01*
X153201000Y-86213740D01*
X153201000Y-86506260D01*
X153258068Y-86793158D01*
X153370010Y-87063411D01*
X153532525Y-87306632D01*
X153739368Y-87513475D01*
X153913760Y-87630000D01*
X153739368Y-87746525D01*
X153532525Y-87953368D01*
X153370010Y-88196589D01*
X153258068Y-88466842D01*
X153201000Y-88753740D01*
X153201000Y-89046260D01*
X153258068Y-89333158D01*
X153370010Y-89603411D01*
X153532525Y-89846632D01*
X153739368Y-90053475D01*
X153913760Y-90170000D01*
X153739368Y-90286525D01*
X153532525Y-90493368D01*
X153370010Y-90736589D01*
X153258068Y-91006842D01*
X153201000Y-91293740D01*
X153201000Y-91586260D01*
X153258068Y-91873158D01*
X153370010Y-92143411D01*
X153532525Y-92386632D01*
X153739368Y-92593475D01*
X153913760Y-92710000D01*
X153739368Y-92826525D01*
X153532525Y-93033368D01*
X153370010Y-93276589D01*
X153258068Y-93546842D01*
X153201000Y-93833740D01*
X153201000Y-94126260D01*
X153258068Y-94413158D01*
X153370010Y-94683411D01*
X153532525Y-94926632D01*
X153739368Y-95133475D01*
X153913760Y-95250000D01*
X153739368Y-95366525D01*
X153532525Y-95573368D01*
X153370010Y-95816589D01*
X153258068Y-96086842D01*
X153201000Y-96373740D01*
X153201000Y-96666260D01*
X153258068Y-96953158D01*
X153370010Y-97223411D01*
X153532525Y-97466632D01*
X153739368Y-97673475D01*
X153913760Y-97790000D01*
X153739368Y-97906525D01*
X153532525Y-98113368D01*
X153370010Y-98356589D01*
X153258068Y-98626842D01*
X153201000Y-98913740D01*
X153201000Y-99206260D01*
X153258068Y-99493158D01*
X153370010Y-99763411D01*
X153532525Y-100006632D01*
X153739368Y-100213475D01*
X153913760Y-100330000D01*
X153739368Y-100446525D01*
X153532525Y-100653368D01*
X153370010Y-100896589D01*
X153258068Y-101166842D01*
X153201000Y-101453740D01*
X153201000Y-101746260D01*
X153258068Y-102033158D01*
X153370010Y-102303411D01*
X153532525Y-102546632D01*
X153739368Y-102753475D01*
X153913760Y-102870000D01*
X153739368Y-102986525D01*
X153532525Y-103193368D01*
X153370010Y-103436589D01*
X153258068Y-103706842D01*
X153201000Y-103993740D01*
X153201000Y-104286260D01*
X153258068Y-104573158D01*
X153370010Y-104843411D01*
X153532525Y-105086632D01*
X153739368Y-105293475D01*
X153913760Y-105410000D01*
X153739368Y-105526525D01*
X153532525Y-105733368D01*
X153370010Y-105976589D01*
X153258068Y-106246842D01*
X153201000Y-106533740D01*
X153201000Y-106826260D01*
X153258068Y-107113158D01*
X153370010Y-107383411D01*
X153532525Y-107626632D01*
X153739368Y-107833475D01*
X153982589Y-107995990D01*
X154252842Y-108107932D01*
X154539740Y-108165000D01*
X154832260Y-108165000D01*
X155119158Y-108107932D01*
X155389411Y-107995990D01*
X155632632Y-107833475D01*
X155839475Y-107626632D01*
X156001990Y-107383411D01*
X156113932Y-107113158D01*
X156171000Y-106826260D01*
X156171000Y-106533740D01*
X156113932Y-106246842D01*
X156001990Y-105976589D01*
X155839475Y-105733368D01*
X155632632Y-105526525D01*
X155458240Y-105410000D01*
X155632632Y-105293475D01*
X155839475Y-105086632D01*
X156001990Y-104843411D01*
X156113932Y-104573158D01*
X156171000Y-104286260D01*
X156171000Y-103993740D01*
X156113932Y-103706842D01*
X156001990Y-103436589D01*
X155839475Y-103193368D01*
X155632632Y-102986525D01*
X155458240Y-102870000D01*
X155632632Y-102753475D01*
X155839475Y-102546632D01*
X156001990Y-102303411D01*
X156113932Y-102033158D01*
X156171000Y-101746260D01*
X156171000Y-101453740D01*
X156113932Y-101166842D01*
X156001990Y-100896589D01*
X155839475Y-100653368D01*
X155632632Y-100446525D01*
X155458240Y-100330000D01*
X155632632Y-100213475D01*
X155839475Y-100006632D01*
X156001990Y-99763411D01*
X156113932Y-99493158D01*
X156171000Y-99206260D01*
X156171000Y-98913740D01*
X156113932Y-98626842D01*
X156001990Y-98356589D01*
X155839475Y-98113368D01*
X155632632Y-97906525D01*
X155458240Y-97790000D01*
X155632632Y-97673475D01*
X155839475Y-97466632D01*
X156001990Y-97223411D01*
X156113932Y-96953158D01*
X156171000Y-96666260D01*
X156171000Y-96373740D01*
X156113932Y-96086842D01*
X156001990Y-95816589D01*
X155839475Y-95573368D01*
X155632632Y-95366525D01*
X155458240Y-95250000D01*
X155632632Y-95133475D01*
X155839475Y-94926632D01*
X156001990Y-94683411D01*
X156113932Y-94413158D01*
X156171000Y-94126260D01*
X156171000Y-93833740D01*
X156113932Y-93546842D01*
X156001990Y-93276589D01*
X155839475Y-93033368D01*
X155632632Y-92826525D01*
X155458240Y-92710000D01*
X155632632Y-92593475D01*
X155839475Y-92386632D01*
X156001990Y-92143411D01*
X156113932Y-91873158D01*
X156171000Y-91586260D01*
X156171000Y-91293740D01*
X156113932Y-91006842D01*
X156001990Y-90736589D01*
X155839475Y-90493368D01*
X155632632Y-90286525D01*
X155458240Y-90170000D01*
X155632632Y-90053475D01*
X155839475Y-89846632D01*
X156001990Y-89603411D01*
X156113932Y-89333158D01*
X156171000Y-89046260D01*
X156171000Y-88753740D01*
X156113932Y-88466842D01*
X156001990Y-88196589D01*
X155839475Y-87953368D01*
X155632632Y-87746525D01*
X155458240Y-87630000D01*
X155632632Y-87513475D01*
X155839475Y-87306632D01*
X156001990Y-87063411D01*
X156113932Y-86793158D01*
X156171000Y-86506260D01*
X156171000Y-86213740D01*
X156113932Y-85926842D01*
X156001990Y-85656589D01*
X155839475Y-85413368D01*
X155632632Y-85206525D01*
X155458240Y-85090000D01*
X155632632Y-84973475D01*
X155839475Y-84766632D01*
X156001990Y-84523411D01*
X156113932Y-84253158D01*
X156171000Y-83966260D01*
X156171000Y-83673740D01*
X156113932Y-83386842D01*
X156001990Y-83116589D01*
X155839475Y-82873368D01*
X155632632Y-82666525D01*
X155458240Y-82550000D01*
X155632632Y-82433475D01*
X155839475Y-82226632D01*
X156001990Y-81983411D01*
X156113932Y-81713158D01*
X156171000Y-81426260D01*
X156171000Y-81133740D01*
X156113932Y-80846842D01*
X156001990Y-80576589D01*
X155839475Y-80333368D01*
X155632632Y-80126525D01*
X155458240Y-80010000D01*
X155632632Y-79893475D01*
X155839475Y-79686632D01*
X155879320Y-79627000D01*
X157315678Y-79627000D01*
X157353000Y-79630676D01*
X157390322Y-79627000D01*
X157390333Y-79627000D01*
X157501986Y-79616003D01*
X157645247Y-79572546D01*
X157777276Y-79501974D01*
X157893001Y-79407001D01*
X157916804Y-79377997D01*
X159261003Y-78033799D01*
X159290001Y-78010001D01*
X159384974Y-77894276D01*
X159455546Y-77762247D01*
X159499003Y-77618986D01*
X159510000Y-77507333D01*
X159510000Y-77507324D01*
X159513676Y-77470001D01*
X159510000Y-77432678D01*
X159510000Y-71157322D01*
X159513676Y-71119999D01*
X159510000Y-71082676D01*
X159510000Y-71082667D01*
X159499003Y-70971014D01*
X159455546Y-70827753D01*
X159384974Y-70695724D01*
X159290001Y-70579999D01*
X159261004Y-70556202D01*
X151693804Y-62989003D01*
X151670001Y-62959999D01*
X151554276Y-62865026D01*
X151422247Y-62794454D01*
X151278986Y-62750997D01*
X151167333Y-62740000D01*
X151167322Y-62740000D01*
X151130000Y-62736324D01*
X151092678Y-62740000D01*
X142277322Y-62740000D01*
X142239999Y-62736324D01*
X142202676Y-62740000D01*
X142202667Y-62740000D01*
X142091014Y-62750997D01*
X141947753Y-62794454D01*
X141815724Y-62865026D01*
X141815722Y-62865027D01*
X141815723Y-62865027D01*
X141728996Y-62936201D01*
X141728992Y-62936205D01*
X141699999Y-62959999D01*
X141676205Y-62988992D01*
X139385199Y-65280000D01*
X137197325Y-65280000D01*
X137160000Y-65276324D01*
X137122675Y-65280000D01*
X137122667Y-65280000D01*
X137011014Y-65290997D01*
X136867753Y-65334454D01*
X136735724Y-65405026D01*
X136619999Y-65499999D01*
X136596201Y-65528997D01*
X127366408Y-74758791D01*
X127146260Y-74715000D01*
X126853740Y-74715000D01*
X126566842Y-74772068D01*
X126296589Y-74884010D01*
X126053368Y-75046525D01*
X125846525Y-75253368D01*
X125724805Y-75435534D01*
X125655178Y-75318645D01*
X125460269Y-75102412D01*
X125226920Y-74928359D01*
X124964099Y-74803175D01*
X124816890Y-74758524D01*
X124587000Y-74879845D01*
X124587000Y-76073000D01*
X124607000Y-76073000D01*
X124607000Y-76327000D01*
X124587000Y-76327000D01*
X124587000Y-76347000D01*
X124333000Y-76347000D01*
X124333000Y-76327000D01*
X124313000Y-76327000D01*
X124313000Y-76073000D01*
X124333000Y-76073000D01*
X124333000Y-74879845D01*
X124103110Y-74758524D01*
X123955901Y-74803175D01*
X123693080Y-74928359D01*
X123459731Y-75102412D01*
X123264822Y-75318645D01*
X123195195Y-75435534D01*
X123073475Y-75253368D01*
X122866632Y-75046525D01*
X122623411Y-74884010D01*
X122353158Y-74772068D01*
X122066260Y-74715000D01*
X121773740Y-74715000D01*
X121486842Y-74772068D01*
X121216589Y-74884010D01*
X120973368Y-75046525D01*
X120841513Y-75178380D01*
X120819502Y-75105820D01*
X120760537Y-74995506D01*
X120681185Y-74898815D01*
X120584494Y-74819463D01*
X120474180Y-74760498D01*
X120354482Y-74724188D01*
X120230000Y-74711928D01*
X118530000Y-74711928D01*
X118405518Y-74724188D01*
X118285820Y-74760498D01*
X118175506Y-74819463D01*
X118078815Y-74898815D01*
X117999463Y-74995506D01*
X117940498Y-75105820D01*
X117904188Y-75225518D01*
X117891928Y-75350000D01*
X117891928Y-77050000D01*
X117904188Y-77174482D01*
X117940498Y-77294180D01*
X117999463Y-77404494D01*
X118078815Y-77501185D01*
X118175506Y-77580537D01*
X118285820Y-77639502D01*
X118405518Y-77675812D01*
X118530000Y-77688072D01*
X118651954Y-77688072D01*
X118674454Y-77762246D01*
X118745026Y-77894276D01*
X118809700Y-77973080D01*
X118840000Y-78010001D01*
X118868998Y-78033799D01*
X120086201Y-79251003D01*
X120109999Y-79280001D01*
X120225724Y-79374974D01*
X120357753Y-79445546D01*
X120501014Y-79489003D01*
X120612667Y-79500000D01*
X120612676Y-79500000D01*
X120649999Y-79503676D01*
X120687322Y-79500000D01*
X128959676Y-79500000D01*
X128996998Y-79503676D01*
X129034320Y-79500000D01*
X129034331Y-79500000D01*
X129145984Y-79489003D01*
X129289245Y-79445546D01*
X129421274Y-79374974D01*
X129536999Y-79280001D01*
X129560802Y-79250997D01*
X134972373Y-73839427D01*
X134990932Y-73932729D01*
X135061414Y-74102889D01*
X135130000Y-74205535D01*
X135130001Y-91125197D01*
X135026085Y-91229114D01*
X134920913Y-91197210D01*
X134695408Y-91175000D01*
X114481452Y-91175000D01*
X114801695Y-90854757D01*
X114902241Y-90772241D01*
X115231523Y-90371011D01*
X115476201Y-89913250D01*
X115626873Y-89416550D01*
X115665000Y-89029442D01*
X115665000Y-89029434D01*
X115677748Y-88900000D01*
X115665000Y-88770566D01*
X115665000Y-77690558D01*
X115626873Y-77303450D01*
X115476201Y-76806750D01*
X115231523Y-76348989D01*
X114902241Y-75947759D01*
X114501011Y-75618477D01*
X114043250Y-75373799D01*
X113546550Y-75223127D01*
X113442195Y-75212849D01*
X109988072Y-71758727D01*
X109988072Y-70640000D01*
X109975812Y-70515518D01*
X109939502Y-70395820D01*
X109880537Y-70285506D01*
X109801185Y-70188815D01*
X109704494Y-70109463D01*
X109594180Y-70050498D01*
X109474482Y-70014188D01*
X109350000Y-70001928D01*
X105850000Y-70001928D01*
X105725518Y-70014188D01*
X105605820Y-70050498D01*
X105495506Y-70109463D01*
X105398815Y-70188815D01*
X105319463Y-70285506D01*
X105260498Y-70395820D01*
X105224188Y-70515518D01*
X105211928Y-70640000D01*
X105211928Y-74140000D01*
X105224188Y-74264482D01*
X105260498Y-74384180D01*
X105319463Y-74494494D01*
X105398815Y-74591185D01*
X105495506Y-74670537D01*
X105572131Y-74711494D01*
X105475000Y-74701928D01*
X103725000Y-74701928D01*
X103429814Y-74731001D01*
X103145972Y-74817104D01*
X102884382Y-74956927D01*
X102655097Y-75145097D01*
X102466927Y-75374382D01*
X102327104Y-75635972D01*
X102241001Y-75919814D01*
X102211928Y-76215000D01*
X97205000Y-76215000D01*
X97205000Y-74140000D01*
X99461928Y-74140000D01*
X99474188Y-74264482D01*
X99510498Y-74384180D01*
X99569463Y-74494494D01*
X99648815Y-74591185D01*
X99745506Y-74670537D01*
X99855820Y-74729502D01*
X99975518Y-74765812D01*
X100100000Y-74778072D01*
X101314250Y-74775000D01*
X101473000Y-74616250D01*
X101473000Y-72517000D01*
X101727000Y-72517000D01*
X101727000Y-74616250D01*
X101885750Y-74775000D01*
X103100000Y-74778072D01*
X103224482Y-74765812D01*
X103344180Y-74729502D01*
X103454494Y-74670537D01*
X103551185Y-74591185D01*
X103630537Y-74494494D01*
X103689502Y-74384180D01*
X103725812Y-74264482D01*
X103738072Y-74140000D01*
X103735000Y-72675750D01*
X103576250Y-72517000D01*
X101727000Y-72517000D01*
X101473000Y-72517000D01*
X99623750Y-72517000D01*
X99465000Y-72675750D01*
X99461928Y-74140000D01*
X97205000Y-74140000D01*
X97205000Y-70640000D01*
X99461928Y-70640000D01*
X99465000Y-72104250D01*
X99623750Y-72263000D01*
X101473000Y-72263000D01*
X101473000Y-70163750D01*
X101727000Y-70163750D01*
X101727000Y-72263000D01*
X103576250Y-72263000D01*
X103735000Y-72104250D01*
X103738072Y-70640000D01*
X103725812Y-70515518D01*
X103689502Y-70395820D01*
X103630537Y-70285506D01*
X103551185Y-70188815D01*
X103454494Y-70109463D01*
X103344180Y-70050498D01*
X103224482Y-70014188D01*
X103100000Y-70001928D01*
X101885750Y-70005000D01*
X101727000Y-70163750D01*
X101473000Y-70163750D01*
X101314250Y-70005000D01*
X100100000Y-70001928D01*
X99975518Y-70014188D01*
X99855820Y-70050498D01*
X99745506Y-70109463D01*
X99648815Y-70188815D01*
X99569463Y-70285506D01*
X99510498Y-70395820D01*
X99474188Y-70515518D01*
X99461928Y-70640000D01*
X97205000Y-70640000D01*
X97205000Y-63345390D01*
X97393202Y-63799751D01*
X97755875Y-64342530D01*
X98217470Y-64804125D01*
X98760249Y-65166798D01*
X99363352Y-65416611D01*
X100003603Y-65543965D01*
X100656397Y-65543965D01*
X101296648Y-65416611D01*
X101899751Y-65166798D01*
X102442530Y-64804125D01*
X102904125Y-64342530D01*
X103266798Y-63799751D01*
X103516611Y-63196648D01*
X103643965Y-62556397D01*
X103643965Y-61903603D01*
X103516611Y-61263352D01*
X103266798Y-60660249D01*
X102904125Y-60117470D01*
X102442530Y-59655875D01*
X101899751Y-59293202D01*
X101445390Y-59105000D01*
X156364610Y-59105000D01*
X155910249Y-59293202D01*
%TA.AperFunction,Conductor*%
D24*
G36*
X155910249Y-59293202D02*
G01*
X155367470Y-59655875D01*
X154905875Y-60117470D01*
X154543202Y-60660249D01*
X154293389Y-61263352D01*
X154166035Y-61903603D01*
X154166035Y-62556397D01*
X154293389Y-63196648D01*
X154543202Y-63799751D01*
X154905875Y-64342530D01*
X155367470Y-64804125D01*
X155910249Y-65166798D01*
X156513352Y-65416611D01*
X157153603Y-65543965D01*
X157806397Y-65543965D01*
X158446648Y-65416611D01*
X159049751Y-65166798D01*
X159592530Y-64804125D01*
X160054125Y-64342530D01*
X160416798Y-63799751D01*
X160605001Y-63345388D01*
X160605000Y-119534610D01*
X160416798Y-119080249D01*
X160054125Y-118537470D01*
X159592530Y-118075875D01*
X159049751Y-117713202D01*
X158446648Y-117463389D01*
X157806397Y-117336035D01*
X157153603Y-117336035D01*
X156513352Y-117463389D01*
X155910249Y-117713202D01*
X155367470Y-118075875D01*
X154905875Y-118537470D01*
X154543202Y-119080249D01*
X154293389Y-119683352D01*
X154166035Y-120323603D01*
X154166035Y-120976397D01*
X154293389Y-121616648D01*
X154543202Y-122219751D01*
X154905875Y-122762530D01*
X155367470Y-123224125D01*
X155910249Y-123586798D01*
X156364610Y-123775000D01*
X101445390Y-123775000D01*
X101899751Y-123586798D01*
X102442530Y-123224125D01*
X102904125Y-122762530D01*
X103266798Y-122219751D01*
X103516611Y-121616648D01*
X103643965Y-120976397D01*
X103643965Y-120323603D01*
X103516611Y-119683352D01*
X103266798Y-119080249D01*
X102904125Y-118537470D01*
X102871019Y-118504364D01*
X143220000Y-118504364D01*
X143220000Y-119855635D01*
X143242572Y-120084812D01*
X143331774Y-120378874D01*
X143476631Y-120649882D01*
X143671576Y-120887424D01*
X143909117Y-121082369D01*
X144180125Y-121227226D01*
X144474187Y-121316428D01*
X144780000Y-121346548D01*
X145085812Y-121316428D01*
X145379874Y-121227226D01*
X145650882Y-121082369D01*
X145888424Y-120887424D01*
X146083369Y-120649883D01*
X146228226Y-120378875D01*
X146317428Y-120084813D01*
X146340000Y-119855636D01*
X146340000Y-119307000D01*
X148220000Y-119307000D01*
X148220000Y-119906000D01*
X148274751Y-120207901D01*
X148387348Y-120493319D01*
X148553464Y-120751286D01*
X148766715Y-120971889D01*
X149018906Y-121146650D01*
X149300345Y-121268853D01*
X149411336Y-121294812D01*
X149653000Y-121174483D01*
X149653000Y-119307000D01*
X149907000Y-119307000D01*
X149907000Y-121174483D01*
X150148664Y-121294812D01*
X150259655Y-121268853D01*
X150541094Y-121146650D01*
X150793285Y-120971889D01*
X151006536Y-120751286D01*
X151172652Y-120493319D01*
X151285249Y-120207901D01*
X151340000Y-119906000D01*
X151340000Y-119307000D01*
X149907000Y-119307000D01*
X149653000Y-119307000D01*
X148220000Y-119307000D01*
X146340000Y-119307000D01*
X146340000Y-118504364D01*
X146335040Y-118454000D01*
X148220000Y-118454000D01*
X148220000Y-119053000D01*
X149653000Y-119053000D01*
X149653000Y-117185517D01*
X149907000Y-117185517D01*
X149907000Y-119053000D01*
X151340000Y-119053000D01*
X151340000Y-118454000D01*
X151285249Y-118152099D01*
X151172652Y-117866681D01*
X151006536Y-117608714D01*
X150793285Y-117388111D01*
X150541094Y-117213350D01*
X150259655Y-117091147D01*
X150148664Y-117065188D01*
X149907000Y-117185517D01*
X149653000Y-117185517D01*
X149411336Y-117065188D01*
X149300345Y-117091147D01*
X149018906Y-117213350D01*
X148766715Y-117388111D01*
X148553464Y-117608714D01*
X148387348Y-117866681D01*
X148274751Y-118152099D01*
X148220000Y-118454000D01*
X146335040Y-118454000D01*
X146317428Y-118275187D01*
X146228226Y-117981125D01*
X146083369Y-117710117D01*
X145888424Y-117472576D01*
X145650883Y-117277631D01*
X145379875Y-117132774D01*
X145085813Y-117043572D01*
X144780000Y-117013452D01*
X144474188Y-117043572D01*
X144180126Y-117132774D01*
X143909118Y-117277631D01*
X143671577Y-117472576D01*
X143476632Y-117710117D01*
X143331774Y-117981125D01*
X143242572Y-118275187D01*
X143220000Y-118504364D01*
X102871019Y-118504364D01*
X102442530Y-118075875D01*
X101899751Y-117713202D01*
X101296648Y-117463389D01*
X100656397Y-117336035D01*
X100003603Y-117336035D01*
X99363352Y-117463389D01*
X98760249Y-117713202D01*
X98217470Y-118075875D01*
X97755875Y-118537470D01*
X97393202Y-119080249D01*
X97205000Y-119534610D01*
X97205000Y-112439419D01*
X104745000Y-112439419D01*
X104745000Y-112820581D01*
X104819361Y-113194419D01*
X104965225Y-113546566D01*
X105176987Y-113863491D01*
X105446509Y-114133013D01*
X105763434Y-114344775D01*
X106115581Y-114490639D01*
X106489419Y-114565000D01*
X106870581Y-114565000D01*
X107244419Y-114490639D01*
X107596566Y-114344775D01*
X107913491Y-114133013D01*
X108183013Y-113863491D01*
X108394775Y-113546566D01*
X108540639Y-113194419D01*
X108615000Y-112820581D01*
X108615000Y-112439419D01*
X108540639Y-112065581D01*
X108394775Y-111713434D01*
X108183013Y-111396509D01*
X107913491Y-111126987D01*
X107596566Y-110915225D01*
X107244419Y-110769361D01*
X106870581Y-110695000D01*
X106489419Y-110695000D01*
X106115581Y-110769361D01*
X105763434Y-110915225D01*
X105446509Y-111126987D01*
X105176987Y-111396509D01*
X104965225Y-111713434D01*
X104819361Y-112065581D01*
X104745000Y-112439419D01*
X97205000Y-112439419D01*
X97205000Y-107439419D01*
X104745000Y-107439419D01*
X104745000Y-107820581D01*
X104819361Y-108194419D01*
X104965225Y-108546566D01*
X105176987Y-108863491D01*
X105446509Y-109133013D01*
X105763434Y-109344775D01*
X106115581Y-109490639D01*
X106489419Y-109565000D01*
X106870581Y-109565000D01*
X107244419Y-109490639D01*
X107596566Y-109344775D01*
X107913491Y-109133013D01*
X108183013Y-108863491D01*
X108394775Y-108546566D01*
X108540639Y-108194419D01*
X108607574Y-107857911D01*
X134955000Y-107857911D01*
X134955000Y-108042089D01*
X134990932Y-108222729D01*
X135061414Y-108392889D01*
X135163738Y-108546028D01*
X135293972Y-108676262D01*
X135447111Y-108778586D01*
X135617271Y-108849068D01*
X135797911Y-108885000D01*
X135982089Y-108885000D01*
X136162729Y-108849068D01*
X136332889Y-108778586D01*
X136486028Y-108676262D01*
X136616262Y-108546028D01*
X136718586Y-108392889D01*
X136789068Y-108222729D01*
X136825000Y-108042089D01*
X136825000Y-107857911D01*
X136789068Y-107677271D01*
X136718586Y-107507111D01*
X136616262Y-107353972D01*
X136486028Y-107223738D01*
X136332889Y-107121414D01*
X136162729Y-107050932D01*
X135982089Y-107015000D01*
X135797911Y-107015000D01*
X135617271Y-107050932D01*
X135447111Y-107121414D01*
X135293972Y-107223738D01*
X135163738Y-107353972D01*
X135061414Y-107507111D01*
X134990932Y-107677271D01*
X134955000Y-107857911D01*
X108607574Y-107857911D01*
X108615000Y-107820581D01*
X108615000Y-107439419D01*
X108540639Y-107065581D01*
X108394775Y-106713434D01*
X108183013Y-106396509D01*
X107913491Y-106126987D01*
X107596566Y-105915225D01*
X107244419Y-105769361D01*
X106870581Y-105695000D01*
X106489419Y-105695000D01*
X106115581Y-105769361D01*
X105763434Y-105915225D01*
X105446509Y-106126987D01*
X105176987Y-106396509D01*
X104965225Y-106713434D01*
X104819361Y-107065581D01*
X104745000Y-107439419D01*
X97205000Y-107439419D01*
X97205000Y-102439419D01*
X104745000Y-102439419D01*
X104745000Y-102820581D01*
X104819361Y-103194419D01*
X104965225Y-103546566D01*
X105176987Y-103863491D01*
X105446509Y-104133013D01*
X105763434Y-104344775D01*
X106115581Y-104490639D01*
X106489419Y-104565000D01*
X106870581Y-104565000D01*
X107244419Y-104490639D01*
X107596566Y-104344775D01*
X107913491Y-104133013D01*
X108183013Y-103863491D01*
X108394775Y-103546566D01*
X108540639Y-103194419D01*
X108615000Y-102820581D01*
X108615000Y-102439419D01*
X108540639Y-102065581D01*
X108394775Y-101713434D01*
X108183013Y-101396509D01*
X107913491Y-101126987D01*
X107596566Y-100915225D01*
X107244419Y-100769361D01*
X106870581Y-100695000D01*
X106489419Y-100695000D01*
X106115581Y-100769361D01*
X105763434Y-100915225D01*
X105446509Y-101126987D01*
X105176987Y-101396509D01*
X104965225Y-101713434D01*
X104819361Y-102065581D01*
X104745000Y-102439419D01*
X97205000Y-102439419D01*
X97205000Y-97439419D01*
X104745000Y-97439419D01*
X104745000Y-97820581D01*
X104819361Y-98194419D01*
X104965225Y-98546566D01*
X105176987Y-98863491D01*
X105446509Y-99133013D01*
X105763434Y-99344775D01*
X106115581Y-99490639D01*
X106489419Y-99565000D01*
X106870581Y-99565000D01*
X107244419Y-99490639D01*
X107596566Y-99344775D01*
X107913491Y-99133013D01*
X108183013Y-98863491D01*
X108394775Y-98546566D01*
X108540639Y-98194419D01*
X108615000Y-97820581D01*
X108615000Y-97439419D01*
X108540639Y-97065581D01*
X108394775Y-96713434D01*
X108183013Y-96396509D01*
X107913491Y-96126987D01*
X107596566Y-95915225D01*
X107244419Y-95769361D01*
X106870581Y-95695000D01*
X106489419Y-95695000D01*
X106115581Y-95769361D01*
X105763434Y-95915225D01*
X105446509Y-96126987D01*
X105176987Y-96396509D01*
X104965225Y-96713434D01*
X104819361Y-97065581D01*
X104745000Y-97439419D01*
X97205000Y-97439419D01*
X97205000Y-88930000D01*
X104741928Y-88930000D01*
X104754188Y-89054482D01*
X104790498Y-89174180D01*
X104849463Y-89284494D01*
X104928815Y-89381185D01*
X105025506Y-89460537D01*
X105135820Y-89519502D01*
X105255518Y-89555812D01*
X105380000Y-89568072D01*
X106394250Y-89565000D01*
X106553000Y-89406250D01*
X106553000Y-87757000D01*
X106807000Y-87757000D01*
X106807000Y-89406250D01*
X106965750Y-89565000D01*
X107980000Y-89568072D01*
X108104482Y-89555812D01*
X108224180Y-89519502D01*
X108334494Y-89460537D01*
X108431185Y-89381185D01*
X108510537Y-89284494D01*
X108569502Y-89174180D01*
X108605812Y-89054482D01*
X108618072Y-88930000D01*
X108615000Y-87915750D01*
X108456250Y-87757000D01*
X106807000Y-87757000D01*
X106553000Y-87757000D01*
X104903750Y-87757000D01*
X104745000Y-87915750D01*
X104741928Y-88930000D01*
X97205000Y-88930000D01*
X97205000Y-86330000D01*
X104741928Y-86330000D01*
X104745000Y-87344250D01*
X104903750Y-87503000D01*
X106553000Y-87503000D01*
X106553000Y-85853750D01*
X106807000Y-85853750D01*
X106807000Y-87503000D01*
X108456250Y-87503000D01*
X108615000Y-87344250D01*
X108618072Y-86330000D01*
X108605812Y-86205518D01*
X108569502Y-86085820D01*
X108510537Y-85975506D01*
X108431185Y-85878815D01*
X108334494Y-85799463D01*
X108224180Y-85740498D01*
X108104482Y-85704188D01*
X107980000Y-85691928D01*
X106965750Y-85695000D01*
X106807000Y-85853750D01*
X106553000Y-85853750D01*
X106394250Y-85695000D01*
X105380000Y-85691928D01*
X105255518Y-85704188D01*
X105135820Y-85740498D01*
X105025506Y-85799463D01*
X104928815Y-85878815D01*
X104849463Y-85975506D01*
X104790498Y-86085820D01*
X104754188Y-86205518D01*
X104741928Y-86330000D01*
X97205000Y-86330000D01*
X97205000Y-76215000D01*
X102211928Y-76215000D01*
X102211928Y-77965000D01*
X102241001Y-78260186D01*
X102327104Y-78544028D01*
X102466927Y-78805618D01*
X102655097Y-79034903D01*
X102884382Y-79223073D01*
X103145972Y-79362896D01*
X103429814Y-79448999D01*
X103725000Y-79478072D01*
X105475000Y-79478072D01*
X105770186Y-79448999D01*
X106054028Y-79362896D01*
X106315618Y-79223073D01*
X106544903Y-79034903D01*
X106733073Y-78805618D01*
X106872896Y-78544028D01*
X106958999Y-78260186D01*
X106988072Y-77965000D01*
X106988072Y-76215000D01*
X106958999Y-75919814D01*
X106872896Y-75635972D01*
X106733073Y-75374382D01*
X106544903Y-75145097D01*
X106315618Y-74956927D01*
X106054028Y-74817104D01*
X105925357Y-74778072D01*
X106968727Y-74778072D01*
X110395000Y-78204346D01*
X110395000Y-87808548D01*
X107378605Y-90824943D01*
X107244419Y-90769361D01*
X106870581Y-90695000D01*
X106489419Y-90695000D01*
X106115581Y-90769361D01*
X105763434Y-90915225D01*
X105446509Y-91126987D01*
X105176987Y-91396509D01*
X104965225Y-91713434D01*
X104819361Y-92065581D01*
X104745000Y-92439419D01*
X104745000Y-92820581D01*
X104819361Y-93194419D01*
X104965225Y-93546566D01*
X105176987Y-93863491D01*
X105446509Y-94133013D01*
X105763434Y-94344775D01*
X106115581Y-94490639D01*
X106489419Y-94565000D01*
X106870581Y-94565000D01*
X107244419Y-94490639D01*
X107374141Y-94436907D01*
X107427759Y-94502241D01*
X107828990Y-94831522D01*
X108286751Y-95076201D01*
X108783451Y-95226873D01*
X109300000Y-95277748D01*
X109816549Y-95226873D01*
X110313249Y-95076201D01*
X110771010Y-94831522D01*
X111071697Y-94584755D01*
X111411452Y-94245000D01*
X133860000Y-94245000D01*
X133860000Y-94704464D01*
X133791414Y-94807111D01*
X133720932Y-94977271D01*
X133685000Y-95157911D01*
X133685000Y-95342089D01*
X133720932Y-95522729D01*
X133791414Y-95692889D01*
X133860000Y-95795536D01*
X133860001Y-99784464D01*
X133791414Y-99887111D01*
X133720932Y-100057271D01*
X133685000Y-100237911D01*
X133685000Y-100422089D01*
X133720932Y-100602729D01*
X133791414Y-100772889D01*
X133860001Y-100875537D01*
X133860001Y-102555196D01*
X131928351Y-104486847D01*
X131807271Y-104510932D01*
X131637111Y-104581414D01*
X131483972Y-104683738D01*
X131353738Y-104813972D01*
X131251414Y-104967111D01*
X131180932Y-105137271D01*
X131145000Y-105317911D01*
X131145000Y-105502089D01*
X131180932Y-105682729D01*
X131251414Y-105852889D01*
X131353738Y-106006028D01*
X131483972Y-106136262D01*
X131637111Y-106238586D01*
X131807271Y-106309068D01*
X131987911Y-106345000D01*
X132172089Y-106345000D01*
X132352729Y-106309068D01*
X132522889Y-106238586D01*
X132676028Y-106136262D01*
X132806262Y-106006028D01*
X132908586Y-105852889D01*
X132979068Y-105682729D01*
X133003153Y-105561649D01*
X135131008Y-103433795D01*
X135160001Y-103410001D01*
X135183795Y-103381008D01*
X135183799Y-103381004D01*
X135254973Y-103294277D01*
X135308349Y-103194419D01*
X135325546Y-103162247D01*
X135369003Y-103018986D01*
X135380000Y-102907333D01*
X135380000Y-102907324D01*
X135383676Y-102870001D01*
X135380000Y-102832678D01*
X135380000Y-100875535D01*
X135448586Y-100772889D01*
X135519068Y-100602729D01*
X135555000Y-100422089D01*
X135555000Y-100237911D01*
X135519068Y-100057271D01*
X135448586Y-99887111D01*
X135380000Y-99784465D01*
X135380000Y-95795535D01*
X135448586Y-95692889D01*
X135519068Y-95522729D01*
X135555000Y-95342089D01*
X135555000Y-95157911D01*
X135519068Y-94977271D01*
X135448586Y-94807111D01*
X135380000Y-94704465D01*
X135380000Y-94044290D01*
X135476927Y-93992481D01*
X135710661Y-93800661D01*
X135902481Y-93566927D01*
X136045017Y-93300261D01*
X136132790Y-93010913D01*
X136162427Y-92710000D01*
X136132790Y-92409087D01*
X136100886Y-92303915D01*
X136400001Y-92004801D01*
X136400001Y-92672667D01*
X136396324Y-92710000D01*
X136410998Y-92858985D01*
X136454454Y-93002246D01*
X136525026Y-93134276D01*
X136574385Y-93194419D01*
X136620000Y-93250001D01*
X136648998Y-93273799D01*
X137866201Y-94491003D01*
X137889999Y-94520001D01*
X138005724Y-94614974D01*
X138137753Y-94685546D01*
X138281014Y-94729003D01*
X138392667Y-94740000D01*
X138392676Y-94740000D01*
X138423875Y-94743073D01*
X138546525Y-94926632D01*
X138753368Y-95133475D01*
X138927760Y-95250000D01*
X138753368Y-95366525D01*
X138546525Y-95573368D01*
X138384010Y-95816589D01*
X138272068Y-96086842D01*
X138215000Y-96373740D01*
X138215000Y-96666260D01*
X138272068Y-96953158D01*
X138384010Y-97223411D01*
X138546525Y-97466632D01*
X138753368Y-97673475D01*
X138927760Y-97790000D01*
X138753368Y-97906525D01*
X138546525Y-98113368D01*
X138384010Y-98356589D01*
X138272068Y-98626842D01*
X138215000Y-98913740D01*
X138215000Y-99206260D01*
X138272068Y-99493158D01*
X138384010Y-99763411D01*
X138546525Y-100006632D01*
X138753368Y-100213475D01*
X138927760Y-100330000D01*
X138753368Y-100446525D01*
X138546525Y-100653368D01*
X138384010Y-100896589D01*
X138272068Y-101166842D01*
X138215000Y-101453740D01*
X138215000Y-101746260D01*
X138272068Y-102033158D01*
X138384010Y-102303411D01*
X138546525Y-102546632D01*
X138753368Y-102753475D01*
X138927760Y-102870000D01*
X138753368Y-102986525D01*
X138546525Y-103193368D01*
X138384010Y-103436589D01*
X138272068Y-103706842D01*
X138215000Y-103993740D01*
X138215000Y-104286260D01*
X138272068Y-104573158D01*
X138384010Y-104843411D01*
X138546525Y-105086632D01*
X138753368Y-105293475D01*
X138927760Y-105410000D01*
X138753368Y-105526525D01*
X138546525Y-105733368D01*
X138384010Y-105976589D01*
X138272068Y-106246842D01*
X138215000Y-106533740D01*
X138215000Y-106826260D01*
X138272068Y-107113158D01*
X138384010Y-107383411D01*
X138546525Y-107626632D01*
X138753368Y-107833475D01*
X138996589Y-107995990D01*
X139266842Y-108107932D01*
X139553740Y-108165000D01*
X139846260Y-108165000D01*
X140133158Y-108107932D01*
X140403411Y-107995990D01*
X140646632Y-107833475D01*
X140853475Y-107626632D01*
X141015990Y-107383411D01*
X141127932Y-107113158D01*
X141185000Y-106826260D01*
X141185000Y-106533740D01*
X141127932Y-106246842D01*
X141027495Y-106004364D01*
X143220000Y-106004364D01*
X143220000Y-107355635D01*
X143242572Y-107584812D01*
X143331774Y-107878874D01*
X143476631Y-108149882D01*
X143671576Y-108387424D01*
X143909117Y-108582369D01*
X144180125Y-108727226D01*
X144474187Y-108816428D01*
X144780000Y-108846548D01*
X145085812Y-108816428D01*
X145379874Y-108727226D01*
X145650882Y-108582369D01*
X145888424Y-108387424D01*
X146083369Y-108149883D01*
X146228226Y-107878875D01*
X146317428Y-107584813D01*
X146340000Y-107355636D01*
X146340000Y-106807000D01*
X148220000Y-106807000D01*
X148220000Y-107406000D01*
X148274751Y-107707901D01*
X148387348Y-107993319D01*
X148553464Y-108251286D01*
X148766715Y-108471889D01*
X149018906Y-108646650D01*
X149300345Y-108768853D01*
X149411336Y-108794812D01*
X149653000Y-108674483D01*
X149653000Y-106807000D01*
X149907000Y-106807000D01*
X149907000Y-108674483D01*
X150148664Y-108794812D01*
X150259655Y-108768853D01*
X150541094Y-108646650D01*
X150793285Y-108471889D01*
X151006536Y-108251286D01*
X151172652Y-107993319D01*
X151285249Y-107707901D01*
X151340000Y-107406000D01*
X151340000Y-106807000D01*
X149907000Y-106807000D01*
X149653000Y-106807000D01*
X148220000Y-106807000D01*
X146340000Y-106807000D01*
X146340000Y-106004364D01*
X146335040Y-105954000D01*
X148220000Y-105954000D01*
X148220000Y-106553000D01*
X149653000Y-106553000D01*
X149653000Y-104685517D01*
X149907000Y-104685517D01*
X149907000Y-106553000D01*
X151340000Y-106553000D01*
X151340000Y-105954000D01*
X151285249Y-105652099D01*
X151172652Y-105366681D01*
X151006536Y-105108714D01*
X150793285Y-104888111D01*
X150541094Y-104713350D01*
X150259655Y-104591147D01*
X150148664Y-104565188D01*
X149907000Y-104685517D01*
X149653000Y-104685517D01*
X149411336Y-104565188D01*
X149300345Y-104591147D01*
X149018906Y-104713350D01*
X148766715Y-104888111D01*
X148553464Y-105108714D01*
X148387348Y-105366681D01*
X148274751Y-105652099D01*
X148220000Y-105954000D01*
X146335040Y-105954000D01*
X146317428Y-105775187D01*
X146228226Y-105481125D01*
X146083369Y-105210117D01*
X145888424Y-104972576D01*
X145650883Y-104777631D01*
X145379875Y-104632774D01*
X145085813Y-104543572D01*
X144780000Y-104513452D01*
X144474188Y-104543572D01*
X144180126Y-104632774D01*
X143909118Y-104777631D01*
X143671577Y-104972576D01*
X143476632Y-105210117D01*
X143331774Y-105481125D01*
X143242572Y-105775187D01*
X143220000Y-106004364D01*
X141027495Y-106004364D01*
X141015990Y-105976589D01*
X140853475Y-105733368D01*
X140646632Y-105526525D01*
X140472240Y-105410000D01*
X140646632Y-105293475D01*
X140853475Y-105086632D01*
X141015990Y-104843411D01*
X141127932Y-104573158D01*
X141185000Y-104286260D01*
X141185000Y-103993740D01*
X141127932Y-103706842D01*
X141015990Y-103436589D01*
X140853475Y-103193368D01*
X140646632Y-102986525D01*
X140472240Y-102870000D01*
X140646632Y-102753475D01*
X140853475Y-102546632D01*
X141015990Y-102303411D01*
X141127932Y-102033158D01*
X141185000Y-101746260D01*
X141185000Y-101453740D01*
X141127932Y-101166842D01*
X141015990Y-100896589D01*
X140853475Y-100653368D01*
X140646632Y-100446525D01*
X140472240Y-100330000D01*
X140646632Y-100213475D01*
X140853475Y-100006632D01*
X141015990Y-99763411D01*
X141127932Y-99493158D01*
X141185000Y-99206260D01*
X141185000Y-98913740D01*
X141127932Y-98626842D01*
X141015990Y-98356589D01*
X140853475Y-98113368D01*
X140646632Y-97906525D01*
X140472240Y-97790000D01*
X140646632Y-97673475D01*
X140853475Y-97466632D01*
X141015990Y-97223411D01*
X141127932Y-96953158D01*
X141185000Y-96666260D01*
X141185000Y-96373740D01*
X141127932Y-96086842D01*
X141015990Y-95816589D01*
X140900913Y-95644364D01*
X143220000Y-95644364D01*
X143220000Y-96995635D01*
X143242572Y-97224812D01*
X143331774Y-97518874D01*
X143476631Y-97789882D01*
X143671576Y-98027424D01*
X143909117Y-98222369D01*
X144180125Y-98367226D01*
X144474187Y-98456428D01*
X144780000Y-98486548D01*
X145085812Y-98456428D01*
X145379874Y-98367226D01*
X145650882Y-98222369D01*
X145888424Y-98027424D01*
X146083369Y-97789883D01*
X146228226Y-97518875D01*
X146317428Y-97224813D01*
X146340000Y-96995636D01*
X146340000Y-96447000D01*
X148220000Y-96447000D01*
X148220000Y-97046000D01*
X148274751Y-97347901D01*
X148387348Y-97633319D01*
X148553464Y-97891286D01*
X148766715Y-98111889D01*
X149018906Y-98286650D01*
X149300345Y-98408853D01*
X149411336Y-98434812D01*
X149653000Y-98314483D01*
X149653000Y-96447000D01*
X149907000Y-96447000D01*
X149907000Y-98314483D01*
X150148664Y-98434812D01*
X150259655Y-98408853D01*
X150541094Y-98286650D01*
X150793285Y-98111889D01*
X151006536Y-97891286D01*
X151172652Y-97633319D01*
X151285249Y-97347901D01*
X151340000Y-97046000D01*
X151340000Y-96447000D01*
X149907000Y-96447000D01*
X149653000Y-96447000D01*
X148220000Y-96447000D01*
X146340000Y-96447000D01*
X146340000Y-95644364D01*
X146335040Y-95594000D01*
X148220000Y-95594000D01*
X148220000Y-96193000D01*
X149653000Y-96193000D01*
X149653000Y-94325517D01*
X149907000Y-94325517D01*
X149907000Y-96193000D01*
X151340000Y-96193000D01*
X151340000Y-95594000D01*
X151285249Y-95292099D01*
X151172652Y-95006681D01*
X151006536Y-94748714D01*
X150793285Y-94528111D01*
X150541094Y-94353350D01*
X150259655Y-94231147D01*
X150148664Y-94205188D01*
X149907000Y-94325517D01*
X149653000Y-94325517D01*
X149411336Y-94205188D01*
X149300345Y-94231147D01*
X149018906Y-94353350D01*
X148766715Y-94528111D01*
X148553464Y-94748714D01*
X148387348Y-95006681D01*
X148274751Y-95292099D01*
X148220000Y-95594000D01*
X146335040Y-95594000D01*
X146317428Y-95415187D01*
X146228226Y-95121125D01*
X146083369Y-94850117D01*
X145888424Y-94612576D01*
X145650883Y-94417631D01*
X145379875Y-94272774D01*
X145085813Y-94183572D01*
X144780000Y-94153452D01*
X144474188Y-94183572D01*
X144180126Y-94272774D01*
X143909118Y-94417631D01*
X143671577Y-94612576D01*
X143476632Y-94850117D01*
X143331774Y-95121125D01*
X143242572Y-95415187D01*
X143220000Y-95644364D01*
X140900913Y-95644364D01*
X140853475Y-95573368D01*
X140646632Y-95366525D01*
X140472240Y-95250000D01*
X140646632Y-95133475D01*
X140853475Y-94926632D01*
X141015990Y-94683411D01*
X141127932Y-94413158D01*
X141185000Y-94126260D01*
X141185000Y-93833740D01*
X141127932Y-93546842D01*
X141015990Y-93276589D01*
X140853475Y-93033368D01*
X140646632Y-92826525D01*
X140472240Y-92710000D01*
X140646632Y-92593475D01*
X140853475Y-92386632D01*
X141015990Y-92143411D01*
X141127932Y-91873158D01*
X141185000Y-91586260D01*
X141185000Y-91293740D01*
X141127932Y-91006842D01*
X141015990Y-90736589D01*
X140853475Y-90493368D01*
X140646632Y-90286525D01*
X140472240Y-90170000D01*
X140646632Y-90053475D01*
X140853475Y-89846632D01*
X141015990Y-89603411D01*
X141127932Y-89333158D01*
X141185000Y-89046260D01*
X141185000Y-88753740D01*
X141127932Y-88466842D01*
X141015990Y-88196589D01*
X140853475Y-87953368D01*
X140646632Y-87746525D01*
X140472240Y-87630000D01*
X140646632Y-87513475D01*
X140853475Y-87306632D01*
X141015990Y-87063411D01*
X141127932Y-86793158D01*
X141185000Y-86506260D01*
X141185000Y-86213740D01*
X141127932Y-85926842D01*
X141015990Y-85656589D01*
X140853475Y-85413368D01*
X140646632Y-85206525D01*
X140472240Y-85090000D01*
X140646632Y-84973475D01*
X140853475Y-84766632D01*
X141015990Y-84523411D01*
X141127932Y-84253158D01*
X141185000Y-83966260D01*
X141185000Y-83673740D01*
X141127932Y-83386842D01*
X141027495Y-83144364D01*
X143220000Y-83144364D01*
X143220000Y-84495635D01*
X143242572Y-84724812D01*
X143331774Y-85018874D01*
X143476631Y-85289882D01*
X143671576Y-85527424D01*
X143909117Y-85722369D01*
X144180125Y-85867226D01*
X144474187Y-85956428D01*
X144780000Y-85986548D01*
X145085812Y-85956428D01*
X145379874Y-85867226D01*
X145650882Y-85722369D01*
X145888424Y-85527424D01*
X146083369Y-85289883D01*
X146228226Y-85018875D01*
X146317428Y-84724813D01*
X146340000Y-84495636D01*
X146340000Y-83947000D01*
X148220000Y-83947000D01*
X148220000Y-84546000D01*
X148274751Y-84847901D01*
X148387348Y-85133319D01*
X148553464Y-85391286D01*
X148766715Y-85611889D01*
X149018906Y-85786650D01*
X149300345Y-85908853D01*
X149411336Y-85934812D01*
X149653000Y-85814483D01*
X149653000Y-83947000D01*
X149907000Y-83947000D01*
X149907000Y-85814483D01*
X150148664Y-85934812D01*
X150259655Y-85908853D01*
X150541094Y-85786650D01*
X150793285Y-85611889D01*
X151006536Y-85391286D01*
X151172652Y-85133319D01*
X151285249Y-84847901D01*
X151340000Y-84546000D01*
X151340000Y-83947000D01*
X149907000Y-83947000D01*
X149653000Y-83947000D01*
X148220000Y-83947000D01*
X146340000Y-83947000D01*
X146340000Y-83144364D01*
X146335040Y-83094000D01*
X148220000Y-83094000D01*
X148220000Y-83693000D01*
X149653000Y-83693000D01*
X149653000Y-81825517D01*
X149907000Y-81825517D01*
X149907000Y-83693000D01*
X151340000Y-83693000D01*
X151340000Y-83094000D01*
X151285249Y-82792099D01*
X151172652Y-82506681D01*
X151006536Y-82248714D01*
X150793285Y-82028111D01*
X150541094Y-81853350D01*
X150259655Y-81731147D01*
X150148664Y-81705188D01*
X149907000Y-81825517D01*
X149653000Y-81825517D01*
X149411336Y-81705188D01*
X149300345Y-81731147D01*
X149018906Y-81853350D01*
X148766715Y-82028111D01*
X148553464Y-82248714D01*
X148387348Y-82506681D01*
X148274751Y-82792099D01*
X148220000Y-83094000D01*
X146335040Y-83094000D01*
X146317428Y-82915187D01*
X146228226Y-82621125D01*
X146083369Y-82350117D01*
X145888424Y-82112576D01*
X145650883Y-81917631D01*
X145379875Y-81772774D01*
X145085813Y-81683572D01*
X144780000Y-81653452D01*
X144474188Y-81683572D01*
X144180126Y-81772774D01*
X143909118Y-81917631D01*
X143671577Y-82112576D01*
X143476632Y-82350117D01*
X143331774Y-82621125D01*
X143242572Y-82915187D01*
X143220000Y-83144364D01*
X141027495Y-83144364D01*
X141015990Y-83116589D01*
X140853475Y-82873368D01*
X140646632Y-82666525D01*
X140472240Y-82550000D01*
X140646632Y-82433475D01*
X140853475Y-82226632D01*
X140978178Y-82040000D01*
X142202667Y-82040000D01*
X142240000Y-82043677D01*
X142388986Y-82029003D01*
X142532247Y-81985546D01*
X142664276Y-81914974D01*
X142780001Y-81820001D01*
X142874974Y-81704276D01*
X142945546Y-81572247D01*
X142989003Y-81428986D01*
X143000000Y-81317333D01*
X143003677Y-81280000D01*
X143000000Y-81242667D01*
X143000000Y-77864364D01*
X143220000Y-77864364D01*
X143220000Y-79215635D01*
X143242572Y-79444812D01*
X143331774Y-79738874D01*
X143476631Y-80009882D01*
X143671576Y-80247424D01*
X143909117Y-80442369D01*
X144180125Y-80587226D01*
X144474187Y-80676428D01*
X144780000Y-80706548D01*
X145085812Y-80676428D01*
X145379874Y-80587226D01*
X145650882Y-80442369D01*
X145888424Y-80247424D01*
X146083369Y-80009883D01*
X146228226Y-79738875D01*
X146317428Y-79444813D01*
X146340000Y-79215636D01*
X146340000Y-78667000D01*
X148220000Y-78667000D01*
X148220000Y-79266000D01*
X148274751Y-79567901D01*
X148387348Y-79853319D01*
X148553464Y-80111286D01*
X148766715Y-80331889D01*
X149018906Y-80506650D01*
X149300345Y-80628853D01*
X149411336Y-80654812D01*
X149653000Y-80534483D01*
X149653000Y-78667000D01*
X149907000Y-78667000D01*
X149907000Y-80534483D01*
X150148664Y-80654812D01*
X150259655Y-80628853D01*
X150541094Y-80506650D01*
X150793285Y-80331889D01*
X151006536Y-80111286D01*
X151172652Y-79853319D01*
X151285249Y-79567901D01*
X151340000Y-79266000D01*
X151340000Y-78667000D01*
X149907000Y-78667000D01*
X149653000Y-78667000D01*
X148220000Y-78667000D01*
X146340000Y-78667000D01*
X146340000Y-77864364D01*
X146335040Y-77814000D01*
X148220000Y-77814000D01*
X148220000Y-78413000D01*
X149653000Y-78413000D01*
X149653000Y-76545517D01*
X149907000Y-76545517D01*
X149907000Y-78413000D01*
X151340000Y-78413000D01*
X151340000Y-77814000D01*
X151285249Y-77512099D01*
X151172652Y-77226681D01*
X151006536Y-76968714D01*
X150793285Y-76748111D01*
X150541094Y-76573350D01*
X150259655Y-76451147D01*
X150148664Y-76425188D01*
X149907000Y-76545517D01*
X149653000Y-76545517D01*
X149411336Y-76425188D01*
X149300345Y-76451147D01*
X149018906Y-76573350D01*
X148766715Y-76748111D01*
X148553464Y-76968714D01*
X148387348Y-77226681D01*
X148274751Y-77512099D01*
X148220000Y-77814000D01*
X146335040Y-77814000D01*
X146317428Y-77635187D01*
X146228226Y-77341125D01*
X146083369Y-77070117D01*
X145888424Y-76832576D01*
X145650883Y-76637631D01*
X145379875Y-76492774D01*
X145085813Y-76403572D01*
X144780000Y-76373452D01*
X144474188Y-76403572D01*
X144180126Y-76492774D01*
X143909118Y-76637631D01*
X143671577Y-76832576D01*
X143476632Y-77070117D01*
X143331774Y-77341125D01*
X143242572Y-77635187D01*
X143220000Y-77864364D01*
X143000000Y-77864364D01*
X143000000Y-70270000D01*
X153197928Y-70270000D01*
X153197928Y-71970000D01*
X153210188Y-72094482D01*
X153246498Y-72214180D01*
X153305463Y-72324494D01*
X153384815Y-72421185D01*
X153481506Y-72500537D01*
X153591820Y-72559502D01*
X153672466Y-72583966D01*
X153588412Y-72659731D01*
X153414359Y-72893080D01*
X153289175Y-73155901D01*
X153244524Y-73303110D01*
X153365845Y-73533000D01*
X154559000Y-73533000D01*
X154559000Y-73513000D01*
X154813000Y-73513000D01*
X154813000Y-73533000D01*
X156006155Y-73533000D01*
X156127476Y-73303110D01*
X156082825Y-73155901D01*
X155957641Y-72893080D01*
X155783588Y-72659731D01*
X155699534Y-72583966D01*
X155780180Y-72559502D01*
X155890494Y-72500537D01*
X155987185Y-72421185D01*
X156066537Y-72324494D01*
X156125502Y-72214180D01*
X156161812Y-72094482D01*
X156174072Y-71970000D01*
X156174072Y-70270000D01*
X156161812Y-70145518D01*
X156125502Y-70025820D01*
X156066537Y-69915506D01*
X155987185Y-69818815D01*
X155890494Y-69739463D01*
X155780180Y-69680498D01*
X155660482Y-69644188D01*
X155536000Y-69631928D01*
X153836000Y-69631928D01*
X153711518Y-69644188D01*
X153591820Y-69680498D01*
X153481506Y-69739463D01*
X153384815Y-69818815D01*
X153305463Y-69915506D01*
X153246498Y-70025820D01*
X153210188Y-70145518D01*
X153197928Y-70270000D01*
X143000000Y-70270000D01*
X143000000Y-68617333D01*
X143003677Y-68580000D01*
X142989003Y-68431014D01*
X142945546Y-68287753D01*
X142874974Y-68155724D01*
X142780001Y-68039999D01*
X142664276Y-67945026D01*
X142532247Y-67874454D01*
X142388986Y-67830997D01*
X142277333Y-67820000D01*
X142240000Y-67816323D01*
X142202667Y-67820000D01*
X138557921Y-67820000D01*
X138520588Y-67816323D01*
X138483255Y-67820000D01*
X138371602Y-67830997D01*
X138228341Y-67874454D01*
X138096312Y-67945026D01*
X137980587Y-68039999D01*
X137956789Y-68068997D01*
X129315787Y-76710000D01*
X128396103Y-76710000D01*
X128427932Y-76633158D01*
X128485000Y-76346260D01*
X128485000Y-76053740D01*
X128441209Y-75833592D01*
X137474802Y-66800000D01*
X139662678Y-66800000D01*
X139700000Y-66803676D01*
X139737322Y-66800000D01*
X139737333Y-66800000D01*
X139848986Y-66789003D01*
X139992247Y-66745546D01*
X140124276Y-66674974D01*
X140240001Y-66580001D01*
X140263804Y-66550997D01*
X142554803Y-64260000D01*
X143760011Y-64260000D01*
X143671577Y-64332576D01*
X143476632Y-64570117D01*
X143331774Y-64841125D01*
X143242572Y-65135187D01*
X143220000Y-65364364D01*
X143220000Y-66715635D01*
X143242572Y-66944812D01*
X143331774Y-67238874D01*
X143476631Y-67509882D01*
X143671576Y-67747424D01*
X143909117Y-67942369D01*
X144180125Y-68087226D01*
X144474187Y-68176428D01*
X144780000Y-68206548D01*
X145085812Y-68176428D01*
X145379874Y-68087226D01*
X145650882Y-67942369D01*
X145888424Y-67747424D01*
X146083369Y-67509883D01*
X146228226Y-67238875D01*
X146317428Y-66944813D01*
X146340000Y-66715636D01*
X146340000Y-66167000D01*
X148220000Y-66167000D01*
X148220000Y-66766000D01*
X148274751Y-67067901D01*
X148387348Y-67353319D01*
X148553464Y-67611286D01*
X148766715Y-67831889D01*
X149018906Y-68006650D01*
X149300345Y-68128853D01*
X149411336Y-68154812D01*
X149653000Y-68034483D01*
X149653000Y-66167000D01*
X149907000Y-66167000D01*
X149907000Y-68034483D01*
X150148664Y-68154812D01*
X150259655Y-68128853D01*
X150541094Y-68006650D01*
X150793285Y-67831889D01*
X151006536Y-67611286D01*
X151172652Y-67353319D01*
X151285249Y-67067901D01*
X151340000Y-66766000D01*
X151340000Y-66167000D01*
X149907000Y-66167000D01*
X149653000Y-66167000D01*
X148220000Y-66167000D01*
X146340000Y-66167000D01*
X146340000Y-65364364D01*
X146317428Y-65135187D01*
X146228226Y-64841125D01*
X146083369Y-64570117D01*
X145888424Y-64332576D01*
X145799990Y-64260000D01*
X148755222Y-64260000D01*
X148553464Y-64468714D01*
X148387348Y-64726681D01*
X148274751Y-65012099D01*
X148220000Y-65314000D01*
X148220000Y-65913000D01*
X149653000Y-65913000D01*
X149653000Y-65893000D01*
X149907000Y-65893000D01*
X149907000Y-65913000D01*
X151340000Y-65913000D01*
X151340000Y-65314000D01*
X151285249Y-65012099D01*
X151172652Y-64726681D01*
X151006536Y-64468714D01*
X150804778Y-64260000D01*
X150815199Y-64260000D01*
X157990000Y-71434802D01*
X157990001Y-77155197D01*
X157038199Y-78107000D01*
X156031155Y-78107000D01*
X156001990Y-78036589D01*
X155839475Y-77793368D01*
X155632632Y-77586525D01*
X155458240Y-77470000D01*
X155632632Y-77353475D01*
X155839475Y-77146632D01*
X156001990Y-76903411D01*
X156113932Y-76633158D01*
X156171000Y-76346260D01*
X156171000Y-76053740D01*
X156113932Y-75766842D01*
X156001990Y-75496589D01*
X155839475Y-75253368D01*
X155632632Y-75046525D01*
X155450466Y-74924805D01*
X155567355Y-74855178D01*
X155783588Y-74660269D01*
X155957641Y-74426920D01*
X156082825Y-74164099D01*
X156127476Y-74016890D01*
X156006155Y-73787000D01*
X154813000Y-73787000D01*
X154813000Y-73807000D01*
X154559000Y-73807000D01*
X154559000Y-73787000D01*
X153365845Y-73787000D01*
X153244524Y-74016890D01*
X153289175Y-74164099D01*
X153414359Y-74426920D01*
X153588412Y-74660269D01*
X153804645Y-74855178D01*
X153921534Y-74924805D01*
X153739368Y-75046525D01*
X153532525Y-75253368D01*
X153370010Y-75496589D01*
X153258068Y-75766842D01*
X153201000Y-76053740D01*
X153201000Y-76346260D01*
X153258068Y-76633158D01*
X153370010Y-76903411D01*
X153532525Y-77146632D01*
X153739368Y-77353475D01*
X153913760Y-77470000D01*
X153739368Y-77586525D01*
X153532525Y-77793368D01*
X153370010Y-78036589D01*
X153258068Y-78306842D01*
X153201000Y-78593740D01*
X153201000Y-78886260D01*
X153258068Y-79173158D01*
X153370010Y-79443411D01*
X153532525Y-79686632D01*
X153739368Y-79893475D01*
X153913760Y-80010000D01*
X153739368Y-80126525D01*
X153532525Y-80333368D01*
X153370010Y-80576589D01*
X153258068Y-80846842D01*
X153201000Y-81133740D01*
X153201000Y-81426260D01*
X153258068Y-81713158D01*
X153370010Y-81983411D01*
X153532525Y-82226632D01*
X153739368Y-82433475D01*
X153913760Y-82550000D01*
X153739368Y-82666525D01*
X153532525Y-82873368D01*
X153370010Y-83116589D01*
X153258068Y-83386842D01*
X153201000Y-83673740D01*
X153201000Y-83966260D01*
X153258068Y-84253158D01*
X153370010Y-84523411D01*
X153532525Y-84766632D01*
X153739368Y-84973475D01*
X153913760Y-85090000D01*
X153739368Y-85206525D01*
X153532525Y-85413368D01*
X153370010Y-85656589D01*
X153258068Y-85926842D01*
X153201000Y-86213740D01*
X153201000Y-86506260D01*
X153258068Y-86793158D01*
X153370010Y-87063411D01*
X153532525Y-87306632D01*
X153739368Y-87513475D01*
X153913760Y-87630000D01*
X153739368Y-87746525D01*
X153532525Y-87953368D01*
X153370010Y-88196589D01*
X153258068Y-88466842D01*
X153201000Y-88753740D01*
X153201000Y-89046260D01*
X153258068Y-89333158D01*
X153370010Y-89603411D01*
X153532525Y-89846632D01*
X153739368Y-90053475D01*
X153913760Y-90170000D01*
X153739368Y-90286525D01*
X153532525Y-90493368D01*
X153370010Y-90736589D01*
X153258068Y-91006842D01*
X153201000Y-91293740D01*
X153201000Y-91586260D01*
X153258068Y-91873158D01*
X153370010Y-92143411D01*
X153532525Y-92386632D01*
X153739368Y-92593475D01*
X153913760Y-92710000D01*
X153739368Y-92826525D01*
X153532525Y-93033368D01*
X153370010Y-93276589D01*
X153258068Y-93546842D01*
X153201000Y-93833740D01*
X153201000Y-94126260D01*
X153258068Y-94413158D01*
X153370010Y-94683411D01*
X153532525Y-94926632D01*
X153739368Y-95133475D01*
X153913760Y-95250000D01*
X153739368Y-95366525D01*
X153532525Y-95573368D01*
X153370010Y-95816589D01*
X153258068Y-96086842D01*
X153201000Y-96373740D01*
X153201000Y-96666260D01*
X153258068Y-96953158D01*
X153370010Y-97223411D01*
X153532525Y-97466632D01*
X153739368Y-97673475D01*
X153913760Y-97790000D01*
X153739368Y-97906525D01*
X153532525Y-98113368D01*
X153370010Y-98356589D01*
X153258068Y-98626842D01*
X153201000Y-98913740D01*
X153201000Y-99206260D01*
X153258068Y-99493158D01*
X153370010Y-99763411D01*
X153532525Y-100006632D01*
X153739368Y-100213475D01*
X153913760Y-100330000D01*
X153739368Y-100446525D01*
X153532525Y-100653368D01*
X153370010Y-100896589D01*
X153258068Y-101166842D01*
X153201000Y-101453740D01*
X153201000Y-101746260D01*
X153258068Y-102033158D01*
X153370010Y-102303411D01*
X153532525Y-102546632D01*
X153739368Y-102753475D01*
X153913760Y-102870000D01*
X153739368Y-102986525D01*
X153532525Y-103193368D01*
X153370010Y-103436589D01*
X153258068Y-103706842D01*
X153201000Y-103993740D01*
X153201000Y-104286260D01*
X153258068Y-104573158D01*
X153370010Y-104843411D01*
X153532525Y-105086632D01*
X153739368Y-105293475D01*
X153913760Y-105410000D01*
X153739368Y-105526525D01*
X153532525Y-105733368D01*
X153370010Y-105976589D01*
X153258068Y-106246842D01*
X153201000Y-106533740D01*
X153201000Y-106826260D01*
X153258068Y-107113158D01*
X153370010Y-107383411D01*
X153532525Y-107626632D01*
X153739368Y-107833475D01*
X153982589Y-107995990D01*
X154252842Y-108107932D01*
X154539740Y-108165000D01*
X154832260Y-108165000D01*
X155119158Y-108107932D01*
X155389411Y-107995990D01*
X155632632Y-107833475D01*
X155839475Y-107626632D01*
X156001990Y-107383411D01*
X156113932Y-107113158D01*
X156171000Y-106826260D01*
X156171000Y-106533740D01*
X156113932Y-106246842D01*
X156001990Y-105976589D01*
X155839475Y-105733368D01*
X155632632Y-105526525D01*
X155458240Y-105410000D01*
X155632632Y-105293475D01*
X155839475Y-105086632D01*
X156001990Y-104843411D01*
X156113932Y-104573158D01*
X156171000Y-104286260D01*
X156171000Y-103993740D01*
X156113932Y-103706842D01*
X156001990Y-103436589D01*
X155839475Y-103193368D01*
X155632632Y-102986525D01*
X155458240Y-102870000D01*
X155632632Y-102753475D01*
X155839475Y-102546632D01*
X156001990Y-102303411D01*
X156113932Y-102033158D01*
X156171000Y-101746260D01*
X156171000Y-101453740D01*
X156113932Y-101166842D01*
X156001990Y-100896589D01*
X155839475Y-100653368D01*
X155632632Y-100446525D01*
X155458240Y-100330000D01*
X155632632Y-100213475D01*
X155839475Y-100006632D01*
X156001990Y-99763411D01*
X156113932Y-99493158D01*
X156171000Y-99206260D01*
X156171000Y-98913740D01*
X156113932Y-98626842D01*
X156001990Y-98356589D01*
X155839475Y-98113368D01*
X155632632Y-97906525D01*
X155458240Y-97790000D01*
X155632632Y-97673475D01*
X155839475Y-97466632D01*
X156001990Y-97223411D01*
X156113932Y-96953158D01*
X156171000Y-96666260D01*
X156171000Y-96373740D01*
X156113932Y-96086842D01*
X156001990Y-95816589D01*
X155839475Y-95573368D01*
X155632632Y-95366525D01*
X155458240Y-95250000D01*
X155632632Y-95133475D01*
X155839475Y-94926632D01*
X156001990Y-94683411D01*
X156113932Y-94413158D01*
X156171000Y-94126260D01*
X156171000Y-93833740D01*
X156113932Y-93546842D01*
X156001990Y-93276589D01*
X155839475Y-93033368D01*
X155632632Y-92826525D01*
X155458240Y-92710000D01*
X155632632Y-92593475D01*
X155839475Y-92386632D01*
X156001990Y-92143411D01*
X156113932Y-91873158D01*
X156171000Y-91586260D01*
X156171000Y-91293740D01*
X156113932Y-91006842D01*
X156001990Y-90736589D01*
X155839475Y-90493368D01*
X155632632Y-90286525D01*
X155458240Y-90170000D01*
X155632632Y-90053475D01*
X155839475Y-89846632D01*
X156001990Y-89603411D01*
X156113932Y-89333158D01*
X156171000Y-89046260D01*
X156171000Y-88753740D01*
X156113932Y-88466842D01*
X156001990Y-88196589D01*
X155839475Y-87953368D01*
X155632632Y-87746525D01*
X155458240Y-87630000D01*
X155632632Y-87513475D01*
X155839475Y-87306632D01*
X156001990Y-87063411D01*
X156113932Y-86793158D01*
X156171000Y-86506260D01*
X156171000Y-86213740D01*
X156113932Y-85926842D01*
X156001990Y-85656589D01*
X155839475Y-85413368D01*
X155632632Y-85206525D01*
X155458240Y-85090000D01*
X155632632Y-84973475D01*
X155839475Y-84766632D01*
X156001990Y-84523411D01*
X156113932Y-84253158D01*
X156171000Y-83966260D01*
X156171000Y-83673740D01*
X156113932Y-83386842D01*
X156001990Y-83116589D01*
X155839475Y-82873368D01*
X155632632Y-82666525D01*
X155458240Y-82550000D01*
X155632632Y-82433475D01*
X155839475Y-82226632D01*
X156001990Y-81983411D01*
X156113932Y-81713158D01*
X156171000Y-81426260D01*
X156171000Y-81133740D01*
X156113932Y-80846842D01*
X156001990Y-80576589D01*
X155839475Y-80333368D01*
X155632632Y-80126525D01*
X155458240Y-80010000D01*
X155632632Y-79893475D01*
X155839475Y-79686632D01*
X155879320Y-79627000D01*
X157315678Y-79627000D01*
X157353000Y-79630676D01*
X157390322Y-79627000D01*
X157390333Y-79627000D01*
X157501986Y-79616003D01*
X157645247Y-79572546D01*
X157777276Y-79501974D01*
X157893001Y-79407001D01*
X157916804Y-79377997D01*
X159261003Y-78033799D01*
X159290001Y-78010001D01*
X159384974Y-77894276D01*
X159455546Y-77762247D01*
X159499003Y-77618986D01*
X159510000Y-77507333D01*
X159510000Y-77507324D01*
X159513676Y-77470001D01*
X159510000Y-77432678D01*
X159510000Y-71157322D01*
X159513676Y-71119999D01*
X159510000Y-71082676D01*
X159510000Y-71082667D01*
X159499003Y-70971014D01*
X159455546Y-70827753D01*
X159384974Y-70695724D01*
X159290001Y-70579999D01*
X159261004Y-70556202D01*
X151693804Y-62989003D01*
X151670001Y-62959999D01*
X151554276Y-62865026D01*
X151422247Y-62794454D01*
X151278986Y-62750997D01*
X151167333Y-62740000D01*
X151167322Y-62740000D01*
X151130000Y-62736324D01*
X151092678Y-62740000D01*
X142277322Y-62740000D01*
X142239999Y-62736324D01*
X142202676Y-62740000D01*
X142202667Y-62740000D01*
X142091014Y-62750997D01*
X141947753Y-62794454D01*
X141815724Y-62865026D01*
X141815722Y-62865027D01*
X141815723Y-62865027D01*
X141728996Y-62936201D01*
X141728992Y-62936205D01*
X141699999Y-62959999D01*
X141676205Y-62988992D01*
X139385199Y-65280000D01*
X137197325Y-65280000D01*
X137160000Y-65276324D01*
X137122675Y-65280000D01*
X137122667Y-65280000D01*
X137011014Y-65290997D01*
X136867753Y-65334454D01*
X136735724Y-65405026D01*
X136619999Y-65499999D01*
X136596201Y-65528997D01*
X127366408Y-74758791D01*
X127146260Y-74715000D01*
X126853740Y-74715000D01*
X126566842Y-74772068D01*
X126296589Y-74884010D01*
X126053368Y-75046525D01*
X125846525Y-75253368D01*
X125724805Y-75435534D01*
X125655178Y-75318645D01*
X125460269Y-75102412D01*
X125226920Y-74928359D01*
X124964099Y-74803175D01*
X124816890Y-74758524D01*
X124587000Y-74879845D01*
X124587000Y-76073000D01*
X124607000Y-76073000D01*
X124607000Y-76327000D01*
X124587000Y-76327000D01*
X124587000Y-76347000D01*
X124333000Y-76347000D01*
X124333000Y-76327000D01*
X124313000Y-76327000D01*
X124313000Y-76073000D01*
X124333000Y-76073000D01*
X124333000Y-74879845D01*
X124103110Y-74758524D01*
X123955901Y-74803175D01*
X123693080Y-74928359D01*
X123459731Y-75102412D01*
X123264822Y-75318645D01*
X123195195Y-75435534D01*
X123073475Y-75253368D01*
X122866632Y-75046525D01*
X122623411Y-74884010D01*
X122353158Y-74772068D01*
X122066260Y-74715000D01*
X121773740Y-74715000D01*
X121486842Y-74772068D01*
X121216589Y-74884010D01*
X120973368Y-75046525D01*
X120841513Y-75178380D01*
X120819502Y-75105820D01*
X120760537Y-74995506D01*
X120681185Y-74898815D01*
X120584494Y-74819463D01*
X120474180Y-74760498D01*
X120354482Y-74724188D01*
X120230000Y-74711928D01*
X118530000Y-74711928D01*
X118405518Y-74724188D01*
X118285820Y-74760498D01*
X118175506Y-74819463D01*
X118078815Y-74898815D01*
X117999463Y-74995506D01*
X117940498Y-75105820D01*
X117904188Y-75225518D01*
X117891928Y-75350000D01*
X117891928Y-77050000D01*
X117904188Y-77174482D01*
X117940498Y-77294180D01*
X117999463Y-77404494D01*
X118078815Y-77501185D01*
X118175506Y-77580537D01*
X118285820Y-77639502D01*
X118405518Y-77675812D01*
X118530000Y-77688072D01*
X118651954Y-77688072D01*
X118674454Y-77762246D01*
X118745026Y-77894276D01*
X118809700Y-77973080D01*
X118840000Y-78010001D01*
X118868998Y-78033799D01*
X120086201Y-79251003D01*
X120109999Y-79280001D01*
X120225724Y-79374974D01*
X120357753Y-79445546D01*
X120501014Y-79489003D01*
X120612667Y-79500000D01*
X120612676Y-79500000D01*
X120649999Y-79503676D01*
X120687322Y-79500000D01*
X128959676Y-79500000D01*
X128996998Y-79503676D01*
X129034320Y-79500000D01*
X129034331Y-79500000D01*
X129145984Y-79489003D01*
X129289245Y-79445546D01*
X129421274Y-79374974D01*
X129536999Y-79280001D01*
X129560802Y-79250997D01*
X134972373Y-73839427D01*
X134990932Y-73932729D01*
X135061414Y-74102889D01*
X135130000Y-74205535D01*
X135130001Y-91125197D01*
X135026085Y-91229114D01*
X134920913Y-91197210D01*
X134695408Y-91175000D01*
X114481452Y-91175000D01*
X114801695Y-90854757D01*
X114902241Y-90772241D01*
X115231523Y-90371011D01*
X115476201Y-89913250D01*
X115626873Y-89416550D01*
X115665000Y-89029442D01*
X115665000Y-89029434D01*
X115677748Y-88900000D01*
X115665000Y-88770566D01*
X115665000Y-77690558D01*
X115626873Y-77303450D01*
X115476201Y-76806750D01*
X115231523Y-76348989D01*
X114902241Y-75947759D01*
X114501011Y-75618477D01*
X114043250Y-75373799D01*
X113546550Y-75223127D01*
X113442195Y-75212849D01*
X109988072Y-71758727D01*
X109988072Y-70640000D01*
X109975812Y-70515518D01*
X109939502Y-70395820D01*
X109880537Y-70285506D01*
X109801185Y-70188815D01*
X109704494Y-70109463D01*
X109594180Y-70050498D01*
X109474482Y-70014188D01*
X109350000Y-70001928D01*
X105850000Y-70001928D01*
X105725518Y-70014188D01*
X105605820Y-70050498D01*
X105495506Y-70109463D01*
X105398815Y-70188815D01*
X105319463Y-70285506D01*
X105260498Y-70395820D01*
X105224188Y-70515518D01*
X105211928Y-70640000D01*
X105211928Y-74140000D01*
X105224188Y-74264482D01*
X105260498Y-74384180D01*
X105319463Y-74494494D01*
X105398815Y-74591185D01*
X105495506Y-74670537D01*
X105572131Y-74711494D01*
X105475000Y-74701928D01*
X103725000Y-74701928D01*
X103429814Y-74731001D01*
X103145972Y-74817104D01*
X102884382Y-74956927D01*
X102655097Y-75145097D01*
X102466927Y-75374382D01*
X102327104Y-75635972D01*
X102241001Y-75919814D01*
X102211928Y-76215000D01*
X97205000Y-76215000D01*
X97205000Y-74140000D01*
X99461928Y-74140000D01*
X99474188Y-74264482D01*
X99510498Y-74384180D01*
X99569463Y-74494494D01*
X99648815Y-74591185D01*
X99745506Y-74670537D01*
X99855820Y-74729502D01*
X99975518Y-74765812D01*
X100100000Y-74778072D01*
X101314250Y-74775000D01*
X101473000Y-74616250D01*
X101473000Y-72517000D01*
X101727000Y-72517000D01*
X101727000Y-74616250D01*
X101885750Y-74775000D01*
X103100000Y-74778072D01*
X103224482Y-74765812D01*
X103344180Y-74729502D01*
X103454494Y-74670537D01*
X103551185Y-74591185D01*
X103630537Y-74494494D01*
X103689502Y-74384180D01*
X103725812Y-74264482D01*
X103738072Y-74140000D01*
X103735000Y-72675750D01*
X103576250Y-72517000D01*
X101727000Y-72517000D01*
X101473000Y-72517000D01*
X99623750Y-72517000D01*
X99465000Y-72675750D01*
X99461928Y-74140000D01*
X97205000Y-74140000D01*
X97205000Y-70640000D01*
X99461928Y-70640000D01*
X99465000Y-72104250D01*
X99623750Y-72263000D01*
X101473000Y-72263000D01*
X101473000Y-70163750D01*
X101727000Y-70163750D01*
X101727000Y-72263000D01*
X103576250Y-72263000D01*
X103735000Y-72104250D01*
X103738072Y-70640000D01*
X103725812Y-70515518D01*
X103689502Y-70395820D01*
X103630537Y-70285506D01*
X103551185Y-70188815D01*
X103454494Y-70109463D01*
X103344180Y-70050498D01*
X103224482Y-70014188D01*
X103100000Y-70001928D01*
X101885750Y-70005000D01*
X101727000Y-70163750D01*
X101473000Y-70163750D01*
X101314250Y-70005000D01*
X100100000Y-70001928D01*
X99975518Y-70014188D01*
X99855820Y-70050498D01*
X99745506Y-70109463D01*
X99648815Y-70188815D01*
X99569463Y-70285506D01*
X99510498Y-70395820D01*
X99474188Y-70515518D01*
X99461928Y-70640000D01*
X97205000Y-70640000D01*
X97205000Y-63345390D01*
X97393202Y-63799751D01*
X97755875Y-64342530D01*
X98217470Y-64804125D01*
X98760249Y-65166798D01*
X99363352Y-65416611D01*
X100003603Y-65543965D01*
X100656397Y-65543965D01*
X101296648Y-65416611D01*
X101899751Y-65166798D01*
X102442530Y-64804125D01*
X102904125Y-64342530D01*
X103266798Y-63799751D01*
X103516611Y-63196648D01*
X103643965Y-62556397D01*
X103643965Y-61903603D01*
X103516611Y-61263352D01*
X103266798Y-60660249D01*
X102904125Y-60117470D01*
X102442530Y-59655875D01*
X101899751Y-59293202D01*
X101445390Y-59105000D01*
X156364610Y-59105000D01*
X155910249Y-59293202D01*
G37*
%TD.AperFunction*%
D23*
X141480001Y-80520000D02*
X140978178Y-80520000D01*
X140853475Y-80333368D01*
X140646632Y-80126525D01*
X140464466Y-80004805D01*
X140581355Y-79935178D01*
X140797588Y-79740269D01*
X140971641Y-79506920D01*
X141096825Y-79244099D01*
X141141476Y-79096890D01*
X141020155Y-78867000D01*
X139827000Y-78867000D01*
X139827000Y-78887000D01*
X139573000Y-78887000D01*
X139573000Y-78867000D01*
X138379845Y-78867000D01*
X138258524Y-79096890D01*
X138303175Y-79244099D01*
X138428359Y-79506920D01*
X138602412Y-79740269D01*
X138818645Y-79935178D01*
X138935534Y-80004805D01*
X138753368Y-80126525D01*
X138546525Y-80333368D01*
X138384010Y-80576589D01*
X138272068Y-80846842D01*
X138215000Y-81133740D01*
X138215000Y-81426260D01*
X138272068Y-81713158D01*
X138384010Y-81983411D01*
X138546525Y-82226632D01*
X138753368Y-82433475D01*
X138927760Y-82550000D01*
X138753368Y-82666525D01*
X138546525Y-82873368D01*
X138384010Y-83116589D01*
X138272068Y-83386842D01*
X138215000Y-83673740D01*
X138215000Y-83966260D01*
X138272068Y-84253158D01*
X138384010Y-84523411D01*
X138546525Y-84766632D01*
X138753368Y-84973475D01*
X138927760Y-85090000D01*
X138753368Y-85206525D01*
X138546525Y-85413368D01*
X138384010Y-85656589D01*
X138272068Y-85926842D01*
X138215000Y-86213740D01*
X138215000Y-86506260D01*
X138272068Y-86793158D01*
X138384010Y-87063411D01*
X138546525Y-87306632D01*
X138753368Y-87513475D01*
X138927760Y-87630000D01*
X138753368Y-87746525D01*
X138546525Y-87953368D01*
X138384010Y-88196589D01*
X138272068Y-88466842D01*
X138215000Y-88753740D01*
X138215000Y-89046260D01*
X138272068Y-89333158D01*
X138384010Y-89603411D01*
X138546525Y-89846632D01*
X138753368Y-90053475D01*
X138927760Y-90170000D01*
X138753368Y-90286525D01*
X138546525Y-90493368D01*
X138384010Y-90736589D01*
X138272068Y-91006842D01*
X138215000Y-91293740D01*
X138215000Y-91586260D01*
X138272068Y-91873158D01*
X138384010Y-92143411D01*
X138546525Y-92386632D01*
X138753368Y-92593475D01*
X138927760Y-92710000D01*
X138753368Y-92826525D01*
X138552347Y-93027546D01*
X137920000Y-92395199D01*
X137920000Y-73154320D01*
X137923676Y-73116997D01*
X137920000Y-73079674D01*
X137920000Y-73079665D01*
X137909003Y-72968012D01*
X137865546Y-72824751D01*
X137794974Y-72692722D01*
X137725504Y-72608072D01*
X137723799Y-72605994D01*
X137723795Y-72605990D01*
X137700001Y-72576997D01*
X137671009Y-72553204D01*
X136996805Y-71879002D01*
X136973003Y-71849999D01*
X136857278Y-71755026D01*
X136725249Y-71684454D01*
X136581988Y-71640997D01*
X136538660Y-71636730D01*
X137905390Y-70270000D01*
X138211928Y-70270000D01*
X138211928Y-71970000D01*
X138224188Y-72094482D01*
X138260498Y-72214180D01*
X138319463Y-72324494D01*
X138398815Y-72421185D01*
X138495506Y-72500537D01*
X138605820Y-72559502D01*
X138678380Y-72581513D01*
X138546525Y-72713368D01*
X138384010Y-72956589D01*
X138272068Y-73226842D01*
X138215000Y-73513740D01*
X138215000Y-73806260D01*
X138272068Y-74093158D01*
X138384010Y-74363411D01*
X138546525Y-74606632D01*
X138753368Y-74813475D01*
X138927760Y-74930000D01*
X138753368Y-75046525D01*
X138546525Y-75253368D01*
X138384010Y-75496589D01*
X138272068Y-75766842D01*
X138215000Y-76053740D01*
X138215000Y-76346260D01*
X138272068Y-76633158D01*
X138384010Y-76903411D01*
X138546525Y-77146632D01*
X138753368Y-77353475D01*
X138935534Y-77475195D01*
X138818645Y-77544822D01*
X138602412Y-77739731D01*
X138428359Y-77973080D01*
X138303175Y-78235901D01*
X138258524Y-78383110D01*
X138379845Y-78613000D01*
X139573000Y-78613000D01*
X139573000Y-78593000D01*
X139827000Y-78593000D01*
X139827000Y-78613000D01*
X141020155Y-78613000D01*
X141141476Y-78383110D01*
X141096825Y-78235901D01*
X140971641Y-77973080D01*
X140797588Y-77739731D01*
X140581355Y-77544822D01*
X140464466Y-77475195D01*
X140646632Y-77353475D01*
X140853475Y-77146632D01*
X141015990Y-76903411D01*
X141127932Y-76633158D01*
X141185000Y-76346260D01*
X141185000Y-76053740D01*
X141127932Y-75766842D01*
X141015990Y-75496589D01*
X140853475Y-75253368D01*
X140646632Y-75046525D01*
X140472240Y-74930000D01*
X140646632Y-74813475D01*
X140853475Y-74606632D01*
X141015990Y-74363411D01*
X141127932Y-74093158D01*
X141185000Y-73806260D01*
X141185000Y-73513740D01*
X141127932Y-73226842D01*
X141015990Y-72956589D01*
X140853475Y-72713368D01*
X140721620Y-72581513D01*
X140794180Y-72559502D01*
X140904494Y-72500537D01*
X141001185Y-72421185D01*
X141080537Y-72324494D01*
X141139502Y-72214180D01*
X141175812Y-72094482D01*
X141188072Y-71970000D01*
X141188072Y-70270000D01*
X141175812Y-70145518D01*
X141139502Y-70025820D01*
X141080537Y-69915506D01*
X141001185Y-69818815D01*
X140904494Y-69739463D01*
X140794180Y-69680498D01*
X140674482Y-69644188D01*
X140550000Y-69631928D01*
X138850000Y-69631928D01*
X138725518Y-69644188D01*
X138605820Y-69680498D01*
X138495506Y-69739463D01*
X138398815Y-69818815D01*
X138319463Y-69915506D01*
X138260498Y-70025820D01*
X138224188Y-70145518D01*
X138211928Y-70270000D01*
X137905390Y-70270000D01*
X138835390Y-69340000D01*
X141480000Y-69340000D01*
X141480001Y-80520000D01*
%TA.AperFunction,Conductor*%
D24*
G36*
X141480001Y-80520000D02*
G01*
X140978178Y-80520000D01*
X140853475Y-80333368D01*
X140646632Y-80126525D01*
X140464466Y-80004805D01*
X140581355Y-79935178D01*
X140797588Y-79740269D01*
X140971641Y-79506920D01*
X141096825Y-79244099D01*
X141141476Y-79096890D01*
X141020155Y-78867000D01*
X139827000Y-78867000D01*
X139827000Y-78887000D01*
X139573000Y-78887000D01*
X139573000Y-78867000D01*
X138379845Y-78867000D01*
X138258524Y-79096890D01*
X138303175Y-79244099D01*
X138428359Y-79506920D01*
X138602412Y-79740269D01*
X138818645Y-79935178D01*
X138935534Y-80004805D01*
X138753368Y-80126525D01*
X138546525Y-80333368D01*
X138384010Y-80576589D01*
X138272068Y-80846842D01*
X138215000Y-81133740D01*
X138215000Y-81426260D01*
X138272068Y-81713158D01*
X138384010Y-81983411D01*
X138546525Y-82226632D01*
X138753368Y-82433475D01*
X138927760Y-82550000D01*
X138753368Y-82666525D01*
X138546525Y-82873368D01*
X138384010Y-83116589D01*
X138272068Y-83386842D01*
X138215000Y-83673740D01*
X138215000Y-83966260D01*
X138272068Y-84253158D01*
X138384010Y-84523411D01*
X138546525Y-84766632D01*
X138753368Y-84973475D01*
X138927760Y-85090000D01*
X138753368Y-85206525D01*
X138546525Y-85413368D01*
X138384010Y-85656589D01*
X138272068Y-85926842D01*
X138215000Y-86213740D01*
X138215000Y-86506260D01*
X138272068Y-86793158D01*
X138384010Y-87063411D01*
X138546525Y-87306632D01*
X138753368Y-87513475D01*
X138927760Y-87630000D01*
X138753368Y-87746525D01*
X138546525Y-87953368D01*
X138384010Y-88196589D01*
X138272068Y-88466842D01*
X138215000Y-88753740D01*
X138215000Y-89046260D01*
X138272068Y-89333158D01*
X138384010Y-89603411D01*
X138546525Y-89846632D01*
X138753368Y-90053475D01*
X138927760Y-90170000D01*
X138753368Y-90286525D01*
X138546525Y-90493368D01*
X138384010Y-90736589D01*
X138272068Y-91006842D01*
X138215000Y-91293740D01*
X138215000Y-91586260D01*
X138272068Y-91873158D01*
X138384010Y-92143411D01*
X138546525Y-92386632D01*
X138753368Y-92593475D01*
X138927760Y-92710000D01*
X138753368Y-92826525D01*
X138552347Y-93027546D01*
X137920000Y-92395199D01*
X137920000Y-73154320D01*
X137923676Y-73116997D01*
X137920000Y-73079674D01*
X137920000Y-73079665D01*
X137909003Y-72968012D01*
X137865546Y-72824751D01*
X137794974Y-72692722D01*
X137725504Y-72608072D01*
X137723799Y-72605994D01*
X137723795Y-72605990D01*
X137700001Y-72576997D01*
X137671009Y-72553204D01*
X136996805Y-71879002D01*
X136973003Y-71849999D01*
X136857278Y-71755026D01*
X136725249Y-71684454D01*
X136581988Y-71640997D01*
X136538660Y-71636730D01*
X137905390Y-70270000D01*
X138211928Y-70270000D01*
X138211928Y-71970000D01*
X138224188Y-72094482D01*
X138260498Y-72214180D01*
X138319463Y-72324494D01*
X138398815Y-72421185D01*
X138495506Y-72500537D01*
X138605820Y-72559502D01*
X138678380Y-72581513D01*
X138546525Y-72713368D01*
X138384010Y-72956589D01*
X138272068Y-73226842D01*
X138215000Y-73513740D01*
X138215000Y-73806260D01*
X138272068Y-74093158D01*
X138384010Y-74363411D01*
X138546525Y-74606632D01*
X138753368Y-74813475D01*
X138927760Y-74930000D01*
X138753368Y-75046525D01*
X138546525Y-75253368D01*
X138384010Y-75496589D01*
X138272068Y-75766842D01*
X138215000Y-76053740D01*
X138215000Y-76346260D01*
X138272068Y-76633158D01*
X138384010Y-76903411D01*
X138546525Y-77146632D01*
X138753368Y-77353475D01*
X138935534Y-77475195D01*
X138818645Y-77544822D01*
X138602412Y-77739731D01*
X138428359Y-77973080D01*
X138303175Y-78235901D01*
X138258524Y-78383110D01*
X138379845Y-78613000D01*
X139573000Y-78613000D01*
X139573000Y-78593000D01*
X139827000Y-78593000D01*
X139827000Y-78613000D01*
X141020155Y-78613000D01*
X141141476Y-78383110D01*
X141096825Y-78235901D01*
X140971641Y-77973080D01*
X140797588Y-77739731D01*
X140581355Y-77544822D01*
X140464466Y-77475195D01*
X140646632Y-77353475D01*
X140853475Y-77146632D01*
X141015990Y-76903411D01*
X141127932Y-76633158D01*
X141185000Y-76346260D01*
X141185000Y-76053740D01*
X141127932Y-75766842D01*
X141015990Y-75496589D01*
X140853475Y-75253368D01*
X140646632Y-75046525D01*
X140472240Y-74930000D01*
X140646632Y-74813475D01*
X140853475Y-74606632D01*
X141015990Y-74363411D01*
X141127932Y-74093158D01*
X141185000Y-73806260D01*
X141185000Y-73513740D01*
X141127932Y-73226842D01*
X141015990Y-72956589D01*
X140853475Y-72713368D01*
X140721620Y-72581513D01*
X140794180Y-72559502D01*
X140904494Y-72500537D01*
X141001185Y-72421185D01*
X141080537Y-72324494D01*
X141139502Y-72214180D01*
X141175812Y-72094482D01*
X141188072Y-71970000D01*
X141188072Y-70270000D01*
X141175812Y-70145518D01*
X141139502Y-70025820D01*
X141080537Y-69915506D01*
X141001185Y-69818815D01*
X140904494Y-69739463D01*
X140794180Y-69680498D01*
X140674482Y-69644188D01*
X140550000Y-69631928D01*
X138850000Y-69631928D01*
X138725518Y-69644188D01*
X138605820Y-69680498D01*
X138495506Y-69739463D01*
X138398815Y-69818815D01*
X138319463Y-69915506D01*
X138260498Y-70025820D01*
X138224188Y-70145518D01*
X138211928Y-70270000D01*
X137905390Y-70270000D01*
X138835390Y-69340000D01*
X141480000Y-69340000D01*
X141480001Y-80520000D01*
G37*
%TD.AperFunction*%
%TD*%
M02*
