%TF.GenerationSoftware,KiCad,Pcbnew,5.1.9-73d0e3b20d~88~ubuntu20.04.1*%
%TF.CreationDate,2021-01-06T22:16:02+03:00*%
%TF.ProjectId,RGBschildD2PAK,52474273-6368-4696-9c64-443250414b2e,rev?*%
%TF.SameCoordinates,Original*%
%TF.FileFunction,Soldermask,Top*%
%TF.FilePolarity,Negative*%
%FSLAX46Y46*%
G04 Gerber Fmt 4.6, Leading zero omitted, Abs format (unit mm)*
G04 Created by KiCad (PCBNEW 5.1.9-73d0e3b20d~88~ubuntu20.04.1) date 2021-01-06 22:16:02*
%MOMM*%
%LPD*%
G01*
G04 APERTURE LIST*
%TA.AperFunction,Profile*%
%ADD10C,0.100000*%
%TD*%
%ADD11O,1.700000X1.700000*%
%ADD12R,1.700000X1.700000*%
%ADD13R,3.500120X1.600200*%
%ADD14R,9.751060X12.199620*%
%ADD15O,1.850000X3.048000*%
%ADD16C,2.600000*%
%ADD17R,2.600000X2.600000*%
%ADD18R,3.500000X3.500000*%
G04 APERTURE END LIST*
D10*
X159080000Y-120650000D02*
G75*
G03*
X159080000Y-120650000I-1600000J0D01*
G01*
X101930000Y-120650000D02*
G75*
G03*
X101930000Y-120650000I-1600000J0D01*
G01*
X159080000Y-62230000D02*
G75*
G03*
X159080000Y-62230000I-1600000J0D01*
G01*
X101930000Y-62230000D02*
G75*
G03*
X101930000Y-62230000I-1600000J0D01*
G01*
X96520000Y-58420000D02*
X161290000Y-58420000D01*
X96520000Y-58420000D02*
X96520000Y-124460000D01*
X161290000Y-124460000D02*
X161290000Y-58420000D01*
X96520000Y-124460000D02*
X161290000Y-124460000D01*
D11*
%TO.C,J1*%
X127000000Y-76200000D03*
X124460000Y-76200000D03*
X121920000Y-76200000D03*
D12*
X119380000Y-76200000D03*
%TD*%
D13*
%TO.C,Q4*%
X130924300Y-113030000D03*
X130924300Y-118110000D03*
D14*
X120650000Y-115570000D03*
%TD*%
D13*
%TO.C,Q3*%
X130924300Y-82550000D03*
X130924300Y-87630000D03*
D14*
X120650000Y-85090000D03*
%TD*%
D13*
%TO.C,Q2*%
X130924300Y-97790000D03*
X130924300Y-102870000D03*
D14*
X120650000Y-100330000D03*
%TD*%
D13*
%TO.C,Q1*%
X130924300Y-64770000D03*
X130924300Y-69850000D03*
D14*
X120650000Y-67310000D03*
%TD*%
%TO.C,R14*%
G36*
G01*
X158512500Y-100655000D02*
X158987500Y-100655000D01*
G75*
G02*
X159225000Y-100892500I0J-237500D01*
G01*
X159225000Y-101492500D01*
G75*
G02*
X158987500Y-101730000I-237500J0D01*
G01*
X158512500Y-101730000D01*
G75*
G02*
X158275000Y-101492500I0J237500D01*
G01*
X158275000Y-100892500D01*
G75*
G02*
X158512500Y-100655000I237500J0D01*
G01*
G37*
G36*
G01*
X158512500Y-98930000D02*
X158987500Y-98930000D01*
G75*
G02*
X159225000Y-99167500I0J-237500D01*
G01*
X159225000Y-99767500D01*
G75*
G02*
X158987500Y-100005000I-237500J0D01*
G01*
X158512500Y-100005000D01*
G75*
G02*
X158275000Y-99767500I0J237500D01*
G01*
X158275000Y-99167500D01*
G75*
G02*
X158512500Y-98930000I237500J0D01*
G01*
G37*
%TD*%
%TO.C,R13*%
G36*
G01*
X158512500Y-79065000D02*
X158987500Y-79065000D01*
G75*
G02*
X159225000Y-79302500I0J-237500D01*
G01*
X159225000Y-79902500D01*
G75*
G02*
X158987500Y-80140000I-237500J0D01*
G01*
X158512500Y-80140000D01*
G75*
G02*
X158275000Y-79902500I0J237500D01*
G01*
X158275000Y-79302500D01*
G75*
G02*
X158512500Y-79065000I237500J0D01*
G01*
G37*
G36*
G01*
X158512500Y-77340000D02*
X158987500Y-77340000D01*
G75*
G02*
X159225000Y-77577500I0J-237500D01*
G01*
X159225000Y-78177500D01*
G75*
G02*
X158987500Y-78415000I-237500J0D01*
G01*
X158512500Y-78415000D01*
G75*
G02*
X158275000Y-78177500I0J237500D01*
G01*
X158275000Y-77577500D01*
G75*
G02*
X158512500Y-77340000I237500J0D01*
G01*
G37*
%TD*%
%TO.C,C1*%
G36*
G01*
X146870000Y-89695000D02*
X146870000Y-90645000D01*
G75*
G02*
X146620000Y-90895000I-250000J0D01*
G01*
X146120000Y-90895000D01*
G75*
G02*
X145870000Y-90645000I0J250000D01*
G01*
X145870000Y-89695000D01*
G75*
G02*
X146120000Y-89445000I250000J0D01*
G01*
X146620000Y-89445000D01*
G75*
G02*
X146870000Y-89695000I0J-250000D01*
G01*
G37*
G36*
G01*
X148770000Y-89695000D02*
X148770000Y-90645000D01*
G75*
G02*
X148520000Y-90895000I-250000J0D01*
G01*
X148020000Y-90895000D01*
G75*
G02*
X147770000Y-90645000I0J250000D01*
G01*
X147770000Y-89695000D01*
G75*
G02*
X148020000Y-89445000I250000J0D01*
G01*
X148520000Y-89445000D01*
G75*
G02*
X148770000Y-89695000I0J-250000D01*
G01*
G37*
%TD*%
D15*
%TO.C,SW3*%
X149780000Y-106680000D03*
X144780000Y-106680000D03*
X149780000Y-119180000D03*
X144780000Y-119180000D03*
%TD*%
D11*
%TO.C,P2*%
X154686000Y-106680000D03*
X154686000Y-104140000D03*
X154686000Y-101600000D03*
X154686000Y-99060000D03*
X154686000Y-96520000D03*
X154686000Y-93980000D03*
X154686000Y-91440000D03*
X154686000Y-88900000D03*
X154686000Y-86360000D03*
X154686000Y-83820000D03*
X154686000Y-81280000D03*
X154686000Y-78740000D03*
X154686000Y-76200000D03*
X154686000Y-73660000D03*
D12*
X154686000Y-71120000D03*
%TD*%
D15*
%TO.C,SW2*%
X149780000Y-83820000D03*
X144780000Y-83820000D03*
X149780000Y-96320000D03*
X144780000Y-96320000D03*
%TD*%
%TO.C,SW1*%
X149780000Y-66040000D03*
X144780000Y-66040000D03*
X149780000Y-78540000D03*
X144780000Y-78540000D03*
%TD*%
%TO.C,R12*%
G36*
G01*
X131135000Y-108187500D02*
X131135000Y-107712500D01*
G75*
G02*
X131372500Y-107475000I237500J0D01*
G01*
X131972500Y-107475000D01*
G75*
G02*
X132210000Y-107712500I0J-237500D01*
G01*
X132210000Y-108187500D01*
G75*
G02*
X131972500Y-108425000I-237500J0D01*
G01*
X131372500Y-108425000D01*
G75*
G02*
X131135000Y-108187500I0J237500D01*
G01*
G37*
G36*
G01*
X129410000Y-108187500D02*
X129410000Y-107712500D01*
G75*
G02*
X129647500Y-107475000I237500J0D01*
G01*
X130247500Y-107475000D01*
G75*
G02*
X130485000Y-107712500I0J-237500D01*
G01*
X130485000Y-108187500D01*
G75*
G02*
X130247500Y-108425000I-237500J0D01*
G01*
X129647500Y-108425000D01*
G75*
G02*
X129410000Y-108187500I0J237500D01*
G01*
G37*
%TD*%
%TO.C,R11*%
G36*
G01*
X135352500Y-78977500D02*
X135352500Y-78502500D01*
G75*
G02*
X135590000Y-78265000I237500J0D01*
G01*
X136190000Y-78265000D01*
G75*
G02*
X136427500Y-78502500I0J-237500D01*
G01*
X136427500Y-78977500D01*
G75*
G02*
X136190000Y-79215000I-237500J0D01*
G01*
X135590000Y-79215000D01*
G75*
G02*
X135352500Y-78977500I0J237500D01*
G01*
G37*
G36*
G01*
X133627500Y-78977500D02*
X133627500Y-78502500D01*
G75*
G02*
X133865000Y-78265000I237500J0D01*
G01*
X134465000Y-78265000D01*
G75*
G02*
X134702500Y-78502500I0J-237500D01*
G01*
X134702500Y-78977500D01*
G75*
G02*
X134465000Y-79215000I-237500J0D01*
G01*
X133865000Y-79215000D01*
G75*
G02*
X133627500Y-78977500I0J237500D01*
G01*
G37*
%TD*%
%TO.C,R10*%
G36*
G01*
X135652500Y-110815000D02*
X136127500Y-110815000D01*
G75*
G02*
X136365000Y-111052500I0J-237500D01*
G01*
X136365000Y-111652500D01*
G75*
G02*
X136127500Y-111890000I-237500J0D01*
G01*
X135652500Y-111890000D01*
G75*
G02*
X135415000Y-111652500I0J237500D01*
G01*
X135415000Y-111052500D01*
G75*
G02*
X135652500Y-110815000I237500J0D01*
G01*
G37*
G36*
G01*
X135652500Y-109090000D02*
X136127500Y-109090000D01*
G75*
G02*
X136365000Y-109327500I0J-237500D01*
G01*
X136365000Y-109927500D01*
G75*
G02*
X136127500Y-110165000I-237500J0D01*
G01*
X135652500Y-110165000D01*
G75*
G02*
X135415000Y-109927500I0J237500D01*
G01*
X135415000Y-109327500D01*
G75*
G02*
X135652500Y-109090000I237500J0D01*
G01*
G37*
%TD*%
%TO.C,R9*%
G36*
G01*
X136127500Y-83087500D02*
X135652500Y-83087500D01*
G75*
G02*
X135415000Y-82850000I0J237500D01*
G01*
X135415000Y-82250000D01*
G75*
G02*
X135652500Y-82012500I237500J0D01*
G01*
X136127500Y-82012500D01*
G75*
G02*
X136365000Y-82250000I0J-237500D01*
G01*
X136365000Y-82850000D01*
G75*
G02*
X136127500Y-83087500I-237500J0D01*
G01*
G37*
G36*
G01*
X136127500Y-84812500D02*
X135652500Y-84812500D01*
G75*
G02*
X135415000Y-84575000I0J237500D01*
G01*
X135415000Y-83975000D01*
G75*
G02*
X135652500Y-83737500I237500J0D01*
G01*
X136127500Y-83737500D01*
G75*
G02*
X136365000Y-83975000I0J-237500D01*
G01*
X136365000Y-84575000D01*
G75*
G02*
X136127500Y-84812500I-237500J0D01*
G01*
G37*
%TD*%
%TO.C,R8*%
G36*
G01*
X135652500Y-118435000D02*
X136127500Y-118435000D01*
G75*
G02*
X136365000Y-118672500I0J-237500D01*
G01*
X136365000Y-119272500D01*
G75*
G02*
X136127500Y-119510000I-237500J0D01*
G01*
X135652500Y-119510000D01*
G75*
G02*
X135415000Y-119272500I0J237500D01*
G01*
X135415000Y-118672500D01*
G75*
G02*
X135652500Y-118435000I237500J0D01*
G01*
G37*
G36*
G01*
X135652500Y-116710000D02*
X136127500Y-116710000D01*
G75*
G02*
X136365000Y-116947500I0J-237500D01*
G01*
X136365000Y-117547500D01*
G75*
G02*
X136127500Y-117785000I-237500J0D01*
G01*
X135652500Y-117785000D01*
G75*
G02*
X135415000Y-117547500I0J237500D01*
G01*
X135415000Y-116947500D01*
G75*
G02*
X135652500Y-116710000I237500J0D01*
G01*
G37*
%TD*%
%TO.C,R7*%
G36*
G01*
X135652500Y-88817500D02*
X136127500Y-88817500D01*
G75*
G02*
X136365000Y-89055000I0J-237500D01*
G01*
X136365000Y-89655000D01*
G75*
G02*
X136127500Y-89892500I-237500J0D01*
G01*
X135652500Y-89892500D01*
G75*
G02*
X135415000Y-89655000I0J237500D01*
G01*
X135415000Y-89055000D01*
G75*
G02*
X135652500Y-88817500I237500J0D01*
G01*
G37*
G36*
G01*
X135652500Y-87092500D02*
X136127500Y-87092500D01*
G75*
G02*
X136365000Y-87330000I0J-237500D01*
G01*
X136365000Y-87930000D01*
G75*
G02*
X136127500Y-88167500I-237500J0D01*
G01*
X135652500Y-88167500D01*
G75*
G02*
X135415000Y-87930000I0J237500D01*
G01*
X135415000Y-87330000D01*
G75*
G02*
X135652500Y-87092500I237500J0D01*
G01*
G37*
%TD*%
%TO.C,R6*%
G36*
G01*
X131135000Y-92947500D02*
X131135000Y-92472500D01*
G75*
G02*
X131372500Y-92235000I237500J0D01*
G01*
X131972500Y-92235000D01*
G75*
G02*
X132210000Y-92472500I0J-237500D01*
G01*
X132210000Y-92947500D01*
G75*
G02*
X131972500Y-93185000I-237500J0D01*
G01*
X131372500Y-93185000D01*
G75*
G02*
X131135000Y-92947500I0J237500D01*
G01*
G37*
G36*
G01*
X129410000Y-92947500D02*
X129410000Y-92472500D01*
G75*
G02*
X129647500Y-92235000I237500J0D01*
G01*
X130247500Y-92235000D01*
G75*
G02*
X130485000Y-92472500I0J-237500D01*
G01*
X130485000Y-92947500D01*
G75*
G02*
X130247500Y-93185000I-237500J0D01*
G01*
X129647500Y-93185000D01*
G75*
G02*
X129410000Y-92947500I0J237500D01*
G01*
G37*
%TD*%
%TO.C,R5*%
G36*
G01*
X132405000Y-75167500D02*
X132405000Y-74692500D01*
G75*
G02*
X132642500Y-74455000I237500J0D01*
G01*
X133242500Y-74455000D01*
G75*
G02*
X133480000Y-74692500I0J-237500D01*
G01*
X133480000Y-75167500D01*
G75*
G02*
X133242500Y-75405000I-237500J0D01*
G01*
X132642500Y-75405000D01*
G75*
G02*
X132405000Y-75167500I0J237500D01*
G01*
G37*
G36*
G01*
X130680000Y-75167500D02*
X130680000Y-74692500D01*
G75*
G02*
X130917500Y-74455000I237500J0D01*
G01*
X131517500Y-74455000D01*
G75*
G02*
X131755000Y-74692500I0J-237500D01*
G01*
X131755000Y-75167500D01*
G75*
G02*
X131517500Y-75405000I-237500J0D01*
G01*
X130917500Y-75405000D01*
G75*
G02*
X130680000Y-75167500I0J237500D01*
G01*
G37*
%TD*%
%TO.C,R4*%
G36*
G01*
X135652500Y-98115000D02*
X136127500Y-98115000D01*
G75*
G02*
X136365000Y-98352500I0J-237500D01*
G01*
X136365000Y-98952500D01*
G75*
G02*
X136127500Y-99190000I-237500J0D01*
G01*
X135652500Y-99190000D01*
G75*
G02*
X135415000Y-98952500I0J237500D01*
G01*
X135415000Y-98352500D01*
G75*
G02*
X135652500Y-98115000I237500J0D01*
G01*
G37*
G36*
G01*
X135652500Y-96390000D02*
X136127500Y-96390000D01*
G75*
G02*
X136365000Y-96627500I0J-237500D01*
G01*
X136365000Y-97227500D01*
G75*
G02*
X136127500Y-97465000I-237500J0D01*
G01*
X135652500Y-97465000D01*
G75*
G02*
X135415000Y-97227500I0J237500D01*
G01*
X135415000Y-96627500D01*
G75*
G02*
X135652500Y-96390000I237500J0D01*
G01*
G37*
%TD*%
%TO.C,R3*%
G36*
G01*
X136127500Y-65715000D02*
X135652500Y-65715000D01*
G75*
G02*
X135415000Y-65477500I0J237500D01*
G01*
X135415000Y-64877500D01*
G75*
G02*
X135652500Y-64640000I237500J0D01*
G01*
X136127500Y-64640000D01*
G75*
G02*
X136365000Y-64877500I0J-237500D01*
G01*
X136365000Y-65477500D01*
G75*
G02*
X136127500Y-65715000I-237500J0D01*
G01*
G37*
G36*
G01*
X136127500Y-67440000D02*
X135652500Y-67440000D01*
G75*
G02*
X135415000Y-67202500I0J237500D01*
G01*
X135415000Y-66602500D01*
G75*
G02*
X135652500Y-66365000I237500J0D01*
G01*
X136127500Y-66365000D01*
G75*
G02*
X136365000Y-66602500I0J-237500D01*
G01*
X136365000Y-67202500D01*
G75*
G02*
X136127500Y-67440000I-237500J0D01*
G01*
G37*
%TD*%
%TO.C,R2*%
G36*
G01*
X136127500Y-102545000D02*
X135652500Y-102545000D01*
G75*
G02*
X135415000Y-102307500I0J237500D01*
G01*
X135415000Y-101707500D01*
G75*
G02*
X135652500Y-101470000I237500J0D01*
G01*
X136127500Y-101470000D01*
G75*
G02*
X136365000Y-101707500I0J-237500D01*
G01*
X136365000Y-102307500D01*
G75*
G02*
X136127500Y-102545000I-237500J0D01*
G01*
G37*
G36*
G01*
X136127500Y-104270000D02*
X135652500Y-104270000D01*
G75*
G02*
X135415000Y-104032500I0J237500D01*
G01*
X135415000Y-103432500D01*
G75*
G02*
X135652500Y-103195000I237500J0D01*
G01*
X136127500Y-103195000D01*
G75*
G02*
X136365000Y-103432500I0J-237500D01*
G01*
X136365000Y-104032500D01*
G75*
G02*
X136127500Y-104270000I-237500J0D01*
G01*
G37*
%TD*%
%TO.C,R1*%
G36*
G01*
X136127500Y-69525000D02*
X135652500Y-69525000D01*
G75*
G02*
X135415000Y-69287500I0J237500D01*
G01*
X135415000Y-68687500D01*
G75*
G02*
X135652500Y-68450000I237500J0D01*
G01*
X136127500Y-68450000D01*
G75*
G02*
X136365000Y-68687500I0J-237500D01*
G01*
X136365000Y-69287500D01*
G75*
G02*
X136127500Y-69525000I-237500J0D01*
G01*
G37*
G36*
G01*
X136127500Y-71250000D02*
X135652500Y-71250000D01*
G75*
G02*
X135415000Y-71012500I0J237500D01*
G01*
X135415000Y-70412500D01*
G75*
G02*
X135652500Y-70175000I237500J0D01*
G01*
X136127500Y-70175000D01*
G75*
G02*
X136365000Y-70412500I0J-237500D01*
G01*
X136365000Y-71012500D01*
G75*
G02*
X136127500Y-71250000I-237500J0D01*
G01*
G37*
%TD*%
D11*
%TO.C,P1*%
X139700000Y-106680000D03*
X139700000Y-104140000D03*
X139700000Y-101600000D03*
X139700000Y-99060000D03*
X139700000Y-96520000D03*
X139700000Y-93980000D03*
X139700000Y-91440000D03*
X139700000Y-88900000D03*
X139700000Y-86360000D03*
X139700000Y-83820000D03*
X139700000Y-81280000D03*
X139700000Y-78740000D03*
X139700000Y-76200000D03*
X139700000Y-73660000D03*
D12*
X139700000Y-71120000D03*
%TD*%
D16*
%TO.C,J3*%
X106680000Y-112630000D03*
X106680000Y-107630000D03*
X106680000Y-102630000D03*
X106680000Y-97630000D03*
X106680000Y-92630000D03*
D17*
X106680000Y-87630000D03*
%TD*%
%TO.C,J2*%
G36*
G01*
X102850000Y-77965000D02*
X102850000Y-76215000D01*
G75*
G02*
X103725000Y-75340000I875000J0D01*
G01*
X105475000Y-75340000D01*
G75*
G02*
X106350000Y-76215000I0J-875000D01*
G01*
X106350000Y-77965000D01*
G75*
G02*
X105475000Y-78840000I-875000J0D01*
G01*
X103725000Y-78840000D01*
G75*
G02*
X102850000Y-77965000I0J875000D01*
G01*
G37*
G36*
G01*
X100100000Y-73390000D02*
X100100000Y-71390000D01*
G75*
G02*
X100850000Y-70640000I750000J0D01*
G01*
X102350000Y-70640000D01*
G75*
G02*
X103100000Y-71390000I0J-750000D01*
G01*
X103100000Y-73390000D01*
G75*
G02*
X102350000Y-74140000I-750000J0D01*
G01*
X100850000Y-74140000D01*
G75*
G02*
X100100000Y-73390000I0J750000D01*
G01*
G37*
D18*
X107600000Y-72390000D03*
%TD*%
M02*
