%TF.GenerationSoftware,KiCad,Pcbnew,5.1.9-73d0e3b20d~88~ubuntu20.04.1*%
%TF.CreationDate,2021-01-06T22:16:02+03:00*%
%TF.ProjectId,RGBschildD2PAK,52474273-6368-4696-9c64-443250414b2e,rev?*%
%TF.SameCoordinates,Original*%
%TF.FileFunction,Legend,Bot*%
%TF.FilePolarity,Positive*%
%FSLAX46Y46*%
G04 Gerber Fmt 4.6, Leading zero omitted, Abs format (unit mm)*
G04 Created by KiCad (PCBNEW 5.1.9-73d0e3b20d~88~ubuntu20.04.1) date 2021-01-06 22:16:02*
%MOMM*%
%LPD*%
G01*
G04 APERTURE LIST*
%ADD10C,0.150000*%
%TA.AperFunction,Profile*%
%ADD11C,0.100000*%
%TD*%
%ADD12C,0.010000*%
%ADD13C,0.120000*%
G04 APERTURE END LIST*
D10*
X125547142Y-71572380D02*
X125547142Y-70572380D01*
X125547142Y-71048571D02*
X124975714Y-71048571D01*
X124975714Y-71572380D02*
X124975714Y-70572380D01*
X123928095Y-71477142D02*
X123975714Y-71524761D01*
X124118571Y-71572380D01*
X124213809Y-71572380D01*
X124356666Y-71524761D01*
X124451904Y-71429523D01*
X124499523Y-71334285D01*
X124547142Y-71143809D01*
X124547142Y-71000952D01*
X124499523Y-70810476D01*
X124451904Y-70715238D01*
X124356666Y-70620000D01*
X124213809Y-70572380D01*
X124118571Y-70572380D01*
X123975714Y-70620000D01*
X123928095Y-70667619D01*
X123499523Y-71191428D02*
X122737619Y-71191428D01*
X122070952Y-70572380D02*
X121975714Y-70572380D01*
X121880476Y-70620000D01*
X121832857Y-70667619D01*
X121785238Y-70762857D01*
X121737619Y-70953333D01*
X121737619Y-71191428D01*
X121785238Y-71381904D01*
X121832857Y-71477142D01*
X121880476Y-71524761D01*
X121975714Y-71572380D01*
X122070952Y-71572380D01*
X122166190Y-71524761D01*
X122213809Y-71477142D01*
X122261428Y-71381904D01*
X122309047Y-71191428D01*
X122309047Y-70953333D01*
X122261428Y-70762857D01*
X122213809Y-70667619D01*
X122166190Y-70620000D01*
X122070952Y-70572380D01*
X120880476Y-70572380D02*
X121070952Y-70572380D01*
X121166190Y-70620000D01*
X121213809Y-70667619D01*
X121309047Y-70810476D01*
X121356666Y-71000952D01*
X121356666Y-71381904D01*
X121309047Y-71477142D01*
X121261428Y-71524761D01*
X121166190Y-71572380D01*
X120975714Y-71572380D01*
X120880476Y-71524761D01*
X120832857Y-71477142D01*
X120785238Y-71381904D01*
X120785238Y-71143809D01*
X120832857Y-71048571D01*
X120880476Y-71000952D01*
X120975714Y-70953333D01*
X121166190Y-70953333D01*
X121261428Y-71000952D01*
X121309047Y-71048571D01*
X121356666Y-71143809D01*
X126230000Y-80907380D02*
X126230000Y-79907380D01*
X125182380Y-80907380D02*
X125515714Y-80431190D01*
X125753809Y-80907380D02*
X125753809Y-79907380D01*
X125372857Y-79907380D01*
X125277619Y-79955000D01*
X125230000Y-80002619D01*
X125182380Y-80097857D01*
X125182380Y-80240714D01*
X125230000Y-80335952D01*
X125277619Y-80383571D01*
X125372857Y-80431190D01*
X125753809Y-80431190D01*
X128825238Y-81557380D02*
X128491904Y-82557380D01*
X128158571Y-81557380D01*
X127872857Y-82509761D02*
X127730000Y-82557380D01*
X127491904Y-82557380D01*
X127396666Y-82509761D01*
X127349047Y-82462142D01*
X127301428Y-82366904D01*
X127301428Y-82271666D01*
X127349047Y-82176428D01*
X127396666Y-82128809D01*
X127491904Y-82081190D01*
X127682380Y-82033571D01*
X127777619Y-81985952D01*
X127825238Y-81938333D01*
X127872857Y-81843095D01*
X127872857Y-81747857D01*
X127825238Y-81652619D01*
X127777619Y-81605000D01*
X127682380Y-81557380D01*
X127444285Y-81557380D01*
X127301428Y-81605000D01*
X126349047Y-82557380D02*
X126920476Y-82557380D01*
X126634761Y-82557380D02*
X126634761Y-81557380D01*
X126730000Y-81700238D01*
X126825238Y-81795476D01*
X126920476Y-81843095D01*
X125777619Y-81985952D02*
X125872857Y-81938333D01*
X125920476Y-81890714D01*
X125968095Y-81795476D01*
X125968095Y-81747857D01*
X125920476Y-81652619D01*
X125872857Y-81605000D01*
X125777619Y-81557380D01*
X125587142Y-81557380D01*
X125491904Y-81605000D01*
X125444285Y-81652619D01*
X125396666Y-81747857D01*
X125396666Y-81795476D01*
X125444285Y-81890714D01*
X125491904Y-81938333D01*
X125587142Y-81985952D01*
X125777619Y-81985952D01*
X125872857Y-82033571D01*
X125920476Y-82081190D01*
X125968095Y-82176428D01*
X125968095Y-82366904D01*
X125920476Y-82462142D01*
X125872857Y-82509761D01*
X125777619Y-82557380D01*
X125587142Y-82557380D01*
X125491904Y-82509761D01*
X125444285Y-82462142D01*
X125396666Y-82366904D01*
X125396666Y-82176428D01*
X125444285Y-82081190D01*
X125491904Y-82033571D01*
X125587142Y-81985952D01*
X125063333Y-81557380D02*
X124444285Y-81557380D01*
X124777619Y-81938333D01*
X124634761Y-81938333D01*
X124539523Y-81985952D01*
X124491904Y-82033571D01*
X124444285Y-82128809D01*
X124444285Y-82366904D01*
X124491904Y-82462142D01*
X124539523Y-82509761D01*
X124634761Y-82557380D01*
X124920476Y-82557380D01*
X125015714Y-82509761D01*
X125063333Y-82462142D01*
X123872857Y-81985952D02*
X123968095Y-81938333D01*
X124015714Y-81890714D01*
X124063333Y-81795476D01*
X124063333Y-81747857D01*
X124015714Y-81652619D01*
X123968095Y-81605000D01*
X123872857Y-81557380D01*
X123682380Y-81557380D01*
X123587142Y-81605000D01*
X123539523Y-81652619D01*
X123491904Y-81747857D01*
X123491904Y-81795476D01*
X123539523Y-81890714D01*
X123587142Y-81938333D01*
X123682380Y-81985952D01*
X123872857Y-81985952D01*
X123968095Y-82033571D01*
X124015714Y-82081190D01*
X124063333Y-82176428D01*
X124063333Y-82366904D01*
X124015714Y-82462142D01*
X123968095Y-82509761D01*
X123872857Y-82557380D01*
X123682380Y-82557380D01*
X123587142Y-82509761D01*
X123539523Y-82462142D01*
X123491904Y-82366904D01*
X123491904Y-82176428D01*
X123539523Y-82081190D01*
X123587142Y-82033571D01*
X123682380Y-81985952D01*
X127000000Y-87103949D02*
G75*
G03*
X127000000Y-87103949I-1796051J0D01*
G01*
X121920000Y-83820000D02*
X128270000Y-83820000D01*
X128270000Y-90170000D02*
X128270000Y-80010000D01*
X121920000Y-90170000D02*
X128270000Y-90170000D01*
X121920000Y-80010000D02*
X121920000Y-90170000D01*
X122658095Y-79192380D02*
X122658095Y-78192380D01*
X122420000Y-78192380D01*
X122277142Y-78240000D01*
X122181904Y-78335238D01*
X122134285Y-78430476D01*
X122086666Y-78620952D01*
X122086666Y-78763809D01*
X122134285Y-78954285D01*
X122181904Y-79049523D01*
X122277142Y-79144761D01*
X122420000Y-79192380D01*
X122658095Y-79192380D01*
X121705714Y-78287619D02*
X121658095Y-78240000D01*
X121562857Y-78192380D01*
X121324761Y-78192380D01*
X121229523Y-78240000D01*
X121181904Y-78287619D01*
X121134285Y-78382857D01*
X121134285Y-78478095D01*
X121181904Y-78620952D01*
X121753333Y-79192380D01*
X121134285Y-79192380D01*
X120118095Y-79192380D02*
X120118095Y-78192380D01*
X119880000Y-78192380D01*
X119737142Y-78240000D01*
X119641904Y-78335238D01*
X119594285Y-78430476D01*
X119546666Y-78620952D01*
X119546666Y-78763809D01*
X119594285Y-78954285D01*
X119641904Y-79049523D01*
X119737142Y-79144761D01*
X119880000Y-79192380D01*
X120118095Y-79192380D01*
X119213333Y-78192380D02*
X118546666Y-78192380D01*
X118975238Y-79192380D01*
X128460476Y-73112380D02*
X128936666Y-73112380D01*
X128984285Y-73588571D01*
X128936666Y-73540952D01*
X128841428Y-73493333D01*
X128603333Y-73493333D01*
X128508095Y-73540952D01*
X128460476Y-73588571D01*
X128412857Y-73683809D01*
X128412857Y-73921904D01*
X128460476Y-74017142D01*
X128508095Y-74064761D01*
X128603333Y-74112380D01*
X128841428Y-74112380D01*
X128936666Y-74064761D01*
X128984285Y-74017142D01*
X128127142Y-73112380D02*
X127793809Y-74112380D01*
X127460476Y-73112380D01*
X125221904Y-73160000D02*
X125317142Y-73112380D01*
X125460000Y-73112380D01*
X125602857Y-73160000D01*
X125698095Y-73255238D01*
X125745714Y-73350476D01*
X125793333Y-73540952D01*
X125793333Y-73683809D01*
X125745714Y-73874285D01*
X125698095Y-73969523D01*
X125602857Y-74064761D01*
X125460000Y-74112380D01*
X125364761Y-74112380D01*
X125221904Y-74064761D01*
X125174285Y-74017142D01*
X125174285Y-73683809D01*
X125364761Y-73683809D01*
X124745714Y-74112380D02*
X124745714Y-73112380D01*
X124174285Y-74112380D01*
X124174285Y-73112380D01*
X123698095Y-74112380D02*
X123698095Y-73112380D01*
X123460000Y-73112380D01*
X123317142Y-73160000D01*
X123221904Y-73255238D01*
X123174285Y-73350476D01*
X123126666Y-73540952D01*
X123126666Y-73683809D01*
X123174285Y-73874285D01*
X123221904Y-73969523D01*
X123317142Y-74064761D01*
X123460000Y-74112380D01*
X123698095Y-74112380D01*
X122610476Y-73112380D02*
X122039047Y-73112380D01*
X122324761Y-74112380D02*
X122324761Y-73112380D01*
X121800952Y-74112380D02*
X121277142Y-73445714D01*
X121800952Y-73445714D02*
X121277142Y-74112380D01*
X119475238Y-74112380D02*
X119808571Y-73636190D01*
X120046666Y-74112380D02*
X120046666Y-73112380D01*
X119665714Y-73112380D01*
X119570476Y-73160000D01*
X119522857Y-73207619D01*
X119475238Y-73302857D01*
X119475238Y-73445714D01*
X119522857Y-73540952D01*
X119570476Y-73588571D01*
X119665714Y-73636190D01*
X120046666Y-73636190D01*
X119141904Y-74112380D02*
X118618095Y-73445714D01*
X119141904Y-73445714D02*
X118618095Y-74112380D01*
X143772380Y-103735238D02*
X143915238Y-103687619D01*
X144153333Y-103687619D01*
X144248571Y-103735238D01*
X144296190Y-103782857D01*
X144343809Y-103878095D01*
X144343809Y-103973333D01*
X144296190Y-104068571D01*
X144248571Y-104116190D01*
X144153333Y-104163809D01*
X143962857Y-104211428D01*
X143867619Y-104259047D01*
X143820000Y-104306666D01*
X143772380Y-104401904D01*
X143772380Y-104497142D01*
X143820000Y-104592380D01*
X143867619Y-104640000D01*
X143962857Y-104687619D01*
X144200952Y-104687619D01*
X144343809Y-104640000D01*
X144677142Y-104687619D02*
X144915238Y-103687619D01*
X145105714Y-104401904D01*
X145296190Y-103687619D01*
X145534285Y-104687619D01*
X145820000Y-104687619D02*
X146439047Y-104687619D01*
X146105714Y-104306666D01*
X146248571Y-104306666D01*
X146343809Y-104259047D01*
X146391428Y-104211428D01*
X146439047Y-104116190D01*
X146439047Y-103878095D01*
X146391428Y-103782857D01*
X146343809Y-103735238D01*
X146248571Y-103687619D01*
X145962857Y-103687619D01*
X145867619Y-103735238D01*
X145820000Y-103782857D01*
X146867619Y-104068571D02*
X147629523Y-104068571D01*
X148105714Y-104354285D02*
X148867619Y-104068571D01*
X148105714Y-103782857D01*
X149343809Y-103687619D02*
X149343809Y-104687619D01*
X149581904Y-104687619D01*
X149724761Y-104640000D01*
X149820000Y-104544761D01*
X149867619Y-104449523D01*
X149915238Y-104259047D01*
X149915238Y-104116190D01*
X149867619Y-103925714D01*
X149820000Y-103830476D01*
X149724761Y-103735238D01*
X149581904Y-103687619D01*
X149343809Y-103687619D01*
X150772380Y-104687619D02*
X150581904Y-104687619D01*
X150486666Y-104640000D01*
X150439047Y-104592380D01*
X150343809Y-104449523D01*
X150296190Y-104259047D01*
X150296190Y-103878095D01*
X150343809Y-103782857D01*
X150391428Y-103735238D01*
X150486666Y-103687619D01*
X150677142Y-103687619D01*
X150772380Y-103735238D01*
X150819999Y-103782857D01*
X150867619Y-103878095D01*
X150867619Y-104116190D01*
X150819999Y-104211428D01*
X150772380Y-104259047D01*
X150677142Y-104306666D01*
X150486666Y-104306666D01*
X150391428Y-104259047D01*
X150343809Y-104211428D01*
X150296190Y-104116190D01*
X143772380Y-98655238D02*
X143915238Y-98607619D01*
X144153333Y-98607619D01*
X144248571Y-98655238D01*
X144296190Y-98702857D01*
X144343809Y-98798095D01*
X144343809Y-98893333D01*
X144296190Y-98988571D01*
X144248571Y-99036190D01*
X144153333Y-99083809D01*
X143962857Y-99131428D01*
X143867619Y-99179047D01*
X143820000Y-99226666D01*
X143772380Y-99321904D01*
X143772380Y-99417142D01*
X143820000Y-99512380D01*
X143867619Y-99560000D01*
X143962857Y-99607619D01*
X144200952Y-99607619D01*
X144343809Y-99560000D01*
X144677142Y-99607619D02*
X144915238Y-98607619D01*
X145105714Y-99321904D01*
X145296190Y-98607619D01*
X145534285Y-99607619D01*
X145867619Y-99512380D02*
X145915238Y-99560000D01*
X146010476Y-99607619D01*
X146248571Y-99607619D01*
X146343809Y-99560000D01*
X146391428Y-99512380D01*
X146439047Y-99417142D01*
X146439047Y-99321904D01*
X146391428Y-99179047D01*
X145820000Y-98607619D01*
X146439047Y-98607619D01*
X146867619Y-98988571D02*
X147629523Y-98988571D01*
X148105714Y-99274285D02*
X148867619Y-98988571D01*
X148105714Y-98702857D01*
X149343809Y-98607619D02*
X149343809Y-99607619D01*
X149581904Y-99607619D01*
X149724761Y-99560000D01*
X149820000Y-99464761D01*
X149867619Y-99369523D01*
X149915238Y-99179047D01*
X149915238Y-99036190D01*
X149867619Y-98845714D01*
X149820000Y-98750476D01*
X149724761Y-98655238D01*
X149581904Y-98607619D01*
X149343809Y-98607619D01*
X150819999Y-99607619D02*
X150343809Y-99607619D01*
X150296190Y-99131428D01*
X150343809Y-99179047D01*
X150439047Y-99226666D01*
X150677142Y-99226666D01*
X150772380Y-99179047D01*
X150819999Y-99131428D01*
X150867619Y-99036190D01*
X150867619Y-98798095D01*
X150819999Y-98702857D01*
X150772380Y-98655238D01*
X150677142Y-98607619D01*
X150439047Y-98607619D01*
X150343809Y-98655238D01*
X150296190Y-98702857D01*
X142502380Y-61825238D02*
X142645238Y-61777619D01*
X142883333Y-61777619D01*
X142978571Y-61825238D01*
X143026190Y-61872857D01*
X143073809Y-61968095D01*
X143073809Y-62063333D01*
X143026190Y-62158571D01*
X142978571Y-62206190D01*
X142883333Y-62253809D01*
X142692857Y-62301428D01*
X142597619Y-62349047D01*
X142550000Y-62396666D01*
X142502380Y-62491904D01*
X142502380Y-62587142D01*
X142550000Y-62682380D01*
X142597619Y-62730000D01*
X142692857Y-62777619D01*
X142930952Y-62777619D01*
X143073809Y-62730000D01*
X143407142Y-62777619D02*
X143645238Y-61777619D01*
X143835714Y-62491904D01*
X144026190Y-61777619D01*
X144264285Y-62777619D01*
X145169047Y-61777619D02*
X144597619Y-61777619D01*
X144883333Y-61777619D02*
X144883333Y-62777619D01*
X144788095Y-62634761D01*
X144692857Y-62539523D01*
X144597619Y-62491904D01*
X145597619Y-62158571D02*
X146359523Y-62158571D01*
X146835714Y-62444285D02*
X147597619Y-62158571D01*
X146835714Y-61872857D01*
X148073809Y-61777619D02*
X148073809Y-62777619D01*
X148311904Y-62777619D01*
X148454761Y-62730000D01*
X148550000Y-62634761D01*
X148597619Y-62539523D01*
X148645238Y-62349047D01*
X148645238Y-62206190D01*
X148597619Y-62015714D01*
X148550000Y-61920476D01*
X148454761Y-61825238D01*
X148311904Y-61777619D01*
X148073809Y-61777619D01*
X149502380Y-62444285D02*
X149502380Y-61777619D01*
X149264285Y-62825238D02*
X149026190Y-62110952D01*
X149645238Y-62110952D01*
D11*
X159080000Y-120650000D02*
G75*
G03*
X159080000Y-120650000I-1600000J0D01*
G01*
X101930000Y-120650000D02*
G75*
G03*
X101930000Y-120650000I-1600000J0D01*
G01*
X159080000Y-62230000D02*
G75*
G03*
X159080000Y-62230000I-1600000J0D01*
G01*
X101930000Y-62230000D02*
G75*
G03*
X101930000Y-62230000I-1600000J0D01*
G01*
X96520000Y-58420000D02*
X161290000Y-58420000D01*
X96520000Y-58420000D02*
X96520000Y-124460000D01*
X161290000Y-124460000D02*
X161290000Y-58420000D01*
X96520000Y-124460000D02*
X161290000Y-124460000D01*
D12*
%TO.C,REF\u002A\u002A*%
G36*
X114601782Y-63034752D02*
G01*
X114601782Y-61827623D01*
X113998218Y-61827623D01*
X113998218Y-63034752D01*
X112791089Y-63034752D01*
X112791089Y-63638316D01*
X113998218Y-63638316D01*
X113998218Y-64845445D01*
X114601538Y-64845445D01*
X114604804Y-64245024D01*
X114608069Y-63644604D01*
X115208490Y-63641338D01*
X115808911Y-63638073D01*
X115808911Y-63034752D01*
X114601782Y-63034752D01*
G37*
X114601782Y-63034752D02*
X114601782Y-61827623D01*
X113998218Y-61827623D01*
X113998218Y-63034752D01*
X112791089Y-63034752D01*
X112791089Y-63638316D01*
X113998218Y-63638316D01*
X113998218Y-64845445D01*
X114601538Y-64845445D01*
X114604804Y-64245024D01*
X114608069Y-63644604D01*
X115208490Y-63641338D01*
X115808911Y-63638073D01*
X115808911Y-63034752D01*
X114601782Y-63034752D01*
G36*
X113998218Y-79921980D02*
G01*
X113998218Y-82939802D01*
X114601782Y-82939802D01*
X114601782Y-79921980D01*
X113998218Y-79921980D01*
G37*
X113998218Y-79921980D02*
X113998218Y-82939802D01*
X114601782Y-82939802D01*
X114601782Y-79921980D01*
X113998218Y-79921980D01*
G36*
X117314648Y-63215143D02*
G01*
X117310439Y-63105976D01*
X117306461Y-63052719D01*
X117269918Y-62784538D01*
X117210608Y-62521342D01*
X117129446Y-62265379D01*
X117027346Y-62018897D01*
X116905224Y-61784145D01*
X116763993Y-61563370D01*
X116628892Y-61387524D01*
X116446350Y-61188399D01*
X116247388Y-61007957D01*
X116033246Y-60846979D01*
X115805162Y-60706245D01*
X115564377Y-60586532D01*
X115312131Y-60488620D01*
X115098451Y-60425364D01*
X114843687Y-60371602D01*
X114581875Y-60338398D01*
X114317474Y-60325843D01*
X114054943Y-60334030D01*
X113798743Y-60363050D01*
X113628689Y-60395113D01*
X113359938Y-60466908D01*
X113102827Y-60560324D01*
X112858290Y-60674731D01*
X112627265Y-60809499D01*
X112410689Y-60963998D01*
X112209499Y-61137597D01*
X112024630Y-61329668D01*
X111857020Y-61539580D01*
X111795196Y-61628134D01*
X111654329Y-61859936D01*
X111536213Y-62101925D01*
X111440645Y-62354626D01*
X111367426Y-62618566D01*
X111319166Y-62874893D01*
X111311257Y-62939334D01*
X111303997Y-63018923D01*
X111297627Y-63108322D01*
X111292386Y-63202193D01*
X111288516Y-63295196D01*
X111286255Y-63381993D01*
X111285845Y-63457245D01*
X111287526Y-63515614D01*
X111289330Y-63537722D01*
X111292767Y-63568934D01*
X111297981Y-63617447D01*
X111304146Y-63675549D01*
X111308163Y-63713762D01*
X111346211Y-63962235D01*
X111407603Y-64211053D01*
X111490846Y-64456628D01*
X111594445Y-64695371D01*
X111716904Y-64923696D01*
X111856731Y-65138015D01*
X111955059Y-65266683D01*
X112025646Y-65348737D01*
X112109415Y-65438605D01*
X112199592Y-65529491D01*
X112289405Y-65614593D01*
X112372079Y-65687115D01*
X112382425Y-65695654D01*
X112580822Y-65842453D01*
X112796745Y-65973364D01*
X113027265Y-66087128D01*
X113269453Y-66182489D01*
X113520380Y-66258187D01*
X113777118Y-66312964D01*
X113844183Y-66323583D01*
X113998218Y-66346222D01*
X113998218Y-68676921D01*
X113998187Y-68971443D01*
X113998092Y-69241726D01*
X113997925Y-69488680D01*
X113997682Y-69713214D01*
X113997355Y-69916238D01*
X113996939Y-70098661D01*
X113996427Y-70261394D01*
X113995814Y-70405345D01*
X113995093Y-70531424D01*
X113994258Y-70640541D01*
X113993303Y-70733606D01*
X113992222Y-70811527D01*
X113991008Y-70875215D01*
X113989657Y-70925579D01*
X113988160Y-70963529D01*
X113986514Y-70989974D01*
X113984710Y-71005824D01*
X113982744Y-71011989D01*
X113982500Y-71012120D01*
X113823579Y-71062827D01*
X113685122Y-71118895D01*
X113562609Y-71182807D01*
X113451522Y-71257043D01*
X113347340Y-71344085D01*
X113306175Y-71383453D01*
X113186732Y-71518728D01*
X113087785Y-71666164D01*
X113009339Y-71823467D01*
X112951396Y-71988342D01*
X112913960Y-72158494D01*
X112897034Y-72331628D01*
X112900621Y-72505450D01*
X112924725Y-72677664D01*
X112969350Y-72845977D01*
X113034497Y-73008093D01*
X113120171Y-73161717D01*
X113226375Y-73304555D01*
X113303295Y-73387447D01*
X113441739Y-73509461D01*
X113587708Y-73608275D01*
X113743393Y-73685267D01*
X113827364Y-73716614D01*
X114008927Y-73765202D01*
X114191842Y-73790427D01*
X114295656Y-73791845D01*
X114295656Y-65687920D01*
X114052410Y-65677239D01*
X113820098Y-65644801D01*
X113596077Y-65590020D01*
X113377703Y-65512306D01*
X113250049Y-65455272D01*
X113042465Y-65341884D01*
X112850222Y-65209258D01*
X112674186Y-65058723D01*
X112515225Y-64891607D01*
X112374206Y-64709239D01*
X112251998Y-64512947D01*
X112149467Y-64304060D01*
X112067480Y-64083907D01*
X112006906Y-63853815D01*
X111968612Y-63615115D01*
X111957038Y-63474851D01*
X111954474Y-63429507D01*
X111952080Y-63389896D01*
X111951050Y-63374257D01*
X111951115Y-63350364D01*
X111952853Y-63307104D01*
X111955979Y-63250183D01*
X111960208Y-63185305D01*
X111961231Y-63170914D01*
X111990903Y-62924058D01*
X112043053Y-62687185D01*
X112116791Y-62461321D01*
X112211228Y-62247491D01*
X112325472Y-62046722D01*
X112458634Y-61860038D01*
X112609824Y-61688466D01*
X112778151Y-61533030D01*
X112962726Y-61394757D01*
X113162658Y-61274672D01*
X113377058Y-61173801D01*
X113605035Y-61093169D01*
X113809604Y-61041147D01*
X113903977Y-61025222D01*
X114016304Y-61012662D01*
X114139582Y-61003747D01*
X114266805Y-60998756D01*
X114390970Y-60997969D01*
X114505073Y-61001665D01*
X114598428Y-61009664D01*
X114844573Y-61051821D01*
X115079343Y-61116150D01*
X115302085Y-61202254D01*
X115512147Y-61309734D01*
X115708874Y-61438192D01*
X115891613Y-61587231D01*
X116059712Y-61756451D01*
X116212517Y-61945455D01*
X116270754Y-62028812D01*
X116384639Y-62221130D01*
X116478815Y-62426868D01*
X116552959Y-62643426D01*
X116606745Y-62868205D01*
X116639851Y-63098604D01*
X116651952Y-63332023D01*
X116642726Y-63565863D01*
X116611847Y-63797522D01*
X116558993Y-64024402D01*
X116530663Y-64116138D01*
X116443625Y-64339560D01*
X116336014Y-64549402D01*
X116209004Y-64744717D01*
X116063769Y-64924554D01*
X115901483Y-65087966D01*
X115723319Y-65234004D01*
X115530451Y-65361719D01*
X115324053Y-65470164D01*
X115105299Y-65558388D01*
X114875363Y-65625444D01*
X114635418Y-65670383D01*
X114602112Y-65674730D01*
X114550426Y-65679468D01*
X114481414Y-65683451D01*
X114402894Y-65686343D01*
X114322684Y-65687808D01*
X114295656Y-65687920D01*
X114295656Y-73791845D01*
X114373943Y-73792915D01*
X114553064Y-73773295D01*
X114727039Y-73732196D01*
X114893704Y-73670244D01*
X115050892Y-73588068D01*
X115196437Y-73486295D01*
X115328174Y-73365555D01*
X115423647Y-73253789D01*
X115523451Y-73102718D01*
X115601889Y-72940818D01*
X115658897Y-72770623D01*
X115694412Y-72594671D01*
X115708370Y-72415498D01*
X115700708Y-72235638D01*
X115671363Y-72057628D01*
X115620272Y-71884004D01*
X115547369Y-71717302D01*
X115465539Y-71578960D01*
X115434713Y-71537436D01*
X115392358Y-71486063D01*
X115344970Y-71432527D01*
X115314209Y-71399865D01*
X115196630Y-71291129D01*
X115070545Y-71199704D01*
X114932132Y-71123459D01*
X114777568Y-71060266D01*
X114617500Y-71011741D01*
X114615514Y-71006714D01*
X114613692Y-70992112D01*
X114612027Y-70967026D01*
X114610514Y-70930547D01*
X114609146Y-70881764D01*
X114607916Y-70819769D01*
X114606820Y-70743652D01*
X114605850Y-70652504D01*
X114605002Y-70545415D01*
X114604267Y-70421476D01*
X114603641Y-70279778D01*
X114603118Y-70119412D01*
X114602690Y-69939467D01*
X114602353Y-69739035D01*
X114602100Y-69517206D01*
X114601924Y-69273070D01*
X114601821Y-69005719D01*
X114601782Y-68714243D01*
X114601782Y-66344251D01*
X114680371Y-66335623D01*
X114838056Y-66312577D01*
X115007353Y-66277672D01*
X115179114Y-66233245D01*
X115344190Y-66181629D01*
X115474493Y-66133000D01*
X115722295Y-66018703D01*
X115955440Y-65884454D01*
X116173121Y-65731293D01*
X116374532Y-65560261D01*
X116558866Y-65372397D01*
X116725314Y-65168741D01*
X116873070Y-64950335D01*
X117001326Y-64718217D01*
X117109276Y-64473427D01*
X117196112Y-64217007D01*
X117261027Y-63949995D01*
X117287365Y-63797164D01*
X117298626Y-63700876D01*
X117307176Y-63587047D01*
X117312825Y-63463160D01*
X117315380Y-63336698D01*
X117314648Y-63215143D01*
G37*
X117314648Y-63215143D02*
X117310439Y-63105976D01*
X117306461Y-63052719D01*
X117269918Y-62784538D01*
X117210608Y-62521342D01*
X117129446Y-62265379D01*
X117027346Y-62018897D01*
X116905224Y-61784145D01*
X116763993Y-61563370D01*
X116628892Y-61387524D01*
X116446350Y-61188399D01*
X116247388Y-61007957D01*
X116033246Y-60846979D01*
X115805162Y-60706245D01*
X115564377Y-60586532D01*
X115312131Y-60488620D01*
X115098451Y-60425364D01*
X114843687Y-60371602D01*
X114581875Y-60338398D01*
X114317474Y-60325843D01*
X114054943Y-60334030D01*
X113798743Y-60363050D01*
X113628689Y-60395113D01*
X113359938Y-60466908D01*
X113102827Y-60560324D01*
X112858290Y-60674731D01*
X112627265Y-60809499D01*
X112410689Y-60963998D01*
X112209499Y-61137597D01*
X112024630Y-61329668D01*
X111857020Y-61539580D01*
X111795196Y-61628134D01*
X111654329Y-61859936D01*
X111536213Y-62101925D01*
X111440645Y-62354626D01*
X111367426Y-62618566D01*
X111319166Y-62874893D01*
X111311257Y-62939334D01*
X111303997Y-63018923D01*
X111297627Y-63108322D01*
X111292386Y-63202193D01*
X111288516Y-63295196D01*
X111286255Y-63381993D01*
X111285845Y-63457245D01*
X111287526Y-63515614D01*
X111289330Y-63537722D01*
X111292767Y-63568934D01*
X111297981Y-63617447D01*
X111304146Y-63675549D01*
X111308163Y-63713762D01*
X111346211Y-63962235D01*
X111407603Y-64211053D01*
X111490846Y-64456628D01*
X111594445Y-64695371D01*
X111716904Y-64923696D01*
X111856731Y-65138015D01*
X111955059Y-65266683D01*
X112025646Y-65348737D01*
X112109415Y-65438605D01*
X112199592Y-65529491D01*
X112289405Y-65614593D01*
X112372079Y-65687115D01*
X112382425Y-65695654D01*
X112580822Y-65842453D01*
X112796745Y-65973364D01*
X113027265Y-66087128D01*
X113269453Y-66182489D01*
X113520380Y-66258187D01*
X113777118Y-66312964D01*
X113844183Y-66323583D01*
X113998218Y-66346222D01*
X113998218Y-68676921D01*
X113998187Y-68971443D01*
X113998092Y-69241726D01*
X113997925Y-69488680D01*
X113997682Y-69713214D01*
X113997355Y-69916238D01*
X113996939Y-70098661D01*
X113996427Y-70261394D01*
X113995814Y-70405345D01*
X113995093Y-70531424D01*
X113994258Y-70640541D01*
X113993303Y-70733606D01*
X113992222Y-70811527D01*
X113991008Y-70875215D01*
X113989657Y-70925579D01*
X113988160Y-70963529D01*
X113986514Y-70989974D01*
X113984710Y-71005824D01*
X113982744Y-71011989D01*
X113982500Y-71012120D01*
X113823579Y-71062827D01*
X113685122Y-71118895D01*
X113562609Y-71182807D01*
X113451522Y-71257043D01*
X113347340Y-71344085D01*
X113306175Y-71383453D01*
X113186732Y-71518728D01*
X113087785Y-71666164D01*
X113009339Y-71823467D01*
X112951396Y-71988342D01*
X112913960Y-72158494D01*
X112897034Y-72331628D01*
X112900621Y-72505450D01*
X112924725Y-72677664D01*
X112969350Y-72845977D01*
X113034497Y-73008093D01*
X113120171Y-73161717D01*
X113226375Y-73304555D01*
X113303295Y-73387447D01*
X113441739Y-73509461D01*
X113587708Y-73608275D01*
X113743393Y-73685267D01*
X113827364Y-73716614D01*
X114008927Y-73765202D01*
X114191842Y-73790427D01*
X114295656Y-73791845D01*
X114295656Y-65687920D01*
X114052410Y-65677239D01*
X113820098Y-65644801D01*
X113596077Y-65590020D01*
X113377703Y-65512306D01*
X113250049Y-65455272D01*
X113042465Y-65341884D01*
X112850222Y-65209258D01*
X112674186Y-65058723D01*
X112515225Y-64891607D01*
X112374206Y-64709239D01*
X112251998Y-64512947D01*
X112149467Y-64304060D01*
X112067480Y-64083907D01*
X112006906Y-63853815D01*
X111968612Y-63615115D01*
X111957038Y-63474851D01*
X111954474Y-63429507D01*
X111952080Y-63389896D01*
X111951050Y-63374257D01*
X111951115Y-63350364D01*
X111952853Y-63307104D01*
X111955979Y-63250183D01*
X111960208Y-63185305D01*
X111961231Y-63170914D01*
X111990903Y-62924058D01*
X112043053Y-62687185D01*
X112116791Y-62461321D01*
X112211228Y-62247491D01*
X112325472Y-62046722D01*
X112458634Y-61860038D01*
X112609824Y-61688466D01*
X112778151Y-61533030D01*
X112962726Y-61394757D01*
X113162658Y-61274672D01*
X113377058Y-61173801D01*
X113605035Y-61093169D01*
X113809604Y-61041147D01*
X113903977Y-61025222D01*
X114016304Y-61012662D01*
X114139582Y-61003747D01*
X114266805Y-60998756D01*
X114390970Y-60997969D01*
X114505073Y-61001665D01*
X114598428Y-61009664D01*
X114844573Y-61051821D01*
X115079343Y-61116150D01*
X115302085Y-61202254D01*
X115512147Y-61309734D01*
X115708874Y-61438192D01*
X115891613Y-61587231D01*
X116059712Y-61756451D01*
X116212517Y-61945455D01*
X116270754Y-62028812D01*
X116384639Y-62221130D01*
X116478815Y-62426868D01*
X116552959Y-62643426D01*
X116606745Y-62868205D01*
X116639851Y-63098604D01*
X116651952Y-63332023D01*
X116642726Y-63565863D01*
X116611847Y-63797522D01*
X116558993Y-64024402D01*
X116530663Y-64116138D01*
X116443625Y-64339560D01*
X116336014Y-64549402D01*
X116209004Y-64744717D01*
X116063769Y-64924554D01*
X115901483Y-65087966D01*
X115723319Y-65234004D01*
X115530451Y-65361719D01*
X115324053Y-65470164D01*
X115105299Y-65558388D01*
X114875363Y-65625444D01*
X114635418Y-65670383D01*
X114602112Y-65674730D01*
X114550426Y-65679468D01*
X114481414Y-65683451D01*
X114402894Y-65686343D01*
X114322684Y-65687808D01*
X114295656Y-65687920D01*
X114295656Y-73791845D01*
X114373943Y-73792915D01*
X114553064Y-73773295D01*
X114727039Y-73732196D01*
X114893704Y-73670244D01*
X115050892Y-73588068D01*
X115196437Y-73486295D01*
X115328174Y-73365555D01*
X115423647Y-73253789D01*
X115523451Y-73102718D01*
X115601889Y-72940818D01*
X115658897Y-72770623D01*
X115694412Y-72594671D01*
X115708370Y-72415498D01*
X115700708Y-72235638D01*
X115671363Y-72057628D01*
X115620272Y-71884004D01*
X115547369Y-71717302D01*
X115465539Y-71578960D01*
X115434713Y-71537436D01*
X115392358Y-71486063D01*
X115344970Y-71432527D01*
X115314209Y-71399865D01*
X115196630Y-71291129D01*
X115070545Y-71199704D01*
X114932132Y-71123459D01*
X114777568Y-71060266D01*
X114617500Y-71011741D01*
X114615514Y-71006714D01*
X114613692Y-70992112D01*
X114612027Y-70967026D01*
X114610514Y-70930547D01*
X114609146Y-70881764D01*
X114607916Y-70819769D01*
X114606820Y-70743652D01*
X114605850Y-70652504D01*
X114605002Y-70545415D01*
X114604267Y-70421476D01*
X114603641Y-70279778D01*
X114603118Y-70119412D01*
X114602690Y-69939467D01*
X114602353Y-69739035D01*
X114602100Y-69517206D01*
X114601924Y-69273070D01*
X114601821Y-69005719D01*
X114601782Y-68714243D01*
X114601782Y-66344251D01*
X114680371Y-66335623D01*
X114838056Y-66312577D01*
X115007353Y-66277672D01*
X115179114Y-66233245D01*
X115344190Y-66181629D01*
X115474493Y-66133000D01*
X115722295Y-66018703D01*
X115955440Y-65884454D01*
X116173121Y-65731293D01*
X116374532Y-65560261D01*
X116558866Y-65372397D01*
X116725314Y-65168741D01*
X116873070Y-64950335D01*
X117001326Y-64718217D01*
X117109276Y-64473427D01*
X117196112Y-64217007D01*
X117261027Y-63949995D01*
X117287365Y-63797164D01*
X117298626Y-63700876D01*
X117307176Y-63587047D01*
X117312825Y-63463160D01*
X117315380Y-63336698D01*
X117314648Y-63215143D01*
G36*
X117301128Y-72105744D02*
G01*
X117265017Y-71842575D01*
X117205090Y-71582878D01*
X117139465Y-71377772D01*
X117033675Y-71121853D01*
X116905906Y-70877580D01*
X116757061Y-70646162D01*
X116588042Y-70428811D01*
X116399751Y-70226734D01*
X116193091Y-70041142D01*
X116071912Y-69946522D01*
X116026844Y-69913068D01*
X115845576Y-70173476D01*
X115796046Y-70245192D01*
X115751675Y-70310515D01*
X115714402Y-70366502D01*
X115686167Y-70410210D01*
X115668908Y-70438696D01*
X115664307Y-70448598D01*
X115673699Y-70463099D01*
X115698303Y-70486877D01*
X115732200Y-70514325D01*
X115902184Y-70657206D01*
X116059421Y-70819754D01*
X116202042Y-70998964D01*
X116328182Y-71191829D01*
X116435971Y-71395345D01*
X116523543Y-71606504D01*
X116589030Y-71822302D01*
X116613156Y-71932297D01*
X116646637Y-72172963D01*
X116655783Y-72413002D01*
X116641111Y-72650705D01*
X116603139Y-72884363D01*
X116542382Y-73112270D01*
X116459358Y-73332717D01*
X116354584Y-73543994D01*
X116228576Y-73744395D01*
X116081852Y-73932211D01*
X115972432Y-74049937D01*
X115790376Y-74215706D01*
X115596329Y-74359395D01*
X115390198Y-74481049D01*
X115171892Y-74580714D01*
X114941320Y-74658438D01*
X114698390Y-74714266D01*
X114639501Y-74724213D01*
X114542621Y-74735559D01*
X114429217Y-74742486D01*
X114307364Y-74744991D01*
X114185138Y-74743070D01*
X114070616Y-74736722D01*
X113971874Y-74725943D01*
X113962211Y-74724469D01*
X113719507Y-74674095D01*
X113486693Y-74601559D01*
X113265044Y-74507667D01*
X113055836Y-74393224D01*
X112860342Y-74259035D01*
X112679839Y-74105905D01*
X112515601Y-73934638D01*
X112368904Y-73746041D01*
X112336074Y-73697722D01*
X112211975Y-73487975D01*
X112110734Y-73269554D01*
X112032583Y-73044151D01*
X111977753Y-72813460D01*
X111946477Y-72579171D01*
X111938985Y-72342977D01*
X111955510Y-72106569D01*
X111996283Y-71871639D01*
X112056419Y-71655197D01*
X112144612Y-71427461D01*
X112254554Y-71211548D01*
X112385283Y-71008845D01*
X112535839Y-70820737D01*
X112705259Y-70648611D01*
X112826164Y-70545061D01*
X112942971Y-70451660D01*
X112900942Y-70392884D01*
X112880425Y-70363874D01*
X112848692Y-70318610D01*
X112808834Y-70261521D01*
X112763942Y-70197035D01*
X112717246Y-70129777D01*
X112673499Y-70067220D01*
X112634448Y-70012405D01*
X112602382Y-69968459D01*
X112579590Y-69938513D01*
X112568360Y-69925697D01*
X112567798Y-69925445D01*
X112550743Y-69933476D01*
X112518584Y-69955679D01*
X112474741Y-69989218D01*
X112422636Y-70031256D01*
X112365689Y-70078957D01*
X112307323Y-70129486D01*
X112250957Y-70180005D01*
X112200012Y-70227680D01*
X112181681Y-70245552D01*
X111992979Y-70449398D01*
X111825767Y-70665877D01*
X111680450Y-70894024D01*
X111557430Y-71132874D01*
X111457111Y-71381461D01*
X111379899Y-71638819D01*
X111326196Y-71903984D01*
X111296406Y-72175989D01*
X111289991Y-72377425D01*
X111298877Y-72633699D01*
X111326075Y-72876153D01*
X111372634Y-73109254D01*
X111439599Y-73337468D01*
X111528017Y-73565259D01*
X111609051Y-73738534D01*
X111742212Y-73977073D01*
X111895622Y-74201248D01*
X112068133Y-74409904D01*
X112258597Y-74601883D01*
X112465867Y-74776027D01*
X112688794Y-74931180D01*
X112926132Y-75066135D01*
X113173051Y-75179227D01*
X113423606Y-75268205D01*
X113680933Y-75334096D01*
X113822893Y-75360293D01*
X113998318Y-75388492D01*
X113991930Y-78431930D01*
X113903911Y-78441432D01*
X113690809Y-78474346D01*
X113470958Y-78526827D01*
X113250343Y-78596756D01*
X113034951Y-78682014D01*
X112830766Y-78780482D01*
X112652772Y-78884240D01*
X112511480Y-78981951D01*
X112368631Y-79093809D01*
X112229845Y-79214788D01*
X112100742Y-79339861D01*
X111986944Y-79464001D01*
X111938263Y-79523232D01*
X111776230Y-79748571D01*
X111637374Y-79983664D01*
X111521711Y-80228465D01*
X111429256Y-80482929D01*
X111360027Y-80747010D01*
X111314039Y-81020664D01*
X111291308Y-81303844D01*
X111289551Y-81361732D01*
X111288185Y-81438547D01*
X111287535Y-81510133D01*
X111287602Y-81571259D01*
X111288385Y-81616699D01*
X111289541Y-81638366D01*
X111308687Y-81808838D01*
X111330680Y-81960515D01*
X111356773Y-82099697D01*
X111388217Y-82232687D01*
X111426264Y-82365787D01*
X111446905Y-82430544D01*
X111542078Y-82681003D01*
X111658659Y-82919277D01*
X111795509Y-83144320D01*
X111951488Y-83355087D01*
X112125459Y-83550533D01*
X112316282Y-83729612D01*
X112522817Y-83891277D01*
X112743927Y-84034485D01*
X112978471Y-84158188D01*
X113225311Y-84261342D01*
X113483308Y-84342901D01*
X113548217Y-84359501D01*
X113659421Y-84385396D01*
X113759223Y-84405476D01*
X113853705Y-84420408D01*
X113948948Y-84430860D01*
X114051034Y-84437499D01*
X114166042Y-84440993D01*
X114300000Y-84442008D01*
X114306287Y-84441961D01*
X114306287Y-83782277D01*
X114056504Y-83770589D01*
X113814430Y-83735747D01*
X113581101Y-83678088D01*
X113357556Y-83597945D01*
X113144829Y-83495653D01*
X112943960Y-83371549D01*
X112870719Y-83318562D01*
X112689651Y-83166416D01*
X112526359Y-82997296D01*
X112381739Y-82812872D01*
X112256687Y-82614812D01*
X112152099Y-82404783D01*
X112068871Y-82184455D01*
X112007898Y-81955495D01*
X111970076Y-81719571D01*
X111961777Y-81625792D01*
X111957752Y-81566993D01*
X111954231Y-81515609D01*
X111951652Y-81478000D01*
X111950573Y-81462326D01*
X111950816Y-81440981D01*
X111952689Y-81399949D01*
X111955901Y-81344617D01*
X111960159Y-81280374D01*
X111961476Y-81261841D01*
X111990984Y-81017380D01*
X112042914Y-80782608D01*
X112116217Y-80558570D01*
X112209848Y-80346314D01*
X112322759Y-80146886D01*
X112453904Y-79961332D01*
X112602235Y-79790700D01*
X112766706Y-79636035D01*
X112946270Y-79498384D01*
X113139880Y-79378794D01*
X113346489Y-79278311D01*
X113565051Y-79197981D01*
X113794518Y-79138851D01*
X114033843Y-79101969D01*
X114130247Y-79093799D01*
X114379280Y-79089129D01*
X114622066Y-79107617D01*
X114857360Y-79148571D01*
X115083916Y-79211300D01*
X115300488Y-79295113D01*
X115505831Y-79399318D01*
X115698700Y-79523224D01*
X115877848Y-79666140D01*
X116042031Y-79827374D01*
X116190004Y-80006236D01*
X116320519Y-80202033D01*
X116404451Y-80356054D01*
X116499453Y-80574917D01*
X116571733Y-80802286D01*
X116621274Y-81035855D01*
X116648062Y-81273323D01*
X116652081Y-81512385D01*
X116633315Y-81750736D01*
X116591748Y-81986074D01*
X116527366Y-82216095D01*
X116440152Y-82438494D01*
X116418812Y-82484271D01*
X116304752Y-82693883D01*
X116171949Y-82887469D01*
X116021652Y-83064261D01*
X115855108Y-83223495D01*
X115673564Y-83364402D01*
X115478269Y-83486216D01*
X115270470Y-83588171D01*
X115051413Y-83669501D01*
X114822348Y-83729438D01*
X114584521Y-83767216D01*
X114339179Y-83782070D01*
X114306287Y-83782277D01*
X114306287Y-84441961D01*
X114433835Y-84440991D01*
X114548714Y-84437509D01*
X114650763Y-84430919D01*
X114746106Y-84420579D01*
X114840869Y-84405845D01*
X114941180Y-84386075D01*
X115035594Y-84364779D01*
X115297490Y-84290651D01*
X115548129Y-84194584D01*
X115786489Y-84077615D01*
X116011548Y-83940777D01*
X116222281Y-83785105D01*
X116417667Y-83611632D01*
X116596684Y-83421395D01*
X116758307Y-83215425D01*
X116901516Y-82994760D01*
X117025287Y-82760432D01*
X117128597Y-82513476D01*
X117210424Y-82254926D01*
X117239970Y-82135049D01*
X117262304Y-82031728D01*
X117279590Y-81940281D01*
X117292425Y-81854751D01*
X117301407Y-81769180D01*
X117307132Y-81677608D01*
X117310200Y-81574078D01*
X117311206Y-81452632D01*
X117311212Y-81424604D01*
X117309991Y-81289914D01*
X117306137Y-81174027D01*
X117298985Y-81070673D01*
X117287876Y-80973585D01*
X117272148Y-80876493D01*
X117251138Y-80773129D01*
X117234981Y-80702345D01*
X117165442Y-80456823D01*
X117074094Y-80215035D01*
X116963026Y-79981406D01*
X116834331Y-79760362D01*
X116699149Y-79568007D01*
X116624214Y-79476506D01*
X116535914Y-79378030D01*
X116440592Y-79279098D01*
X116344595Y-79186233D01*
X116254270Y-79105956D01*
X116230148Y-79086047D01*
X116024736Y-78934923D01*
X115804129Y-78800609D01*
X115571846Y-78684631D01*
X115331408Y-78588516D01*
X115086335Y-78513789D01*
X114840146Y-78461976D01*
X114765247Y-78450949D01*
X114712554Y-78443751D01*
X114666637Y-78437050D01*
X114635397Y-78432012D01*
X114630074Y-78431000D01*
X114601782Y-78425164D01*
X114601782Y-75382673D01*
X114631589Y-75382673D01*
X114664060Y-75380028D01*
X114715455Y-75372783D01*
X114780187Y-75361976D01*
X114852671Y-75348641D01*
X114927322Y-75333815D01*
X114998553Y-75318534D01*
X115060779Y-75303835D01*
X115071829Y-75301010D01*
X115320275Y-75223687D01*
X115562697Y-75123013D01*
X115796942Y-75000485D01*
X116020861Y-74857601D01*
X116232303Y-74695857D01*
X116429117Y-74516752D01*
X116609152Y-74321781D01*
X116761753Y-74124549D01*
X116907438Y-73897065D01*
X117031248Y-73658951D01*
X117132938Y-73411970D01*
X117212268Y-73157883D01*
X117268994Y-72898455D01*
X117302875Y-72635447D01*
X117313667Y-72370622D01*
X117301128Y-72105744D01*
G37*
X117301128Y-72105744D02*
X117265017Y-71842575D01*
X117205090Y-71582878D01*
X117139465Y-71377772D01*
X117033675Y-71121853D01*
X116905906Y-70877580D01*
X116757061Y-70646162D01*
X116588042Y-70428811D01*
X116399751Y-70226734D01*
X116193091Y-70041142D01*
X116071912Y-69946522D01*
X116026844Y-69913068D01*
X115845576Y-70173476D01*
X115796046Y-70245192D01*
X115751675Y-70310515D01*
X115714402Y-70366502D01*
X115686167Y-70410210D01*
X115668908Y-70438696D01*
X115664307Y-70448598D01*
X115673699Y-70463099D01*
X115698303Y-70486877D01*
X115732200Y-70514325D01*
X115902184Y-70657206D01*
X116059421Y-70819754D01*
X116202042Y-70998964D01*
X116328182Y-71191829D01*
X116435971Y-71395345D01*
X116523543Y-71606504D01*
X116589030Y-71822302D01*
X116613156Y-71932297D01*
X116646637Y-72172963D01*
X116655783Y-72413002D01*
X116641111Y-72650705D01*
X116603139Y-72884363D01*
X116542382Y-73112270D01*
X116459358Y-73332717D01*
X116354584Y-73543994D01*
X116228576Y-73744395D01*
X116081852Y-73932211D01*
X115972432Y-74049937D01*
X115790376Y-74215706D01*
X115596329Y-74359395D01*
X115390198Y-74481049D01*
X115171892Y-74580714D01*
X114941320Y-74658438D01*
X114698390Y-74714266D01*
X114639501Y-74724213D01*
X114542621Y-74735559D01*
X114429217Y-74742486D01*
X114307364Y-74744991D01*
X114185138Y-74743070D01*
X114070616Y-74736722D01*
X113971874Y-74725943D01*
X113962211Y-74724469D01*
X113719507Y-74674095D01*
X113486693Y-74601559D01*
X113265044Y-74507667D01*
X113055836Y-74393224D01*
X112860342Y-74259035D01*
X112679839Y-74105905D01*
X112515601Y-73934638D01*
X112368904Y-73746041D01*
X112336074Y-73697722D01*
X112211975Y-73487975D01*
X112110734Y-73269554D01*
X112032583Y-73044151D01*
X111977753Y-72813460D01*
X111946477Y-72579171D01*
X111938985Y-72342977D01*
X111955510Y-72106569D01*
X111996283Y-71871639D01*
X112056419Y-71655197D01*
X112144612Y-71427461D01*
X112254554Y-71211548D01*
X112385283Y-71008845D01*
X112535839Y-70820737D01*
X112705259Y-70648611D01*
X112826164Y-70545061D01*
X112942971Y-70451660D01*
X112900942Y-70392884D01*
X112880425Y-70363874D01*
X112848692Y-70318610D01*
X112808834Y-70261521D01*
X112763942Y-70197035D01*
X112717246Y-70129777D01*
X112673499Y-70067220D01*
X112634448Y-70012405D01*
X112602382Y-69968459D01*
X112579590Y-69938513D01*
X112568360Y-69925697D01*
X112567798Y-69925445D01*
X112550743Y-69933476D01*
X112518584Y-69955679D01*
X112474741Y-69989218D01*
X112422636Y-70031256D01*
X112365689Y-70078957D01*
X112307323Y-70129486D01*
X112250957Y-70180005D01*
X112200012Y-70227680D01*
X112181681Y-70245552D01*
X111992979Y-70449398D01*
X111825767Y-70665877D01*
X111680450Y-70894024D01*
X111557430Y-71132874D01*
X111457111Y-71381461D01*
X111379899Y-71638819D01*
X111326196Y-71903984D01*
X111296406Y-72175989D01*
X111289991Y-72377425D01*
X111298877Y-72633699D01*
X111326075Y-72876153D01*
X111372634Y-73109254D01*
X111439599Y-73337468D01*
X111528017Y-73565259D01*
X111609051Y-73738534D01*
X111742212Y-73977073D01*
X111895622Y-74201248D01*
X112068133Y-74409904D01*
X112258597Y-74601883D01*
X112465867Y-74776027D01*
X112688794Y-74931180D01*
X112926132Y-75066135D01*
X113173051Y-75179227D01*
X113423606Y-75268205D01*
X113680933Y-75334096D01*
X113822893Y-75360293D01*
X113998318Y-75388492D01*
X113991930Y-78431930D01*
X113903911Y-78441432D01*
X113690809Y-78474346D01*
X113470958Y-78526827D01*
X113250343Y-78596756D01*
X113034951Y-78682014D01*
X112830766Y-78780482D01*
X112652772Y-78884240D01*
X112511480Y-78981951D01*
X112368631Y-79093809D01*
X112229845Y-79214788D01*
X112100742Y-79339861D01*
X111986944Y-79464001D01*
X111938263Y-79523232D01*
X111776230Y-79748571D01*
X111637374Y-79983664D01*
X111521711Y-80228465D01*
X111429256Y-80482929D01*
X111360027Y-80747010D01*
X111314039Y-81020664D01*
X111291308Y-81303844D01*
X111289551Y-81361732D01*
X111288185Y-81438547D01*
X111287535Y-81510133D01*
X111287602Y-81571259D01*
X111288385Y-81616699D01*
X111289541Y-81638366D01*
X111308687Y-81808838D01*
X111330680Y-81960515D01*
X111356773Y-82099697D01*
X111388217Y-82232687D01*
X111426264Y-82365787D01*
X111446905Y-82430544D01*
X111542078Y-82681003D01*
X111658659Y-82919277D01*
X111795509Y-83144320D01*
X111951488Y-83355087D01*
X112125459Y-83550533D01*
X112316282Y-83729612D01*
X112522817Y-83891277D01*
X112743927Y-84034485D01*
X112978471Y-84158188D01*
X113225311Y-84261342D01*
X113483308Y-84342901D01*
X113548217Y-84359501D01*
X113659421Y-84385396D01*
X113759223Y-84405476D01*
X113853705Y-84420408D01*
X113948948Y-84430860D01*
X114051034Y-84437499D01*
X114166042Y-84440993D01*
X114300000Y-84442008D01*
X114306287Y-84441961D01*
X114306287Y-83782277D01*
X114056504Y-83770589D01*
X113814430Y-83735747D01*
X113581101Y-83678088D01*
X113357556Y-83597945D01*
X113144829Y-83495653D01*
X112943960Y-83371549D01*
X112870719Y-83318562D01*
X112689651Y-83166416D01*
X112526359Y-82997296D01*
X112381739Y-82812872D01*
X112256687Y-82614812D01*
X112152099Y-82404783D01*
X112068871Y-82184455D01*
X112007898Y-81955495D01*
X111970076Y-81719571D01*
X111961777Y-81625792D01*
X111957752Y-81566993D01*
X111954231Y-81515609D01*
X111951652Y-81478000D01*
X111950573Y-81462326D01*
X111950816Y-81440981D01*
X111952689Y-81399949D01*
X111955901Y-81344617D01*
X111960159Y-81280374D01*
X111961476Y-81261841D01*
X111990984Y-81017380D01*
X112042914Y-80782608D01*
X112116217Y-80558570D01*
X112209848Y-80346314D01*
X112322759Y-80146886D01*
X112453904Y-79961332D01*
X112602235Y-79790700D01*
X112766706Y-79636035D01*
X112946270Y-79498384D01*
X113139880Y-79378794D01*
X113346489Y-79278311D01*
X113565051Y-79197981D01*
X113794518Y-79138851D01*
X114033843Y-79101969D01*
X114130247Y-79093799D01*
X114379280Y-79089129D01*
X114622066Y-79107617D01*
X114857360Y-79148571D01*
X115083916Y-79211300D01*
X115300488Y-79295113D01*
X115505831Y-79399318D01*
X115698700Y-79523224D01*
X115877848Y-79666140D01*
X116042031Y-79827374D01*
X116190004Y-80006236D01*
X116320519Y-80202033D01*
X116404451Y-80356054D01*
X116499453Y-80574917D01*
X116571733Y-80802286D01*
X116621274Y-81035855D01*
X116648062Y-81273323D01*
X116652081Y-81512385D01*
X116633315Y-81750736D01*
X116591748Y-81986074D01*
X116527366Y-82216095D01*
X116440152Y-82438494D01*
X116418812Y-82484271D01*
X116304752Y-82693883D01*
X116171949Y-82887469D01*
X116021652Y-83064261D01*
X115855108Y-83223495D01*
X115673564Y-83364402D01*
X115478269Y-83486216D01*
X115270470Y-83588171D01*
X115051413Y-83669501D01*
X114822348Y-83729438D01*
X114584521Y-83767216D01*
X114339179Y-83782070D01*
X114306287Y-83782277D01*
X114306287Y-84441961D01*
X114433835Y-84440991D01*
X114548714Y-84437509D01*
X114650763Y-84430919D01*
X114746106Y-84420579D01*
X114840869Y-84405845D01*
X114941180Y-84386075D01*
X115035594Y-84364779D01*
X115297490Y-84290651D01*
X115548129Y-84194584D01*
X115786489Y-84077615D01*
X116011548Y-83940777D01*
X116222281Y-83785105D01*
X116417667Y-83611632D01*
X116596684Y-83421395D01*
X116758307Y-83215425D01*
X116901516Y-82994760D01*
X117025287Y-82760432D01*
X117128597Y-82513476D01*
X117210424Y-82254926D01*
X117239970Y-82135049D01*
X117262304Y-82031728D01*
X117279590Y-81940281D01*
X117292425Y-81854751D01*
X117301407Y-81769180D01*
X117307132Y-81677608D01*
X117310200Y-81574078D01*
X117311206Y-81452632D01*
X117311212Y-81424604D01*
X117309991Y-81289914D01*
X117306137Y-81174027D01*
X117298985Y-81070673D01*
X117287876Y-80973585D01*
X117272148Y-80876493D01*
X117251138Y-80773129D01*
X117234981Y-80702345D01*
X117165442Y-80456823D01*
X117074094Y-80215035D01*
X116963026Y-79981406D01*
X116834331Y-79760362D01*
X116699149Y-79568007D01*
X116624214Y-79476506D01*
X116535914Y-79378030D01*
X116440592Y-79279098D01*
X116344595Y-79186233D01*
X116254270Y-79105956D01*
X116230148Y-79086047D01*
X116024736Y-78934923D01*
X115804129Y-78800609D01*
X115571846Y-78684631D01*
X115331408Y-78588516D01*
X115086335Y-78513789D01*
X114840146Y-78461976D01*
X114765247Y-78450949D01*
X114712554Y-78443751D01*
X114666637Y-78437050D01*
X114635397Y-78432012D01*
X114630074Y-78431000D01*
X114601782Y-78425164D01*
X114601782Y-75382673D01*
X114631589Y-75382673D01*
X114664060Y-75380028D01*
X114715455Y-75372783D01*
X114780187Y-75361976D01*
X114852671Y-75348641D01*
X114927322Y-75333815D01*
X114998553Y-75318534D01*
X115060779Y-75303835D01*
X115071829Y-75301010D01*
X115320275Y-75223687D01*
X115562697Y-75123013D01*
X115796942Y-75000485D01*
X116020861Y-74857601D01*
X116232303Y-74695857D01*
X116429117Y-74516752D01*
X116609152Y-74321781D01*
X116761753Y-74124549D01*
X116907438Y-73897065D01*
X117031248Y-73658951D01*
X117132938Y-73411970D01*
X117212268Y-73157883D01*
X117268994Y-72898455D01*
X117302875Y-72635447D01*
X117313667Y-72370622D01*
X117301128Y-72105744D01*
G36*
X129894708Y-121446409D02*
G01*
X129842143Y-121446944D01*
X129688119Y-121450660D01*
X129559125Y-121461699D01*
X129450763Y-121481246D01*
X129358638Y-121510483D01*
X129278353Y-121550597D01*
X129205512Y-121602769D01*
X129179495Y-121625433D01*
X129136337Y-121678462D01*
X129097421Y-121750421D01*
X129067427Y-121830184D01*
X129051035Y-121906625D01*
X129049332Y-121934872D01*
X129060005Y-122013174D01*
X129088607Y-122098705D01*
X129130011Y-122179663D01*
X129179095Y-122244246D01*
X129187067Y-122252038D01*
X129254600Y-122306808D01*
X129328552Y-122349563D01*
X129413188Y-122381423D01*
X129512771Y-122403508D01*
X129631566Y-122416938D01*
X129773834Y-122422834D01*
X129839000Y-122423334D01*
X129921855Y-122422935D01*
X129980123Y-122421266D01*
X130019270Y-122417622D01*
X130044763Y-122411293D01*
X130062068Y-122401574D01*
X130071344Y-122393274D01*
X130080106Y-122383192D01*
X130086979Y-122370185D01*
X130092192Y-122350769D01*
X130095973Y-122321460D01*
X130098551Y-122278773D01*
X130100154Y-122219225D01*
X130101011Y-122139330D01*
X130101351Y-122035605D01*
X130101403Y-121934872D01*
X130101734Y-121800519D01*
X130101662Y-121693192D01*
X130100384Y-121641795D01*
X129906019Y-121641795D01*
X129906019Y-122227949D01*
X129782025Y-122227835D01*
X129707415Y-122225696D01*
X129629272Y-122220183D01*
X129564074Y-122212472D01*
X129562090Y-122212155D01*
X129456717Y-122186678D01*
X129374986Y-122147000D01*
X129312816Y-122090538D01*
X129273314Y-122029406D01*
X129248974Y-121961593D01*
X129250861Y-121897919D01*
X129279109Y-121829665D01*
X129334362Y-121759056D01*
X129410927Y-121706735D01*
X129510449Y-121671763D01*
X129576961Y-121659386D01*
X129652461Y-121650694D01*
X129732479Y-121644404D01*
X129800538Y-121641788D01*
X129804569Y-121641776D01*
X129906019Y-121641795D01*
X130100384Y-121641795D01*
X130099590Y-121609881D01*
X130093915Y-121547579D01*
X130083041Y-121503275D01*
X130065368Y-121473960D01*
X130039297Y-121456625D01*
X130003229Y-121448261D01*
X129955566Y-121445859D01*
X129894708Y-121446409D01*
G37*
X129894708Y-121446409D02*
X129842143Y-121446944D01*
X129688119Y-121450660D01*
X129559125Y-121461699D01*
X129450763Y-121481246D01*
X129358638Y-121510483D01*
X129278353Y-121550597D01*
X129205512Y-121602769D01*
X129179495Y-121625433D01*
X129136337Y-121678462D01*
X129097421Y-121750421D01*
X129067427Y-121830184D01*
X129051035Y-121906625D01*
X129049332Y-121934872D01*
X129060005Y-122013174D01*
X129088607Y-122098705D01*
X129130011Y-122179663D01*
X129179095Y-122244246D01*
X129187067Y-122252038D01*
X129254600Y-122306808D01*
X129328552Y-122349563D01*
X129413188Y-122381423D01*
X129512771Y-122403508D01*
X129631566Y-122416938D01*
X129773834Y-122422834D01*
X129839000Y-122423334D01*
X129921855Y-122422935D01*
X129980123Y-122421266D01*
X130019270Y-122417622D01*
X130044763Y-122411293D01*
X130062068Y-122401574D01*
X130071344Y-122393274D01*
X130080106Y-122383192D01*
X130086979Y-122370185D01*
X130092192Y-122350769D01*
X130095973Y-122321460D01*
X130098551Y-122278773D01*
X130100154Y-122219225D01*
X130101011Y-122139330D01*
X130101351Y-122035605D01*
X130101403Y-121934872D01*
X130101734Y-121800519D01*
X130101662Y-121693192D01*
X130100384Y-121641795D01*
X129906019Y-121641795D01*
X129906019Y-122227949D01*
X129782025Y-122227835D01*
X129707415Y-122225696D01*
X129629272Y-122220183D01*
X129564074Y-122212472D01*
X129562090Y-122212155D01*
X129456717Y-122186678D01*
X129374986Y-122147000D01*
X129312816Y-122090538D01*
X129273314Y-122029406D01*
X129248974Y-121961593D01*
X129250861Y-121897919D01*
X129279109Y-121829665D01*
X129334362Y-121759056D01*
X129410927Y-121706735D01*
X129510449Y-121671763D01*
X129576961Y-121659386D01*
X129652461Y-121650694D01*
X129732479Y-121644404D01*
X129800538Y-121641788D01*
X129804569Y-121641776D01*
X129906019Y-121641795D01*
X130100384Y-121641795D01*
X130099590Y-121609881D01*
X130093915Y-121547579D01*
X130083041Y-121503275D01*
X130065368Y-121473960D01*
X130039297Y-121456625D01*
X130003229Y-121448261D01*
X129955566Y-121445859D01*
X129894708Y-121446409D01*
G36*
X128019384Y-121446516D02*
G01*
X127926976Y-121447012D01*
X127857227Y-121448165D01*
X127806437Y-121450244D01*
X127770905Y-121453515D01*
X127746932Y-121458247D01*
X127730818Y-121464707D01*
X127718863Y-121473163D01*
X127714533Y-121477055D01*
X127688205Y-121518404D01*
X127683465Y-121565916D01*
X127700784Y-121608095D01*
X127708793Y-121616620D01*
X127721746Y-121624885D01*
X127742602Y-121631261D01*
X127775230Y-121636059D01*
X127823496Y-121639588D01*
X127891268Y-121642158D01*
X127982414Y-121644081D01*
X128065745Y-121645251D01*
X128395546Y-121649310D01*
X128404560Y-121822150D01*
X128180696Y-121822150D01*
X128083508Y-121822989D01*
X128012357Y-121826496D01*
X127963245Y-121834159D01*
X127932171Y-121847467D01*
X127915138Y-121867905D01*
X127908146Y-121896963D01*
X127907084Y-121923931D01*
X127910384Y-121957021D01*
X127922837Y-121981404D01*
X127948274Y-121998353D01*
X127990525Y-122009143D01*
X128053420Y-122015048D01*
X128140789Y-122017341D01*
X128188475Y-122017535D01*
X128403060Y-122017535D01*
X128403060Y-122227949D01*
X128072409Y-122227949D01*
X127964024Y-122228100D01*
X127881651Y-122228778D01*
X127821243Y-122230320D01*
X127778753Y-122233063D01*
X127750135Y-122237345D01*
X127731342Y-122243503D01*
X127718328Y-122251873D01*
X127711699Y-122258008D01*
X127688961Y-122293813D01*
X127681640Y-122325641D01*
X127692093Y-122364518D01*
X127711699Y-122393274D01*
X127722159Y-122402327D01*
X127735662Y-122409357D01*
X127755840Y-122414618D01*
X127786325Y-122418365D01*
X127830749Y-122420854D01*
X127892745Y-122422339D01*
X127975945Y-122423075D01*
X128083981Y-122423318D01*
X128140043Y-122423334D01*
X128260098Y-122423227D01*
X128353728Y-122422739D01*
X128424563Y-122421613D01*
X128476235Y-122419595D01*
X128512377Y-122416430D01*
X128536622Y-122411863D01*
X128552601Y-122405640D01*
X128563947Y-122397504D01*
X128568386Y-122393274D01*
X128577171Y-122383160D01*
X128584058Y-122370112D01*
X128589275Y-122350634D01*
X128593053Y-122321228D01*
X128595624Y-122278398D01*
X128597218Y-122218648D01*
X128598065Y-122138481D01*
X128598396Y-122034401D01*
X128598445Y-121937492D01*
X128598400Y-121813387D01*
X128598088Y-121715830D01*
X128597242Y-121641310D01*
X128595596Y-121586315D01*
X128592883Y-121547334D01*
X128588837Y-121520857D01*
X128583191Y-121503370D01*
X128575680Y-121491364D01*
X128566036Y-121481327D01*
X128563660Y-121479090D01*
X128552129Y-121469183D01*
X128538732Y-121461512D01*
X128519750Y-121455790D01*
X128491469Y-121451732D01*
X128450172Y-121449052D01*
X128392142Y-121447466D01*
X128313663Y-121446688D01*
X128211020Y-121446432D01*
X128138150Y-121446410D01*
X128019384Y-121446516D01*
G37*
X128019384Y-121446516D02*
X127926976Y-121447012D01*
X127857227Y-121448165D01*
X127806437Y-121450244D01*
X127770905Y-121453515D01*
X127746932Y-121458247D01*
X127730818Y-121464707D01*
X127718863Y-121473163D01*
X127714533Y-121477055D01*
X127688205Y-121518404D01*
X127683465Y-121565916D01*
X127700784Y-121608095D01*
X127708793Y-121616620D01*
X127721746Y-121624885D01*
X127742602Y-121631261D01*
X127775230Y-121636059D01*
X127823496Y-121639588D01*
X127891268Y-121642158D01*
X127982414Y-121644081D01*
X128065745Y-121645251D01*
X128395546Y-121649310D01*
X128404560Y-121822150D01*
X128180696Y-121822150D01*
X128083508Y-121822989D01*
X128012357Y-121826496D01*
X127963245Y-121834159D01*
X127932171Y-121847467D01*
X127915138Y-121867905D01*
X127908146Y-121896963D01*
X127907084Y-121923931D01*
X127910384Y-121957021D01*
X127922837Y-121981404D01*
X127948274Y-121998353D01*
X127990525Y-122009143D01*
X128053420Y-122015048D01*
X128140789Y-122017341D01*
X128188475Y-122017535D01*
X128403060Y-122017535D01*
X128403060Y-122227949D01*
X128072409Y-122227949D01*
X127964024Y-122228100D01*
X127881651Y-122228778D01*
X127821243Y-122230320D01*
X127778753Y-122233063D01*
X127750135Y-122237345D01*
X127731342Y-122243503D01*
X127718328Y-122251873D01*
X127711699Y-122258008D01*
X127688961Y-122293813D01*
X127681640Y-122325641D01*
X127692093Y-122364518D01*
X127711699Y-122393274D01*
X127722159Y-122402327D01*
X127735662Y-122409357D01*
X127755840Y-122414618D01*
X127786325Y-122418365D01*
X127830749Y-122420854D01*
X127892745Y-122422339D01*
X127975945Y-122423075D01*
X128083981Y-122423318D01*
X128140043Y-122423334D01*
X128260098Y-122423227D01*
X128353728Y-122422739D01*
X128424563Y-122421613D01*
X128476235Y-122419595D01*
X128512377Y-122416430D01*
X128536622Y-122411863D01*
X128552601Y-122405640D01*
X128563947Y-122397504D01*
X128568386Y-122393274D01*
X128577171Y-122383160D01*
X128584058Y-122370112D01*
X128589275Y-122350634D01*
X128593053Y-122321228D01*
X128595624Y-122278398D01*
X128597218Y-122218648D01*
X128598065Y-122138481D01*
X128598396Y-122034401D01*
X128598445Y-121937492D01*
X128598400Y-121813387D01*
X128598088Y-121715830D01*
X128597242Y-121641310D01*
X128595596Y-121586315D01*
X128592883Y-121547334D01*
X128588837Y-121520857D01*
X128583191Y-121503370D01*
X128575680Y-121491364D01*
X128566036Y-121481327D01*
X128563660Y-121479090D01*
X128552129Y-121469183D01*
X128538732Y-121461512D01*
X128519750Y-121455790D01*
X128491469Y-121451732D01*
X128450172Y-121449052D01*
X128392142Y-121447466D01*
X128313663Y-121446688D01*
X128211020Y-121446432D01*
X128138150Y-121446410D01*
X128019384Y-121446516D01*
G36*
X126659942Y-121448121D02*
G01*
X126560337Y-121455084D01*
X126467698Y-121465959D01*
X126387412Y-121480338D01*
X126324862Y-121497810D01*
X126285435Y-121517966D01*
X126279383Y-121523899D01*
X126258338Y-121569939D01*
X126264720Y-121617204D01*
X126297361Y-121657642D01*
X126298918Y-121658801D01*
X126318117Y-121671261D01*
X126338159Y-121677813D01*
X126366114Y-121678608D01*
X126409053Y-121673800D01*
X126474045Y-121663539D01*
X126479273Y-121662675D01*
X126576115Y-121650778D01*
X126680598Y-121644909D01*
X126785389Y-121644852D01*
X126883156Y-121650391D01*
X126966566Y-121661309D01*
X127028287Y-121677389D01*
X127032342Y-121679005D01*
X127077118Y-121704093D01*
X127092850Y-121729482D01*
X127080534Y-121754451D01*
X127041169Y-121778280D01*
X126975752Y-121800246D01*
X126885280Y-121819630D01*
X126824954Y-121828962D01*
X126699554Y-121846913D01*
X126599819Y-121863323D01*
X126521500Y-121879612D01*
X126460347Y-121897202D01*
X126412113Y-121917513D01*
X126372549Y-121941967D01*
X126337406Y-121971984D01*
X126309165Y-122001460D01*
X126275662Y-122042531D01*
X126259173Y-122077846D01*
X126254017Y-122121357D01*
X126253830Y-122137292D01*
X126257702Y-122190169D01*
X126273181Y-122229507D01*
X126299969Y-122264424D01*
X126354413Y-122317798D01*
X126415124Y-122358502D01*
X126486612Y-122387864D01*
X126573390Y-122407211D01*
X126679968Y-122417870D01*
X126810857Y-122421169D01*
X126832469Y-122421113D01*
X126919752Y-122419304D01*
X127006313Y-122415193D01*
X127082716Y-122409370D01*
X127139524Y-122402425D01*
X127144118Y-122401628D01*
X127200599Y-122388248D01*
X127248506Y-122371346D01*
X127275627Y-122355895D01*
X127300865Y-122315130D01*
X127302623Y-122267662D01*
X127280866Y-122225359D01*
X127275998Y-122220576D01*
X127255876Y-122206363D01*
X127230712Y-122200240D01*
X127191767Y-122201282D01*
X127144489Y-122206698D01*
X127091659Y-122211537D01*
X127017602Y-122215619D01*
X126931145Y-122218582D01*
X126841117Y-122220061D01*
X126817439Y-122220158D01*
X126727076Y-122219794D01*
X126660943Y-122218040D01*
X126613221Y-122214287D01*
X126578092Y-122207927D01*
X126549736Y-122198351D01*
X126532695Y-122190375D01*
X126495250Y-122168229D01*
X126471375Y-122148172D01*
X126467886Y-122142487D01*
X126475247Y-122119009D01*
X126510241Y-122096281D01*
X126570442Y-122075334D01*
X126653425Y-122057200D01*
X126677874Y-122053161D01*
X126805576Y-122033103D01*
X126907494Y-122016338D01*
X126987560Y-122001647D01*
X127049708Y-121987812D01*
X127097872Y-121973615D01*
X127135986Y-121957837D01*
X127167984Y-121939260D01*
X127197798Y-121916666D01*
X127229364Y-121888837D01*
X127239986Y-121879080D01*
X127277227Y-121842666D01*
X127296941Y-121813816D01*
X127304653Y-121780802D01*
X127305901Y-121739199D01*
X127292169Y-121657615D01*
X127251132Y-121588298D01*
X127183024Y-121531472D01*
X127088081Y-121487361D01*
X127020338Y-121467576D01*
X126946713Y-121454797D01*
X126858515Y-121447568D01*
X126761130Y-121445479D01*
X126659942Y-121448121D01*
G37*
X126659942Y-121448121D02*
X126560337Y-121455084D01*
X126467698Y-121465959D01*
X126387412Y-121480338D01*
X126324862Y-121497810D01*
X126285435Y-121517966D01*
X126279383Y-121523899D01*
X126258338Y-121569939D01*
X126264720Y-121617204D01*
X126297361Y-121657642D01*
X126298918Y-121658801D01*
X126318117Y-121671261D01*
X126338159Y-121677813D01*
X126366114Y-121678608D01*
X126409053Y-121673800D01*
X126474045Y-121663539D01*
X126479273Y-121662675D01*
X126576115Y-121650778D01*
X126680598Y-121644909D01*
X126785389Y-121644852D01*
X126883156Y-121650391D01*
X126966566Y-121661309D01*
X127028287Y-121677389D01*
X127032342Y-121679005D01*
X127077118Y-121704093D01*
X127092850Y-121729482D01*
X127080534Y-121754451D01*
X127041169Y-121778280D01*
X126975752Y-121800246D01*
X126885280Y-121819630D01*
X126824954Y-121828962D01*
X126699554Y-121846913D01*
X126599819Y-121863323D01*
X126521500Y-121879612D01*
X126460347Y-121897202D01*
X126412113Y-121917513D01*
X126372549Y-121941967D01*
X126337406Y-121971984D01*
X126309165Y-122001460D01*
X126275662Y-122042531D01*
X126259173Y-122077846D01*
X126254017Y-122121357D01*
X126253830Y-122137292D01*
X126257702Y-122190169D01*
X126273181Y-122229507D01*
X126299969Y-122264424D01*
X126354413Y-122317798D01*
X126415124Y-122358502D01*
X126486612Y-122387864D01*
X126573390Y-122407211D01*
X126679968Y-122417870D01*
X126810857Y-122421169D01*
X126832469Y-122421113D01*
X126919752Y-122419304D01*
X127006313Y-122415193D01*
X127082716Y-122409370D01*
X127139524Y-122402425D01*
X127144118Y-122401628D01*
X127200599Y-122388248D01*
X127248506Y-122371346D01*
X127275627Y-122355895D01*
X127300865Y-122315130D01*
X127302623Y-122267662D01*
X127280866Y-122225359D01*
X127275998Y-122220576D01*
X127255876Y-122206363D01*
X127230712Y-122200240D01*
X127191767Y-122201282D01*
X127144489Y-122206698D01*
X127091659Y-122211537D01*
X127017602Y-122215619D01*
X126931145Y-122218582D01*
X126841117Y-122220061D01*
X126817439Y-122220158D01*
X126727076Y-122219794D01*
X126660943Y-122218040D01*
X126613221Y-122214287D01*
X126578092Y-122207927D01*
X126549736Y-122198351D01*
X126532695Y-122190375D01*
X126495250Y-122168229D01*
X126471375Y-122148172D01*
X126467886Y-122142487D01*
X126475247Y-122119009D01*
X126510241Y-122096281D01*
X126570442Y-122075334D01*
X126653425Y-122057200D01*
X126677874Y-122053161D01*
X126805576Y-122033103D01*
X126907494Y-122016338D01*
X126987560Y-122001647D01*
X127049708Y-121987812D01*
X127097872Y-121973615D01*
X127135986Y-121957837D01*
X127167984Y-121939260D01*
X127197798Y-121916666D01*
X127229364Y-121888837D01*
X127239986Y-121879080D01*
X127277227Y-121842666D01*
X127296941Y-121813816D01*
X127304653Y-121780802D01*
X127305901Y-121739199D01*
X127292169Y-121657615D01*
X127251132Y-121588298D01*
X127183024Y-121531472D01*
X127088081Y-121487361D01*
X127020338Y-121467576D01*
X126946713Y-121454797D01*
X126858515Y-121447568D01*
X126761130Y-121445479D01*
X126659942Y-121448121D01*
G36*
X125637617Y-121476470D02*
G01*
X125628855Y-121486552D01*
X125621982Y-121499559D01*
X125616769Y-121518975D01*
X125612988Y-121548284D01*
X125610410Y-121590971D01*
X125608807Y-121650519D01*
X125607949Y-121730414D01*
X125607610Y-121834140D01*
X125607557Y-121934872D01*
X125607650Y-122059816D01*
X125608081Y-122158185D01*
X125609077Y-122233465D01*
X125610869Y-122289138D01*
X125613683Y-122328690D01*
X125617750Y-122355605D01*
X125623296Y-122373367D01*
X125630551Y-122385461D01*
X125637617Y-122393274D01*
X125681556Y-122419476D01*
X125728374Y-122417125D01*
X125770263Y-122388548D01*
X125779888Y-122377391D01*
X125787409Y-122364447D01*
X125793088Y-122346136D01*
X125797181Y-122318882D01*
X125799949Y-122279104D01*
X125801650Y-122223226D01*
X125802543Y-122147668D01*
X125802887Y-122048852D01*
X125802942Y-121936978D01*
X125802942Y-121520192D01*
X125766051Y-121483301D01*
X125720579Y-121452264D01*
X125676470Y-121451145D01*
X125637617Y-121476470D01*
G37*
X125637617Y-121476470D02*
X125628855Y-121486552D01*
X125621982Y-121499559D01*
X125616769Y-121518975D01*
X125612988Y-121548284D01*
X125610410Y-121590971D01*
X125608807Y-121650519D01*
X125607949Y-121730414D01*
X125607610Y-121834140D01*
X125607557Y-121934872D01*
X125607650Y-122059816D01*
X125608081Y-122158185D01*
X125609077Y-122233465D01*
X125610869Y-122289138D01*
X125613683Y-122328690D01*
X125617750Y-122355605D01*
X125623296Y-122373367D01*
X125630551Y-122385461D01*
X125637617Y-122393274D01*
X125681556Y-122419476D01*
X125728374Y-122417125D01*
X125770263Y-122388548D01*
X125779888Y-122377391D01*
X125787409Y-122364447D01*
X125793088Y-122346136D01*
X125797181Y-122318882D01*
X125799949Y-122279104D01*
X125801650Y-122223226D01*
X125802543Y-122147668D01*
X125802887Y-122048852D01*
X125802942Y-121936978D01*
X125802942Y-121520192D01*
X125766051Y-121483301D01*
X125720579Y-121452264D01*
X125676470Y-121451145D01*
X125637617Y-121476470D01*
G36*
X124341216Y-121453776D02*
G01*
X124249995Y-121469082D01*
X124179936Y-121492875D01*
X124134358Y-121524204D01*
X124121938Y-121542078D01*
X124109308Y-121583649D01*
X124117807Y-121621256D01*
X124144639Y-121656919D01*
X124186330Y-121673603D01*
X124246824Y-121672248D01*
X124293613Y-121663209D01*
X124397582Y-121645987D01*
X124503834Y-121644351D01*
X124622763Y-121658329D01*
X124655614Y-121664252D01*
X124766199Y-121695431D01*
X124852713Y-121741810D01*
X124914207Y-121802599D01*
X124949732Y-121877008D01*
X124957079Y-121915478D01*
X124952270Y-121993527D01*
X124921220Y-122062581D01*
X124866760Y-122121293D01*
X124791718Y-122168317D01*
X124698924Y-122202307D01*
X124591206Y-122221918D01*
X124471395Y-122225805D01*
X124342319Y-122212620D01*
X124335031Y-122211376D01*
X124283692Y-122201814D01*
X124255226Y-122192578D01*
X124242888Y-122178873D01*
X124239932Y-122155906D01*
X124239865Y-122143743D01*
X124239865Y-122092683D01*
X124331031Y-122092683D01*
X124411536Y-122087168D01*
X124466475Y-122069594D01*
X124498440Y-122038417D01*
X124510026Y-121992094D01*
X124510167Y-121986048D01*
X124503389Y-121946453D01*
X124480145Y-121918181D01*
X124436884Y-121899471D01*
X124370055Y-121888564D01*
X124305324Y-121884554D01*
X124211241Y-121882253D01*
X124142998Y-121885764D01*
X124096455Y-121898719D01*
X124067472Y-121924750D01*
X124051909Y-121967491D01*
X124045625Y-122030574D01*
X124044480Y-122113428D01*
X124046356Y-122205910D01*
X124052000Y-122268818D01*
X124061436Y-122302403D01*
X124063267Y-122305033D01*
X124115079Y-122346998D01*
X124191044Y-122380232D01*
X124286346Y-122404023D01*
X124396170Y-122417663D01*
X124515700Y-122420442D01*
X124640120Y-122411649D01*
X124713297Y-122400849D01*
X124828074Y-122368362D01*
X124934750Y-122315250D01*
X125024065Y-122246319D01*
X125037640Y-122232542D01*
X125081746Y-122174622D01*
X125121543Y-122102840D01*
X125152381Y-122027583D01*
X125169611Y-121959241D01*
X125171688Y-121932993D01*
X125162847Y-121878241D01*
X125139349Y-121810119D01*
X125105703Y-121738414D01*
X125066418Y-121672913D01*
X125031709Y-121629162D01*
X124950557Y-121564083D01*
X124845652Y-121512285D01*
X124720754Y-121474938D01*
X124579621Y-121453217D01*
X124450279Y-121447909D01*
X124341216Y-121453776D01*
G37*
X124341216Y-121453776D02*
X124249995Y-121469082D01*
X124179936Y-121492875D01*
X124134358Y-121524204D01*
X124121938Y-121542078D01*
X124109308Y-121583649D01*
X124117807Y-121621256D01*
X124144639Y-121656919D01*
X124186330Y-121673603D01*
X124246824Y-121672248D01*
X124293613Y-121663209D01*
X124397582Y-121645987D01*
X124503834Y-121644351D01*
X124622763Y-121658329D01*
X124655614Y-121664252D01*
X124766199Y-121695431D01*
X124852713Y-121741810D01*
X124914207Y-121802599D01*
X124949732Y-121877008D01*
X124957079Y-121915478D01*
X124952270Y-121993527D01*
X124921220Y-122062581D01*
X124866760Y-122121293D01*
X124791718Y-122168317D01*
X124698924Y-122202307D01*
X124591206Y-122221918D01*
X124471395Y-122225805D01*
X124342319Y-122212620D01*
X124335031Y-122211376D01*
X124283692Y-122201814D01*
X124255226Y-122192578D01*
X124242888Y-122178873D01*
X124239932Y-122155906D01*
X124239865Y-122143743D01*
X124239865Y-122092683D01*
X124331031Y-122092683D01*
X124411536Y-122087168D01*
X124466475Y-122069594D01*
X124498440Y-122038417D01*
X124510026Y-121992094D01*
X124510167Y-121986048D01*
X124503389Y-121946453D01*
X124480145Y-121918181D01*
X124436884Y-121899471D01*
X124370055Y-121888564D01*
X124305324Y-121884554D01*
X124211241Y-121882253D01*
X124142998Y-121885764D01*
X124096455Y-121898719D01*
X124067472Y-121924750D01*
X124051909Y-121967491D01*
X124045625Y-122030574D01*
X124044480Y-122113428D01*
X124046356Y-122205910D01*
X124052000Y-122268818D01*
X124061436Y-122302403D01*
X124063267Y-122305033D01*
X124115079Y-122346998D01*
X124191044Y-122380232D01*
X124286346Y-122404023D01*
X124396170Y-122417663D01*
X124515700Y-122420442D01*
X124640120Y-122411649D01*
X124713297Y-122400849D01*
X124828074Y-122368362D01*
X124934750Y-122315250D01*
X125024065Y-122246319D01*
X125037640Y-122232542D01*
X125081746Y-122174622D01*
X125121543Y-122102840D01*
X125152381Y-122027583D01*
X125169611Y-121959241D01*
X125171688Y-121932993D01*
X125162847Y-121878241D01*
X125139349Y-121810119D01*
X125105703Y-121738414D01*
X125066418Y-121672913D01*
X125031709Y-121629162D01*
X124950557Y-121564083D01*
X124845652Y-121512285D01*
X124720754Y-121474938D01*
X124579621Y-121453217D01*
X124450279Y-121447909D01*
X124341216Y-121453776D01*
G36*
X123475874Y-121452244D02*
G01*
X123444499Y-121470649D01*
X123403476Y-121500749D01*
X123350678Y-121543960D01*
X123283979Y-121601702D01*
X123201253Y-121675392D01*
X123100374Y-121766448D01*
X122984895Y-121871138D01*
X122744421Y-122089207D01*
X122736906Y-121796508D01*
X122734193Y-121695754D01*
X122731576Y-121620722D01*
X122728474Y-121567084D01*
X122724310Y-121530510D01*
X122718505Y-121506671D01*
X122710478Y-121491238D01*
X122699651Y-121479882D01*
X122693910Y-121475110D01*
X122647937Y-121449877D01*
X122604191Y-121453566D01*
X122569489Y-121475123D01*
X122534007Y-121503835D01*
X122529594Y-121923150D01*
X122528373Y-122046471D01*
X122527751Y-122143348D01*
X122527944Y-122217394D01*
X122529168Y-122272221D01*
X122531638Y-122311443D01*
X122535568Y-122338673D01*
X122541174Y-122357523D01*
X122548672Y-122371605D01*
X122556987Y-122382899D01*
X122574976Y-122403846D01*
X122592875Y-122417731D01*
X122613166Y-122423060D01*
X122638332Y-122418340D01*
X122670854Y-122402077D01*
X122713217Y-122372777D01*
X122767902Y-122328946D01*
X122837391Y-122269091D01*
X122924169Y-122191718D01*
X123022469Y-122102814D01*
X123375664Y-121782435D01*
X123383179Y-122074177D01*
X123385897Y-122174747D01*
X123388521Y-122249604D01*
X123391633Y-122303084D01*
X123395816Y-122339526D01*
X123401651Y-122363268D01*
X123409720Y-122378646D01*
X123420605Y-122390000D01*
X123426175Y-122394626D01*
X123475410Y-122420042D01*
X123521931Y-122416209D01*
X123562443Y-122383733D01*
X123571710Y-122370667D01*
X123578933Y-122355409D01*
X123584366Y-122334296D01*
X123588262Y-122303669D01*
X123590875Y-122259866D01*
X123592461Y-122199227D01*
X123593272Y-122118091D01*
X123593562Y-122012797D01*
X123593593Y-121934872D01*
X123593495Y-121812988D01*
X123593033Y-121717503D01*
X123591951Y-121644755D01*
X123589997Y-121591083D01*
X123586916Y-121552827D01*
X123582454Y-121526327D01*
X123576357Y-121507920D01*
X123568371Y-121493948D01*
X123562443Y-121486011D01*
X123547416Y-121467212D01*
X123533372Y-121453017D01*
X123518184Y-121444846D01*
X123499727Y-121444116D01*
X123475874Y-121452244D01*
G37*
X123475874Y-121452244D02*
X123444499Y-121470649D01*
X123403476Y-121500749D01*
X123350678Y-121543960D01*
X123283979Y-121601702D01*
X123201253Y-121675392D01*
X123100374Y-121766448D01*
X122984895Y-121871138D01*
X122744421Y-122089207D01*
X122736906Y-121796508D01*
X122734193Y-121695754D01*
X122731576Y-121620722D01*
X122728474Y-121567084D01*
X122724310Y-121530510D01*
X122718505Y-121506671D01*
X122710478Y-121491238D01*
X122699651Y-121479882D01*
X122693910Y-121475110D01*
X122647937Y-121449877D01*
X122604191Y-121453566D01*
X122569489Y-121475123D01*
X122534007Y-121503835D01*
X122529594Y-121923150D01*
X122528373Y-122046471D01*
X122527751Y-122143348D01*
X122527944Y-122217394D01*
X122529168Y-122272221D01*
X122531638Y-122311443D01*
X122535568Y-122338673D01*
X122541174Y-122357523D01*
X122548672Y-122371605D01*
X122556987Y-122382899D01*
X122574976Y-122403846D01*
X122592875Y-122417731D01*
X122613166Y-122423060D01*
X122638332Y-122418340D01*
X122670854Y-122402077D01*
X122713217Y-122372777D01*
X122767902Y-122328946D01*
X122837391Y-122269091D01*
X122924169Y-122191718D01*
X123022469Y-122102814D01*
X123375664Y-121782435D01*
X123383179Y-122074177D01*
X123385897Y-122174747D01*
X123388521Y-122249604D01*
X123391633Y-122303084D01*
X123395816Y-122339526D01*
X123401651Y-122363268D01*
X123409720Y-122378646D01*
X123420605Y-122390000D01*
X123426175Y-122394626D01*
X123475410Y-122420042D01*
X123521931Y-122416209D01*
X123562443Y-122383733D01*
X123571710Y-122370667D01*
X123578933Y-122355409D01*
X123584366Y-122334296D01*
X123588262Y-122303669D01*
X123590875Y-122259866D01*
X123592461Y-122199227D01*
X123593272Y-122118091D01*
X123593562Y-122012797D01*
X123593593Y-121934872D01*
X123593495Y-121812988D01*
X123593033Y-121717503D01*
X123591951Y-121644755D01*
X123589997Y-121591083D01*
X123586916Y-121552827D01*
X123582454Y-121526327D01*
X123576357Y-121507920D01*
X123568371Y-121493948D01*
X123562443Y-121486011D01*
X123547416Y-121467212D01*
X123533372Y-121453017D01*
X123518184Y-121444846D01*
X123499727Y-121444116D01*
X123475874Y-121452244D01*
G36*
X121438284Y-121446667D02*
G01*
X121336623Y-121447884D01*
X121258718Y-121450730D01*
X121201419Y-121455874D01*
X121161573Y-121463984D01*
X121136032Y-121475731D01*
X121121643Y-121491782D01*
X121115255Y-121512808D01*
X121113719Y-121539476D01*
X121113711Y-121542626D01*
X121115045Y-121572790D01*
X121121349Y-121596103D01*
X121136078Y-121613506D01*
X121162685Y-121625940D01*
X121204626Y-121634345D01*
X121265354Y-121639665D01*
X121348324Y-121642839D01*
X121456989Y-121644809D01*
X121490295Y-121645245D01*
X121812587Y-121649310D01*
X121817094Y-121735730D01*
X121821602Y-121822150D01*
X121597737Y-121822150D01*
X121510279Y-121822473D01*
X121447831Y-121823837D01*
X121405346Y-121826839D01*
X121377777Y-121832073D01*
X121360078Y-121840135D01*
X121347203Y-121851620D01*
X121347120Y-121851711D01*
X121323770Y-121896471D01*
X121324614Y-121944847D01*
X121349121Y-121986086D01*
X121353971Y-121990325D01*
X121371185Y-122001249D01*
X121394774Y-122008849D01*
X121429993Y-122013697D01*
X121482100Y-122016366D01*
X121556350Y-122017428D01*
X121603838Y-122017535D01*
X121820102Y-122017535D01*
X121820102Y-122227949D01*
X121491780Y-122227949D01*
X121383382Y-122228139D01*
X121301065Y-122228914D01*
X121240851Y-122230584D01*
X121198765Y-122233458D01*
X121170829Y-122237847D01*
X121153066Y-122244059D01*
X121141500Y-122252404D01*
X121138585Y-122255434D01*
X121117064Y-122297434D01*
X121115490Y-122345214D01*
X121133145Y-122386642D01*
X121147115Y-122399937D01*
X121161646Y-122407256D01*
X121184162Y-122412919D01*
X121218224Y-122417123D01*
X121267393Y-122420068D01*
X121335232Y-122421951D01*
X121425302Y-122422970D01*
X121541163Y-122423325D01*
X121567357Y-122423334D01*
X121685161Y-122423256D01*
X121776604Y-122422831D01*
X121845386Y-122421766D01*
X121895204Y-122419769D01*
X121929760Y-122416550D01*
X121952750Y-122411816D01*
X121967874Y-122405277D01*
X121978831Y-122396641D01*
X121984842Y-122390440D01*
X121993890Y-122379457D01*
X122000958Y-122365852D01*
X122006291Y-122346056D01*
X122010132Y-122316502D01*
X122012725Y-122273621D01*
X122014313Y-122213845D01*
X122015139Y-122133607D01*
X122015448Y-122029339D01*
X122015486Y-121941580D01*
X122015392Y-121818608D01*
X122014943Y-121722069D01*
X122013892Y-121648339D01*
X122011990Y-121593790D01*
X122008991Y-121554799D01*
X122004645Y-121527739D01*
X121998706Y-121508984D01*
X121990925Y-121494910D01*
X121984336Y-121486011D01*
X121953186Y-121446410D01*
X121566852Y-121446410D01*
X121438284Y-121446667D01*
G37*
X121438284Y-121446667D02*
X121336623Y-121447884D01*
X121258718Y-121450730D01*
X121201419Y-121455874D01*
X121161573Y-121463984D01*
X121136032Y-121475731D01*
X121121643Y-121491782D01*
X121115255Y-121512808D01*
X121113719Y-121539476D01*
X121113711Y-121542626D01*
X121115045Y-121572790D01*
X121121349Y-121596103D01*
X121136078Y-121613506D01*
X121162685Y-121625940D01*
X121204626Y-121634345D01*
X121265354Y-121639665D01*
X121348324Y-121642839D01*
X121456989Y-121644809D01*
X121490295Y-121645245D01*
X121812587Y-121649310D01*
X121817094Y-121735730D01*
X121821602Y-121822150D01*
X121597737Y-121822150D01*
X121510279Y-121822473D01*
X121447831Y-121823837D01*
X121405346Y-121826839D01*
X121377777Y-121832073D01*
X121360078Y-121840135D01*
X121347203Y-121851620D01*
X121347120Y-121851711D01*
X121323770Y-121896471D01*
X121324614Y-121944847D01*
X121349121Y-121986086D01*
X121353971Y-121990325D01*
X121371185Y-122001249D01*
X121394774Y-122008849D01*
X121429993Y-122013697D01*
X121482100Y-122016366D01*
X121556350Y-122017428D01*
X121603838Y-122017535D01*
X121820102Y-122017535D01*
X121820102Y-122227949D01*
X121491780Y-122227949D01*
X121383382Y-122228139D01*
X121301065Y-122228914D01*
X121240851Y-122230584D01*
X121198765Y-122233458D01*
X121170829Y-122237847D01*
X121153066Y-122244059D01*
X121141500Y-122252404D01*
X121138585Y-122255434D01*
X121117064Y-122297434D01*
X121115490Y-122345214D01*
X121133145Y-122386642D01*
X121147115Y-122399937D01*
X121161646Y-122407256D01*
X121184162Y-122412919D01*
X121218224Y-122417123D01*
X121267393Y-122420068D01*
X121335232Y-122421951D01*
X121425302Y-122422970D01*
X121541163Y-122423325D01*
X121567357Y-122423334D01*
X121685161Y-122423256D01*
X121776604Y-122422831D01*
X121845386Y-122421766D01*
X121895204Y-122419769D01*
X121929760Y-122416550D01*
X121952750Y-122411816D01*
X121967874Y-122405277D01*
X121978831Y-122396641D01*
X121984842Y-122390440D01*
X121993890Y-122379457D01*
X122000958Y-122365852D01*
X122006291Y-122346056D01*
X122010132Y-122316502D01*
X122012725Y-122273621D01*
X122014313Y-122213845D01*
X122015139Y-122133607D01*
X122015448Y-122029339D01*
X122015486Y-121941580D01*
X122015392Y-121818608D01*
X122014943Y-121722069D01*
X122013892Y-121648339D01*
X122011990Y-121593790D01*
X122008991Y-121554799D01*
X122004645Y-121527739D01*
X121998706Y-121508984D01*
X121990925Y-121494910D01*
X121984336Y-121486011D01*
X121953186Y-121446410D01*
X121566852Y-121446410D01*
X121438284Y-121446667D01*
G36*
X120389217Y-121446687D02*
G01*
X120217499Y-121452493D01*
X120071445Y-121470101D01*
X119948647Y-121500563D01*
X119846697Y-121544935D01*
X119763186Y-121604271D01*
X119695707Y-121679624D01*
X119641851Y-121772050D01*
X119640792Y-121774304D01*
X119608651Y-121857024D01*
X119597199Y-121930284D01*
X119606480Y-122004012D01*
X119636539Y-122088135D01*
X119642239Y-122100937D01*
X119681115Y-122175862D01*
X119724805Y-122233757D01*
X119781194Y-122282972D01*
X119858162Y-122331857D01*
X119862634Y-122334409D01*
X119929637Y-122366595D01*
X120005369Y-122390632D01*
X120094696Y-122407351D01*
X120202485Y-122417579D01*
X120333602Y-122422146D01*
X120379928Y-122422543D01*
X120600524Y-122423334D01*
X120631674Y-122383733D01*
X120640914Y-122370711D01*
X120648122Y-122355504D01*
X120653550Y-122334466D01*
X120657449Y-122303950D01*
X120660071Y-122260311D01*
X120660926Y-122227949D01*
X120452409Y-122227949D01*
X120327418Y-122227949D01*
X120254277Y-122225810D01*
X120179193Y-122220181D01*
X120117570Y-122212243D01*
X120113851Y-122211575D01*
X120004401Y-122182212D01*
X119919506Y-122138097D01*
X119856482Y-122077183D01*
X119812640Y-121997424D01*
X119805017Y-121976284D01*
X119797544Y-121943362D01*
X119800779Y-121910836D01*
X119816521Y-121867564D01*
X119826010Y-121846307D01*
X119857083Y-121789820D01*
X119894521Y-121750191D01*
X119935713Y-121722594D01*
X120018224Y-121686682D01*
X120123821Y-121660668D01*
X120246836Y-121645688D01*
X120335930Y-121642392D01*
X120452409Y-121641795D01*
X120452409Y-122227949D01*
X120660926Y-122227949D01*
X120661668Y-122199900D01*
X120662490Y-122119072D01*
X120662790Y-122014181D01*
X120662824Y-121932162D01*
X120662824Y-121520192D01*
X120625933Y-121483301D01*
X120609560Y-121468348D01*
X120591857Y-121458108D01*
X120567135Y-121451701D01*
X120529706Y-121448247D01*
X120473881Y-121446867D01*
X120393972Y-121446681D01*
X120389217Y-121446687D01*
G37*
X120389217Y-121446687D02*
X120217499Y-121452493D01*
X120071445Y-121470101D01*
X119948647Y-121500563D01*
X119846697Y-121544935D01*
X119763186Y-121604271D01*
X119695707Y-121679624D01*
X119641851Y-121772050D01*
X119640792Y-121774304D01*
X119608651Y-121857024D01*
X119597199Y-121930284D01*
X119606480Y-122004012D01*
X119636539Y-122088135D01*
X119642239Y-122100937D01*
X119681115Y-122175862D01*
X119724805Y-122233757D01*
X119781194Y-122282972D01*
X119858162Y-122331857D01*
X119862634Y-122334409D01*
X119929637Y-122366595D01*
X120005369Y-122390632D01*
X120094696Y-122407351D01*
X120202485Y-122417579D01*
X120333602Y-122422146D01*
X120379928Y-122422543D01*
X120600524Y-122423334D01*
X120631674Y-122383733D01*
X120640914Y-122370711D01*
X120648122Y-122355504D01*
X120653550Y-122334466D01*
X120657449Y-122303950D01*
X120660071Y-122260311D01*
X120660926Y-122227949D01*
X120452409Y-122227949D01*
X120327418Y-122227949D01*
X120254277Y-122225810D01*
X120179193Y-122220181D01*
X120117570Y-122212243D01*
X120113851Y-122211575D01*
X120004401Y-122182212D01*
X119919506Y-122138097D01*
X119856482Y-122077183D01*
X119812640Y-121997424D01*
X119805017Y-121976284D01*
X119797544Y-121943362D01*
X119800779Y-121910836D01*
X119816521Y-121867564D01*
X119826010Y-121846307D01*
X119857083Y-121789820D01*
X119894521Y-121750191D01*
X119935713Y-121722594D01*
X120018224Y-121686682D01*
X120123821Y-121660668D01*
X120246836Y-121645688D01*
X120335930Y-121642392D01*
X120452409Y-121641795D01*
X120452409Y-122227949D01*
X120660926Y-122227949D01*
X120661668Y-122199900D01*
X120662490Y-122119072D01*
X120662790Y-122014181D01*
X120662824Y-121932162D01*
X120662824Y-121520192D01*
X120625933Y-121483301D01*
X120609560Y-121468348D01*
X120591857Y-121458108D01*
X120567135Y-121451701D01*
X120529706Y-121448247D01*
X120473881Y-121446867D01*
X120393972Y-121446681D01*
X120389217Y-121446687D01*
G36*
X116759453Y-121449030D02*
G01*
X116733372Y-121458350D01*
X116732366Y-121458806D01*
X116696948Y-121485834D01*
X116677434Y-121513636D01*
X116673616Y-121526672D01*
X116673805Y-121543992D01*
X116679178Y-121568667D01*
X116690912Y-121603764D01*
X116710187Y-121652353D01*
X116738178Y-121717502D01*
X116776064Y-121802281D01*
X116825022Y-121909759D01*
X116851969Y-121968503D01*
X116900630Y-122073373D01*
X116946310Y-122169814D01*
X116987266Y-122254298D01*
X117021754Y-122323300D01*
X117048031Y-122373294D01*
X117064354Y-122400754D01*
X117067584Y-122404547D01*
X117108911Y-122421280D01*
X117155591Y-122419039D01*
X117193030Y-122398687D01*
X117194556Y-122397032D01*
X117209449Y-122374486D01*
X117234431Y-122330571D01*
X117266421Y-122270940D01*
X117302340Y-122201246D01*
X117315248Y-122175563D01*
X117412686Y-121980397D01*
X117518894Y-122192407D01*
X117556803Y-122265661D01*
X117591973Y-122329190D01*
X117621532Y-122378131D01*
X117642606Y-122407622D01*
X117649748Y-122413876D01*
X117705262Y-122422345D01*
X117751071Y-122404547D01*
X117764546Y-122385525D01*
X117787864Y-122343249D01*
X117819123Y-122281880D01*
X117856420Y-122205576D01*
X117897854Y-122118499D01*
X117941522Y-122024807D01*
X117985522Y-121928661D01*
X118027952Y-121834221D01*
X118066910Y-121745645D01*
X118100493Y-121667096D01*
X118126799Y-121602731D01*
X118143926Y-121556711D01*
X118149971Y-121533197D01*
X118149909Y-121532345D01*
X118135200Y-121502756D01*
X118105798Y-121472620D01*
X118104067Y-121471308D01*
X118067930Y-121450882D01*
X118034506Y-121451080D01*
X118021978Y-121454931D01*
X118006713Y-121463253D01*
X117990502Y-121479625D01*
X117971401Y-121507442D01*
X117947465Y-121550100D01*
X117916749Y-121610995D01*
X117877309Y-121693525D01*
X117841742Y-121769707D01*
X117800823Y-121858014D01*
X117764156Y-121937426D01*
X117733646Y-122003796D01*
X117711198Y-122052975D01*
X117698717Y-122080813D01*
X117696897Y-122085168D01*
X117688710Y-122078049D01*
X117669895Y-122048241D01*
X117642954Y-122000096D01*
X117610392Y-121937963D01*
X117597434Y-121912328D01*
X117553540Y-121825765D01*
X117519689Y-121762725D01*
X117493103Y-121719542D01*
X117471005Y-121692552D01*
X117450616Y-121678088D01*
X117429160Y-121672487D01*
X117415177Y-121671854D01*
X117390512Y-121674040D01*
X117368898Y-121683079D01*
X117347422Y-121702697D01*
X117323170Y-121736617D01*
X117293230Y-121788562D01*
X117254687Y-121862258D01*
X117233422Y-121904180D01*
X117198928Y-121970994D01*
X117168844Y-122026401D01*
X117145823Y-122065727D01*
X117132520Y-122084296D01*
X117130711Y-122085069D01*
X117122120Y-122070455D01*
X117102886Y-122032507D01*
X117074935Y-121975196D01*
X117040193Y-121902496D01*
X117000587Y-121818376D01*
X116981104Y-121776594D01*
X116930420Y-121668763D01*
X116889607Y-121585790D01*
X116856546Y-121524966D01*
X116829119Y-121483585D01*
X116805208Y-121458940D01*
X116782692Y-121448324D01*
X116759453Y-121449030D01*
G37*
X116759453Y-121449030D02*
X116733372Y-121458350D01*
X116732366Y-121458806D01*
X116696948Y-121485834D01*
X116677434Y-121513636D01*
X116673616Y-121526672D01*
X116673805Y-121543992D01*
X116679178Y-121568667D01*
X116690912Y-121603764D01*
X116710187Y-121652353D01*
X116738178Y-121717502D01*
X116776064Y-121802281D01*
X116825022Y-121909759D01*
X116851969Y-121968503D01*
X116900630Y-122073373D01*
X116946310Y-122169814D01*
X116987266Y-122254298D01*
X117021754Y-122323300D01*
X117048031Y-122373294D01*
X117064354Y-122400754D01*
X117067584Y-122404547D01*
X117108911Y-122421280D01*
X117155591Y-122419039D01*
X117193030Y-122398687D01*
X117194556Y-122397032D01*
X117209449Y-122374486D01*
X117234431Y-122330571D01*
X117266421Y-122270940D01*
X117302340Y-122201246D01*
X117315248Y-122175563D01*
X117412686Y-121980397D01*
X117518894Y-122192407D01*
X117556803Y-122265661D01*
X117591973Y-122329190D01*
X117621532Y-122378131D01*
X117642606Y-122407622D01*
X117649748Y-122413876D01*
X117705262Y-122422345D01*
X117751071Y-122404547D01*
X117764546Y-122385525D01*
X117787864Y-122343249D01*
X117819123Y-122281880D01*
X117856420Y-122205576D01*
X117897854Y-122118499D01*
X117941522Y-122024807D01*
X117985522Y-121928661D01*
X118027952Y-121834221D01*
X118066910Y-121745645D01*
X118100493Y-121667096D01*
X118126799Y-121602731D01*
X118143926Y-121556711D01*
X118149971Y-121533197D01*
X118149909Y-121532345D01*
X118135200Y-121502756D01*
X118105798Y-121472620D01*
X118104067Y-121471308D01*
X118067930Y-121450882D01*
X118034506Y-121451080D01*
X118021978Y-121454931D01*
X118006713Y-121463253D01*
X117990502Y-121479625D01*
X117971401Y-121507442D01*
X117947465Y-121550100D01*
X117916749Y-121610995D01*
X117877309Y-121693525D01*
X117841742Y-121769707D01*
X117800823Y-121858014D01*
X117764156Y-121937426D01*
X117733646Y-122003796D01*
X117711198Y-122052975D01*
X117698717Y-122080813D01*
X117696897Y-122085168D01*
X117688710Y-122078049D01*
X117669895Y-122048241D01*
X117642954Y-122000096D01*
X117610392Y-121937963D01*
X117597434Y-121912328D01*
X117553540Y-121825765D01*
X117519689Y-121762725D01*
X117493103Y-121719542D01*
X117471005Y-121692552D01*
X117450616Y-121678088D01*
X117429160Y-121672487D01*
X117415177Y-121671854D01*
X117390512Y-121674040D01*
X117368898Y-121683079D01*
X117347422Y-121702697D01*
X117323170Y-121736617D01*
X117293230Y-121788562D01*
X117254687Y-121862258D01*
X117233422Y-121904180D01*
X117198928Y-121970994D01*
X117168844Y-122026401D01*
X117145823Y-122065727D01*
X117132520Y-122084296D01*
X117130711Y-122085069D01*
X117122120Y-122070455D01*
X117102886Y-122032507D01*
X117074935Y-121975196D01*
X117040193Y-121902496D01*
X117000587Y-121818376D01*
X116981104Y-121776594D01*
X116930420Y-121668763D01*
X116889607Y-121585790D01*
X116856546Y-121524966D01*
X116829119Y-121483585D01*
X116805208Y-121458940D01*
X116782692Y-121448324D01*
X116759453Y-121449030D01*
G36*
X116168396Y-121455477D02*
G01*
X116136826Y-121475142D01*
X116101344Y-121503873D01*
X116101344Y-121931966D01*
X116101457Y-122057190D01*
X116101941Y-122155847D01*
X116103014Y-122231430D01*
X116104892Y-122287433D01*
X116107794Y-122327347D01*
X116111937Y-122354666D01*
X116117538Y-122372881D01*
X116124815Y-122385486D01*
X116129976Y-122391696D01*
X116171832Y-122418980D01*
X116219495Y-122417867D01*
X116261247Y-122394602D01*
X116296729Y-122365871D01*
X116296729Y-121503873D01*
X116261247Y-121475142D01*
X116227002Y-121454242D01*
X116199037Y-121446410D01*
X116168396Y-121455477D01*
G37*
X116168396Y-121455477D02*
X116136826Y-121475142D01*
X116101344Y-121503873D01*
X116101344Y-121931966D01*
X116101457Y-122057190D01*
X116101941Y-122155847D01*
X116103014Y-122231430D01*
X116104892Y-122287433D01*
X116107794Y-122327347D01*
X116111937Y-122354666D01*
X116117538Y-122372881D01*
X116124815Y-122385486D01*
X116129976Y-122391696D01*
X116171832Y-122418980D01*
X116219495Y-122417867D01*
X116261247Y-122394602D01*
X116296729Y-122365871D01*
X116296729Y-121503873D01*
X116261247Y-121475142D01*
X116227002Y-121454242D01*
X116199037Y-121446410D01*
X116168396Y-121455477D01*
G36*
X115137323Y-121446539D02*
G01*
X115032535Y-121447043D01*
X114951201Y-121448096D01*
X114890020Y-121449876D01*
X114845689Y-121452557D01*
X114814906Y-121456314D01*
X114794369Y-121461325D01*
X114780775Y-121467763D01*
X114774197Y-121472712D01*
X114740056Y-121516029D01*
X114735926Y-121561003D01*
X114757024Y-121601860D01*
X114770821Y-121618186D01*
X114785668Y-121629318D01*
X114807185Y-121636250D01*
X114840992Y-121639977D01*
X114892708Y-121641494D01*
X114967953Y-121641794D01*
X114982731Y-121641795D01*
X115177025Y-121641795D01*
X115177025Y-122002505D01*
X115177153Y-122116201D01*
X115177734Y-122203685D01*
X115179064Y-122268802D01*
X115181440Y-122315398D01*
X115185156Y-122347319D01*
X115190508Y-122368412D01*
X115197793Y-122382523D01*
X115207084Y-122393274D01*
X115250929Y-122419696D01*
X115296700Y-122417614D01*
X115338210Y-122387469D01*
X115341259Y-122383733D01*
X115351188Y-122369610D01*
X115358752Y-122353086D01*
X115364271Y-122330146D01*
X115368067Y-122296773D01*
X115370458Y-122248955D01*
X115371766Y-122182674D01*
X115372309Y-122093918D01*
X115372409Y-121992963D01*
X115372409Y-121641795D01*
X115557950Y-121641795D01*
X115637573Y-121641256D01*
X115692696Y-121639157D01*
X115728868Y-121634771D01*
X115751638Y-121627376D01*
X115766553Y-121616245D01*
X115768364Y-121614310D01*
X115790142Y-121570057D01*
X115788216Y-121520029D01*
X115763179Y-121476470D01*
X115753496Y-121468020D01*
X115741012Y-121461321D01*
X115722397Y-121456169D01*
X115694323Y-121452361D01*
X115653459Y-121449697D01*
X115596478Y-121447972D01*
X115520048Y-121446984D01*
X115420843Y-121446532D01*
X115295531Y-121446412D01*
X115268867Y-121446410D01*
X115137323Y-121446539D01*
G37*
X115137323Y-121446539D02*
X115032535Y-121447043D01*
X114951201Y-121448096D01*
X114890020Y-121449876D01*
X114845689Y-121452557D01*
X114814906Y-121456314D01*
X114794369Y-121461325D01*
X114780775Y-121467763D01*
X114774197Y-121472712D01*
X114740056Y-121516029D01*
X114735926Y-121561003D01*
X114757024Y-121601860D01*
X114770821Y-121618186D01*
X114785668Y-121629318D01*
X114807185Y-121636250D01*
X114840992Y-121639977D01*
X114892708Y-121641494D01*
X114967953Y-121641794D01*
X114982731Y-121641795D01*
X115177025Y-121641795D01*
X115177025Y-122002505D01*
X115177153Y-122116201D01*
X115177734Y-122203685D01*
X115179064Y-122268802D01*
X115181440Y-122315398D01*
X115185156Y-122347319D01*
X115190508Y-122368412D01*
X115197793Y-122382523D01*
X115207084Y-122393274D01*
X115250929Y-122419696D01*
X115296700Y-122417614D01*
X115338210Y-122387469D01*
X115341259Y-122383733D01*
X115351188Y-122369610D01*
X115358752Y-122353086D01*
X115364271Y-122330146D01*
X115368067Y-122296773D01*
X115370458Y-122248955D01*
X115371766Y-122182674D01*
X115372309Y-122093918D01*
X115372409Y-121992963D01*
X115372409Y-121641795D01*
X115557950Y-121641795D01*
X115637573Y-121641256D01*
X115692696Y-121639157D01*
X115728868Y-121634771D01*
X115751638Y-121627376D01*
X115766553Y-121616245D01*
X115768364Y-121614310D01*
X115790142Y-121570057D01*
X115788216Y-121520029D01*
X115763179Y-121476470D01*
X115753496Y-121468020D01*
X115741012Y-121461321D01*
X115722397Y-121456169D01*
X115694323Y-121452361D01*
X115653459Y-121449697D01*
X115596478Y-121447972D01*
X115520048Y-121446984D01*
X115420843Y-121446532D01*
X115295531Y-121446412D01*
X115268867Y-121446410D01*
X115137323Y-121446539D01*
G36*
X113452141Y-121453688D02*
G01*
X113410365Y-121483301D01*
X113373475Y-121520192D01*
X113373475Y-121932162D01*
X113373571Y-122054486D01*
X113374028Y-122150398D01*
X113375097Y-122223544D01*
X113377029Y-122277570D01*
X113380077Y-122316123D01*
X113384491Y-122342848D01*
X113390524Y-122361394D01*
X113398426Y-122375405D01*
X113404625Y-122383733D01*
X113445539Y-122416449D01*
X113492518Y-122420000D01*
X113535456Y-122399937D01*
X113549644Y-122388092D01*
X113559128Y-122372358D01*
X113564849Y-122347022D01*
X113567747Y-122306370D01*
X113568762Y-122244688D01*
X113568859Y-122197038D01*
X113568859Y-122017535D01*
X114230161Y-122017535D01*
X114230161Y-122180833D01*
X114230845Y-122255505D01*
X114233581Y-122306824D01*
X114239396Y-122341477D01*
X114249316Y-122366155D01*
X114261311Y-122383733D01*
X114302454Y-122416357D01*
X114348983Y-122420220D01*
X114393527Y-122397032D01*
X114405688Y-122384876D01*
X114414277Y-122368761D01*
X114419942Y-122343660D01*
X114423331Y-122304544D01*
X114425092Y-122246386D01*
X114425872Y-122164158D01*
X114425964Y-122145286D01*
X114426608Y-121990357D01*
X114426940Y-121862674D01*
X114426832Y-121759427D01*
X114426155Y-121677803D01*
X114424782Y-121614992D01*
X114422584Y-121568181D01*
X114419434Y-121534559D01*
X114415202Y-121511315D01*
X114409762Y-121495636D01*
X114402985Y-121484711D01*
X114395486Y-121476470D01*
X114353067Y-121450107D01*
X114308828Y-121453688D01*
X114267052Y-121483301D01*
X114250147Y-121502407D01*
X114239371Y-121523511D01*
X114233359Y-121553568D01*
X114230744Y-121599533D01*
X114230161Y-121668360D01*
X114230161Y-121822150D01*
X113568859Y-121822150D01*
X113568859Y-121664339D01*
X113568184Y-121591636D01*
X113565474Y-121542545D01*
X113559699Y-121510636D01*
X113549831Y-121489478D01*
X113538800Y-121476470D01*
X113496381Y-121450107D01*
X113452141Y-121453688D01*
G37*
X113452141Y-121453688D02*
X113410365Y-121483301D01*
X113373475Y-121520192D01*
X113373475Y-121932162D01*
X113373571Y-122054486D01*
X113374028Y-122150398D01*
X113375097Y-122223544D01*
X113377029Y-122277570D01*
X113380077Y-122316123D01*
X113384491Y-122342848D01*
X113390524Y-122361394D01*
X113398426Y-122375405D01*
X113404625Y-122383733D01*
X113445539Y-122416449D01*
X113492518Y-122420000D01*
X113535456Y-122399937D01*
X113549644Y-122388092D01*
X113559128Y-122372358D01*
X113564849Y-122347022D01*
X113567747Y-122306370D01*
X113568762Y-122244688D01*
X113568859Y-122197038D01*
X113568859Y-122017535D01*
X114230161Y-122017535D01*
X114230161Y-122180833D01*
X114230845Y-122255505D01*
X114233581Y-122306824D01*
X114239396Y-122341477D01*
X114249316Y-122366155D01*
X114261311Y-122383733D01*
X114302454Y-122416357D01*
X114348983Y-122420220D01*
X114393527Y-122397032D01*
X114405688Y-122384876D01*
X114414277Y-122368761D01*
X114419942Y-122343660D01*
X114423331Y-122304544D01*
X114425092Y-122246386D01*
X114425872Y-122164158D01*
X114425964Y-122145286D01*
X114426608Y-121990357D01*
X114426940Y-121862674D01*
X114426832Y-121759427D01*
X114426155Y-121677803D01*
X114424782Y-121614992D01*
X114422584Y-121568181D01*
X114419434Y-121534559D01*
X114415202Y-121511315D01*
X114409762Y-121495636D01*
X114402985Y-121484711D01*
X114395486Y-121476470D01*
X114353067Y-121450107D01*
X114308828Y-121453688D01*
X114267052Y-121483301D01*
X114250147Y-121502407D01*
X114239371Y-121523511D01*
X114233359Y-121553568D01*
X114230744Y-121599533D01*
X114230161Y-121668360D01*
X114230161Y-121822150D01*
X113568859Y-121822150D01*
X113568859Y-121664339D01*
X113568184Y-121591636D01*
X113565474Y-121542545D01*
X113559699Y-121510636D01*
X113549831Y-121489478D01*
X113538800Y-121476470D01*
X113496381Y-121450107D01*
X113452141Y-121453688D01*
G36*
X125522318Y-112923933D02*
G01*
X125386071Y-112971172D01*
X125259221Y-113045527D01*
X125145933Y-113146987D01*
X125050372Y-113275543D01*
X125007446Y-113356572D01*
X124970295Y-113469908D01*
X124952288Y-113600751D01*
X124954283Y-113735265D01*
X124976423Y-113857158D01*
X125036936Y-114006107D01*
X125124686Y-114135309D01*
X125235212Y-114242223D01*
X125364054Y-114324306D01*
X125506753Y-114379016D01*
X125658849Y-114403810D01*
X125815881Y-114396147D01*
X125893286Y-114379772D01*
X126044141Y-114321089D01*
X126178125Y-114231543D01*
X126292006Y-114113893D01*
X126382552Y-113970902D01*
X126390212Y-113955286D01*
X126416694Y-113896686D01*
X126433322Y-113847334D01*
X126442350Y-113795270D01*
X126446032Y-113728539D01*
X126446643Y-113655929D01*
X126445633Y-113568691D01*
X126441072Y-113505624D01*
X126430666Y-113454636D01*
X126412121Y-113403633D01*
X126389230Y-113353313D01*
X126303846Y-113210470D01*
X126198699Y-113094810D01*
X126077955Y-113006325D01*
X125945779Y-112945005D01*
X125806337Y-112910839D01*
X125663795Y-112903818D01*
X125522318Y-112923933D01*
G37*
X125522318Y-112923933D02*
X125386071Y-112971172D01*
X125259221Y-113045527D01*
X125145933Y-113146987D01*
X125050372Y-113275543D01*
X125007446Y-113356572D01*
X124970295Y-113469908D01*
X124952288Y-113600751D01*
X124954283Y-113735265D01*
X124976423Y-113857158D01*
X125036936Y-114006107D01*
X125124686Y-114135309D01*
X125235212Y-114242223D01*
X125364054Y-114324306D01*
X125506753Y-114379016D01*
X125658849Y-114403810D01*
X125815881Y-114396147D01*
X125893286Y-114379772D01*
X126044141Y-114321089D01*
X126178125Y-114231543D01*
X126292006Y-114113893D01*
X126382552Y-113970902D01*
X126390212Y-113955286D01*
X126416694Y-113896686D01*
X126433322Y-113847334D01*
X126442350Y-113795270D01*
X126446032Y-113728539D01*
X126446643Y-113655929D01*
X126445633Y-113568691D01*
X126441072Y-113505624D01*
X126430666Y-113454636D01*
X126412121Y-113403633D01*
X126389230Y-113353313D01*
X126303846Y-113210470D01*
X126198699Y-113094810D01*
X126077955Y-113006325D01*
X125945779Y-112945005D01*
X125806337Y-112910839D01*
X125663795Y-112903818D01*
X125522318Y-112923933D01*
G36*
X112878429Y-114140089D02*
G01*
X112724124Y-114140723D01*
X112671679Y-114141042D01*
X111950500Y-114145786D01*
X111941429Y-116912572D01*
X111940231Y-117287756D01*
X111939168Y-117628417D01*
X111938173Y-117936318D01*
X111937177Y-118213221D01*
X111936112Y-118460888D01*
X111934909Y-118681081D01*
X111933501Y-118875562D01*
X111931818Y-119046094D01*
X111929794Y-119194440D01*
X111927359Y-119322361D01*
X111924446Y-119431620D01*
X111920985Y-119523979D01*
X111916910Y-119601200D01*
X111912151Y-119665046D01*
X111906640Y-119717278D01*
X111900309Y-119759660D01*
X111893090Y-119793953D01*
X111884915Y-119821920D01*
X111875715Y-119845324D01*
X111865423Y-119865925D01*
X111853969Y-119885487D01*
X111841285Y-119905772D01*
X111827305Y-119928543D01*
X111824439Y-119933393D01*
X111776360Y-120015433D01*
X113166072Y-120005929D01*
X113175143Y-119853295D01*
X113180082Y-119780045D01*
X113185229Y-119737696D01*
X113192214Y-119720892D01*
X113202663Y-119724277D01*
X113211429Y-119733960D01*
X113249612Y-119769229D01*
X113311845Y-119814563D01*
X113389359Y-119864546D01*
X113473387Y-119913761D01*
X113555161Y-119956791D01*
X113617948Y-119985101D01*
X113765046Y-120031624D01*
X113933820Y-120064579D01*
X114111809Y-120082707D01*
X114286553Y-120084750D01*
X114445593Y-120069447D01*
X114448212Y-120069009D01*
X114665832Y-120014402D01*
X114869545Y-119927401D01*
X115057387Y-119809876D01*
X115227393Y-119663697D01*
X115377598Y-119490734D01*
X115506036Y-119292857D01*
X115610743Y-119071936D01*
X115667754Y-118908286D01*
X115705349Y-118771375D01*
X115733229Y-118638798D01*
X115752247Y-118502502D01*
X115763255Y-118354433D01*
X115767105Y-118186537D01*
X115765400Y-118049440D01*
X114426641Y-118049440D01*
X114420306Y-118279329D01*
X114400321Y-118477111D01*
X114366073Y-118644539D01*
X114316945Y-118783369D01*
X114252324Y-118895358D01*
X114171595Y-118982259D01*
X114078409Y-119043692D01*
X114029920Y-119066626D01*
X113987866Y-119080375D01*
X113940980Y-119086666D01*
X113877996Y-119087222D01*
X113810143Y-119084773D01*
X113676705Y-119073004D01*
X113571168Y-119049955D01*
X113538000Y-119038410D01*
X113462265Y-119004311D01*
X113382386Y-118961491D01*
X113347500Y-118940057D01*
X113256786Y-118880556D01*
X113256786Y-116994584D01*
X113356572Y-116934771D01*
X113495733Y-116867185D01*
X113637913Y-116827214D01*
X113777910Y-116814622D01*
X113910526Y-116829173D01*
X114030560Y-116870632D01*
X114132812Y-116938763D01*
X114165805Y-116971466D01*
X114245333Y-117078619D01*
X114309701Y-117208327D01*
X114359447Y-117362814D01*
X114395109Y-117544302D01*
X114417225Y-117755015D01*
X114426333Y-117997175D01*
X114426641Y-118049440D01*
X115765400Y-118049440D01*
X115764690Y-117992374D01*
X115749395Y-117693713D01*
X115718642Y-117424325D01*
X115671619Y-117180285D01*
X115607518Y-116957670D01*
X115525528Y-116752556D01*
X115496270Y-116691746D01*
X115378419Y-116493440D01*
X115236004Y-116317212D01*
X115072371Y-116165908D01*
X114890869Y-116042371D01*
X114694847Y-115949447D01*
X114577345Y-115911115D01*
X114461946Y-115888359D01*
X114323093Y-115874820D01*
X114172426Y-115870492D01*
X114021587Y-115875368D01*
X113882215Y-115889444D01*
X113770309Y-115911525D01*
X113637116Y-115954828D01*
X113508021Y-116010511D01*
X113395072Y-116072936D01*
X113334957Y-116115303D01*
X113293490Y-116146807D01*
X113264455Y-116165990D01*
X113257850Y-116168714D01*
X113255802Y-116151163D01*
X113253893Y-116100875D01*
X113252164Y-116021400D01*
X113250659Y-115916286D01*
X113249419Y-115789083D01*
X113248487Y-115643339D01*
X113247905Y-115482603D01*
X113247714Y-115318884D01*
X113247821Y-115109188D01*
X113248342Y-114932396D01*
X113249584Y-114785126D01*
X113251852Y-114663997D01*
X113255450Y-114565627D01*
X113260683Y-114486634D01*
X113267856Y-114423638D01*
X113277274Y-114373255D01*
X113289242Y-114332105D01*
X113304065Y-114296806D01*
X113322048Y-114263977D01*
X113343495Y-114230235D01*
X113346255Y-114226057D01*
X113373917Y-114182356D01*
X113390618Y-114152305D01*
X113392857Y-114145967D01*
X113375357Y-114143967D01*
X113325426Y-114142340D01*
X113246915Y-114141112D01*
X113143677Y-114140311D01*
X113019564Y-114139961D01*
X112878429Y-114140089D01*
G37*
X112878429Y-114140089D02*
X112724124Y-114140723D01*
X112671679Y-114141042D01*
X111950500Y-114145786D01*
X111941429Y-116912572D01*
X111940231Y-117287756D01*
X111939168Y-117628417D01*
X111938173Y-117936318D01*
X111937177Y-118213221D01*
X111936112Y-118460888D01*
X111934909Y-118681081D01*
X111933501Y-118875562D01*
X111931818Y-119046094D01*
X111929794Y-119194440D01*
X111927359Y-119322361D01*
X111924446Y-119431620D01*
X111920985Y-119523979D01*
X111916910Y-119601200D01*
X111912151Y-119665046D01*
X111906640Y-119717278D01*
X111900309Y-119759660D01*
X111893090Y-119793953D01*
X111884915Y-119821920D01*
X111875715Y-119845324D01*
X111865423Y-119865925D01*
X111853969Y-119885487D01*
X111841285Y-119905772D01*
X111827305Y-119928543D01*
X111824439Y-119933393D01*
X111776360Y-120015433D01*
X113166072Y-120005929D01*
X113175143Y-119853295D01*
X113180082Y-119780045D01*
X113185229Y-119737696D01*
X113192214Y-119720892D01*
X113202663Y-119724277D01*
X113211429Y-119733960D01*
X113249612Y-119769229D01*
X113311845Y-119814563D01*
X113389359Y-119864546D01*
X113473387Y-119913761D01*
X113555161Y-119956791D01*
X113617948Y-119985101D01*
X113765046Y-120031624D01*
X113933820Y-120064579D01*
X114111809Y-120082707D01*
X114286553Y-120084750D01*
X114445593Y-120069447D01*
X114448212Y-120069009D01*
X114665832Y-120014402D01*
X114869545Y-119927401D01*
X115057387Y-119809876D01*
X115227393Y-119663697D01*
X115377598Y-119490734D01*
X115506036Y-119292857D01*
X115610743Y-119071936D01*
X115667754Y-118908286D01*
X115705349Y-118771375D01*
X115733229Y-118638798D01*
X115752247Y-118502502D01*
X115763255Y-118354433D01*
X115767105Y-118186537D01*
X115765400Y-118049440D01*
X114426641Y-118049440D01*
X114420306Y-118279329D01*
X114400321Y-118477111D01*
X114366073Y-118644539D01*
X114316945Y-118783369D01*
X114252324Y-118895358D01*
X114171595Y-118982259D01*
X114078409Y-119043692D01*
X114029920Y-119066626D01*
X113987866Y-119080375D01*
X113940980Y-119086666D01*
X113877996Y-119087222D01*
X113810143Y-119084773D01*
X113676705Y-119073004D01*
X113571168Y-119049955D01*
X113538000Y-119038410D01*
X113462265Y-119004311D01*
X113382386Y-118961491D01*
X113347500Y-118940057D01*
X113256786Y-118880556D01*
X113256786Y-116994584D01*
X113356572Y-116934771D01*
X113495733Y-116867185D01*
X113637913Y-116827214D01*
X113777910Y-116814622D01*
X113910526Y-116829173D01*
X114030560Y-116870632D01*
X114132812Y-116938763D01*
X114165805Y-116971466D01*
X114245333Y-117078619D01*
X114309701Y-117208327D01*
X114359447Y-117362814D01*
X114395109Y-117544302D01*
X114417225Y-117755015D01*
X114426333Y-117997175D01*
X114426641Y-118049440D01*
X115765400Y-118049440D01*
X115764690Y-117992374D01*
X115749395Y-117693713D01*
X115718642Y-117424325D01*
X115671619Y-117180285D01*
X115607518Y-116957670D01*
X115525528Y-116752556D01*
X115496270Y-116691746D01*
X115378419Y-116493440D01*
X115236004Y-116317212D01*
X115072371Y-116165908D01*
X114890869Y-116042371D01*
X114694847Y-115949447D01*
X114577345Y-115911115D01*
X114461946Y-115888359D01*
X114323093Y-115874820D01*
X114172426Y-115870492D01*
X114021587Y-115875368D01*
X113882215Y-115889444D01*
X113770309Y-115911525D01*
X113637116Y-115954828D01*
X113508021Y-116010511D01*
X113395072Y-116072936D01*
X113334957Y-116115303D01*
X113293490Y-116146807D01*
X113264455Y-116165990D01*
X113257850Y-116168714D01*
X113255802Y-116151163D01*
X113253893Y-116100875D01*
X113252164Y-116021400D01*
X113250659Y-115916286D01*
X113249419Y-115789083D01*
X113248487Y-115643339D01*
X113247905Y-115482603D01*
X113247714Y-115318884D01*
X113247821Y-115109188D01*
X113248342Y-114932396D01*
X113249584Y-114785126D01*
X113251852Y-114663997D01*
X113255450Y-114565627D01*
X113260683Y-114486634D01*
X113267856Y-114423638D01*
X113277274Y-114373255D01*
X113289242Y-114332105D01*
X113304065Y-114296806D01*
X113322048Y-114263977D01*
X113343495Y-114230235D01*
X113346255Y-114226057D01*
X113373917Y-114182356D01*
X113390618Y-114152305D01*
X113392857Y-114145967D01*
X113375357Y-114143967D01*
X113325426Y-114142340D01*
X113246915Y-114141112D01*
X113143677Y-114140311D01*
X113019564Y-114139961D01*
X112878429Y-114140089D01*
G36*
X117734368Y-115867730D02*
G01*
X117644477Y-115874535D01*
X117387285Y-115908753D01*
X117159515Y-115963331D01*
X116960057Y-116039020D01*
X116787803Y-116136570D01*
X116641641Y-116256732D01*
X116520464Y-116400258D01*
X116423161Y-116567898D01*
X116352109Y-116749286D01*
X116334073Y-116807146D01*
X116318368Y-116861329D01*
X116304808Y-116914752D01*
X116293208Y-116970333D01*
X116283383Y-117030988D01*
X116275147Y-117099635D01*
X116268316Y-117179190D01*
X116262705Y-117272572D01*
X116258128Y-117382696D01*
X116254400Y-117512481D01*
X116251335Y-117664842D01*
X116248750Y-117842698D01*
X116246458Y-118048965D01*
X116244275Y-118286561D01*
X116242714Y-118472857D01*
X116232215Y-119751929D01*
X116164179Y-119875018D01*
X116131962Y-119934317D01*
X116107988Y-119980377D01*
X116096550Y-120004893D01*
X116096143Y-120006553D01*
X116113625Y-120008454D01*
X116163426Y-120010205D01*
X116241579Y-120011758D01*
X116344118Y-120013062D01*
X116467078Y-120014070D01*
X116606490Y-120014731D01*
X116758389Y-120014997D01*
X116776500Y-120015000D01*
X117456857Y-120015000D01*
X117456857Y-119860786D01*
X117458018Y-119791094D01*
X117461113Y-119737794D01*
X117465568Y-119709217D01*
X117467537Y-119706572D01*
X117485545Y-119717653D01*
X117522607Y-119746736D01*
X117570778Y-119787579D01*
X117571859Y-119788524D01*
X117659765Y-119853971D01*
X117770783Y-119919688D01*
X117892369Y-119979219D01*
X118011979Y-120026109D01*
X118064643Y-120042133D01*
X118169449Y-120062485D01*
X118298050Y-120075472D01*
X118438675Y-120080909D01*
X118579552Y-120078611D01*
X118708907Y-120068392D01*
X118799429Y-120053689D01*
X119021420Y-119988499D01*
X119221271Y-119895594D01*
X119397681Y-119776126D01*
X119549350Y-119631247D01*
X119674976Y-119462110D01*
X119773259Y-119269867D01*
X119815659Y-119153214D01*
X119842232Y-119039833D01*
X119859842Y-118903722D01*
X119867990Y-118757437D01*
X119867722Y-118736151D01*
X118640679Y-118736151D01*
X118630504Y-118844850D01*
X118596622Y-118935185D01*
X118534000Y-119018995D01*
X118509948Y-119043571D01*
X118424449Y-119110011D01*
X118325627Y-119152574D01*
X118207232Y-119173177D01*
X118082555Y-119174694D01*
X117964302Y-119164677D01*
X117873761Y-119145085D01*
X117834440Y-119130370D01*
X117763568Y-119090265D01*
X117688475Y-119033863D01*
X117619962Y-118970561D01*
X117568828Y-118909755D01*
X117555250Y-118887449D01*
X117544695Y-118856212D01*
X117537190Y-118806507D01*
X117532387Y-118733587D01*
X117529935Y-118632703D01*
X117529429Y-118536689D01*
X117529772Y-118424750D01*
X117531157Y-118343809D01*
X117534119Y-118288585D01*
X117539192Y-118253794D01*
X117546910Y-118234154D01*
X117557808Y-118224380D01*
X117561179Y-118222824D01*
X117590471Y-118218029D01*
X117648244Y-118214108D01*
X117726696Y-118211414D01*
X117818026Y-118210299D01*
X117837857Y-118210298D01*
X117959937Y-118212246D01*
X118054251Y-118218041D01*
X118129193Y-118228475D01*
X118191097Y-118243714D01*
X118344651Y-118301784D01*
X118465068Y-118373179D01*
X118553390Y-118459039D01*
X118610661Y-118560507D01*
X118637922Y-118678725D01*
X118640679Y-118736151D01*
X119867722Y-118736151D01*
X119866177Y-118613533D01*
X119853904Y-118484565D01*
X119844330Y-118432460D01*
X119783199Y-118238997D01*
X119690243Y-118060993D01*
X119567217Y-117900155D01*
X119415876Y-117758190D01*
X119237975Y-117636806D01*
X119035268Y-117537709D01*
X118862929Y-117477533D01*
X118747747Y-117445919D01*
X118637577Y-117421354D01*
X118525281Y-117403039D01*
X118403725Y-117390178D01*
X118265771Y-117381972D01*
X118104285Y-117377624D01*
X117958285Y-117376400D01*
X117525355Y-117375215D01*
X117533649Y-117245080D01*
X117557199Y-117103883D01*
X117607297Y-116982518D01*
X117681809Y-116884017D01*
X117778601Y-116811409D01*
X117863829Y-116775979D01*
X117985944Y-116753650D01*
X118131317Y-116750443D01*
X118293133Y-116765177D01*
X118464578Y-116796670D01*
X118638837Y-116843740D01*
X118809096Y-116905203D01*
X118932824Y-116961417D01*
X118992353Y-116990283D01*
X119037758Y-117010443D01*
X119060850Y-117018310D01*
X119062103Y-117018058D01*
X119070071Y-117000437D01*
X119089969Y-116953733D01*
X119119923Y-116882418D01*
X119158061Y-116790969D01*
X119202512Y-116683859D01*
X119247695Y-116574549D01*
X119428333Y-116136740D01*
X119299845Y-116115636D01*
X119244154Y-116105047D01*
X119160436Y-116087263D01*
X119055861Y-116063898D01*
X118937601Y-116036565D01*
X118812828Y-116006881D01*
X118763143Y-115994818D01*
X118548193Y-115944962D01*
X118360005Y-115907584D01*
X118191554Y-115881927D01*
X118035814Y-115867235D01*
X117885760Y-115862755D01*
X117734368Y-115867730D01*
G37*
X117734368Y-115867730D02*
X117644477Y-115874535D01*
X117387285Y-115908753D01*
X117159515Y-115963331D01*
X116960057Y-116039020D01*
X116787803Y-116136570D01*
X116641641Y-116256732D01*
X116520464Y-116400258D01*
X116423161Y-116567898D01*
X116352109Y-116749286D01*
X116334073Y-116807146D01*
X116318368Y-116861329D01*
X116304808Y-116914752D01*
X116293208Y-116970333D01*
X116283383Y-117030988D01*
X116275147Y-117099635D01*
X116268316Y-117179190D01*
X116262705Y-117272572D01*
X116258128Y-117382696D01*
X116254400Y-117512481D01*
X116251335Y-117664842D01*
X116248750Y-117842698D01*
X116246458Y-118048965D01*
X116244275Y-118286561D01*
X116242714Y-118472857D01*
X116232215Y-119751929D01*
X116164179Y-119875018D01*
X116131962Y-119934317D01*
X116107988Y-119980377D01*
X116096550Y-120004893D01*
X116096143Y-120006553D01*
X116113625Y-120008454D01*
X116163426Y-120010205D01*
X116241579Y-120011758D01*
X116344118Y-120013062D01*
X116467078Y-120014070D01*
X116606490Y-120014731D01*
X116758389Y-120014997D01*
X116776500Y-120015000D01*
X117456857Y-120015000D01*
X117456857Y-119860786D01*
X117458018Y-119791094D01*
X117461113Y-119737794D01*
X117465568Y-119709217D01*
X117467537Y-119706572D01*
X117485545Y-119717653D01*
X117522607Y-119746736D01*
X117570778Y-119787579D01*
X117571859Y-119788524D01*
X117659765Y-119853971D01*
X117770783Y-119919688D01*
X117892369Y-119979219D01*
X118011979Y-120026109D01*
X118064643Y-120042133D01*
X118169449Y-120062485D01*
X118298050Y-120075472D01*
X118438675Y-120080909D01*
X118579552Y-120078611D01*
X118708907Y-120068392D01*
X118799429Y-120053689D01*
X119021420Y-119988499D01*
X119221271Y-119895594D01*
X119397681Y-119776126D01*
X119549350Y-119631247D01*
X119674976Y-119462110D01*
X119773259Y-119269867D01*
X119815659Y-119153214D01*
X119842232Y-119039833D01*
X119859842Y-118903722D01*
X119867990Y-118757437D01*
X119867722Y-118736151D01*
X118640679Y-118736151D01*
X118630504Y-118844850D01*
X118596622Y-118935185D01*
X118534000Y-119018995D01*
X118509948Y-119043571D01*
X118424449Y-119110011D01*
X118325627Y-119152574D01*
X118207232Y-119173177D01*
X118082555Y-119174694D01*
X117964302Y-119164677D01*
X117873761Y-119145085D01*
X117834440Y-119130370D01*
X117763568Y-119090265D01*
X117688475Y-119033863D01*
X117619962Y-118970561D01*
X117568828Y-118909755D01*
X117555250Y-118887449D01*
X117544695Y-118856212D01*
X117537190Y-118806507D01*
X117532387Y-118733587D01*
X117529935Y-118632703D01*
X117529429Y-118536689D01*
X117529772Y-118424750D01*
X117531157Y-118343809D01*
X117534119Y-118288585D01*
X117539192Y-118253794D01*
X117546910Y-118234154D01*
X117557808Y-118224380D01*
X117561179Y-118222824D01*
X117590471Y-118218029D01*
X117648244Y-118214108D01*
X117726696Y-118211414D01*
X117818026Y-118210299D01*
X117837857Y-118210298D01*
X117959937Y-118212246D01*
X118054251Y-118218041D01*
X118129193Y-118228475D01*
X118191097Y-118243714D01*
X118344651Y-118301784D01*
X118465068Y-118373179D01*
X118553390Y-118459039D01*
X118610661Y-118560507D01*
X118637922Y-118678725D01*
X118640679Y-118736151D01*
X119867722Y-118736151D01*
X119866177Y-118613533D01*
X119853904Y-118484565D01*
X119844330Y-118432460D01*
X119783199Y-118238997D01*
X119690243Y-118060993D01*
X119567217Y-117900155D01*
X119415876Y-117758190D01*
X119237975Y-117636806D01*
X119035268Y-117537709D01*
X118862929Y-117477533D01*
X118747747Y-117445919D01*
X118637577Y-117421354D01*
X118525281Y-117403039D01*
X118403725Y-117390178D01*
X118265771Y-117381972D01*
X118104285Y-117377624D01*
X117958285Y-117376400D01*
X117525355Y-117375215D01*
X117533649Y-117245080D01*
X117557199Y-117103883D01*
X117607297Y-116982518D01*
X117681809Y-116884017D01*
X117778601Y-116811409D01*
X117863829Y-116775979D01*
X117985944Y-116753650D01*
X118131317Y-116750443D01*
X118293133Y-116765177D01*
X118464578Y-116796670D01*
X118638837Y-116843740D01*
X118809096Y-116905203D01*
X118932824Y-116961417D01*
X118992353Y-116990283D01*
X119037758Y-117010443D01*
X119060850Y-117018310D01*
X119062103Y-117018058D01*
X119070071Y-117000437D01*
X119089969Y-116953733D01*
X119119923Y-116882418D01*
X119158061Y-116790969D01*
X119202512Y-116683859D01*
X119247695Y-116574549D01*
X119428333Y-116136740D01*
X119299845Y-116115636D01*
X119244154Y-116105047D01*
X119160436Y-116087263D01*
X119055861Y-116063898D01*
X118937601Y-116036565D01*
X118812828Y-116006881D01*
X118763143Y-115994818D01*
X118548193Y-115944962D01*
X118360005Y-115907584D01*
X118191554Y-115881927D01*
X118035814Y-115867235D01*
X117885760Y-115862755D01*
X117734368Y-115867730D01*
G36*
X121338622Y-114409231D02*
G01*
X121142981Y-114430649D01*
X120953438Y-114468985D01*
X120762283Y-114526238D01*
X120561804Y-114604409D01*
X120344292Y-114705496D01*
X120305120Y-114725076D01*
X120215228Y-114769362D01*
X120130447Y-114809239D01*
X120059145Y-114840898D01*
X120009690Y-114860532D01*
X120002092Y-114863004D01*
X119929286Y-114884817D01*
X120255197Y-115358944D01*
X120334877Y-115474823D01*
X120407728Y-115580694D01*
X120471270Y-115672962D01*
X120523028Y-115748033D01*
X120560523Y-115802313D01*
X120581277Y-115832207D01*
X120584649Y-115836941D01*
X120598345Y-115827042D01*
X120632057Y-115797285D01*
X120679756Y-115753073D01*
X120706080Y-115728084D01*
X120855228Y-115609456D01*
X121022732Y-115519313D01*
X121167072Y-115469936D01*
X121253717Y-115454429D01*
X121362204Y-115444979D01*
X121479773Y-115441761D01*
X121593666Y-115444951D01*
X121691121Y-115454724D01*
X121730010Y-115462209D01*
X121905288Y-115522512D01*
X122063235Y-115614590D01*
X122203732Y-115738273D01*
X122326665Y-115893393D01*
X122431915Y-116079781D01*
X122519365Y-116297270D01*
X122588900Y-116545692D01*
X122630225Y-116758357D01*
X122641006Y-116852241D01*
X122648352Y-116973524D01*
X122652333Y-117113493D01*
X122653021Y-117263431D01*
X122650486Y-117414622D01*
X122644800Y-117558351D01*
X122636033Y-117685903D01*
X122624256Y-117788562D01*
X122621707Y-117804401D01*
X122565519Y-118059536D01*
X122488964Y-118285342D01*
X122391574Y-118482831D01*
X122272886Y-118653014D01*
X122188637Y-118745022D01*
X122037230Y-118869943D01*
X121871183Y-118962540D01*
X121693299Y-119022309D01*
X121506378Y-119048746D01*
X121313222Y-119041348D01*
X121116631Y-118999611D01*
X121000403Y-118958771D01*
X120839562Y-118876990D01*
X120673787Y-118759678D01*
X120580927Y-118680345D01*
X120528786Y-118634429D01*
X120487820Y-118600742D01*
X120464502Y-118584510D01*
X120461607Y-118584015D01*
X120451200Y-118600601D01*
X120424233Y-118644432D01*
X120383004Y-118711748D01*
X120329811Y-118798794D01*
X120266950Y-118901810D01*
X120196719Y-119017041D01*
X120157628Y-119081231D01*
X119859036Y-119571677D01*
X120231839Y-119755915D01*
X120366631Y-119822093D01*
X120475825Y-119874278D01*
X120566093Y-119915060D01*
X120644112Y-119947033D01*
X120716556Y-119972787D01*
X120790099Y-119994914D01*
X120871416Y-120016007D01*
X120949357Y-120034530D01*
X121018634Y-120048863D01*
X121091083Y-120059694D01*
X121173958Y-120067626D01*
X121274512Y-120073258D01*
X121399997Y-120077192D01*
X121484572Y-120078891D01*
X121605246Y-120080050D01*
X121720958Y-120079465D01*
X121824049Y-120077304D01*
X121906862Y-120073732D01*
X121961740Y-120068917D01*
X121964992Y-120068437D01*
X122249957Y-120006786D01*
X122517558Y-119913285D01*
X122767703Y-119787993D01*
X123000296Y-119630974D01*
X123215243Y-119442289D01*
X123412450Y-119222000D01*
X123555273Y-119026214D01*
X123707320Y-118769949D01*
X123830227Y-118499317D01*
X123924590Y-118212149D01*
X123991001Y-117906276D01*
X124030056Y-117579528D01*
X124042360Y-117247739D01*
X124032241Y-116926779D01*
X124000439Y-116630646D01*
X123945946Y-116354345D01*
X123867750Y-116092881D01*
X123764841Y-115841258D01*
X123752553Y-115815190D01*
X123617180Y-115571507D01*
X123450911Y-115339618D01*
X123258459Y-115124323D01*
X123044534Y-114930422D01*
X122813845Y-114762715D01*
X122598891Y-114639696D01*
X122381742Y-114543345D01*
X122164132Y-114473551D01*
X121937638Y-114428413D01*
X121693834Y-114406031D01*
X121548072Y-114402731D01*
X121338622Y-114409231D01*
G37*
X121338622Y-114409231D02*
X121142981Y-114430649D01*
X120953438Y-114468985D01*
X120762283Y-114526238D01*
X120561804Y-114604409D01*
X120344292Y-114705496D01*
X120305120Y-114725076D01*
X120215228Y-114769362D01*
X120130447Y-114809239D01*
X120059145Y-114840898D01*
X120009690Y-114860532D01*
X120002092Y-114863004D01*
X119929286Y-114884817D01*
X120255197Y-115358944D01*
X120334877Y-115474823D01*
X120407728Y-115580694D01*
X120471270Y-115672962D01*
X120523028Y-115748033D01*
X120560523Y-115802313D01*
X120581277Y-115832207D01*
X120584649Y-115836941D01*
X120598345Y-115827042D01*
X120632057Y-115797285D01*
X120679756Y-115753073D01*
X120706080Y-115728084D01*
X120855228Y-115609456D01*
X121022732Y-115519313D01*
X121167072Y-115469936D01*
X121253717Y-115454429D01*
X121362204Y-115444979D01*
X121479773Y-115441761D01*
X121593666Y-115444951D01*
X121691121Y-115454724D01*
X121730010Y-115462209D01*
X121905288Y-115522512D01*
X122063235Y-115614590D01*
X122203732Y-115738273D01*
X122326665Y-115893393D01*
X122431915Y-116079781D01*
X122519365Y-116297270D01*
X122588900Y-116545692D01*
X122630225Y-116758357D01*
X122641006Y-116852241D01*
X122648352Y-116973524D01*
X122652333Y-117113493D01*
X122653021Y-117263431D01*
X122650486Y-117414622D01*
X122644800Y-117558351D01*
X122636033Y-117685903D01*
X122624256Y-117788562D01*
X122621707Y-117804401D01*
X122565519Y-118059536D01*
X122488964Y-118285342D01*
X122391574Y-118482831D01*
X122272886Y-118653014D01*
X122188637Y-118745022D01*
X122037230Y-118869943D01*
X121871183Y-118962540D01*
X121693299Y-119022309D01*
X121506378Y-119048746D01*
X121313222Y-119041348D01*
X121116631Y-118999611D01*
X121000403Y-118958771D01*
X120839562Y-118876990D01*
X120673787Y-118759678D01*
X120580927Y-118680345D01*
X120528786Y-118634429D01*
X120487820Y-118600742D01*
X120464502Y-118584510D01*
X120461607Y-118584015D01*
X120451200Y-118600601D01*
X120424233Y-118644432D01*
X120383004Y-118711748D01*
X120329811Y-118798794D01*
X120266950Y-118901810D01*
X120196719Y-119017041D01*
X120157628Y-119081231D01*
X119859036Y-119571677D01*
X120231839Y-119755915D01*
X120366631Y-119822093D01*
X120475825Y-119874278D01*
X120566093Y-119915060D01*
X120644112Y-119947033D01*
X120716556Y-119972787D01*
X120790099Y-119994914D01*
X120871416Y-120016007D01*
X120949357Y-120034530D01*
X121018634Y-120048863D01*
X121091083Y-120059694D01*
X121173958Y-120067626D01*
X121274512Y-120073258D01*
X121399997Y-120077192D01*
X121484572Y-120078891D01*
X121605246Y-120080050D01*
X121720958Y-120079465D01*
X121824049Y-120077304D01*
X121906862Y-120073732D01*
X121961740Y-120068917D01*
X121964992Y-120068437D01*
X122249957Y-120006786D01*
X122517558Y-119913285D01*
X122767703Y-119787993D01*
X123000296Y-119630974D01*
X123215243Y-119442289D01*
X123412450Y-119222000D01*
X123555273Y-119026214D01*
X123707320Y-118769949D01*
X123830227Y-118499317D01*
X123924590Y-118212149D01*
X123991001Y-117906276D01*
X124030056Y-117579528D01*
X124042360Y-117247739D01*
X124032241Y-116926779D01*
X124000439Y-116630646D01*
X123945946Y-116354345D01*
X123867750Y-116092881D01*
X123764841Y-115841258D01*
X123752553Y-115815190D01*
X123617180Y-115571507D01*
X123450911Y-115339618D01*
X123258459Y-115124323D01*
X123044534Y-114930422D01*
X122813845Y-114762715D01*
X122598891Y-114639696D01*
X122381742Y-114543345D01*
X122164132Y-114473551D01*
X121937638Y-114428413D01*
X121693834Y-114406031D01*
X121548072Y-114402731D01*
X121338622Y-114409231D01*
G36*
X129790089Y-113501660D02*
G01*
X129440540Y-113501707D01*
X129277830Y-113501714D01*
X126673429Y-113501715D01*
X126673429Y-113655238D01*
X126657043Y-113842063D01*
X126607588Y-114014367D01*
X126524620Y-114173175D01*
X126407695Y-114319510D01*
X126368136Y-114359032D01*
X126225830Y-114471138D01*
X126068922Y-114552899D01*
X125902072Y-114604353D01*
X125729939Y-114625537D01*
X125557185Y-114616487D01*
X125388470Y-114577242D01*
X125228454Y-114507838D01*
X125081798Y-114408311D01*
X125015932Y-114348265D01*
X124893192Y-114201043D01*
X124803188Y-114039147D01*
X124746706Y-113864427D01*
X124724529Y-113678735D01*
X124724234Y-113660467D01*
X124723072Y-113501720D01*
X124653300Y-113501717D01*
X124591405Y-113510118D01*
X124534865Y-113530556D01*
X124531128Y-113532667D01*
X124518358Y-113539293D01*
X124506632Y-113544454D01*
X124495906Y-113549651D01*
X124486139Y-113556390D01*
X124477288Y-113566171D01*
X124469311Y-113580500D01*
X124462165Y-113600878D01*
X124455808Y-113628808D01*
X124450198Y-113665795D01*
X124445293Y-113713340D01*
X124441049Y-113772947D01*
X124437424Y-113846119D01*
X124434377Y-113934359D01*
X124431864Y-114039170D01*
X124429844Y-114162055D01*
X124428274Y-114304517D01*
X124427112Y-114468060D01*
X124426314Y-114654186D01*
X124425840Y-114864398D01*
X124425646Y-115100200D01*
X124425690Y-115363094D01*
X124425930Y-115654584D01*
X124426323Y-115976172D01*
X124426827Y-116329362D01*
X124427400Y-116715657D01*
X124427999Y-117136560D01*
X124428068Y-117187840D01*
X124428605Y-117611426D01*
X124429061Y-118000230D01*
X124429484Y-118355753D01*
X124429921Y-118679498D01*
X124430422Y-118972966D01*
X124431035Y-119237661D01*
X124431808Y-119475085D01*
X124432789Y-119686740D01*
X124434026Y-119874129D01*
X124435568Y-120038754D01*
X124437463Y-120182117D01*
X124439759Y-120305720D01*
X124442504Y-120411067D01*
X124445747Y-120499659D01*
X124449536Y-120573000D01*
X124453919Y-120632590D01*
X124458945Y-120679933D01*
X124464661Y-120716531D01*
X124471116Y-120743886D01*
X124478359Y-120763502D01*
X124486437Y-120776879D01*
X124495398Y-120785521D01*
X124505292Y-120790930D01*
X124516165Y-120794608D01*
X124528067Y-120798058D01*
X124541046Y-120802782D01*
X124544217Y-120804220D01*
X124554181Y-120807451D01*
X124570859Y-120810420D01*
X124595707Y-120813137D01*
X124630180Y-120815613D01*
X124675736Y-120817858D01*
X124733830Y-120819883D01*
X124805919Y-120821698D01*
X124893458Y-120823315D01*
X124997905Y-120824743D01*
X125120715Y-120825993D01*
X125263345Y-120827076D01*
X125427251Y-120828002D01*
X125613890Y-120828782D01*
X125824716Y-120829426D01*
X126061188Y-120829946D01*
X126324761Y-120830351D01*
X126616890Y-120830652D01*
X126939034Y-120830860D01*
X127292647Y-120830985D01*
X127679186Y-120831038D01*
X128100108Y-120831029D01*
X128236456Y-120831016D01*
X128666716Y-120830947D01*
X129062164Y-120830834D01*
X129424273Y-120830665D01*
X129754517Y-120830430D01*
X130054371Y-120830116D01*
X130325308Y-120829713D01*
X130568800Y-120829207D01*
X130786323Y-120828589D01*
X130979350Y-120827846D01*
X131149354Y-120826968D01*
X131297810Y-120825941D01*
X131426190Y-120824756D01*
X131535969Y-120823400D01*
X131628620Y-120821862D01*
X131705617Y-120820130D01*
X131768434Y-120818194D01*
X131818544Y-120816040D01*
X131857421Y-120813659D01*
X131886538Y-120811037D01*
X131907371Y-120808165D01*
X131921391Y-120805030D01*
X131929034Y-120802159D01*
X131942618Y-120796430D01*
X131955090Y-120792206D01*
X131966498Y-120787985D01*
X131976889Y-120782268D01*
X131986309Y-120773555D01*
X131994808Y-120760345D01*
X132002430Y-120741137D01*
X132009225Y-120714433D01*
X132015238Y-120678730D01*
X132020517Y-120632530D01*
X132025110Y-120574332D01*
X132029064Y-120502635D01*
X132032425Y-120415940D01*
X132035241Y-120312746D01*
X132037560Y-120191553D01*
X132039428Y-120050860D01*
X132039916Y-119996857D01*
X131555704Y-119996857D01*
X129844256Y-119996857D01*
X129877187Y-119946964D01*
X129909947Y-119895693D01*
X129937689Y-119846869D01*
X129960807Y-119797076D01*
X129979697Y-119742898D01*
X129994751Y-119680916D01*
X130006367Y-119607715D01*
X130014936Y-119519878D01*
X130020856Y-119413988D01*
X130024519Y-119286628D01*
X130026321Y-119134381D01*
X130026656Y-118953832D01*
X130025919Y-118741562D01*
X130025501Y-118662755D01*
X130020786Y-117817911D01*
X129485572Y-118546557D01*
X129333946Y-118753265D01*
X129202581Y-118933260D01*
X129090057Y-119088925D01*
X128994957Y-119222647D01*
X128915862Y-119336809D01*
X128851353Y-119433797D01*
X128800012Y-119515994D01*
X128760420Y-119585786D01*
X128731160Y-119645558D01*
X128710812Y-119697693D01*
X128697958Y-119744576D01*
X128691181Y-119788593D01*
X128689060Y-119832127D01*
X128690179Y-119877564D01*
X128690464Y-119883275D01*
X128696357Y-119996933D01*
X126820771Y-119996857D01*
X126960278Y-119856189D01*
X126998135Y-119817715D01*
X127034047Y-119780279D01*
X127069593Y-119741814D01*
X127106347Y-119700258D01*
X127145886Y-119653545D01*
X127189786Y-119599610D01*
X127239623Y-119536390D01*
X127296972Y-119461818D01*
X127363411Y-119373832D01*
X127440515Y-119270365D01*
X127529861Y-119149354D01*
X127633024Y-119008734D01*
X127751580Y-118846440D01*
X127887105Y-118660407D01*
X128041177Y-118448571D01*
X128167462Y-118274804D01*
X128325954Y-118056501D01*
X128464216Y-117865629D01*
X128583499Y-117700374D01*
X128685057Y-117558926D01*
X128770141Y-117439471D01*
X128840005Y-117340198D01*
X128895900Y-117259295D01*
X128939080Y-117194949D01*
X128970797Y-117145347D01*
X128992302Y-117108679D01*
X129004850Y-117083132D01*
X129009692Y-117066893D01*
X129008237Y-117058355D01*
X128990599Y-117035635D01*
X128952466Y-116987543D01*
X128896138Y-116916938D01*
X128823916Y-116826678D01*
X128738101Y-116719621D01*
X128640994Y-116598627D01*
X128534896Y-116466554D01*
X128422109Y-116326260D01*
X128304932Y-116180603D01*
X128185667Y-116032444D01*
X128120067Y-115951000D01*
X126491314Y-115951000D01*
X126423621Y-116073465D01*
X126355929Y-116195929D01*
X126355929Y-119751929D01*
X126423621Y-119874393D01*
X126491314Y-119996857D01*
X125690559Y-119996857D01*
X125499398Y-119996802D01*
X125341501Y-119996551D01*
X125213848Y-119995979D01*
X125113419Y-119994959D01*
X125037193Y-119993365D01*
X124982148Y-119991070D01*
X124945264Y-119987950D01*
X124923521Y-119983877D01*
X124913898Y-119978725D01*
X124913373Y-119972367D01*
X124918926Y-119964679D01*
X124918984Y-119964615D01*
X124941860Y-119931524D01*
X124972151Y-119877719D01*
X124998903Y-119824008D01*
X125049643Y-119715643D01*
X125054818Y-117833322D01*
X125059993Y-115951000D01*
X126491314Y-115951000D01*
X128120067Y-115951000D01*
X128066615Y-115884639D01*
X127950077Y-115740047D01*
X127838354Y-115601528D01*
X127733746Y-115471939D01*
X127638556Y-115354140D01*
X127555083Y-115250988D01*
X127485629Y-115165343D01*
X127432494Y-115100062D01*
X127401285Y-115062000D01*
X127280097Y-114919670D01*
X127163507Y-114791230D01*
X127055603Y-114680886D01*
X126960470Y-114592841D01*
X126892957Y-114538862D01*
X126813127Y-114481429D01*
X128649108Y-114481429D01*
X128648592Y-114589165D01*
X128653724Y-114668372D01*
X128673015Y-114741805D01*
X128702877Y-114811415D01*
X128722288Y-114850741D01*
X128743159Y-114889707D01*
X128767396Y-114930901D01*
X128796906Y-114976908D01*
X128833594Y-115030317D01*
X128879368Y-115093714D01*
X128936135Y-115169685D01*
X129005800Y-115260817D01*
X129090270Y-115369698D01*
X129191453Y-115498914D01*
X129311253Y-115651052D01*
X129451579Y-115828698D01*
X129467429Y-115848742D01*
X130020786Y-116548508D01*
X130026143Y-115773504D01*
X130027221Y-115541368D01*
X130026992Y-115344846D01*
X130025443Y-115183292D01*
X130022563Y-115056056D01*
X130018341Y-114962492D01*
X130012766Y-114901952D01*
X130010893Y-114890468D01*
X129981495Y-114769499D01*
X129942978Y-114660446D01*
X129899026Y-114572763D01*
X129872621Y-114535574D01*
X129827060Y-114481429D01*
X130691530Y-114481429D01*
X130897745Y-114481605D01*
X131070188Y-114482179D01*
X131211373Y-114483217D01*
X131323812Y-114484787D01*
X131410017Y-114486954D01*
X131472502Y-114489788D01*
X131513779Y-114493353D01*
X131536360Y-114497718D01*
X131542759Y-114502949D01*
X131542317Y-114504107D01*
X131523991Y-114531769D01*
X131493396Y-114575615D01*
X131477567Y-114597791D01*
X131461202Y-114619920D01*
X131446492Y-114639709D01*
X131433344Y-114659106D01*
X131421667Y-114680058D01*
X131411368Y-114704512D01*
X131402354Y-114734416D01*
X131394532Y-114771717D01*
X131387809Y-114818363D01*
X131382094Y-114876301D01*
X131377293Y-114947479D01*
X131373315Y-115033844D01*
X131370065Y-115137344D01*
X131367452Y-115259925D01*
X131365383Y-115403537D01*
X131363766Y-115570125D01*
X131362507Y-115761637D01*
X131361515Y-115980022D01*
X131360696Y-116227226D01*
X131359958Y-116505196D01*
X131359209Y-116815881D01*
X131358508Y-117101300D01*
X131357847Y-117419492D01*
X131357503Y-117723077D01*
X131357468Y-118010115D01*
X131357732Y-118278669D01*
X131358285Y-118526798D01*
X131359120Y-118752563D01*
X131360227Y-118954026D01*
X131361596Y-119129246D01*
X131363219Y-119276286D01*
X131365087Y-119393206D01*
X131367189Y-119478067D01*
X131369518Y-119528929D01*
X131369959Y-119534304D01*
X131386008Y-119657613D01*
X131411064Y-119756644D01*
X131449221Y-119843070D01*
X131504572Y-119928565D01*
X131511496Y-119937893D01*
X131555704Y-119996857D01*
X132039916Y-119996857D01*
X132040892Y-119889168D01*
X132042001Y-119704976D01*
X132042801Y-119496784D01*
X132043339Y-119263091D01*
X132043662Y-119002398D01*
X132043817Y-118713204D01*
X132043854Y-118394009D01*
X132043817Y-118043313D01*
X132043755Y-117659614D01*
X132043715Y-117241414D01*
X132043714Y-117158393D01*
X132043691Y-116735789D01*
X132043612Y-116347981D01*
X132043467Y-115993480D01*
X132043244Y-115670797D01*
X132042931Y-115378442D01*
X132042517Y-115114927D01*
X132041991Y-114878762D01*
X132041340Y-114668458D01*
X132040553Y-114482526D01*
X132039619Y-114319475D01*
X132038526Y-114177818D01*
X132037263Y-114056064D01*
X132035817Y-113952725D01*
X132034179Y-113866311D01*
X132032334Y-113795333D01*
X132030274Y-113738301D01*
X132027985Y-113693727D01*
X132025456Y-113660121D01*
X132022676Y-113635993D01*
X132019633Y-113619856D01*
X132016316Y-113610218D01*
X132016193Y-113609978D01*
X132009360Y-113595255D01*
X132003670Y-113581926D01*
X131997374Y-113569922D01*
X131988728Y-113559173D01*
X131975986Y-113549611D01*
X131957400Y-113541167D01*
X131931226Y-113533771D01*
X131895716Y-113527354D01*
X131849125Y-113521848D01*
X131789707Y-113517183D01*
X131715715Y-113513291D01*
X131625403Y-113510102D01*
X131517025Y-113507547D01*
X131388835Y-113505558D01*
X131239087Y-113504065D01*
X131066034Y-113502998D01*
X130867931Y-113502291D01*
X130643031Y-113501872D01*
X130389588Y-113501673D01*
X130105856Y-113501626D01*
X129790089Y-113501660D01*
G37*
X129790089Y-113501660D02*
X129440540Y-113501707D01*
X129277830Y-113501714D01*
X126673429Y-113501715D01*
X126673429Y-113655238D01*
X126657043Y-113842063D01*
X126607588Y-114014367D01*
X126524620Y-114173175D01*
X126407695Y-114319510D01*
X126368136Y-114359032D01*
X126225830Y-114471138D01*
X126068922Y-114552899D01*
X125902072Y-114604353D01*
X125729939Y-114625537D01*
X125557185Y-114616487D01*
X125388470Y-114577242D01*
X125228454Y-114507838D01*
X125081798Y-114408311D01*
X125015932Y-114348265D01*
X124893192Y-114201043D01*
X124803188Y-114039147D01*
X124746706Y-113864427D01*
X124724529Y-113678735D01*
X124724234Y-113660467D01*
X124723072Y-113501720D01*
X124653300Y-113501717D01*
X124591405Y-113510118D01*
X124534865Y-113530556D01*
X124531128Y-113532667D01*
X124518358Y-113539293D01*
X124506632Y-113544454D01*
X124495906Y-113549651D01*
X124486139Y-113556390D01*
X124477288Y-113566171D01*
X124469311Y-113580500D01*
X124462165Y-113600878D01*
X124455808Y-113628808D01*
X124450198Y-113665795D01*
X124445293Y-113713340D01*
X124441049Y-113772947D01*
X124437424Y-113846119D01*
X124434377Y-113934359D01*
X124431864Y-114039170D01*
X124429844Y-114162055D01*
X124428274Y-114304517D01*
X124427112Y-114468060D01*
X124426314Y-114654186D01*
X124425840Y-114864398D01*
X124425646Y-115100200D01*
X124425690Y-115363094D01*
X124425930Y-115654584D01*
X124426323Y-115976172D01*
X124426827Y-116329362D01*
X124427400Y-116715657D01*
X124427999Y-117136560D01*
X124428068Y-117187840D01*
X124428605Y-117611426D01*
X124429061Y-118000230D01*
X124429484Y-118355753D01*
X124429921Y-118679498D01*
X124430422Y-118972966D01*
X124431035Y-119237661D01*
X124431808Y-119475085D01*
X124432789Y-119686740D01*
X124434026Y-119874129D01*
X124435568Y-120038754D01*
X124437463Y-120182117D01*
X124439759Y-120305720D01*
X124442504Y-120411067D01*
X124445747Y-120499659D01*
X124449536Y-120573000D01*
X124453919Y-120632590D01*
X124458945Y-120679933D01*
X124464661Y-120716531D01*
X124471116Y-120743886D01*
X124478359Y-120763502D01*
X124486437Y-120776879D01*
X124495398Y-120785521D01*
X124505292Y-120790930D01*
X124516165Y-120794608D01*
X124528067Y-120798058D01*
X124541046Y-120802782D01*
X124544217Y-120804220D01*
X124554181Y-120807451D01*
X124570859Y-120810420D01*
X124595707Y-120813137D01*
X124630180Y-120815613D01*
X124675736Y-120817858D01*
X124733830Y-120819883D01*
X124805919Y-120821698D01*
X124893458Y-120823315D01*
X124997905Y-120824743D01*
X125120715Y-120825993D01*
X125263345Y-120827076D01*
X125427251Y-120828002D01*
X125613890Y-120828782D01*
X125824716Y-120829426D01*
X126061188Y-120829946D01*
X126324761Y-120830351D01*
X126616890Y-120830652D01*
X126939034Y-120830860D01*
X127292647Y-120830985D01*
X127679186Y-120831038D01*
X128100108Y-120831029D01*
X128236456Y-120831016D01*
X128666716Y-120830947D01*
X129062164Y-120830834D01*
X129424273Y-120830665D01*
X129754517Y-120830430D01*
X130054371Y-120830116D01*
X130325308Y-120829713D01*
X130568800Y-120829207D01*
X130786323Y-120828589D01*
X130979350Y-120827846D01*
X131149354Y-120826968D01*
X131297810Y-120825941D01*
X131426190Y-120824756D01*
X131535969Y-120823400D01*
X131628620Y-120821862D01*
X131705617Y-120820130D01*
X131768434Y-120818194D01*
X131818544Y-120816040D01*
X131857421Y-120813659D01*
X131886538Y-120811037D01*
X131907371Y-120808165D01*
X131921391Y-120805030D01*
X131929034Y-120802159D01*
X131942618Y-120796430D01*
X131955090Y-120792206D01*
X131966498Y-120787985D01*
X131976889Y-120782268D01*
X131986309Y-120773555D01*
X131994808Y-120760345D01*
X132002430Y-120741137D01*
X132009225Y-120714433D01*
X132015238Y-120678730D01*
X132020517Y-120632530D01*
X132025110Y-120574332D01*
X132029064Y-120502635D01*
X132032425Y-120415940D01*
X132035241Y-120312746D01*
X132037560Y-120191553D01*
X132039428Y-120050860D01*
X132039916Y-119996857D01*
X131555704Y-119996857D01*
X129844256Y-119996857D01*
X129877187Y-119946964D01*
X129909947Y-119895693D01*
X129937689Y-119846869D01*
X129960807Y-119797076D01*
X129979697Y-119742898D01*
X129994751Y-119680916D01*
X130006367Y-119607715D01*
X130014936Y-119519878D01*
X130020856Y-119413988D01*
X130024519Y-119286628D01*
X130026321Y-119134381D01*
X130026656Y-118953832D01*
X130025919Y-118741562D01*
X130025501Y-118662755D01*
X130020786Y-117817911D01*
X129485572Y-118546557D01*
X129333946Y-118753265D01*
X129202581Y-118933260D01*
X129090057Y-119088925D01*
X128994957Y-119222647D01*
X128915862Y-119336809D01*
X128851353Y-119433797D01*
X128800012Y-119515994D01*
X128760420Y-119585786D01*
X128731160Y-119645558D01*
X128710812Y-119697693D01*
X128697958Y-119744576D01*
X128691181Y-119788593D01*
X128689060Y-119832127D01*
X128690179Y-119877564D01*
X128690464Y-119883275D01*
X128696357Y-119996933D01*
X126820771Y-119996857D01*
X126960278Y-119856189D01*
X126998135Y-119817715D01*
X127034047Y-119780279D01*
X127069593Y-119741814D01*
X127106347Y-119700258D01*
X127145886Y-119653545D01*
X127189786Y-119599610D01*
X127239623Y-119536390D01*
X127296972Y-119461818D01*
X127363411Y-119373832D01*
X127440515Y-119270365D01*
X127529861Y-119149354D01*
X127633024Y-119008734D01*
X127751580Y-118846440D01*
X127887105Y-118660407D01*
X128041177Y-118448571D01*
X128167462Y-118274804D01*
X128325954Y-118056501D01*
X128464216Y-117865629D01*
X128583499Y-117700374D01*
X128685057Y-117558926D01*
X128770141Y-117439471D01*
X128840005Y-117340198D01*
X128895900Y-117259295D01*
X128939080Y-117194949D01*
X128970797Y-117145347D01*
X128992302Y-117108679D01*
X129004850Y-117083132D01*
X129009692Y-117066893D01*
X129008237Y-117058355D01*
X128990599Y-117035635D01*
X128952466Y-116987543D01*
X128896138Y-116916938D01*
X128823916Y-116826678D01*
X128738101Y-116719621D01*
X128640994Y-116598627D01*
X128534896Y-116466554D01*
X128422109Y-116326260D01*
X128304932Y-116180603D01*
X128185667Y-116032444D01*
X128120067Y-115951000D01*
X126491314Y-115951000D01*
X126423621Y-116073465D01*
X126355929Y-116195929D01*
X126355929Y-119751929D01*
X126423621Y-119874393D01*
X126491314Y-119996857D01*
X125690559Y-119996857D01*
X125499398Y-119996802D01*
X125341501Y-119996551D01*
X125213848Y-119995979D01*
X125113419Y-119994959D01*
X125037193Y-119993365D01*
X124982148Y-119991070D01*
X124945264Y-119987950D01*
X124923521Y-119983877D01*
X124913898Y-119978725D01*
X124913373Y-119972367D01*
X124918926Y-119964679D01*
X124918984Y-119964615D01*
X124941860Y-119931524D01*
X124972151Y-119877719D01*
X124998903Y-119824008D01*
X125049643Y-119715643D01*
X125054818Y-117833322D01*
X125059993Y-115951000D01*
X126491314Y-115951000D01*
X128120067Y-115951000D01*
X128066615Y-115884639D01*
X127950077Y-115740047D01*
X127838354Y-115601528D01*
X127733746Y-115471939D01*
X127638556Y-115354140D01*
X127555083Y-115250988D01*
X127485629Y-115165343D01*
X127432494Y-115100062D01*
X127401285Y-115062000D01*
X127280097Y-114919670D01*
X127163507Y-114791230D01*
X127055603Y-114680886D01*
X126960470Y-114592841D01*
X126892957Y-114538862D01*
X126813127Y-114481429D01*
X128649108Y-114481429D01*
X128648592Y-114589165D01*
X128653724Y-114668372D01*
X128673015Y-114741805D01*
X128702877Y-114811415D01*
X128722288Y-114850741D01*
X128743159Y-114889707D01*
X128767396Y-114930901D01*
X128796906Y-114976908D01*
X128833594Y-115030317D01*
X128879368Y-115093714D01*
X128936135Y-115169685D01*
X129005800Y-115260817D01*
X129090270Y-115369698D01*
X129191453Y-115498914D01*
X129311253Y-115651052D01*
X129451579Y-115828698D01*
X129467429Y-115848742D01*
X130020786Y-116548508D01*
X130026143Y-115773504D01*
X130027221Y-115541368D01*
X130026992Y-115344846D01*
X130025443Y-115183292D01*
X130022563Y-115056056D01*
X130018341Y-114962492D01*
X130012766Y-114901952D01*
X130010893Y-114890468D01*
X129981495Y-114769499D01*
X129942978Y-114660446D01*
X129899026Y-114572763D01*
X129872621Y-114535574D01*
X129827060Y-114481429D01*
X130691530Y-114481429D01*
X130897745Y-114481605D01*
X131070188Y-114482179D01*
X131211373Y-114483217D01*
X131323812Y-114484787D01*
X131410017Y-114486954D01*
X131472502Y-114489788D01*
X131513779Y-114493353D01*
X131536360Y-114497718D01*
X131542759Y-114502949D01*
X131542317Y-114504107D01*
X131523991Y-114531769D01*
X131493396Y-114575615D01*
X131477567Y-114597791D01*
X131461202Y-114619920D01*
X131446492Y-114639709D01*
X131433344Y-114659106D01*
X131421667Y-114680058D01*
X131411368Y-114704512D01*
X131402354Y-114734416D01*
X131394532Y-114771717D01*
X131387809Y-114818363D01*
X131382094Y-114876301D01*
X131377293Y-114947479D01*
X131373315Y-115033844D01*
X131370065Y-115137344D01*
X131367452Y-115259925D01*
X131365383Y-115403537D01*
X131363766Y-115570125D01*
X131362507Y-115761637D01*
X131361515Y-115980022D01*
X131360696Y-116227226D01*
X131359958Y-116505196D01*
X131359209Y-116815881D01*
X131358508Y-117101300D01*
X131357847Y-117419492D01*
X131357503Y-117723077D01*
X131357468Y-118010115D01*
X131357732Y-118278669D01*
X131358285Y-118526798D01*
X131359120Y-118752563D01*
X131360227Y-118954026D01*
X131361596Y-119129246D01*
X131363219Y-119276286D01*
X131365087Y-119393206D01*
X131367189Y-119478067D01*
X131369518Y-119528929D01*
X131369959Y-119534304D01*
X131386008Y-119657613D01*
X131411064Y-119756644D01*
X131449221Y-119843070D01*
X131504572Y-119928565D01*
X131511496Y-119937893D01*
X131555704Y-119996857D01*
X132039916Y-119996857D01*
X132040892Y-119889168D01*
X132042001Y-119704976D01*
X132042801Y-119496784D01*
X132043339Y-119263091D01*
X132043662Y-119002398D01*
X132043817Y-118713204D01*
X132043854Y-118394009D01*
X132043817Y-118043313D01*
X132043755Y-117659614D01*
X132043715Y-117241414D01*
X132043714Y-117158393D01*
X132043691Y-116735789D01*
X132043612Y-116347981D01*
X132043467Y-115993480D01*
X132043244Y-115670797D01*
X132042931Y-115378442D01*
X132042517Y-115114927D01*
X132041991Y-114878762D01*
X132041340Y-114668458D01*
X132040553Y-114482526D01*
X132039619Y-114319475D01*
X132038526Y-114177818D01*
X132037263Y-114056064D01*
X132035817Y-113952725D01*
X132034179Y-113866311D01*
X132032334Y-113795333D01*
X132030274Y-113738301D01*
X132027985Y-113693727D01*
X132025456Y-113660121D01*
X132022676Y-113635993D01*
X132019633Y-113619856D01*
X132016316Y-113610218D01*
X132016193Y-113609978D01*
X132009360Y-113595255D01*
X132003670Y-113581926D01*
X131997374Y-113569922D01*
X131988728Y-113559173D01*
X131975986Y-113549611D01*
X131957400Y-113541167D01*
X131931226Y-113533771D01*
X131895716Y-113527354D01*
X131849125Y-113521848D01*
X131789707Y-113517183D01*
X131715715Y-113513291D01*
X131625403Y-113510102D01*
X131517025Y-113507547D01*
X131388835Y-113505558D01*
X131239087Y-113504065D01*
X131066034Y-113502998D01*
X130867931Y-113502291D01*
X130643031Y-113501872D01*
X130389588Y-113501673D01*
X130105856Y-113501626D01*
X129790089Y-113501660D01*
%TO.C,G\u002A\u002A\u002A*%
G36*
X118787333Y-96096667D02*
G01*
X116416666Y-96096667D01*
X116416666Y-98128667D01*
X116755333Y-98128667D01*
X116755333Y-96435334D01*
X118448666Y-96435334D01*
X118448666Y-98128667D01*
X116755333Y-98128667D01*
X116416666Y-98128667D01*
X116416666Y-98467334D01*
X118787333Y-98467334D01*
X118787333Y-96096667D01*
G37*
X118787333Y-96096667D02*
X116416666Y-96096667D01*
X116416666Y-98128667D01*
X116755333Y-98128667D01*
X116755333Y-96435334D01*
X118448666Y-96435334D01*
X118448666Y-98128667D01*
X116755333Y-98128667D01*
X116416666Y-98128667D01*
X116416666Y-98467334D01*
X118787333Y-98467334D01*
X118787333Y-96096667D01*
G36*
X122099242Y-104544798D02*
G01*
X122150346Y-104463374D01*
X122170886Y-104280336D01*
X122174000Y-104055334D01*
X122167821Y-103771606D01*
X122140680Y-103618294D01*
X122079667Y-103556673D01*
X122004666Y-103547334D01*
X121863162Y-103487465D01*
X121835333Y-103378000D01*
X121895201Y-103236496D01*
X122004666Y-103208667D01*
X122146170Y-103148799D01*
X122174000Y-103039334D01*
X122114131Y-102897830D01*
X122004666Y-102870000D01*
X121863162Y-102810132D01*
X121835333Y-102700667D01*
X121895201Y-102559163D01*
X122004666Y-102531334D01*
X122115450Y-102502934D01*
X122164412Y-102388145D01*
X122174000Y-102192667D01*
X122188200Y-101971099D01*
X122245594Y-101873175D01*
X122343333Y-101854000D01*
X122454117Y-101825600D01*
X122503079Y-101710811D01*
X122512666Y-101515334D01*
X122526866Y-101293766D01*
X122584261Y-101195841D01*
X122682000Y-101176667D01*
X122792784Y-101205067D01*
X122841746Y-101319856D01*
X122851333Y-101515334D01*
X122865533Y-101736902D01*
X122922927Y-101834826D01*
X123020666Y-101854000D01*
X123131450Y-101825600D01*
X123180412Y-101710811D01*
X123190000Y-101515334D01*
X123190000Y-101176667D01*
X123528666Y-101176667D01*
X123750234Y-101162467D01*
X123848159Y-101105073D01*
X123867333Y-101007334D01*
X123838933Y-100896550D01*
X123724144Y-100847588D01*
X123528666Y-100838000D01*
X123307098Y-100823800D01*
X123209174Y-100766406D01*
X123190000Y-100668667D01*
X123249868Y-100527163D01*
X123359333Y-100499334D01*
X123500837Y-100439465D01*
X123528666Y-100330000D01*
X123588535Y-100188496D01*
X123698000Y-100160667D01*
X123839504Y-100220536D01*
X123867333Y-100330000D01*
X123895733Y-100440785D01*
X124010522Y-100489747D01*
X124206000Y-100499334D01*
X124427568Y-100513534D01*
X124525492Y-100570928D01*
X124544666Y-100668667D01*
X124484798Y-100810171D01*
X124375333Y-100838000D01*
X124280757Y-100856536D01*
X124229653Y-100937960D01*
X124209113Y-101120998D01*
X124206000Y-101346000D01*
X124212178Y-101629729D01*
X124239319Y-101783041D01*
X124300332Y-101844661D01*
X124375333Y-101854000D01*
X124486117Y-101825600D01*
X124535079Y-101710811D01*
X124544666Y-101515334D01*
X124558866Y-101293766D01*
X124616261Y-101195841D01*
X124714000Y-101176667D01*
X124808576Y-101158131D01*
X124859680Y-101076707D01*
X124880220Y-100893670D01*
X124883333Y-100668667D01*
X124877154Y-100384939D01*
X124850013Y-100231627D01*
X124789000Y-100170006D01*
X124714000Y-100160667D01*
X124572495Y-100100799D01*
X124544666Y-99991334D01*
X124604535Y-99849830D01*
X124714000Y-99822000D01*
X124824784Y-99793600D01*
X124873746Y-99678811D01*
X124883333Y-99483334D01*
X124869133Y-99261766D01*
X124811738Y-99163841D01*
X124714000Y-99144667D01*
X124572495Y-99204536D01*
X124544666Y-99314000D01*
X124484798Y-99455505D01*
X124375333Y-99483334D01*
X124264549Y-99511734D01*
X124215587Y-99626523D01*
X124206000Y-99822000D01*
X124191799Y-100043569D01*
X124134405Y-100141493D01*
X124036666Y-100160667D01*
X123942090Y-100142131D01*
X123890986Y-100060707D01*
X123870446Y-99877670D01*
X123867333Y-99652667D01*
X123873511Y-99368939D01*
X123900653Y-99215627D01*
X123961665Y-99154006D01*
X124036666Y-99144667D01*
X124147450Y-99116267D01*
X124196412Y-99001478D01*
X124206000Y-98806000D01*
X124206000Y-98467334D01*
X124883333Y-98467334D01*
X124883333Y-98128667D01*
X124869133Y-97907099D01*
X124811738Y-97809175D01*
X124714000Y-97790000D01*
X124572495Y-97849869D01*
X124544666Y-97959334D01*
X124516266Y-98070118D01*
X124401477Y-98119080D01*
X124206000Y-98128667D01*
X123984431Y-98114467D01*
X123886507Y-98057073D01*
X123867333Y-97959334D01*
X123927201Y-97817830D01*
X124036666Y-97790000D01*
X124178170Y-97730132D01*
X124206000Y-97620667D01*
X124234400Y-97509883D01*
X124349189Y-97460921D01*
X124544666Y-97451334D01*
X124883333Y-97451334D01*
X124883333Y-96096667D01*
X123528666Y-96096667D01*
X123022132Y-96097656D01*
X122660561Y-96102653D01*
X122419587Y-96114703D01*
X122274843Y-96136853D01*
X122201961Y-96172149D01*
X122176575Y-96223637D01*
X122174000Y-96266000D01*
X122155464Y-96360577D01*
X122074040Y-96411681D01*
X121891002Y-96432221D01*
X121666000Y-96435334D01*
X121382271Y-96429155D01*
X121228959Y-96402014D01*
X121167339Y-96341001D01*
X121158000Y-96266000D01*
X121139464Y-96171424D01*
X121058040Y-96120320D01*
X120875002Y-96099780D01*
X120650000Y-96096667D01*
X120142000Y-96096667D01*
X120142000Y-96435334D01*
X120127799Y-96656902D01*
X120070405Y-96754826D01*
X119972666Y-96774000D01*
X119831162Y-96833869D01*
X119803333Y-96943334D01*
X119863201Y-97084838D01*
X119972666Y-97112667D01*
X120114170Y-97052799D01*
X120142000Y-96943334D01*
X120201868Y-96801830D01*
X120311333Y-96774000D01*
X120452837Y-96714132D01*
X120480666Y-96604667D01*
X120509066Y-96493883D01*
X120623855Y-96444921D01*
X120819333Y-96435334D01*
X121158000Y-96435334D01*
X121158000Y-96943334D01*
X122174000Y-96943334D01*
X122233868Y-96801830D01*
X122343333Y-96774000D01*
X122484837Y-96714132D01*
X122512666Y-96604667D01*
X122572535Y-96463163D01*
X122682000Y-96435334D01*
X122792784Y-96463734D01*
X122841746Y-96578523D01*
X122851333Y-96774000D01*
X122851333Y-96943334D01*
X123190000Y-96943334D01*
X123218400Y-96832550D01*
X123333189Y-96783588D01*
X123528666Y-96774000D01*
X123750234Y-96759800D01*
X123848159Y-96702406D01*
X123867333Y-96604667D01*
X123895733Y-96493883D01*
X124010522Y-96444921D01*
X124206000Y-96435334D01*
X124544666Y-96435334D01*
X124544666Y-96774000D01*
X124530466Y-96995569D01*
X124473072Y-97093493D01*
X124375333Y-97112667D01*
X124233829Y-97052799D01*
X124206000Y-96943334D01*
X124146131Y-96801830D01*
X124036666Y-96774000D01*
X123925882Y-96802401D01*
X123876920Y-96917190D01*
X123867333Y-97112667D01*
X123853133Y-97334235D01*
X123795738Y-97432160D01*
X123698000Y-97451334D01*
X123556495Y-97391465D01*
X123528666Y-97282000D01*
X123468798Y-97140496D01*
X123359333Y-97112667D01*
X123217829Y-97052799D01*
X123190000Y-96943334D01*
X122851333Y-96943334D01*
X122851333Y-97112667D01*
X122512666Y-97112667D01*
X122291098Y-97098467D01*
X122193174Y-97041073D01*
X122174000Y-96943334D01*
X121158000Y-96943334D01*
X121151821Y-97227062D01*
X121142096Y-97282000D01*
X121496666Y-97282000D01*
X121556535Y-97140496D01*
X121666000Y-97112667D01*
X121807504Y-97172536D01*
X121835333Y-97282000D01*
X121775464Y-97423505D01*
X121666000Y-97451334D01*
X121524495Y-97391465D01*
X121496666Y-97282000D01*
X121142096Y-97282000D01*
X121124680Y-97380374D01*
X121063667Y-97441995D01*
X120988666Y-97451334D01*
X120847162Y-97391465D01*
X120819333Y-97282000D01*
X120759464Y-97140496D01*
X120650000Y-97112667D01*
X120508495Y-97172536D01*
X120480666Y-97282000D01*
X120420798Y-97423505D01*
X120311333Y-97451334D01*
X120169829Y-97511202D01*
X120142000Y-97620667D01*
X120113599Y-97731451D01*
X119998810Y-97780413D01*
X119803333Y-97790000D01*
X119464666Y-97790000D01*
X119464666Y-97112667D01*
X119468201Y-96775191D01*
X119484484Y-96572933D01*
X119522030Y-96471832D01*
X119589353Y-96437826D01*
X119634000Y-96435334D01*
X119775504Y-96375465D01*
X119803333Y-96266000D01*
X119774933Y-96155216D01*
X119660144Y-96106254D01*
X119464666Y-96096667D01*
X119126000Y-96096667D01*
X119126000Y-96943334D01*
X119128324Y-97328684D01*
X119139382Y-97575370D01*
X119165305Y-97714040D01*
X119212223Y-97775344D01*
X119286264Y-97789931D01*
X119295333Y-97790000D01*
X119436837Y-97849869D01*
X119464666Y-97959334D01*
X120480666Y-97959334D01*
X120494807Y-97874965D01*
X120559938Y-97824400D01*
X120710120Y-97799125D01*
X120979415Y-97790624D01*
X121158000Y-97790000D01*
X121835333Y-97790000D01*
X121835333Y-98298000D01*
X121829154Y-98581729D01*
X121802013Y-98735041D01*
X121741000Y-98796661D01*
X121666000Y-98806000D01*
X122174000Y-98806000D01*
X122174000Y-97790000D01*
X123190000Y-97790000D01*
X123190000Y-98806000D01*
X122174000Y-98806000D01*
X121666000Y-98806000D01*
X121524495Y-98746132D01*
X121496666Y-98636667D01*
X121436798Y-98495163D01*
X121327333Y-98467334D01*
X121185829Y-98407465D01*
X121158000Y-98298000D01*
X121129599Y-98187216D01*
X121014810Y-98138254D01*
X120819333Y-98128667D01*
X120597765Y-98114467D01*
X120499840Y-98057073D01*
X120480666Y-97959334D01*
X119464666Y-97959334D01*
X119404798Y-98100838D01*
X119295333Y-98128667D01*
X119184549Y-98157067D01*
X119135587Y-98271856D01*
X119134305Y-98298000D01*
X119464666Y-98298000D01*
X119524535Y-98156496D01*
X119634000Y-98128667D01*
X119775504Y-98188536D01*
X119803333Y-98298000D01*
X119743464Y-98439505D01*
X119634000Y-98467334D01*
X119492495Y-98407465D01*
X119464666Y-98298000D01*
X119134305Y-98298000D01*
X119126000Y-98467334D01*
X119126000Y-98806000D01*
X119803333Y-98806000D01*
X119803333Y-99144667D01*
X119817533Y-99366235D01*
X119874927Y-99464160D01*
X119972666Y-99483334D01*
X120083450Y-99454934D01*
X120132412Y-99340145D01*
X120142000Y-99144667D01*
X120127799Y-98923099D01*
X120070405Y-98825175D01*
X119972666Y-98806000D01*
X119831162Y-98746132D01*
X119803333Y-98636667D01*
X119817474Y-98552298D01*
X119882605Y-98501734D01*
X120032787Y-98476458D01*
X120302082Y-98467957D01*
X120480666Y-98467334D01*
X120818143Y-98470869D01*
X121020401Y-98487152D01*
X121121502Y-98524697D01*
X121155507Y-98592021D01*
X121158000Y-98636667D01*
X121129599Y-98747451D01*
X121014810Y-98796413D01*
X120819333Y-98806000D01*
X120480666Y-98806000D01*
X120480666Y-99144667D01*
X120491518Y-99314000D01*
X120819333Y-99314000D01*
X120847733Y-99203216D01*
X120962522Y-99154254D01*
X121158000Y-99144667D01*
X121379568Y-99158867D01*
X121477492Y-99216262D01*
X121496666Y-99314000D01*
X121468266Y-99424785D01*
X121353477Y-99473747D01*
X121158000Y-99483334D01*
X120936431Y-99469134D01*
X120838507Y-99411739D01*
X120819333Y-99314000D01*
X120491518Y-99314000D01*
X120494866Y-99366235D01*
X120552261Y-99464160D01*
X120650000Y-99483334D01*
X120791504Y-99543202D01*
X120819333Y-99652667D01*
X120759464Y-99794171D01*
X120650000Y-99822000D01*
X120508495Y-99881869D01*
X120480666Y-99991334D01*
X120420798Y-100132838D01*
X120311333Y-100160667D01*
X120169829Y-100100799D01*
X120142000Y-99991334D01*
X120113599Y-99880550D01*
X119998810Y-99831588D01*
X119803333Y-99822000D01*
X119464666Y-99822000D01*
X119464666Y-99144667D01*
X119126000Y-99144667D01*
X118904431Y-99130467D01*
X118806507Y-99073073D01*
X118787333Y-98975334D01*
X118758933Y-98864550D01*
X118644144Y-98815588D01*
X118448666Y-98806000D01*
X118227098Y-98820201D01*
X118129174Y-98877595D01*
X118110000Y-98975334D01*
X118091464Y-99069910D01*
X118010040Y-99121014D01*
X117827002Y-99141554D01*
X117602000Y-99144667D01*
X117318271Y-99150846D01*
X117164959Y-99177987D01*
X117103339Y-99239000D01*
X117094000Y-99314000D01*
X117122400Y-99424785D01*
X117237189Y-99473747D01*
X117432666Y-99483334D01*
X117654234Y-99497534D01*
X117752159Y-99554928D01*
X117771333Y-99652667D01*
X117742933Y-99763451D01*
X117628144Y-99812413D01*
X117432666Y-99822000D01*
X117211098Y-99836201D01*
X117113174Y-99893595D01*
X117094000Y-99991334D01*
X117122400Y-100102118D01*
X117237189Y-100151080D01*
X117432666Y-100160667D01*
X117654234Y-100174867D01*
X117752159Y-100232262D01*
X117771333Y-100330000D01*
X117752797Y-100424577D01*
X117671373Y-100475681D01*
X117488335Y-100496221D01*
X117263333Y-100499334D01*
X116755333Y-100499334D01*
X116755333Y-99652667D01*
X116753009Y-99267317D01*
X116741950Y-99020631D01*
X116716027Y-98881961D01*
X116669110Y-98820657D01*
X116595068Y-98806070D01*
X116586000Y-98806000D01*
X116525800Y-98813219D01*
X116481861Y-98850199D01*
X116451628Y-98939931D01*
X116432547Y-99105404D01*
X116422062Y-99369606D01*
X116417621Y-99755527D01*
X116416668Y-100286157D01*
X116416666Y-100330000D01*
X116416666Y-101515334D01*
X116755333Y-101515334D01*
X116755333Y-101176667D01*
X116769533Y-100955099D01*
X116826927Y-100857175D01*
X116924666Y-100838000D01*
X117066170Y-100897869D01*
X117094000Y-101007334D01*
X117122400Y-101118118D01*
X117237189Y-101167080D01*
X117432666Y-101176667D01*
X117654234Y-101162467D01*
X117752159Y-101105073D01*
X117771333Y-101007334D01*
X117831201Y-100865830D01*
X117940666Y-100838000D01*
X118017736Y-100826380D01*
X118067073Y-100771087D01*
X118094807Y-100641471D01*
X118107068Y-100406885D01*
X118109986Y-100036678D01*
X118110000Y-99991334D01*
X118110000Y-99144667D01*
X118448666Y-99144667D01*
X118670234Y-99158867D01*
X118768159Y-99216262D01*
X118787333Y-99314000D01*
X118847201Y-99455505D01*
X118956666Y-99483334D01*
X119098170Y-99543202D01*
X119126000Y-99652667D01*
X119185868Y-99794171D01*
X119295333Y-99822000D01*
X119379702Y-99836141D01*
X119430266Y-99901272D01*
X119455542Y-100051454D01*
X119464043Y-100320750D01*
X119464075Y-100330000D01*
X119803333Y-100330000D01*
X119863201Y-100188496D01*
X119972666Y-100160667D01*
X120114170Y-100220536D01*
X120142000Y-100330000D01*
X120082131Y-100471505D01*
X119972666Y-100499334D01*
X119831162Y-100439465D01*
X119803333Y-100330000D01*
X119464075Y-100330000D01*
X119464666Y-100499334D01*
X119461131Y-100836810D01*
X119444848Y-101039068D01*
X119407303Y-101140169D01*
X119339979Y-101174175D01*
X119295333Y-101176667D01*
X119184549Y-101148267D01*
X119135587Y-101033478D01*
X119126000Y-100838000D01*
X119111799Y-100616432D01*
X119054405Y-100518508D01*
X118956666Y-100499334D01*
X118815162Y-100559202D01*
X118787333Y-100668667D01*
X118758933Y-100779451D01*
X118644144Y-100828413D01*
X118448666Y-100838000D01*
X118227098Y-100852201D01*
X118129174Y-100909595D01*
X118110000Y-101007334D01*
X118050131Y-101148838D01*
X117940666Y-101176667D01*
X117799162Y-101236536D01*
X117771333Y-101346000D01*
X118448666Y-101346000D01*
X118508535Y-101204496D01*
X118618000Y-101176667D01*
X118759504Y-101236536D01*
X118787333Y-101346000D01*
X118727464Y-101487505D01*
X118618000Y-101515334D01*
X118476495Y-101455465D01*
X118448666Y-101346000D01*
X117771333Y-101346000D01*
X117752797Y-101440577D01*
X117671373Y-101491681D01*
X117488335Y-101512221D01*
X117263333Y-101515334D01*
X116755333Y-101515334D01*
X116416666Y-101515334D01*
X116416666Y-101854000D01*
X117263333Y-101854000D01*
X117648683Y-101851676D01*
X117895369Y-101840618D01*
X118034039Y-101814695D01*
X118095343Y-101767777D01*
X118109930Y-101693736D01*
X118110000Y-101684667D01*
X118169868Y-101543163D01*
X118279333Y-101515334D01*
X118420837Y-101575202D01*
X118448666Y-101684667D01*
X118460286Y-101761737D01*
X118515580Y-101811074D01*
X118645195Y-101838808D01*
X118879782Y-101851069D01*
X119249989Y-101853987D01*
X119295333Y-101854000D01*
X119680683Y-101851676D01*
X119927369Y-101840618D01*
X120066039Y-101814695D01*
X120127343Y-101767777D01*
X120141930Y-101693736D01*
X120142000Y-101684667D01*
X120082131Y-101543163D01*
X119972666Y-101515334D01*
X119861882Y-101486934D01*
X119812920Y-101372145D01*
X119803333Y-101176667D01*
X119817533Y-100955099D01*
X119874927Y-100857175D01*
X119972666Y-100838000D01*
X120480666Y-100838000D01*
X120480666Y-100499334D01*
X120494866Y-100277766D01*
X120552261Y-100179841D01*
X120650000Y-100160667D01*
X120791504Y-100220536D01*
X120819333Y-100330000D01*
X120879201Y-100471505D01*
X120988666Y-100499334D01*
X121099450Y-100470934D01*
X121148412Y-100356145D01*
X121158000Y-100160667D01*
X121158000Y-99822000D01*
X121835333Y-99822000D01*
X121835333Y-100160667D01*
X121849533Y-100382235D01*
X121906927Y-100480160D01*
X122004666Y-100499334D01*
X122115450Y-100470934D01*
X122164412Y-100356145D01*
X122174000Y-100160667D01*
X122188200Y-99939099D01*
X122245594Y-99841175D01*
X122343333Y-99822000D01*
X122484837Y-99762132D01*
X122512666Y-99652667D01*
X122452798Y-99511163D01*
X122343333Y-99483334D01*
X122201829Y-99423465D01*
X122174000Y-99314000D01*
X122202400Y-99203216D01*
X122317189Y-99154254D01*
X122512666Y-99144667D01*
X122851333Y-99144667D01*
X122851333Y-99314000D01*
X123190000Y-99314000D01*
X123249868Y-99172496D01*
X123359333Y-99144667D01*
X123500837Y-99084799D01*
X123528666Y-98975334D01*
X123588535Y-98833830D01*
X123698000Y-98806000D01*
X123839504Y-98865869D01*
X123867333Y-98975334D01*
X123807464Y-99116838D01*
X123698000Y-99144667D01*
X123556495Y-99204536D01*
X123528666Y-99314000D01*
X123468798Y-99455505D01*
X123359333Y-99483334D01*
X123217829Y-99423465D01*
X123190000Y-99314000D01*
X122851333Y-99314000D01*
X122851333Y-99652667D01*
X122845154Y-99936395D01*
X122835429Y-99991334D01*
X123190000Y-99991334D01*
X123249868Y-99849830D01*
X123359333Y-99822000D01*
X123500837Y-99881869D01*
X123528666Y-99991334D01*
X123468798Y-100132838D01*
X123359333Y-100160667D01*
X123217829Y-100100799D01*
X123190000Y-99991334D01*
X122835429Y-99991334D01*
X122818013Y-100089707D01*
X122757000Y-100151328D01*
X122682000Y-100160667D01*
X122540495Y-100220536D01*
X122512666Y-100330000D01*
X122572535Y-100471505D01*
X122682000Y-100499334D01*
X122823504Y-100559202D01*
X122851333Y-100668667D01*
X122791464Y-100810171D01*
X122682000Y-100838000D01*
X122540495Y-100778132D01*
X122512666Y-100668667D01*
X122452798Y-100527163D01*
X122343333Y-100499334D01*
X122232549Y-100527734D01*
X122183587Y-100642523D01*
X122174000Y-100838000D01*
X122159799Y-101059569D01*
X122102405Y-101157493D01*
X122004666Y-101176667D01*
X121863162Y-101236536D01*
X121835333Y-101346000D01*
X121895201Y-101487505D01*
X122004666Y-101515334D01*
X122146170Y-101575202D01*
X122174000Y-101684667D01*
X122114131Y-101826171D01*
X122004666Y-101854000D01*
X121893882Y-101882401D01*
X121844920Y-101997190D01*
X121835333Y-102192667D01*
X121821133Y-102414235D01*
X121763738Y-102512160D01*
X121666000Y-102531334D01*
X121581630Y-102517193D01*
X121531066Y-102452062D01*
X121505791Y-102301880D01*
X121497289Y-102032585D01*
X121496666Y-101854000D01*
X121500201Y-101516524D01*
X121516484Y-101314266D01*
X121554030Y-101213165D01*
X121621353Y-101179160D01*
X121666000Y-101176667D01*
X121807504Y-101116799D01*
X121835333Y-101007334D01*
X121821192Y-100922965D01*
X121756061Y-100872400D01*
X121605879Y-100847125D01*
X121336584Y-100838624D01*
X121158000Y-100838000D01*
X120480666Y-100838000D01*
X119972666Y-100838000D01*
X120114170Y-100897869D01*
X120142000Y-101007334D01*
X120160535Y-101101910D01*
X120241959Y-101153014D01*
X120424997Y-101173554D01*
X120650000Y-101176667D01*
X120933728Y-101182846D01*
X121087040Y-101209987D01*
X121148660Y-101271000D01*
X121158000Y-101346000D01*
X121129599Y-101456785D01*
X121014810Y-101505747D01*
X120819333Y-101515334D01*
X120480666Y-101515334D01*
X120480666Y-102023334D01*
X120484353Y-102192667D01*
X120819333Y-102192667D01*
X120833533Y-101971099D01*
X120890927Y-101873175D01*
X120988666Y-101854000D01*
X121099450Y-101882401D01*
X121148412Y-101997190D01*
X121158000Y-102192667D01*
X121143799Y-102414235D01*
X121086405Y-102512160D01*
X120988666Y-102531334D01*
X120877882Y-102502934D01*
X120828920Y-102388145D01*
X120819333Y-102192667D01*
X120484353Y-102192667D01*
X120486845Y-102307062D01*
X120513986Y-102460374D01*
X120574999Y-102521995D01*
X120650000Y-102531334D01*
X120791504Y-102591202D01*
X120819333Y-102700667D01*
X120759464Y-102842171D01*
X120650000Y-102870000D01*
X120508495Y-102929869D01*
X120480666Y-103039334D01*
X121158000Y-103039334D01*
X121186400Y-102928550D01*
X121301189Y-102879588D01*
X121496666Y-102870000D01*
X121718234Y-102884201D01*
X121816159Y-102941595D01*
X121835333Y-103039334D01*
X121806933Y-103150118D01*
X121692144Y-103199080D01*
X121496666Y-103208667D01*
X121275098Y-103194467D01*
X121177174Y-103137073D01*
X121158000Y-103039334D01*
X120480666Y-103039334D01*
X120420798Y-103180838D01*
X120311333Y-103208667D01*
X120216757Y-103190131D01*
X120165653Y-103108707D01*
X120145113Y-102925670D01*
X120142000Y-102700667D01*
X120135821Y-102416939D01*
X120108680Y-102263627D01*
X120047667Y-102202006D01*
X119972666Y-102192667D01*
X119878090Y-102211203D01*
X119826986Y-102292627D01*
X119806446Y-102475665D01*
X119803333Y-102700667D01*
X119803333Y-103208667D01*
X119464666Y-103208667D01*
X119243098Y-103222867D01*
X119145174Y-103280262D01*
X119126000Y-103378000D01*
X119803333Y-103378000D01*
X119863201Y-103236496D01*
X119972666Y-103208667D01*
X120114170Y-103268536D01*
X120142000Y-103378000D01*
X120082131Y-103519505D01*
X119972666Y-103547334D01*
X119831162Y-103487465D01*
X119803333Y-103378000D01*
X119126000Y-103378000D01*
X119185868Y-103519505D01*
X119295333Y-103547334D01*
X119436837Y-103607202D01*
X119464666Y-103716667D01*
X119404798Y-103858171D01*
X119295333Y-103886000D01*
X119153829Y-103945869D01*
X119126000Y-104055334D01*
X119185868Y-104196838D01*
X119295333Y-104224667D01*
X119436837Y-104284536D01*
X119464666Y-104394000D01*
X119524535Y-104535505D01*
X119634000Y-104563334D01*
X119744784Y-104534934D01*
X119793746Y-104420145D01*
X119803333Y-104224667D01*
X119817533Y-104003099D01*
X119874927Y-103905175D01*
X119972666Y-103886000D01*
X120480666Y-103886000D01*
X120480666Y-103547334D01*
X120494866Y-103325766D01*
X120552261Y-103227841D01*
X120650000Y-103208667D01*
X120791504Y-103268536D01*
X120819333Y-103378000D01*
X120879201Y-103519505D01*
X120988666Y-103547334D01*
X121130170Y-103607202D01*
X121158000Y-103716667D01*
X121129599Y-103827451D01*
X121014810Y-103876413D01*
X120819333Y-103886000D01*
X120480666Y-103886000D01*
X119972666Y-103886000D01*
X120114170Y-103945869D01*
X120142000Y-104055334D01*
X120160535Y-104149910D01*
X120241959Y-104201014D01*
X120424997Y-104221554D01*
X120650000Y-104224667D01*
X120933728Y-104218489D01*
X121087040Y-104191347D01*
X121148660Y-104130335D01*
X121158000Y-104055334D01*
X121217868Y-103913830D01*
X121327333Y-103886000D01*
X121468837Y-103945869D01*
X121496666Y-104055334D01*
X121556535Y-104196838D01*
X121666000Y-104224667D01*
X121807504Y-104284536D01*
X121835333Y-104394000D01*
X121895201Y-104535505D01*
X122004666Y-104563334D01*
X122099242Y-104544798D01*
G37*
X122099242Y-104544798D02*
X122150346Y-104463374D01*
X122170886Y-104280336D01*
X122174000Y-104055334D01*
X122167821Y-103771606D01*
X122140680Y-103618294D01*
X122079667Y-103556673D01*
X122004666Y-103547334D01*
X121863162Y-103487465D01*
X121835333Y-103378000D01*
X121895201Y-103236496D01*
X122004666Y-103208667D01*
X122146170Y-103148799D01*
X122174000Y-103039334D01*
X122114131Y-102897830D01*
X122004666Y-102870000D01*
X121863162Y-102810132D01*
X121835333Y-102700667D01*
X121895201Y-102559163D01*
X122004666Y-102531334D01*
X122115450Y-102502934D01*
X122164412Y-102388145D01*
X122174000Y-102192667D01*
X122188200Y-101971099D01*
X122245594Y-101873175D01*
X122343333Y-101854000D01*
X122454117Y-101825600D01*
X122503079Y-101710811D01*
X122512666Y-101515334D01*
X122526866Y-101293766D01*
X122584261Y-101195841D01*
X122682000Y-101176667D01*
X122792784Y-101205067D01*
X122841746Y-101319856D01*
X122851333Y-101515334D01*
X122865533Y-101736902D01*
X122922927Y-101834826D01*
X123020666Y-101854000D01*
X123131450Y-101825600D01*
X123180412Y-101710811D01*
X123190000Y-101515334D01*
X123190000Y-101176667D01*
X123528666Y-101176667D01*
X123750234Y-101162467D01*
X123848159Y-101105073D01*
X123867333Y-101007334D01*
X123838933Y-100896550D01*
X123724144Y-100847588D01*
X123528666Y-100838000D01*
X123307098Y-100823800D01*
X123209174Y-100766406D01*
X123190000Y-100668667D01*
X123249868Y-100527163D01*
X123359333Y-100499334D01*
X123500837Y-100439465D01*
X123528666Y-100330000D01*
X123588535Y-100188496D01*
X123698000Y-100160667D01*
X123839504Y-100220536D01*
X123867333Y-100330000D01*
X123895733Y-100440785D01*
X124010522Y-100489747D01*
X124206000Y-100499334D01*
X124427568Y-100513534D01*
X124525492Y-100570928D01*
X124544666Y-100668667D01*
X124484798Y-100810171D01*
X124375333Y-100838000D01*
X124280757Y-100856536D01*
X124229653Y-100937960D01*
X124209113Y-101120998D01*
X124206000Y-101346000D01*
X124212178Y-101629729D01*
X124239319Y-101783041D01*
X124300332Y-101844661D01*
X124375333Y-101854000D01*
X124486117Y-101825600D01*
X124535079Y-101710811D01*
X124544666Y-101515334D01*
X124558866Y-101293766D01*
X124616261Y-101195841D01*
X124714000Y-101176667D01*
X124808576Y-101158131D01*
X124859680Y-101076707D01*
X124880220Y-100893670D01*
X124883333Y-100668667D01*
X124877154Y-100384939D01*
X124850013Y-100231627D01*
X124789000Y-100170006D01*
X124714000Y-100160667D01*
X124572495Y-100100799D01*
X124544666Y-99991334D01*
X124604535Y-99849830D01*
X124714000Y-99822000D01*
X124824784Y-99793600D01*
X124873746Y-99678811D01*
X124883333Y-99483334D01*
X124869133Y-99261766D01*
X124811738Y-99163841D01*
X124714000Y-99144667D01*
X124572495Y-99204536D01*
X124544666Y-99314000D01*
X124484798Y-99455505D01*
X124375333Y-99483334D01*
X124264549Y-99511734D01*
X124215587Y-99626523D01*
X124206000Y-99822000D01*
X124191799Y-100043569D01*
X124134405Y-100141493D01*
X124036666Y-100160667D01*
X123942090Y-100142131D01*
X123890986Y-100060707D01*
X123870446Y-99877670D01*
X123867333Y-99652667D01*
X123873511Y-99368939D01*
X123900653Y-99215627D01*
X123961665Y-99154006D01*
X124036666Y-99144667D01*
X124147450Y-99116267D01*
X124196412Y-99001478D01*
X124206000Y-98806000D01*
X124206000Y-98467334D01*
X124883333Y-98467334D01*
X124883333Y-98128667D01*
X124869133Y-97907099D01*
X124811738Y-97809175D01*
X124714000Y-97790000D01*
X124572495Y-97849869D01*
X124544666Y-97959334D01*
X124516266Y-98070118D01*
X124401477Y-98119080D01*
X124206000Y-98128667D01*
X123984431Y-98114467D01*
X123886507Y-98057073D01*
X123867333Y-97959334D01*
X123927201Y-97817830D01*
X124036666Y-97790000D01*
X124178170Y-97730132D01*
X124206000Y-97620667D01*
X124234400Y-97509883D01*
X124349189Y-97460921D01*
X124544666Y-97451334D01*
X124883333Y-97451334D01*
X124883333Y-96096667D01*
X123528666Y-96096667D01*
X123022132Y-96097656D01*
X122660561Y-96102653D01*
X122419587Y-96114703D01*
X122274843Y-96136853D01*
X122201961Y-96172149D01*
X122176575Y-96223637D01*
X122174000Y-96266000D01*
X122155464Y-96360577D01*
X122074040Y-96411681D01*
X121891002Y-96432221D01*
X121666000Y-96435334D01*
X121382271Y-96429155D01*
X121228959Y-96402014D01*
X121167339Y-96341001D01*
X121158000Y-96266000D01*
X121139464Y-96171424D01*
X121058040Y-96120320D01*
X120875002Y-96099780D01*
X120650000Y-96096667D01*
X120142000Y-96096667D01*
X120142000Y-96435334D01*
X120127799Y-96656902D01*
X120070405Y-96754826D01*
X119972666Y-96774000D01*
X119831162Y-96833869D01*
X119803333Y-96943334D01*
X119863201Y-97084838D01*
X119972666Y-97112667D01*
X120114170Y-97052799D01*
X120142000Y-96943334D01*
X120201868Y-96801830D01*
X120311333Y-96774000D01*
X120452837Y-96714132D01*
X120480666Y-96604667D01*
X120509066Y-96493883D01*
X120623855Y-96444921D01*
X120819333Y-96435334D01*
X121158000Y-96435334D01*
X121158000Y-96943334D01*
X122174000Y-96943334D01*
X122233868Y-96801830D01*
X122343333Y-96774000D01*
X122484837Y-96714132D01*
X122512666Y-96604667D01*
X122572535Y-96463163D01*
X122682000Y-96435334D01*
X122792784Y-96463734D01*
X122841746Y-96578523D01*
X122851333Y-96774000D01*
X122851333Y-96943334D01*
X123190000Y-96943334D01*
X123218400Y-96832550D01*
X123333189Y-96783588D01*
X123528666Y-96774000D01*
X123750234Y-96759800D01*
X123848159Y-96702406D01*
X123867333Y-96604667D01*
X123895733Y-96493883D01*
X124010522Y-96444921D01*
X124206000Y-96435334D01*
X124544666Y-96435334D01*
X124544666Y-96774000D01*
X124530466Y-96995569D01*
X124473072Y-97093493D01*
X124375333Y-97112667D01*
X124233829Y-97052799D01*
X124206000Y-96943334D01*
X124146131Y-96801830D01*
X124036666Y-96774000D01*
X123925882Y-96802401D01*
X123876920Y-96917190D01*
X123867333Y-97112667D01*
X123853133Y-97334235D01*
X123795738Y-97432160D01*
X123698000Y-97451334D01*
X123556495Y-97391465D01*
X123528666Y-97282000D01*
X123468798Y-97140496D01*
X123359333Y-97112667D01*
X123217829Y-97052799D01*
X123190000Y-96943334D01*
X122851333Y-96943334D01*
X122851333Y-97112667D01*
X122512666Y-97112667D01*
X122291098Y-97098467D01*
X122193174Y-97041073D01*
X122174000Y-96943334D01*
X121158000Y-96943334D01*
X121151821Y-97227062D01*
X121142096Y-97282000D01*
X121496666Y-97282000D01*
X121556535Y-97140496D01*
X121666000Y-97112667D01*
X121807504Y-97172536D01*
X121835333Y-97282000D01*
X121775464Y-97423505D01*
X121666000Y-97451334D01*
X121524495Y-97391465D01*
X121496666Y-97282000D01*
X121142096Y-97282000D01*
X121124680Y-97380374D01*
X121063667Y-97441995D01*
X120988666Y-97451334D01*
X120847162Y-97391465D01*
X120819333Y-97282000D01*
X120759464Y-97140496D01*
X120650000Y-97112667D01*
X120508495Y-97172536D01*
X120480666Y-97282000D01*
X120420798Y-97423505D01*
X120311333Y-97451334D01*
X120169829Y-97511202D01*
X120142000Y-97620667D01*
X120113599Y-97731451D01*
X119998810Y-97780413D01*
X119803333Y-97790000D01*
X119464666Y-97790000D01*
X119464666Y-97112667D01*
X119468201Y-96775191D01*
X119484484Y-96572933D01*
X119522030Y-96471832D01*
X119589353Y-96437826D01*
X119634000Y-96435334D01*
X119775504Y-96375465D01*
X119803333Y-96266000D01*
X119774933Y-96155216D01*
X119660144Y-96106254D01*
X119464666Y-96096667D01*
X119126000Y-96096667D01*
X119126000Y-96943334D01*
X119128324Y-97328684D01*
X119139382Y-97575370D01*
X119165305Y-97714040D01*
X119212223Y-97775344D01*
X119286264Y-97789931D01*
X119295333Y-97790000D01*
X119436837Y-97849869D01*
X119464666Y-97959334D01*
X120480666Y-97959334D01*
X120494807Y-97874965D01*
X120559938Y-97824400D01*
X120710120Y-97799125D01*
X120979415Y-97790624D01*
X121158000Y-97790000D01*
X121835333Y-97790000D01*
X121835333Y-98298000D01*
X121829154Y-98581729D01*
X121802013Y-98735041D01*
X121741000Y-98796661D01*
X121666000Y-98806000D01*
X122174000Y-98806000D01*
X122174000Y-97790000D01*
X123190000Y-97790000D01*
X123190000Y-98806000D01*
X122174000Y-98806000D01*
X121666000Y-98806000D01*
X121524495Y-98746132D01*
X121496666Y-98636667D01*
X121436798Y-98495163D01*
X121327333Y-98467334D01*
X121185829Y-98407465D01*
X121158000Y-98298000D01*
X121129599Y-98187216D01*
X121014810Y-98138254D01*
X120819333Y-98128667D01*
X120597765Y-98114467D01*
X120499840Y-98057073D01*
X120480666Y-97959334D01*
X119464666Y-97959334D01*
X119404798Y-98100838D01*
X119295333Y-98128667D01*
X119184549Y-98157067D01*
X119135587Y-98271856D01*
X119134305Y-98298000D01*
X119464666Y-98298000D01*
X119524535Y-98156496D01*
X119634000Y-98128667D01*
X119775504Y-98188536D01*
X119803333Y-98298000D01*
X119743464Y-98439505D01*
X119634000Y-98467334D01*
X119492495Y-98407465D01*
X119464666Y-98298000D01*
X119134305Y-98298000D01*
X119126000Y-98467334D01*
X119126000Y-98806000D01*
X119803333Y-98806000D01*
X119803333Y-99144667D01*
X119817533Y-99366235D01*
X119874927Y-99464160D01*
X119972666Y-99483334D01*
X120083450Y-99454934D01*
X120132412Y-99340145D01*
X120142000Y-99144667D01*
X120127799Y-98923099D01*
X120070405Y-98825175D01*
X119972666Y-98806000D01*
X119831162Y-98746132D01*
X119803333Y-98636667D01*
X119817474Y-98552298D01*
X119882605Y-98501734D01*
X120032787Y-98476458D01*
X120302082Y-98467957D01*
X120480666Y-98467334D01*
X120818143Y-98470869D01*
X121020401Y-98487152D01*
X121121502Y-98524697D01*
X121155507Y-98592021D01*
X121158000Y-98636667D01*
X121129599Y-98747451D01*
X121014810Y-98796413D01*
X120819333Y-98806000D01*
X120480666Y-98806000D01*
X120480666Y-99144667D01*
X120491518Y-99314000D01*
X120819333Y-99314000D01*
X120847733Y-99203216D01*
X120962522Y-99154254D01*
X121158000Y-99144667D01*
X121379568Y-99158867D01*
X121477492Y-99216262D01*
X121496666Y-99314000D01*
X121468266Y-99424785D01*
X121353477Y-99473747D01*
X121158000Y-99483334D01*
X120936431Y-99469134D01*
X120838507Y-99411739D01*
X120819333Y-99314000D01*
X120491518Y-99314000D01*
X120494866Y-99366235D01*
X120552261Y-99464160D01*
X120650000Y-99483334D01*
X120791504Y-99543202D01*
X120819333Y-99652667D01*
X120759464Y-99794171D01*
X120650000Y-99822000D01*
X120508495Y-99881869D01*
X120480666Y-99991334D01*
X120420798Y-100132838D01*
X120311333Y-100160667D01*
X120169829Y-100100799D01*
X120142000Y-99991334D01*
X120113599Y-99880550D01*
X119998810Y-99831588D01*
X119803333Y-99822000D01*
X119464666Y-99822000D01*
X119464666Y-99144667D01*
X119126000Y-99144667D01*
X118904431Y-99130467D01*
X118806507Y-99073073D01*
X118787333Y-98975334D01*
X118758933Y-98864550D01*
X118644144Y-98815588D01*
X118448666Y-98806000D01*
X118227098Y-98820201D01*
X118129174Y-98877595D01*
X118110000Y-98975334D01*
X118091464Y-99069910D01*
X118010040Y-99121014D01*
X117827002Y-99141554D01*
X117602000Y-99144667D01*
X117318271Y-99150846D01*
X117164959Y-99177987D01*
X117103339Y-99239000D01*
X117094000Y-99314000D01*
X117122400Y-99424785D01*
X117237189Y-99473747D01*
X117432666Y-99483334D01*
X117654234Y-99497534D01*
X117752159Y-99554928D01*
X117771333Y-99652667D01*
X117742933Y-99763451D01*
X117628144Y-99812413D01*
X117432666Y-99822000D01*
X117211098Y-99836201D01*
X117113174Y-99893595D01*
X117094000Y-99991334D01*
X117122400Y-100102118D01*
X117237189Y-100151080D01*
X117432666Y-100160667D01*
X117654234Y-100174867D01*
X117752159Y-100232262D01*
X117771333Y-100330000D01*
X117752797Y-100424577D01*
X117671373Y-100475681D01*
X117488335Y-100496221D01*
X117263333Y-100499334D01*
X116755333Y-100499334D01*
X116755333Y-99652667D01*
X116753009Y-99267317D01*
X116741950Y-99020631D01*
X116716027Y-98881961D01*
X116669110Y-98820657D01*
X116595068Y-98806070D01*
X116586000Y-98806000D01*
X116525800Y-98813219D01*
X116481861Y-98850199D01*
X116451628Y-98939931D01*
X116432547Y-99105404D01*
X116422062Y-99369606D01*
X116417621Y-99755527D01*
X116416668Y-100286157D01*
X116416666Y-100330000D01*
X116416666Y-101515334D01*
X116755333Y-101515334D01*
X116755333Y-101176667D01*
X116769533Y-100955099D01*
X116826927Y-100857175D01*
X116924666Y-100838000D01*
X117066170Y-100897869D01*
X117094000Y-101007334D01*
X117122400Y-101118118D01*
X117237189Y-101167080D01*
X117432666Y-101176667D01*
X117654234Y-101162467D01*
X117752159Y-101105073D01*
X117771333Y-101007334D01*
X117831201Y-100865830D01*
X117940666Y-100838000D01*
X118017736Y-100826380D01*
X118067073Y-100771087D01*
X118094807Y-100641471D01*
X118107068Y-100406885D01*
X118109986Y-100036678D01*
X118110000Y-99991334D01*
X118110000Y-99144667D01*
X118448666Y-99144667D01*
X118670234Y-99158867D01*
X118768159Y-99216262D01*
X118787333Y-99314000D01*
X118847201Y-99455505D01*
X118956666Y-99483334D01*
X119098170Y-99543202D01*
X119126000Y-99652667D01*
X119185868Y-99794171D01*
X119295333Y-99822000D01*
X119379702Y-99836141D01*
X119430266Y-99901272D01*
X119455542Y-100051454D01*
X119464043Y-100320750D01*
X119464075Y-100330000D01*
X119803333Y-100330000D01*
X119863201Y-100188496D01*
X119972666Y-100160667D01*
X120114170Y-100220536D01*
X120142000Y-100330000D01*
X120082131Y-100471505D01*
X119972666Y-100499334D01*
X119831162Y-100439465D01*
X119803333Y-100330000D01*
X119464075Y-100330000D01*
X119464666Y-100499334D01*
X119461131Y-100836810D01*
X119444848Y-101039068D01*
X119407303Y-101140169D01*
X119339979Y-101174175D01*
X119295333Y-101176667D01*
X119184549Y-101148267D01*
X119135587Y-101033478D01*
X119126000Y-100838000D01*
X119111799Y-100616432D01*
X119054405Y-100518508D01*
X118956666Y-100499334D01*
X118815162Y-100559202D01*
X118787333Y-100668667D01*
X118758933Y-100779451D01*
X118644144Y-100828413D01*
X118448666Y-100838000D01*
X118227098Y-100852201D01*
X118129174Y-100909595D01*
X118110000Y-101007334D01*
X118050131Y-101148838D01*
X117940666Y-101176667D01*
X117799162Y-101236536D01*
X117771333Y-101346000D01*
X118448666Y-101346000D01*
X118508535Y-101204496D01*
X118618000Y-101176667D01*
X118759504Y-101236536D01*
X118787333Y-101346000D01*
X118727464Y-101487505D01*
X118618000Y-101515334D01*
X118476495Y-101455465D01*
X118448666Y-101346000D01*
X117771333Y-101346000D01*
X117752797Y-101440577D01*
X117671373Y-101491681D01*
X117488335Y-101512221D01*
X117263333Y-101515334D01*
X116755333Y-101515334D01*
X116416666Y-101515334D01*
X116416666Y-101854000D01*
X117263333Y-101854000D01*
X117648683Y-101851676D01*
X117895369Y-101840618D01*
X118034039Y-101814695D01*
X118095343Y-101767777D01*
X118109930Y-101693736D01*
X118110000Y-101684667D01*
X118169868Y-101543163D01*
X118279333Y-101515334D01*
X118420837Y-101575202D01*
X118448666Y-101684667D01*
X118460286Y-101761737D01*
X118515580Y-101811074D01*
X118645195Y-101838808D01*
X118879782Y-101851069D01*
X119249989Y-101853987D01*
X119295333Y-101854000D01*
X119680683Y-101851676D01*
X119927369Y-101840618D01*
X120066039Y-101814695D01*
X120127343Y-101767777D01*
X120141930Y-101693736D01*
X120142000Y-101684667D01*
X120082131Y-101543163D01*
X119972666Y-101515334D01*
X119861882Y-101486934D01*
X119812920Y-101372145D01*
X119803333Y-101176667D01*
X119817533Y-100955099D01*
X119874927Y-100857175D01*
X119972666Y-100838000D01*
X120480666Y-100838000D01*
X120480666Y-100499334D01*
X120494866Y-100277766D01*
X120552261Y-100179841D01*
X120650000Y-100160667D01*
X120791504Y-100220536D01*
X120819333Y-100330000D01*
X120879201Y-100471505D01*
X120988666Y-100499334D01*
X121099450Y-100470934D01*
X121148412Y-100356145D01*
X121158000Y-100160667D01*
X121158000Y-99822000D01*
X121835333Y-99822000D01*
X121835333Y-100160667D01*
X121849533Y-100382235D01*
X121906927Y-100480160D01*
X122004666Y-100499334D01*
X122115450Y-100470934D01*
X122164412Y-100356145D01*
X122174000Y-100160667D01*
X122188200Y-99939099D01*
X122245594Y-99841175D01*
X122343333Y-99822000D01*
X122484837Y-99762132D01*
X122512666Y-99652667D01*
X122452798Y-99511163D01*
X122343333Y-99483334D01*
X122201829Y-99423465D01*
X122174000Y-99314000D01*
X122202400Y-99203216D01*
X122317189Y-99154254D01*
X122512666Y-99144667D01*
X122851333Y-99144667D01*
X122851333Y-99314000D01*
X123190000Y-99314000D01*
X123249868Y-99172496D01*
X123359333Y-99144667D01*
X123500837Y-99084799D01*
X123528666Y-98975334D01*
X123588535Y-98833830D01*
X123698000Y-98806000D01*
X123839504Y-98865869D01*
X123867333Y-98975334D01*
X123807464Y-99116838D01*
X123698000Y-99144667D01*
X123556495Y-99204536D01*
X123528666Y-99314000D01*
X123468798Y-99455505D01*
X123359333Y-99483334D01*
X123217829Y-99423465D01*
X123190000Y-99314000D01*
X122851333Y-99314000D01*
X122851333Y-99652667D01*
X122845154Y-99936395D01*
X122835429Y-99991334D01*
X123190000Y-99991334D01*
X123249868Y-99849830D01*
X123359333Y-99822000D01*
X123500837Y-99881869D01*
X123528666Y-99991334D01*
X123468798Y-100132838D01*
X123359333Y-100160667D01*
X123217829Y-100100799D01*
X123190000Y-99991334D01*
X122835429Y-99991334D01*
X122818013Y-100089707D01*
X122757000Y-100151328D01*
X122682000Y-100160667D01*
X122540495Y-100220536D01*
X122512666Y-100330000D01*
X122572535Y-100471505D01*
X122682000Y-100499334D01*
X122823504Y-100559202D01*
X122851333Y-100668667D01*
X122791464Y-100810171D01*
X122682000Y-100838000D01*
X122540495Y-100778132D01*
X122512666Y-100668667D01*
X122452798Y-100527163D01*
X122343333Y-100499334D01*
X122232549Y-100527734D01*
X122183587Y-100642523D01*
X122174000Y-100838000D01*
X122159799Y-101059569D01*
X122102405Y-101157493D01*
X122004666Y-101176667D01*
X121863162Y-101236536D01*
X121835333Y-101346000D01*
X121895201Y-101487505D01*
X122004666Y-101515334D01*
X122146170Y-101575202D01*
X122174000Y-101684667D01*
X122114131Y-101826171D01*
X122004666Y-101854000D01*
X121893882Y-101882401D01*
X121844920Y-101997190D01*
X121835333Y-102192667D01*
X121821133Y-102414235D01*
X121763738Y-102512160D01*
X121666000Y-102531334D01*
X121581630Y-102517193D01*
X121531066Y-102452062D01*
X121505791Y-102301880D01*
X121497289Y-102032585D01*
X121496666Y-101854000D01*
X121500201Y-101516524D01*
X121516484Y-101314266D01*
X121554030Y-101213165D01*
X121621353Y-101179160D01*
X121666000Y-101176667D01*
X121807504Y-101116799D01*
X121835333Y-101007334D01*
X121821192Y-100922965D01*
X121756061Y-100872400D01*
X121605879Y-100847125D01*
X121336584Y-100838624D01*
X121158000Y-100838000D01*
X120480666Y-100838000D01*
X119972666Y-100838000D01*
X120114170Y-100897869D01*
X120142000Y-101007334D01*
X120160535Y-101101910D01*
X120241959Y-101153014D01*
X120424997Y-101173554D01*
X120650000Y-101176667D01*
X120933728Y-101182846D01*
X121087040Y-101209987D01*
X121148660Y-101271000D01*
X121158000Y-101346000D01*
X121129599Y-101456785D01*
X121014810Y-101505747D01*
X120819333Y-101515334D01*
X120480666Y-101515334D01*
X120480666Y-102023334D01*
X120484353Y-102192667D01*
X120819333Y-102192667D01*
X120833533Y-101971099D01*
X120890927Y-101873175D01*
X120988666Y-101854000D01*
X121099450Y-101882401D01*
X121148412Y-101997190D01*
X121158000Y-102192667D01*
X121143799Y-102414235D01*
X121086405Y-102512160D01*
X120988666Y-102531334D01*
X120877882Y-102502934D01*
X120828920Y-102388145D01*
X120819333Y-102192667D01*
X120484353Y-102192667D01*
X120486845Y-102307062D01*
X120513986Y-102460374D01*
X120574999Y-102521995D01*
X120650000Y-102531334D01*
X120791504Y-102591202D01*
X120819333Y-102700667D01*
X120759464Y-102842171D01*
X120650000Y-102870000D01*
X120508495Y-102929869D01*
X120480666Y-103039334D01*
X121158000Y-103039334D01*
X121186400Y-102928550D01*
X121301189Y-102879588D01*
X121496666Y-102870000D01*
X121718234Y-102884201D01*
X121816159Y-102941595D01*
X121835333Y-103039334D01*
X121806933Y-103150118D01*
X121692144Y-103199080D01*
X121496666Y-103208667D01*
X121275098Y-103194467D01*
X121177174Y-103137073D01*
X121158000Y-103039334D01*
X120480666Y-103039334D01*
X120420798Y-103180838D01*
X120311333Y-103208667D01*
X120216757Y-103190131D01*
X120165653Y-103108707D01*
X120145113Y-102925670D01*
X120142000Y-102700667D01*
X120135821Y-102416939D01*
X120108680Y-102263627D01*
X120047667Y-102202006D01*
X119972666Y-102192667D01*
X119878090Y-102211203D01*
X119826986Y-102292627D01*
X119806446Y-102475665D01*
X119803333Y-102700667D01*
X119803333Y-103208667D01*
X119464666Y-103208667D01*
X119243098Y-103222867D01*
X119145174Y-103280262D01*
X119126000Y-103378000D01*
X119803333Y-103378000D01*
X119863201Y-103236496D01*
X119972666Y-103208667D01*
X120114170Y-103268536D01*
X120142000Y-103378000D01*
X120082131Y-103519505D01*
X119972666Y-103547334D01*
X119831162Y-103487465D01*
X119803333Y-103378000D01*
X119126000Y-103378000D01*
X119185868Y-103519505D01*
X119295333Y-103547334D01*
X119436837Y-103607202D01*
X119464666Y-103716667D01*
X119404798Y-103858171D01*
X119295333Y-103886000D01*
X119153829Y-103945869D01*
X119126000Y-104055334D01*
X119185868Y-104196838D01*
X119295333Y-104224667D01*
X119436837Y-104284536D01*
X119464666Y-104394000D01*
X119524535Y-104535505D01*
X119634000Y-104563334D01*
X119744784Y-104534934D01*
X119793746Y-104420145D01*
X119803333Y-104224667D01*
X119817533Y-104003099D01*
X119874927Y-103905175D01*
X119972666Y-103886000D01*
X120480666Y-103886000D01*
X120480666Y-103547334D01*
X120494866Y-103325766D01*
X120552261Y-103227841D01*
X120650000Y-103208667D01*
X120791504Y-103268536D01*
X120819333Y-103378000D01*
X120879201Y-103519505D01*
X120988666Y-103547334D01*
X121130170Y-103607202D01*
X121158000Y-103716667D01*
X121129599Y-103827451D01*
X121014810Y-103876413D01*
X120819333Y-103886000D01*
X120480666Y-103886000D01*
X119972666Y-103886000D01*
X120114170Y-103945869D01*
X120142000Y-104055334D01*
X120160535Y-104149910D01*
X120241959Y-104201014D01*
X120424997Y-104221554D01*
X120650000Y-104224667D01*
X120933728Y-104218489D01*
X121087040Y-104191347D01*
X121148660Y-104130335D01*
X121158000Y-104055334D01*
X121217868Y-103913830D01*
X121327333Y-103886000D01*
X121468837Y-103945869D01*
X121496666Y-104055334D01*
X121556535Y-104196838D01*
X121666000Y-104224667D01*
X121807504Y-104284536D01*
X121835333Y-104394000D01*
X121895201Y-104535505D01*
X122004666Y-104563334D01*
X122099242Y-104544798D01*
G36*
X123839504Y-101794132D02*
G01*
X123867333Y-101684667D01*
X123807464Y-101543163D01*
X123698000Y-101515334D01*
X123556495Y-101575202D01*
X123528666Y-101684667D01*
X123588535Y-101826171D01*
X123698000Y-101854000D01*
X123839504Y-101794132D01*
G37*
X123839504Y-101794132D02*
X123867333Y-101684667D01*
X123807464Y-101543163D01*
X123698000Y-101515334D01*
X123556495Y-101575202D01*
X123528666Y-101684667D01*
X123588535Y-101826171D01*
X123698000Y-101854000D01*
X123839504Y-101794132D01*
G36*
X118787333Y-102192667D02*
G01*
X116416666Y-102192667D01*
X116416666Y-104224667D01*
X116755333Y-104224667D01*
X116755333Y-102531334D01*
X118448666Y-102531334D01*
X118448666Y-104224667D01*
X116755333Y-104224667D01*
X116416666Y-104224667D01*
X116416666Y-104563334D01*
X118787333Y-104563334D01*
X118787333Y-102192667D01*
G37*
X118787333Y-102192667D02*
X116416666Y-102192667D01*
X116416666Y-104224667D01*
X116755333Y-104224667D01*
X116755333Y-102531334D01*
X118448666Y-102531334D01*
X118448666Y-104224667D01*
X116755333Y-104224667D01*
X116416666Y-104224667D01*
X116416666Y-104563334D01*
X118787333Y-104563334D01*
X118787333Y-102192667D01*
G36*
X119406117Y-102841600D02*
G01*
X119455079Y-102726811D01*
X119464666Y-102531334D01*
X119450466Y-102309766D01*
X119393072Y-102211841D01*
X119295333Y-102192667D01*
X119184549Y-102221067D01*
X119135587Y-102335856D01*
X119126000Y-102531334D01*
X119140200Y-102752902D01*
X119197594Y-102850826D01*
X119295333Y-102870000D01*
X119406117Y-102841600D01*
G37*
X119406117Y-102841600D02*
X119455079Y-102726811D01*
X119464666Y-102531334D01*
X119450466Y-102309766D01*
X119393072Y-102211841D01*
X119295333Y-102192667D01*
X119184549Y-102221067D01*
X119135587Y-102335856D01*
X119126000Y-102531334D01*
X119140200Y-102752902D01*
X119197594Y-102850826D01*
X119295333Y-102870000D01*
X119406117Y-102841600D01*
G36*
X124883333Y-102192667D02*
G01*
X122512666Y-102192667D01*
X122512666Y-104224667D01*
X122851333Y-104224667D01*
X122851333Y-102531334D01*
X124544666Y-102531334D01*
X124544666Y-104224667D01*
X122851333Y-104224667D01*
X122512666Y-104224667D01*
X122512666Y-104563334D01*
X124883333Y-104563334D01*
X124883333Y-102192667D01*
G37*
X124883333Y-102192667D02*
X122512666Y-102192667D01*
X122512666Y-104224667D01*
X122851333Y-104224667D01*
X122851333Y-102531334D01*
X124544666Y-102531334D01*
X124544666Y-104224667D01*
X122851333Y-104224667D01*
X122512666Y-104224667D01*
X122512666Y-104563334D01*
X124883333Y-104563334D01*
X124883333Y-102192667D01*
G36*
X118110000Y-96774000D02*
G01*
X117094000Y-96774000D01*
X117094000Y-97790000D01*
X118110000Y-97790000D01*
X118110000Y-96774000D01*
G37*
X118110000Y-96774000D02*
X117094000Y-96774000D01*
X117094000Y-97790000D01*
X118110000Y-97790000D01*
X118110000Y-96774000D01*
G36*
X122823504Y-98407465D02*
G01*
X122851333Y-98298000D01*
X122791464Y-98156496D01*
X122682000Y-98128667D01*
X122540495Y-98188536D01*
X122512666Y-98298000D01*
X122572535Y-98439505D01*
X122682000Y-98467334D01*
X122823504Y-98407465D01*
G37*
X122823504Y-98407465D02*
X122851333Y-98298000D01*
X122791464Y-98156496D01*
X122682000Y-98128667D01*
X122540495Y-98188536D01*
X122512666Y-98298000D01*
X122572535Y-98439505D01*
X122682000Y-98467334D01*
X122823504Y-98407465D01*
G36*
X118759504Y-100439465D02*
G01*
X118787333Y-100330000D01*
X118847201Y-100188496D01*
X118956666Y-100160667D01*
X119098170Y-100100799D01*
X119126000Y-99991334D01*
X119066131Y-99849830D01*
X118956666Y-99822000D01*
X118815162Y-99762132D01*
X118787333Y-99652667D01*
X118727464Y-99511163D01*
X118618000Y-99483334D01*
X118476495Y-99543202D01*
X118448666Y-99652667D01*
X118508535Y-99794171D01*
X118618000Y-99822000D01*
X118759504Y-99881869D01*
X118787333Y-99991334D01*
X118727464Y-100132838D01*
X118618000Y-100160667D01*
X118476495Y-100220536D01*
X118448666Y-100330000D01*
X118508535Y-100471505D01*
X118618000Y-100499334D01*
X118759504Y-100439465D01*
G37*
X118759504Y-100439465D02*
X118787333Y-100330000D01*
X118847201Y-100188496D01*
X118956666Y-100160667D01*
X119098170Y-100100799D01*
X119126000Y-99991334D01*
X119066131Y-99849830D01*
X118956666Y-99822000D01*
X118815162Y-99762132D01*
X118787333Y-99652667D01*
X118727464Y-99511163D01*
X118618000Y-99483334D01*
X118476495Y-99543202D01*
X118448666Y-99652667D01*
X118508535Y-99794171D01*
X118618000Y-99822000D01*
X118759504Y-99881869D01*
X118787333Y-99991334D01*
X118727464Y-100132838D01*
X118618000Y-100160667D01*
X118476495Y-100220536D01*
X118448666Y-100330000D01*
X118508535Y-100471505D01*
X118618000Y-100499334D01*
X118759504Y-100439465D01*
G36*
X118110000Y-102870000D02*
G01*
X117094000Y-102870000D01*
X117094000Y-103886000D01*
X118110000Y-103886000D01*
X118110000Y-102870000D01*
G37*
X118110000Y-102870000D02*
X117094000Y-102870000D01*
X117094000Y-103886000D01*
X118110000Y-103886000D01*
X118110000Y-102870000D01*
G36*
X124206000Y-102870000D02*
G01*
X123190000Y-102870000D01*
X123190000Y-103886000D01*
X124206000Y-103886000D01*
X124206000Y-102870000D01*
G37*
X124206000Y-102870000D02*
X123190000Y-102870000D01*
X123190000Y-103886000D01*
X124206000Y-103886000D01*
X124206000Y-102870000D01*
D13*
%TO.C,SW3*%
X141130000Y-106780000D02*
X141130000Y-119080000D01*
X145710000Y-119080000D02*
X148850000Y-119080000D01*
X153430000Y-119080000D02*
X153430000Y-106780000D01*
X143850000Y-106780000D02*
X141130000Y-106780000D01*
X151899050Y-113030000D02*
G75*
G03*
X151899050Y-113030000I-4579050J0D01*
G01*
X153430000Y-106780000D02*
X150710000Y-106780000D01*
X148850000Y-106780000D02*
X145710000Y-106780000D01*
X150710000Y-119080000D02*
X153430000Y-119080000D01*
X141130000Y-119080000D02*
X143850000Y-119080000D01*
%TO.C,SW2*%
X141130000Y-96220000D02*
X143850000Y-96220000D01*
X150710000Y-96220000D02*
X153430000Y-96220000D01*
X148850000Y-83920000D02*
X145710000Y-83920000D01*
X153430000Y-83920000D02*
X150710000Y-83920000D01*
X151899050Y-90170000D02*
G75*
G03*
X151899050Y-90170000I-4579050J0D01*
G01*
X143850000Y-83920000D02*
X141130000Y-83920000D01*
X153430000Y-96220000D02*
X153430000Y-83920000D01*
X145710000Y-96220000D02*
X148850000Y-96220000D01*
X141130000Y-83920000D02*
X141130000Y-96220000D01*
%TO.C,SW1*%
X141130000Y-78440000D02*
X143850000Y-78440000D01*
X150710000Y-78440000D02*
X153430000Y-78440000D01*
X148850000Y-66140000D02*
X145710000Y-66140000D01*
X153430000Y-66140000D02*
X150710000Y-66140000D01*
X151899050Y-72390000D02*
G75*
G03*
X151899050Y-72390000I-4579050J0D01*
G01*
X143850000Y-66140000D02*
X141130000Y-66140000D01*
X153430000Y-78440000D02*
X153430000Y-66140000D01*
X145710000Y-78440000D02*
X148850000Y-78440000D01*
X141130000Y-66140000D02*
X141130000Y-78440000D01*
%TD*%
%TO.C,SW3*%
D10*
X146454761Y-112966666D02*
X146502380Y-113109523D01*
X146502380Y-113347619D01*
X146454761Y-113442857D01*
X146407142Y-113490476D01*
X146311904Y-113538095D01*
X146216666Y-113538095D01*
X146121428Y-113490476D01*
X146073809Y-113442857D01*
X146026190Y-113347619D01*
X145978571Y-113157142D01*
X145930952Y-113061904D01*
X145883333Y-113014285D01*
X145788095Y-112966666D01*
X145692857Y-112966666D01*
X145597619Y-113014285D01*
X145550000Y-113061904D01*
X145502380Y-113157142D01*
X145502380Y-113395238D01*
X145550000Y-113538095D01*
X145502380Y-113871428D02*
X146502380Y-114109523D01*
X145788095Y-114300000D01*
X146502380Y-114490476D01*
X145502380Y-114728571D01*
X145502380Y-115014285D02*
X145502380Y-115633333D01*
X145883333Y-115300000D01*
X145883333Y-115442857D01*
X145930952Y-115538095D01*
X145978571Y-115585714D01*
X146073809Y-115633333D01*
X146311904Y-115633333D01*
X146407142Y-115585714D01*
X146454761Y-115538095D01*
X146502380Y-115442857D01*
X146502380Y-115157142D01*
X146454761Y-115061904D01*
X146407142Y-115014285D01*
%TO.C,SW2*%
X145184761Y-88836666D02*
X145232380Y-88979523D01*
X145232380Y-89217619D01*
X145184761Y-89312857D01*
X145137142Y-89360476D01*
X145041904Y-89408095D01*
X144946666Y-89408095D01*
X144851428Y-89360476D01*
X144803809Y-89312857D01*
X144756190Y-89217619D01*
X144708571Y-89027142D01*
X144660952Y-88931904D01*
X144613333Y-88884285D01*
X144518095Y-88836666D01*
X144422857Y-88836666D01*
X144327619Y-88884285D01*
X144280000Y-88931904D01*
X144232380Y-89027142D01*
X144232380Y-89265238D01*
X144280000Y-89408095D01*
X144232380Y-89741428D02*
X145232380Y-89979523D01*
X144518095Y-90170000D01*
X145232380Y-90360476D01*
X144232380Y-90598571D01*
X144327619Y-90931904D02*
X144280000Y-90979523D01*
X144232380Y-91074761D01*
X144232380Y-91312857D01*
X144280000Y-91408095D01*
X144327619Y-91455714D01*
X144422857Y-91503333D01*
X144518095Y-91503333D01*
X144660952Y-91455714D01*
X145232380Y-90884285D01*
X145232380Y-91503333D01*
%TO.C,SW1*%
X146454761Y-71056666D02*
X146502380Y-71199523D01*
X146502380Y-71437619D01*
X146454761Y-71532857D01*
X146407142Y-71580476D01*
X146311904Y-71628095D01*
X146216666Y-71628095D01*
X146121428Y-71580476D01*
X146073809Y-71532857D01*
X146026190Y-71437619D01*
X145978571Y-71247142D01*
X145930952Y-71151904D01*
X145883333Y-71104285D01*
X145788095Y-71056666D01*
X145692857Y-71056666D01*
X145597619Y-71104285D01*
X145550000Y-71151904D01*
X145502380Y-71247142D01*
X145502380Y-71485238D01*
X145550000Y-71628095D01*
X145502380Y-71961428D02*
X146502380Y-72199523D01*
X145788095Y-72390000D01*
X146502380Y-72580476D01*
X145502380Y-72818571D01*
X146502380Y-73723333D02*
X146502380Y-73151904D01*
X146502380Y-73437619D02*
X145502380Y-73437619D01*
X145645238Y-73342380D01*
X145740476Y-73247142D01*
X145788095Y-73151904D01*
%TD*%
M02*
