%TF.GenerationSoftware,KiCad,Pcbnew,5.1.9-73d0e3b20d~88~ubuntu20.04.1*%
%TF.CreationDate,2021-01-06T22:16:02+03:00*%
%TF.ProjectId,RGBschildD2PAK,52474273-6368-4696-9c64-443250414b2e,rev?*%
%TF.SameCoordinates,Original*%
%TF.FileFunction,Soldermask,Bot*%
%TF.FilePolarity,Negative*%
%FSLAX46Y46*%
G04 Gerber Fmt 4.6, Leading zero omitted, Abs format (unit mm)*
G04 Created by KiCad (PCBNEW 5.1.9-73d0e3b20d~88~ubuntu20.04.1) date 2021-01-06 22:16:02*
%MOMM*%
%LPD*%
G01*
G04 APERTURE LIST*
%TA.AperFunction,Profile*%
%ADD10C,0.100000*%
%TD*%
%ADD11O,1.700000X1.700000*%
%ADD12R,1.700000X1.700000*%
%ADD13O,1.850000X3.048000*%
%ADD14C,2.600000*%
%ADD15R,2.600000X2.600000*%
%ADD16R,3.500000X3.500000*%
G04 APERTURE END LIST*
D10*
X159080000Y-120650000D02*
G75*
G03*
X159080000Y-120650000I-1600000J0D01*
G01*
X101930000Y-120650000D02*
G75*
G03*
X101930000Y-120650000I-1600000J0D01*
G01*
X159080000Y-62230000D02*
G75*
G03*
X159080000Y-62230000I-1600000J0D01*
G01*
X101930000Y-62230000D02*
G75*
G03*
X101930000Y-62230000I-1600000J0D01*
G01*
X96520000Y-58420000D02*
X161290000Y-58420000D01*
X96520000Y-58420000D02*
X96520000Y-124460000D01*
X161290000Y-124460000D02*
X161290000Y-58420000D01*
X96520000Y-124460000D02*
X161290000Y-124460000D01*
D11*
%TO.C,J1*%
X127000000Y-76200000D03*
X124460000Y-76200000D03*
X121920000Y-76200000D03*
D12*
X119380000Y-76200000D03*
%TD*%
D13*
%TO.C,SW3*%
X149780000Y-106680000D03*
X144780000Y-106680000D03*
X149780000Y-119180000D03*
X144780000Y-119180000D03*
%TD*%
D11*
%TO.C,P2*%
X154686000Y-106680000D03*
X154686000Y-104140000D03*
X154686000Y-101600000D03*
X154686000Y-99060000D03*
X154686000Y-96520000D03*
X154686000Y-93980000D03*
X154686000Y-91440000D03*
X154686000Y-88900000D03*
X154686000Y-86360000D03*
X154686000Y-83820000D03*
X154686000Y-81280000D03*
X154686000Y-78740000D03*
X154686000Y-76200000D03*
X154686000Y-73660000D03*
D12*
X154686000Y-71120000D03*
%TD*%
D13*
%TO.C,SW2*%
X149780000Y-83820000D03*
X144780000Y-83820000D03*
X149780000Y-96320000D03*
X144780000Y-96320000D03*
%TD*%
%TO.C,SW1*%
X149780000Y-66040000D03*
X144780000Y-66040000D03*
X149780000Y-78540000D03*
X144780000Y-78540000D03*
%TD*%
D11*
%TO.C,P1*%
X139700000Y-106680000D03*
X139700000Y-104140000D03*
X139700000Y-101600000D03*
X139700000Y-99060000D03*
X139700000Y-96520000D03*
X139700000Y-93980000D03*
X139700000Y-91440000D03*
X139700000Y-88900000D03*
X139700000Y-86360000D03*
X139700000Y-83820000D03*
X139700000Y-81280000D03*
X139700000Y-78740000D03*
X139700000Y-76200000D03*
X139700000Y-73660000D03*
D12*
X139700000Y-71120000D03*
%TD*%
D14*
%TO.C,J3*%
X106680000Y-112630000D03*
X106680000Y-107630000D03*
X106680000Y-102630000D03*
X106680000Y-97630000D03*
X106680000Y-92630000D03*
D15*
X106680000Y-87630000D03*
%TD*%
%TO.C,J2*%
G36*
G01*
X102850000Y-77965000D02*
X102850000Y-76215000D01*
G75*
G02*
X103725000Y-75340000I875000J0D01*
G01*
X105475000Y-75340000D01*
G75*
G02*
X106350000Y-76215000I0J-875000D01*
G01*
X106350000Y-77965000D01*
G75*
G02*
X105475000Y-78840000I-875000J0D01*
G01*
X103725000Y-78840000D01*
G75*
G02*
X102850000Y-77965000I0J875000D01*
G01*
G37*
G36*
G01*
X100100000Y-73390000D02*
X100100000Y-71390000D01*
G75*
G02*
X100850000Y-70640000I750000J0D01*
G01*
X102350000Y-70640000D01*
G75*
G02*
X103100000Y-71390000I0J-750000D01*
G01*
X103100000Y-73390000D01*
G75*
G02*
X102350000Y-74140000I-750000J0D01*
G01*
X100850000Y-74140000D01*
G75*
G02*
X100100000Y-73390000I0J750000D01*
G01*
G37*
D16*
X107600000Y-72390000D03*
%TD*%
M02*
