%TF.GenerationSoftware,KiCad,Pcbnew,5.1.9-73d0e3b20d~88~ubuntu20.04.1*%
%TF.CreationDate,2021-01-06T22:16:02+03:00*%
%TF.ProjectId,RGBschildD2PAK,52474273-6368-4696-9c64-443250414b2e,rev?*%
%TF.SameCoordinates,Original*%
%TF.FileFunction,Copper,L1,Top*%
%TF.FilePolarity,Positive*%
%FSLAX46Y46*%
G04 Gerber Fmt 4.6, Leading zero omitted, Abs format (unit mm)*
G04 Created by KiCad (PCBNEW 5.1.9-73d0e3b20d~88~ubuntu20.04.1) date 2021-01-06 22:16:02*
%MOMM*%
%LPD*%
G01*
G04 APERTURE LIST*
%TA.AperFunction,NonConductor*%
%ADD10C,0.150000*%
%TD*%
%TA.AperFunction,Profile*%
%ADD11C,0.100000*%
%TD*%
%TA.AperFunction,ComponentPad*%
%ADD12O,1.700000X1.700000*%
%TD*%
%TA.AperFunction,ComponentPad*%
%ADD13R,1.700000X1.700000*%
%TD*%
%TA.AperFunction,SMDPad,CuDef*%
%ADD14R,3.500120X1.600200*%
%TD*%
%TA.AperFunction,SMDPad,CuDef*%
%ADD15R,9.751060X12.199620*%
%TD*%
%TA.AperFunction,ComponentPad*%
%ADD16O,1.850000X3.048000*%
%TD*%
%TA.AperFunction,ComponentPad*%
%ADD17C,2.600000*%
%TD*%
%TA.AperFunction,ComponentPad*%
%ADD18R,2.600000X2.600000*%
%TD*%
%TA.AperFunction,ComponentPad*%
%ADD19R,3.500000X3.500000*%
%TD*%
%TA.AperFunction,ViaPad*%
%ADD20C,0.600000*%
%TD*%
%TA.AperFunction,Conductor*%
%ADD21C,0.250000*%
%TD*%
%TA.AperFunction,Conductor*%
%ADD22C,1.000000*%
%TD*%
%TA.AperFunction,Conductor*%
%ADD23C,1.250000*%
%TD*%
%TA.AperFunction,Conductor*%
%ADD24C,1.800000*%
%TD*%
%TA.AperFunction,Conductor*%
%ADD25C,0.254000*%
%TD*%
%TA.AperFunction,Conductor*%
%ADD26C,0.150000*%
%TD*%
G04 APERTURE END LIST*
D10*
X160080000Y-120650000D02*
G75*
G03*
X160080000Y-120650000I-2600000J0D01*
G01*
D11*
X159080000Y-120650000D02*
G75*
G03*
X159080000Y-120650000I-1600000J0D01*
G01*
D10*
X102930000Y-120650000D02*
G75*
G03*
X102930000Y-120650000I-2600000J0D01*
G01*
D11*
X101930000Y-120650000D02*
G75*
G03*
X101930000Y-120650000I-1600000J0D01*
G01*
D10*
X160080000Y-62230000D02*
G75*
G03*
X160080000Y-62230000I-2600000J0D01*
G01*
D11*
X159080000Y-62230000D02*
G75*
G03*
X159080000Y-62230000I-1600000J0D01*
G01*
D10*
X102930000Y-62230000D02*
G75*
G03*
X102930000Y-62230000I-2600000J0D01*
G01*
D11*
X101930000Y-62230000D02*
G75*
G03*
X101930000Y-62230000I-1600000J0D01*
G01*
X96520000Y-58420000D02*
X161290000Y-58420000D01*
X96520000Y-58420000D02*
X96520000Y-124460000D01*
X161290000Y-124460000D02*
X161290000Y-58420000D01*
X96520000Y-124460000D02*
X161290000Y-124460000D01*
D12*
%TO.P,J1,4*%
%TO.N,5V*%
X127000000Y-76200000D03*
%TO.P,J1,3*%
%TO.N,GND*%
X124460000Y-76200000D03*
%TO.P,J1,2*%
%TO.N,D2*%
X121920000Y-76200000D03*
D13*
%TO.P,J1,1*%
%TO.N,D7*%
X119380000Y-76200000D03*
%TD*%
D14*
%TO.P,Q4,3*%
%TO.N,GND*%
X130924300Y-113030000D03*
%TO.P,Q4,1*%
%TO.N,Net-(Q4-Pad1)*%
X130924300Y-118110000D03*
D15*
%TO.P,Q4,2*%
%TO.N,W*%
X120650000Y-115570000D03*
%TD*%
D14*
%TO.P,Q3,3*%
%TO.N,GND*%
X130924300Y-82550000D03*
%TO.P,Q3,1*%
%TO.N,Net-(Q3-Pad1)*%
X130924300Y-87630000D03*
D15*
%TO.P,Q3,2*%
%TO.N,G*%
X120650000Y-85090000D03*
%TD*%
D14*
%TO.P,Q2,3*%
%TO.N,GND*%
X130924300Y-97790000D03*
%TO.P,Q2,1*%
%TO.N,Net-(Q2-Pad1)*%
X130924300Y-102870000D03*
D15*
%TO.P,Q2,2*%
%TO.N,B*%
X120650000Y-100330000D03*
%TD*%
D14*
%TO.P,Q1,3*%
%TO.N,GND*%
X130924300Y-64770000D03*
%TO.P,Q1,1*%
%TO.N,Net-(Q1-Pad1)*%
X130924300Y-69850000D03*
D15*
%TO.P,Q1,2*%
%TO.N,R*%
X120650000Y-67310000D03*
%TD*%
%TO.P,R14,2*%
%TO.N,GND*%
%TA.AperFunction,SMDPad,CuDef*%
G36*
G01*
X158512500Y-100655000D02*
X158987500Y-100655000D01*
G75*
G02*
X159225000Y-100892500I0J-237500D01*
G01*
X159225000Y-101492500D01*
G75*
G02*
X158987500Y-101730000I-237500J0D01*
G01*
X158512500Y-101730000D01*
G75*
G02*
X158275000Y-101492500I0J237500D01*
G01*
X158275000Y-100892500D01*
G75*
G02*
X158512500Y-100655000I237500J0D01*
G01*
G37*
%TD.AperFunction*%
%TO.P,R14,1*%
%TO.N,A0*%
%TA.AperFunction,SMDPad,CuDef*%
G36*
G01*
X158512500Y-98930000D02*
X158987500Y-98930000D01*
G75*
G02*
X159225000Y-99167500I0J-237500D01*
G01*
X159225000Y-99767500D01*
G75*
G02*
X158987500Y-100005000I-237500J0D01*
G01*
X158512500Y-100005000D01*
G75*
G02*
X158275000Y-99767500I0J237500D01*
G01*
X158275000Y-99167500D01*
G75*
G02*
X158512500Y-98930000I237500J0D01*
G01*
G37*
%TD.AperFunction*%
%TD*%
%TO.P,R13,2*%
%TO.N,A0*%
%TA.AperFunction,SMDPad,CuDef*%
G36*
G01*
X158512500Y-79065000D02*
X158987500Y-79065000D01*
G75*
G02*
X159225000Y-79302500I0J-237500D01*
G01*
X159225000Y-79902500D01*
G75*
G02*
X158987500Y-80140000I-237500J0D01*
G01*
X158512500Y-80140000D01*
G75*
G02*
X158275000Y-79902500I0J237500D01*
G01*
X158275000Y-79302500D01*
G75*
G02*
X158512500Y-79065000I237500J0D01*
G01*
G37*
%TD.AperFunction*%
%TO.P,R13,1*%
%TO.N,12V*%
%TA.AperFunction,SMDPad,CuDef*%
G36*
G01*
X158512500Y-77340000D02*
X158987500Y-77340000D01*
G75*
G02*
X159225000Y-77577500I0J-237500D01*
G01*
X159225000Y-78177500D01*
G75*
G02*
X158987500Y-78415000I-237500J0D01*
G01*
X158512500Y-78415000D01*
G75*
G02*
X158275000Y-78177500I0J237500D01*
G01*
X158275000Y-77577500D01*
G75*
G02*
X158512500Y-77340000I237500J0D01*
G01*
G37*
%TD.AperFunction*%
%TD*%
%TO.P,C1,2*%
%TO.N,GND*%
%TA.AperFunction,SMDPad,CuDef*%
G36*
G01*
X146870000Y-89695000D02*
X146870000Y-90645000D01*
G75*
G02*
X146620000Y-90895000I-250000J0D01*
G01*
X146120000Y-90895000D01*
G75*
G02*
X145870000Y-90645000I0J250000D01*
G01*
X145870000Y-89695000D01*
G75*
G02*
X146120000Y-89445000I250000J0D01*
G01*
X146620000Y-89445000D01*
G75*
G02*
X146870000Y-89695000I0J-250000D01*
G01*
G37*
%TD.AperFunction*%
%TO.P,C1,1*%
%TO.N,A0*%
%TA.AperFunction,SMDPad,CuDef*%
G36*
G01*
X148770000Y-89695000D02*
X148770000Y-90645000D01*
G75*
G02*
X148520000Y-90895000I-250000J0D01*
G01*
X148020000Y-90895000D01*
G75*
G02*
X147770000Y-90645000I0J250000D01*
G01*
X147770000Y-89695000D01*
G75*
G02*
X148020000Y-89445000I250000J0D01*
G01*
X148520000Y-89445000D01*
G75*
G02*
X148770000Y-89695000I0J-250000D01*
G01*
G37*
%TD.AperFunction*%
%TD*%
D16*
%TO.P,SW3,2*%
%TO.N,GND*%
X149780000Y-106680000D03*
%TO.P,SW3,1*%
%TO.N,D6*%
X144780000Y-106680000D03*
%TO.P,SW3,2*%
%TO.N,GND*%
X149780000Y-119180000D03*
%TO.P,SW3,1*%
%TO.N,D6*%
X144780000Y-119180000D03*
%TD*%
D12*
%TO.P,P2,15*%
%TO.N,/13(SCK)*%
X154686000Y-106680000D03*
%TO.P,P2,14*%
%TO.N,Net-(P2-Pad14)*%
X154686000Y-104140000D03*
%TO.P,P2,13*%
%TO.N,/AREF*%
X154686000Y-101600000D03*
%TO.P,P2,12*%
%TO.N,A0*%
X154686000Y-99060000D03*
%TO.P,P2,11*%
%TO.N,/A1*%
X154686000Y-96520000D03*
%TO.P,P2,10*%
%TO.N,/A2*%
X154686000Y-93980000D03*
%TO.P,P2,9*%
%TO.N,/A3*%
X154686000Y-91440000D03*
%TO.P,P2,8*%
%TO.N,/A4*%
X154686000Y-88900000D03*
%TO.P,P2,7*%
%TO.N,/A5*%
X154686000Y-86360000D03*
%TO.P,P2,6*%
%TO.N,/A6*%
X154686000Y-83820000D03*
%TO.P,P2,5*%
%TO.N,/A7*%
X154686000Y-81280000D03*
%TO.P,P2,4*%
%TO.N,5V*%
X154686000Y-78740000D03*
%TO.P,P2,3*%
%TO.N,Net-(P2-Pad3)*%
X154686000Y-76200000D03*
%TO.P,P2,2*%
%TO.N,GND*%
X154686000Y-73660000D03*
D13*
%TO.P,P2,1*%
%TO.N,12V*%
X154686000Y-71120000D03*
%TD*%
D16*
%TO.P,SW2,2*%
%TO.N,GND*%
X149780000Y-83820000D03*
%TO.P,SW2,1*%
%TO.N,D5*%
X144780000Y-83820000D03*
%TO.P,SW2,2*%
%TO.N,GND*%
X149780000Y-96320000D03*
%TO.P,SW2,1*%
%TO.N,D5*%
X144780000Y-96320000D03*
%TD*%
%TO.P,SW1,2*%
%TO.N,GND*%
X149780000Y-66040000D03*
%TO.P,SW1,1*%
%TO.N,D4*%
X144780000Y-66040000D03*
%TO.P,SW1,2*%
%TO.N,GND*%
X149780000Y-78540000D03*
%TO.P,SW1,1*%
%TO.N,D4*%
X144780000Y-78540000D03*
%TD*%
%TO.P,R12,2*%
%TO.N,12V*%
%TA.AperFunction,SMDPad,CuDef*%
G36*
G01*
X131135000Y-108187500D02*
X131135000Y-107712500D01*
G75*
G02*
X131372500Y-107475000I237500J0D01*
G01*
X131972500Y-107475000D01*
G75*
G02*
X132210000Y-107712500I0J-237500D01*
G01*
X132210000Y-108187500D01*
G75*
G02*
X131972500Y-108425000I-237500J0D01*
G01*
X131372500Y-108425000D01*
G75*
G02*
X131135000Y-108187500I0J237500D01*
G01*
G37*
%TD.AperFunction*%
%TO.P,R12,1*%
%TO.N,W*%
%TA.AperFunction,SMDPad,CuDef*%
G36*
G01*
X129410000Y-108187500D02*
X129410000Y-107712500D01*
G75*
G02*
X129647500Y-107475000I237500J0D01*
G01*
X130247500Y-107475000D01*
G75*
G02*
X130485000Y-107712500I0J-237500D01*
G01*
X130485000Y-108187500D01*
G75*
G02*
X130247500Y-108425000I-237500J0D01*
G01*
X129647500Y-108425000D01*
G75*
G02*
X129410000Y-108187500I0J237500D01*
G01*
G37*
%TD.AperFunction*%
%TD*%
%TO.P,R11,2*%
%TO.N,12V*%
%TA.AperFunction,SMDPad,CuDef*%
G36*
G01*
X135352500Y-78977500D02*
X135352500Y-78502500D01*
G75*
G02*
X135590000Y-78265000I237500J0D01*
G01*
X136190000Y-78265000D01*
G75*
G02*
X136427500Y-78502500I0J-237500D01*
G01*
X136427500Y-78977500D01*
G75*
G02*
X136190000Y-79215000I-237500J0D01*
G01*
X135590000Y-79215000D01*
G75*
G02*
X135352500Y-78977500I0J237500D01*
G01*
G37*
%TD.AperFunction*%
%TO.P,R11,1*%
%TO.N,G*%
%TA.AperFunction,SMDPad,CuDef*%
G36*
G01*
X133627500Y-78977500D02*
X133627500Y-78502500D01*
G75*
G02*
X133865000Y-78265000I237500J0D01*
G01*
X134465000Y-78265000D01*
G75*
G02*
X134702500Y-78502500I0J-237500D01*
G01*
X134702500Y-78977500D01*
G75*
G02*
X134465000Y-79215000I-237500J0D01*
G01*
X133865000Y-79215000D01*
G75*
G02*
X133627500Y-78977500I0J237500D01*
G01*
G37*
%TD.AperFunction*%
%TD*%
%TO.P,R10,2*%
%TO.N,Net-(Q4-Pad1)*%
%TA.AperFunction,SMDPad,CuDef*%
G36*
G01*
X135652500Y-110815000D02*
X136127500Y-110815000D01*
G75*
G02*
X136365000Y-111052500I0J-237500D01*
G01*
X136365000Y-111652500D01*
G75*
G02*
X136127500Y-111890000I-237500J0D01*
G01*
X135652500Y-111890000D01*
G75*
G02*
X135415000Y-111652500I0J237500D01*
G01*
X135415000Y-111052500D01*
G75*
G02*
X135652500Y-110815000I237500J0D01*
G01*
G37*
%TD.AperFunction*%
%TO.P,R10,1*%
%TO.N,GND*%
%TA.AperFunction,SMDPad,CuDef*%
G36*
G01*
X135652500Y-109090000D02*
X136127500Y-109090000D01*
G75*
G02*
X136365000Y-109327500I0J-237500D01*
G01*
X136365000Y-109927500D01*
G75*
G02*
X136127500Y-110165000I-237500J0D01*
G01*
X135652500Y-110165000D01*
G75*
G02*
X135415000Y-109927500I0J237500D01*
G01*
X135415000Y-109327500D01*
G75*
G02*
X135652500Y-109090000I237500J0D01*
G01*
G37*
%TD.AperFunction*%
%TD*%
%TO.P,R9,2*%
%TO.N,GND*%
%TA.AperFunction,SMDPad,CuDef*%
G36*
G01*
X136127500Y-83087500D02*
X135652500Y-83087500D01*
G75*
G02*
X135415000Y-82850000I0J237500D01*
G01*
X135415000Y-82250000D01*
G75*
G02*
X135652500Y-82012500I237500J0D01*
G01*
X136127500Y-82012500D01*
G75*
G02*
X136365000Y-82250000I0J-237500D01*
G01*
X136365000Y-82850000D01*
G75*
G02*
X136127500Y-83087500I-237500J0D01*
G01*
G37*
%TD.AperFunction*%
%TO.P,R9,1*%
%TO.N,Net-(Q3-Pad1)*%
%TA.AperFunction,SMDPad,CuDef*%
G36*
G01*
X136127500Y-84812500D02*
X135652500Y-84812500D01*
G75*
G02*
X135415000Y-84575000I0J237500D01*
G01*
X135415000Y-83975000D01*
G75*
G02*
X135652500Y-83737500I237500J0D01*
G01*
X136127500Y-83737500D01*
G75*
G02*
X136365000Y-83975000I0J-237500D01*
G01*
X136365000Y-84575000D01*
G75*
G02*
X136127500Y-84812500I-237500J0D01*
G01*
G37*
%TD.AperFunction*%
%TD*%
%TO.P,R8,2*%
%TO.N,Net-(Q4-Pad1)*%
%TA.AperFunction,SMDPad,CuDef*%
G36*
G01*
X135652500Y-118435000D02*
X136127500Y-118435000D01*
G75*
G02*
X136365000Y-118672500I0J-237500D01*
G01*
X136365000Y-119272500D01*
G75*
G02*
X136127500Y-119510000I-237500J0D01*
G01*
X135652500Y-119510000D01*
G75*
G02*
X135415000Y-119272500I0J237500D01*
G01*
X135415000Y-118672500D01*
G75*
G02*
X135652500Y-118435000I237500J0D01*
G01*
G37*
%TD.AperFunction*%
%TO.P,R8,1*%
%TO.N,D11*%
%TA.AperFunction,SMDPad,CuDef*%
G36*
G01*
X135652500Y-116710000D02*
X136127500Y-116710000D01*
G75*
G02*
X136365000Y-116947500I0J-237500D01*
G01*
X136365000Y-117547500D01*
G75*
G02*
X136127500Y-117785000I-237500J0D01*
G01*
X135652500Y-117785000D01*
G75*
G02*
X135415000Y-117547500I0J237500D01*
G01*
X135415000Y-116947500D01*
G75*
G02*
X135652500Y-116710000I237500J0D01*
G01*
G37*
%TD.AperFunction*%
%TD*%
%TO.P,R7,2*%
%TO.N,D9*%
%TA.AperFunction,SMDPad,CuDef*%
G36*
G01*
X135652500Y-88817500D02*
X136127500Y-88817500D01*
G75*
G02*
X136365000Y-89055000I0J-237500D01*
G01*
X136365000Y-89655000D01*
G75*
G02*
X136127500Y-89892500I-237500J0D01*
G01*
X135652500Y-89892500D01*
G75*
G02*
X135415000Y-89655000I0J237500D01*
G01*
X135415000Y-89055000D01*
G75*
G02*
X135652500Y-88817500I237500J0D01*
G01*
G37*
%TD.AperFunction*%
%TO.P,R7,1*%
%TO.N,Net-(Q3-Pad1)*%
%TA.AperFunction,SMDPad,CuDef*%
G36*
G01*
X135652500Y-87092500D02*
X136127500Y-87092500D01*
G75*
G02*
X136365000Y-87330000I0J-237500D01*
G01*
X136365000Y-87930000D01*
G75*
G02*
X136127500Y-88167500I-237500J0D01*
G01*
X135652500Y-88167500D01*
G75*
G02*
X135415000Y-87930000I0J237500D01*
G01*
X135415000Y-87330000D01*
G75*
G02*
X135652500Y-87092500I237500J0D01*
G01*
G37*
%TD.AperFunction*%
%TD*%
%TO.P,R6,2*%
%TO.N,12V*%
%TA.AperFunction,SMDPad,CuDef*%
G36*
G01*
X131135000Y-92947500D02*
X131135000Y-92472500D01*
G75*
G02*
X131372500Y-92235000I237500J0D01*
G01*
X131972500Y-92235000D01*
G75*
G02*
X132210000Y-92472500I0J-237500D01*
G01*
X132210000Y-92947500D01*
G75*
G02*
X131972500Y-93185000I-237500J0D01*
G01*
X131372500Y-93185000D01*
G75*
G02*
X131135000Y-92947500I0J237500D01*
G01*
G37*
%TD.AperFunction*%
%TO.P,R6,1*%
%TO.N,B*%
%TA.AperFunction,SMDPad,CuDef*%
G36*
G01*
X129410000Y-92947500D02*
X129410000Y-92472500D01*
G75*
G02*
X129647500Y-92235000I237500J0D01*
G01*
X130247500Y-92235000D01*
G75*
G02*
X130485000Y-92472500I0J-237500D01*
G01*
X130485000Y-92947500D01*
G75*
G02*
X130247500Y-93185000I-237500J0D01*
G01*
X129647500Y-93185000D01*
G75*
G02*
X129410000Y-92947500I0J237500D01*
G01*
G37*
%TD.AperFunction*%
%TD*%
%TO.P,R5,2*%
%TO.N,12V*%
%TA.AperFunction,SMDPad,CuDef*%
G36*
G01*
X132405000Y-75167500D02*
X132405000Y-74692500D01*
G75*
G02*
X132642500Y-74455000I237500J0D01*
G01*
X133242500Y-74455000D01*
G75*
G02*
X133480000Y-74692500I0J-237500D01*
G01*
X133480000Y-75167500D01*
G75*
G02*
X133242500Y-75405000I-237500J0D01*
G01*
X132642500Y-75405000D01*
G75*
G02*
X132405000Y-75167500I0J237500D01*
G01*
G37*
%TD.AperFunction*%
%TO.P,R5,1*%
%TO.N,R*%
%TA.AperFunction,SMDPad,CuDef*%
G36*
G01*
X130680000Y-75167500D02*
X130680000Y-74692500D01*
G75*
G02*
X130917500Y-74455000I237500J0D01*
G01*
X131517500Y-74455000D01*
G75*
G02*
X131755000Y-74692500I0J-237500D01*
G01*
X131755000Y-75167500D01*
G75*
G02*
X131517500Y-75405000I-237500J0D01*
G01*
X130917500Y-75405000D01*
G75*
G02*
X130680000Y-75167500I0J237500D01*
G01*
G37*
%TD.AperFunction*%
%TD*%
%TO.P,R4,2*%
%TO.N,Net-(Q2-Pad1)*%
%TA.AperFunction,SMDPad,CuDef*%
G36*
G01*
X135652500Y-98115000D02*
X136127500Y-98115000D01*
G75*
G02*
X136365000Y-98352500I0J-237500D01*
G01*
X136365000Y-98952500D01*
G75*
G02*
X136127500Y-99190000I-237500J0D01*
G01*
X135652500Y-99190000D01*
G75*
G02*
X135415000Y-98952500I0J237500D01*
G01*
X135415000Y-98352500D01*
G75*
G02*
X135652500Y-98115000I237500J0D01*
G01*
G37*
%TD.AperFunction*%
%TO.P,R4,1*%
%TO.N,GND*%
%TA.AperFunction,SMDPad,CuDef*%
G36*
G01*
X135652500Y-96390000D02*
X136127500Y-96390000D01*
G75*
G02*
X136365000Y-96627500I0J-237500D01*
G01*
X136365000Y-97227500D01*
G75*
G02*
X136127500Y-97465000I-237500J0D01*
G01*
X135652500Y-97465000D01*
G75*
G02*
X135415000Y-97227500I0J237500D01*
G01*
X135415000Y-96627500D01*
G75*
G02*
X135652500Y-96390000I237500J0D01*
G01*
G37*
%TD.AperFunction*%
%TD*%
%TO.P,R3,2*%
%TO.N,GND*%
%TA.AperFunction,SMDPad,CuDef*%
G36*
G01*
X136127500Y-65715000D02*
X135652500Y-65715000D01*
G75*
G02*
X135415000Y-65477500I0J237500D01*
G01*
X135415000Y-64877500D01*
G75*
G02*
X135652500Y-64640000I237500J0D01*
G01*
X136127500Y-64640000D01*
G75*
G02*
X136365000Y-64877500I0J-237500D01*
G01*
X136365000Y-65477500D01*
G75*
G02*
X136127500Y-65715000I-237500J0D01*
G01*
G37*
%TD.AperFunction*%
%TO.P,R3,1*%
%TO.N,Net-(Q1-Pad1)*%
%TA.AperFunction,SMDPad,CuDef*%
G36*
G01*
X136127500Y-67440000D02*
X135652500Y-67440000D01*
G75*
G02*
X135415000Y-67202500I0J237500D01*
G01*
X135415000Y-66602500D01*
G75*
G02*
X135652500Y-66365000I237500J0D01*
G01*
X136127500Y-66365000D01*
G75*
G02*
X136365000Y-66602500I0J-237500D01*
G01*
X136365000Y-67202500D01*
G75*
G02*
X136127500Y-67440000I-237500J0D01*
G01*
G37*
%TD.AperFunction*%
%TD*%
%TO.P,R2,2*%
%TO.N,Net-(Q2-Pad1)*%
%TA.AperFunction,SMDPad,CuDef*%
G36*
G01*
X136127500Y-102545000D02*
X135652500Y-102545000D01*
G75*
G02*
X135415000Y-102307500I0J237500D01*
G01*
X135415000Y-101707500D01*
G75*
G02*
X135652500Y-101470000I237500J0D01*
G01*
X136127500Y-101470000D01*
G75*
G02*
X136365000Y-101707500I0J-237500D01*
G01*
X136365000Y-102307500D01*
G75*
G02*
X136127500Y-102545000I-237500J0D01*
G01*
G37*
%TD.AperFunction*%
%TO.P,R2,1*%
%TO.N,D10*%
%TA.AperFunction,SMDPad,CuDef*%
G36*
G01*
X136127500Y-104270000D02*
X135652500Y-104270000D01*
G75*
G02*
X135415000Y-104032500I0J237500D01*
G01*
X135415000Y-103432500D01*
G75*
G02*
X135652500Y-103195000I237500J0D01*
G01*
X136127500Y-103195000D01*
G75*
G02*
X136365000Y-103432500I0J-237500D01*
G01*
X136365000Y-104032500D01*
G75*
G02*
X136127500Y-104270000I-237500J0D01*
G01*
G37*
%TD.AperFunction*%
%TD*%
%TO.P,R1,2*%
%TO.N,Net-(Q1-Pad1)*%
%TA.AperFunction,SMDPad,CuDef*%
G36*
G01*
X136127500Y-69525000D02*
X135652500Y-69525000D01*
G75*
G02*
X135415000Y-69287500I0J237500D01*
G01*
X135415000Y-68687500D01*
G75*
G02*
X135652500Y-68450000I237500J0D01*
G01*
X136127500Y-68450000D01*
G75*
G02*
X136365000Y-68687500I0J-237500D01*
G01*
X136365000Y-69287500D01*
G75*
G02*
X136127500Y-69525000I-237500J0D01*
G01*
G37*
%TD.AperFunction*%
%TO.P,R1,1*%
%TO.N,D3*%
%TA.AperFunction,SMDPad,CuDef*%
G36*
G01*
X136127500Y-71250000D02*
X135652500Y-71250000D01*
G75*
G02*
X135415000Y-71012500I0J237500D01*
G01*
X135415000Y-70412500D01*
G75*
G02*
X135652500Y-70175000I237500J0D01*
G01*
X136127500Y-70175000D01*
G75*
G02*
X136365000Y-70412500I0J-237500D01*
G01*
X136365000Y-71012500D01*
G75*
G02*
X136127500Y-71250000I-237500J0D01*
G01*
G37*
%TD.AperFunction*%
%TD*%
D12*
%TO.P,P1,15*%
%TO.N,/12(MISO)*%
X139700000Y-106680000D03*
%TO.P,P1,14*%
%TO.N,D11*%
X139700000Y-104140000D03*
%TO.P,P1,13*%
%TO.N,D10*%
X139700000Y-101600000D03*
%TO.P,P1,12*%
%TO.N,D9*%
X139700000Y-99060000D03*
%TO.P,P1,11*%
%TO.N,/8*%
X139700000Y-96520000D03*
%TO.P,P1,10*%
%TO.N,D7*%
X139700000Y-93980000D03*
%TO.P,P1,9*%
%TO.N,D6*%
X139700000Y-91440000D03*
%TO.P,P1,8*%
%TO.N,D5*%
X139700000Y-88900000D03*
%TO.P,P1,7*%
%TO.N,D4*%
X139700000Y-86360000D03*
%TO.P,P1,6*%
%TO.N,D3*%
X139700000Y-83820000D03*
%TO.P,P1,5*%
%TO.N,D2*%
X139700000Y-81280000D03*
%TO.P,P1,4*%
%TO.N,GND*%
X139700000Y-78740000D03*
%TO.P,P1,3*%
%TO.N,/Reset*%
X139700000Y-76200000D03*
%TO.P,P1,2*%
%TO.N,/0(Rx)*%
X139700000Y-73660000D03*
D13*
%TO.P,P1,1*%
%TO.N,/1(Tx)*%
X139700000Y-71120000D03*
%TD*%
D17*
%TO.P,J3,6*%
%TO.N,W*%
X106680000Y-112630000D03*
%TO.P,J3,5*%
%TO.N,B*%
X106680000Y-107630000D03*
%TO.P,J3,4*%
%TO.N,G*%
X106680000Y-102630000D03*
%TO.P,J3,3*%
%TO.N,R*%
X106680000Y-97630000D03*
%TO.P,J3,2*%
%TO.N,12V*%
X106680000Y-92630000D03*
D18*
%TO.P,J3,1*%
%TO.N,GND*%
X106680000Y-87630000D03*
%TD*%
%TO.P,J2,3*%
%TO.N,N/C*%
%TA.AperFunction,ComponentPad*%
G36*
G01*
X102850000Y-77965000D02*
X102850000Y-76215000D01*
G75*
G02*
X103725000Y-75340000I875000J0D01*
G01*
X105475000Y-75340000D01*
G75*
G02*
X106350000Y-76215000I0J-875000D01*
G01*
X106350000Y-77965000D01*
G75*
G02*
X105475000Y-78840000I-875000J0D01*
G01*
X103725000Y-78840000D01*
G75*
G02*
X102850000Y-77965000I0J875000D01*
G01*
G37*
%TD.AperFunction*%
%TO.P,J2,2*%
%TO.N,GND*%
%TA.AperFunction,ComponentPad*%
G36*
G01*
X100100000Y-73390000D02*
X100100000Y-71390000D01*
G75*
G02*
X100850000Y-70640000I750000J0D01*
G01*
X102350000Y-70640000D01*
G75*
G02*
X103100000Y-71390000I0J-750000D01*
G01*
X103100000Y-73390000D01*
G75*
G02*
X102350000Y-74140000I-750000J0D01*
G01*
X100850000Y-74140000D01*
G75*
G02*
X100100000Y-73390000I0J750000D01*
G01*
G37*
%TD.AperFunction*%
D19*
%TO.P,J2,1*%
%TO.N,12V*%
X107600000Y-72390000D03*
%TD*%
D20*
%TO.N,*%
X135890000Y-107950000D03*
%TO.N,GND*%
X158750000Y-102870000D03*
X144780000Y-90170000D03*
X133350000Y-110490000D03*
X133350000Y-64770000D03*
X129540000Y-80010000D03*
X130810000Y-80010000D03*
X132080000Y-80010000D03*
X133350000Y-81280000D03*
X133350000Y-82550000D03*
X133350000Y-83820000D03*
X132080000Y-110490000D03*
X130810000Y-110490000D03*
X129540000Y-110490000D03*
X128270000Y-110490000D03*
X130810000Y-115570000D03*
X129540000Y-115570000D03*
X128270000Y-115570000D03*
X129540000Y-95250000D03*
X130810000Y-95250000D03*
X132080000Y-95250000D03*
X128270000Y-95250000D03*
X129540000Y-100330000D03*
X130810000Y-100330000D03*
X132080000Y-100330000D03*
X128270000Y-100330000D03*
X128270000Y-80010000D03*
X130810000Y-85090000D03*
X129540000Y-85090000D03*
X128270000Y-85090000D03*
X132080000Y-85090000D03*
X133350000Y-85090000D03*
X128270000Y-62230000D03*
X129540000Y-62230000D03*
X130810000Y-62230000D03*
X132080000Y-62230000D03*
X133350000Y-62230000D03*
X133350000Y-63500000D03*
X133350000Y-66040000D03*
X133350000Y-67310000D03*
X132080000Y-67310000D03*
X130810000Y-67310000D03*
X129540000Y-67310000D03*
X128270000Y-67310000D03*
%TO.N,12V*%
X132080000Y-105410000D03*
X135890000Y-73660000D03*
X134620000Y-92710000D03*
X134620000Y-100330000D03*
X134620000Y-95250000D03*
X109220000Y-92710000D03*
X113030000Y-86360000D03*
X113030000Y-83820000D03*
X113030000Y-85090000D03*
X113030000Y-82550000D03*
X113030000Y-81280000D03*
X113030000Y-80010000D03*
%TD*%
D21*
%TO.N,GND*%
X135890000Y-82550000D02*
X133350000Y-82550000D01*
X135482500Y-64770000D02*
X135890000Y-65177500D01*
X130924300Y-64770000D02*
X133350000Y-64770000D01*
X130924300Y-97790000D02*
X130924300Y-97675700D01*
X131672500Y-96927500D02*
X134212500Y-96927500D01*
X130924300Y-97675700D02*
X131672500Y-96927500D01*
X130924300Y-113030000D02*
X130924300Y-112915700D01*
X134212500Y-109627500D02*
X135890000Y-109627500D01*
X130924300Y-112915700D02*
X133350000Y-110490000D01*
X133350000Y-110490000D02*
X134212500Y-109627500D01*
X133350000Y-82550000D02*
X133350000Y-82550000D01*
X133350000Y-64770000D02*
X135482500Y-64770000D01*
X133350000Y-82550000D02*
X130924300Y-82550000D01*
X134212500Y-96927500D02*
X135890000Y-96927500D01*
X146370000Y-90170000D02*
X144780000Y-90170000D01*
X158750000Y-102870000D02*
X158750000Y-101192500D01*
X135890000Y-82550000D02*
X139700000Y-78740000D01*
X133350000Y-81280000D02*
X135890000Y-81280000D01*
X138430000Y-78740000D02*
X139700000Y-78740000D01*
X135890000Y-81280000D02*
X138430000Y-78740000D01*
%TO.N,12V*%
X131672500Y-107950000D02*
X132080000Y-107950000D01*
X132080000Y-107950000D02*
X132080000Y-105410000D01*
X131672500Y-92710000D02*
X134620000Y-92710000D01*
X135890000Y-78740000D02*
X137160000Y-78740000D01*
X137160000Y-74930000D02*
X135890000Y-73660000D01*
X137160000Y-78740000D02*
X137160000Y-74930000D01*
X158750000Y-77877500D02*
X158750000Y-71120000D01*
X154813000Y-71120000D02*
X154686000Y-71247000D01*
X158750000Y-71120000D02*
X154813000Y-71120000D01*
D22*
X107600000Y-72390000D02*
X107600000Y-67719658D01*
X114300000Y-59690000D02*
X148530342Y-59690000D01*
X149860000Y-59690000D02*
X149860000Y-60960000D01*
X149860000Y-60960000D02*
X156210000Y-67310000D01*
X154686000Y-68834000D02*
X154686000Y-71247000D01*
X156210000Y-67310000D02*
X154686000Y-68834000D01*
X149860000Y-59690000D02*
X148530342Y-59690000D01*
D21*
X107600000Y-66960000D02*
X107315000Y-66675000D01*
D22*
X107600000Y-67719658D02*
X107600000Y-66960000D01*
X107315000Y-66675000D02*
X114300000Y-59690000D01*
D21*
X132942500Y-74930000D02*
X135890000Y-74930000D01*
X135890000Y-74930000D02*
X135890000Y-73660000D01*
%TO.N,R*%
X127000000Y-73660000D02*
X120650000Y-67310000D01*
D23*
X120650000Y-67310000D02*
X118110000Y-67310000D01*
X120650000Y-67310000D02*
X120650000Y-68580000D01*
X106520000Y-97790000D02*
X106680000Y-97630000D01*
D24*
X101440000Y-97630000D02*
X106680000Y-97630000D01*
X100330000Y-81280000D02*
X100330000Y-96520000D01*
X110490000Y-81280000D02*
X100330000Y-81280000D01*
X100330000Y-96520000D02*
X101440000Y-97630000D01*
X110490000Y-78740000D02*
X110490000Y-81280000D01*
X120650000Y-68580000D02*
X110490000Y-78740000D01*
D21*
X129947500Y-73660000D02*
X131217500Y-74930000D01*
X127000000Y-73660000D02*
X129947500Y-73660000D01*
%TO.N,G*%
X127000000Y-78740000D02*
X120650000Y-85090000D01*
X134165000Y-78740000D02*
X127000000Y-78740000D01*
D23*
X106920000Y-102870000D02*
X106680000Y-102630000D01*
D24*
X111760000Y-91440000D02*
X118110000Y-85090000D01*
X118110000Y-85090000D02*
X120650000Y-85090000D01*
X111760000Y-100330000D02*
X111760000Y-91440000D01*
X109460000Y-102630000D02*
X111760000Y-100330000D01*
X106680000Y-102630000D02*
X109460000Y-102630000D01*
D21*
%TO.N,B*%
X128270000Y-92710000D02*
X120650000Y-100330000D01*
X129947500Y-92710000D02*
X128270000Y-92710000D01*
D24*
X113350000Y-107630000D02*
X120650000Y-100330000D01*
X106680000Y-107630000D02*
X113350000Y-107630000D01*
D21*
%TO.N,W*%
X128270000Y-107950000D02*
X120650000Y-115570000D01*
X129947500Y-107950000D02*
X128270000Y-107950000D01*
D24*
X109620000Y-115570000D02*
X106680000Y-112630000D01*
X120650000Y-115570000D02*
X109620000Y-115570000D01*
D21*
%TO.N,D11*%
X135890000Y-117247500D02*
X135890000Y-115570000D01*
X135890000Y-115570000D02*
X142240000Y-109220000D01*
X142240000Y-106680000D02*
X139700000Y-104140000D01*
X142240000Y-109220000D02*
X142240000Y-106680000D01*
%TO.N,D10*%
X135890000Y-103732500D02*
X135890000Y-105410000D01*
X135890000Y-105410000D02*
X139700000Y-101600000D01*
%TO.N,D9*%
X139700000Y-98259002D02*
X139700000Y-99060000D01*
X135890000Y-94449002D02*
X139700000Y-98259002D01*
X135890000Y-89355000D02*
X135890000Y-94449002D01*
%TO.N,D5*%
X144780000Y-93980000D02*
X139700000Y-88900000D01*
X144780000Y-96320000D02*
X144780000Y-93980000D01*
X139700000Y-88900000D02*
X144780000Y-83820000D01*
%TO.N,D4*%
X139700000Y-86360000D02*
X142240000Y-83820000D01*
X142240000Y-83820000D02*
X142240000Y-78740000D01*
X144580000Y-78740000D02*
X144780000Y-78540000D01*
X142240000Y-78740000D02*
X144580000Y-78740000D01*
X144780000Y-78540000D02*
X144780000Y-66040000D01*
%TO.N,D3*%
X142240000Y-68580000D02*
X141789990Y-69030010D01*
X141789990Y-81730010D02*
X139700000Y-83820000D01*
X138430000Y-68580000D02*
X142240000Y-68580000D01*
X136297500Y-70712500D02*
X138430000Y-68580000D01*
X141789990Y-69030010D02*
X141789990Y-81730010D01*
X135890000Y-70712500D02*
X136297500Y-70712500D01*
%TO.N,Net-(Q1-Pad1)*%
X131786800Y-68987500D02*
X130924300Y-69850000D01*
X135890000Y-68987500D02*
X131786800Y-68987500D01*
X135890000Y-66902500D02*
X135890000Y-68987500D01*
%TO.N,Net-(Q2-Pad1)*%
X130924300Y-102870000D02*
X132080000Y-102870000D01*
X132080000Y-102870000D02*
X133350000Y-101600000D01*
X135482500Y-101600000D02*
X135890000Y-102007500D01*
X133350000Y-101600000D02*
X135482500Y-101600000D01*
X135890000Y-98652500D02*
X135890000Y-102007500D01*
%TO.N,Net-(Q3-Pad1)*%
X135890000Y-84275000D02*
X135890000Y-87630000D01*
X130924300Y-87630000D02*
X135890000Y-87630000D01*
%TO.N,Net-(Q4-Pad1)*%
X130924300Y-118110000D02*
X132080000Y-118110000D01*
X132942500Y-118972500D02*
X135890000Y-118972500D01*
X132080000Y-118110000D02*
X132942500Y-118972500D01*
X135890000Y-113144300D02*
X130924300Y-118110000D01*
X135890000Y-111352500D02*
X135890000Y-113144300D01*
%TO.N,D6*%
X144780000Y-119180000D02*
X144780000Y-106680000D01*
X144780000Y-106680000D02*
X144780000Y-101600000D01*
X144780000Y-101600000D02*
X142240000Y-99060000D01*
X142240000Y-93980000D02*
X139700000Y-91440000D01*
X142240000Y-99060000D02*
X142240000Y-93980000D01*
%TO.N,A0*%
X154966500Y-99467500D02*
X154686000Y-99187000D01*
X158750000Y-99467500D02*
X154966500Y-99467500D01*
X158750000Y-99467500D02*
X158750000Y-79602500D01*
X148270000Y-90170000D02*
X152080000Y-93980000D01*
X152080000Y-93980000D02*
X152080000Y-97470000D01*
X153797000Y-99187000D02*
X154686000Y-99187000D01*
X152080000Y-97470000D02*
X153797000Y-99187000D01*
%TD*%
D25*
%TO.N,GND*%
X129028377Y-93566623D02*
X129161058Y-93675512D01*
X129312433Y-93756423D01*
X129476684Y-93806248D01*
X129647500Y-93823072D01*
X130247500Y-93823072D01*
X130418316Y-93806248D01*
X130582567Y-93756423D01*
X130733942Y-93675512D01*
X130810000Y-93613093D01*
X130886058Y-93675512D01*
X131037433Y-93756423D01*
X131201684Y-93806248D01*
X131372500Y-93823072D01*
X131972500Y-93823072D01*
X132143316Y-93806248D01*
X132307567Y-93756423D01*
X132458942Y-93675512D01*
X132591623Y-93566623D01*
X132670920Y-93470000D01*
X134074465Y-93470000D01*
X134177111Y-93538586D01*
X134347271Y-93609068D01*
X134527911Y-93645000D01*
X134712089Y-93645000D01*
X134892729Y-93609068D01*
X135062889Y-93538586D01*
X135130001Y-93493743D01*
X135130001Y-94411670D01*
X135126324Y-94449002D01*
X135127884Y-94464842D01*
X135062889Y-94421414D01*
X134892729Y-94350932D01*
X134712089Y-94315000D01*
X134527911Y-94315000D01*
X134347271Y-94350932D01*
X134177111Y-94421414D01*
X134023972Y-94523738D01*
X133893738Y-94653972D01*
X133791414Y-94807111D01*
X133720932Y-94977271D01*
X133685000Y-95157911D01*
X133685000Y-95342089D01*
X133720932Y-95522729D01*
X133791414Y-95692889D01*
X133893738Y-95846028D01*
X134023972Y-95976262D01*
X134177111Y-96078586D01*
X134347271Y-96149068D01*
X134527911Y-96185000D01*
X134712089Y-96185000D01*
X134820132Y-96163509D01*
X134789188Y-96265518D01*
X134776928Y-96390000D01*
X134780000Y-96641750D01*
X134938750Y-96800500D01*
X135763000Y-96800500D01*
X135763000Y-97054500D01*
X134938750Y-97054500D01*
X134780000Y-97213250D01*
X134776928Y-97465000D01*
X134789188Y-97589482D01*
X134825498Y-97709180D01*
X134884463Y-97819494D01*
X134923774Y-97867394D01*
X134843577Y-98017433D01*
X134793752Y-98181684D01*
X134776928Y-98352500D01*
X134776928Y-98952500D01*
X134793752Y-99123316D01*
X134843577Y-99287567D01*
X134924488Y-99438942D01*
X134930885Y-99446737D01*
X134892729Y-99430932D01*
X134712089Y-99395000D01*
X134527911Y-99395000D01*
X134347271Y-99430932D01*
X134177111Y-99501414D01*
X134023972Y-99603738D01*
X133893738Y-99733972D01*
X133791414Y-99887111D01*
X133720932Y-100057271D01*
X133685000Y-100237911D01*
X133685000Y-100422089D01*
X133720932Y-100602729D01*
X133791414Y-100772889D01*
X133836256Y-100840000D01*
X133387322Y-100840000D01*
X133349999Y-100836324D01*
X133312676Y-100840000D01*
X133312667Y-100840000D01*
X133201014Y-100850997D01*
X133057753Y-100894454D01*
X132925724Y-100965026D01*
X132809999Y-101059999D01*
X132786201Y-101088997D01*
X132443370Y-101431828D01*
X129174240Y-101431828D01*
X129049758Y-101444088D01*
X128930060Y-101480398D01*
X128819746Y-101539363D01*
X128723055Y-101618715D01*
X128643703Y-101715406D01*
X128584738Y-101825720D01*
X128548428Y-101945418D01*
X128536168Y-102069900D01*
X128536168Y-103670100D01*
X128548428Y-103794582D01*
X128584738Y-103914280D01*
X128643703Y-104024594D01*
X128723055Y-104121285D01*
X128819746Y-104200637D01*
X128930060Y-104259602D01*
X129049758Y-104295912D01*
X129174240Y-104308172D01*
X132674360Y-104308172D01*
X132798842Y-104295912D01*
X132918540Y-104259602D01*
X133028854Y-104200637D01*
X133125545Y-104121285D01*
X133204897Y-104024594D01*
X133263862Y-103914280D01*
X133300172Y-103794582D01*
X133312432Y-103670100D01*
X133312432Y-102712370D01*
X133664802Y-102360000D01*
X134782099Y-102360000D01*
X134793752Y-102478316D01*
X134843577Y-102642567D01*
X134924488Y-102793942D01*
X134986907Y-102870000D01*
X134924488Y-102946058D01*
X134843577Y-103097433D01*
X134793752Y-103261684D01*
X134776928Y-103432500D01*
X134776928Y-104032500D01*
X134793752Y-104203316D01*
X134843577Y-104367567D01*
X134924488Y-104518942D01*
X135033377Y-104651623D01*
X135130001Y-104730920D01*
X135130001Y-105372667D01*
X135126324Y-105410000D01*
X135140998Y-105558985D01*
X135184454Y-105702246D01*
X135255026Y-105834276D01*
X135349999Y-105950001D01*
X135465724Y-106044974D01*
X135597754Y-106115546D01*
X135741015Y-106159003D01*
X135763000Y-106161168D01*
X135763000Y-107021944D01*
X135617271Y-107050932D01*
X135447111Y-107121414D01*
X135293972Y-107223738D01*
X135163738Y-107353972D01*
X135061414Y-107507111D01*
X134990932Y-107677271D01*
X134955000Y-107857911D01*
X134955000Y-108042089D01*
X134990932Y-108222729D01*
X135061414Y-108392889D01*
X135143186Y-108515269D01*
X135060506Y-108559463D01*
X134963815Y-108638815D01*
X134884463Y-108735506D01*
X134825498Y-108845820D01*
X134789188Y-108965518D01*
X134776928Y-109090000D01*
X134780000Y-109341750D01*
X134938750Y-109500500D01*
X135763000Y-109500500D01*
X135763000Y-109754500D01*
X134938750Y-109754500D01*
X134780000Y-109913250D01*
X134776928Y-110165000D01*
X134789188Y-110289482D01*
X134825498Y-110409180D01*
X134884463Y-110519494D01*
X134923774Y-110567394D01*
X134843577Y-110717433D01*
X134793752Y-110881684D01*
X134776928Y-111052500D01*
X134776928Y-111652500D01*
X134793752Y-111823316D01*
X134843577Y-111987567D01*
X134924488Y-112138942D01*
X135033377Y-112271623D01*
X135130001Y-112350920D01*
X135130001Y-112829497D01*
X131287671Y-116671828D01*
X129174240Y-116671828D01*
X129049758Y-116684088D01*
X128930060Y-116720398D01*
X128819746Y-116779363D01*
X128723055Y-116858715D01*
X128643703Y-116955406D01*
X128584738Y-117065720D01*
X128548428Y-117185418D01*
X128536168Y-117309900D01*
X128536168Y-118910100D01*
X128548428Y-119034582D01*
X128584738Y-119154280D01*
X128643703Y-119264594D01*
X128723055Y-119361285D01*
X128819746Y-119440637D01*
X128930060Y-119499602D01*
X129049758Y-119535912D01*
X129174240Y-119548172D01*
X132445964Y-119548172D01*
X132518224Y-119607474D01*
X132650253Y-119678046D01*
X132793514Y-119721503D01*
X132905167Y-119732500D01*
X132905176Y-119732500D01*
X132942499Y-119736176D01*
X132979822Y-119732500D01*
X134910355Y-119732500D01*
X134924488Y-119758942D01*
X135033377Y-119891623D01*
X135166058Y-120000512D01*
X135317433Y-120081423D01*
X135481684Y-120131248D01*
X135652500Y-120148072D01*
X135763000Y-120148072D01*
X135763000Y-123063000D01*
X127127000Y-123063000D01*
X127127000Y-113830100D01*
X128536168Y-113830100D01*
X128548428Y-113954582D01*
X128584738Y-114074280D01*
X128643703Y-114184594D01*
X128723055Y-114281285D01*
X128819746Y-114360637D01*
X128930060Y-114419602D01*
X129049758Y-114455912D01*
X129174240Y-114468172D01*
X130638550Y-114465100D01*
X130797300Y-114306350D01*
X130797300Y-113157000D01*
X131051300Y-113157000D01*
X131051300Y-114306350D01*
X131210050Y-114465100D01*
X132674360Y-114468172D01*
X132798842Y-114455912D01*
X132918540Y-114419602D01*
X133028854Y-114360637D01*
X133125545Y-114281285D01*
X133204897Y-114184594D01*
X133263862Y-114074280D01*
X133300172Y-113954582D01*
X133312432Y-113830100D01*
X133309360Y-113315750D01*
X133150610Y-113157000D01*
X131051300Y-113157000D01*
X130797300Y-113157000D01*
X128697990Y-113157000D01*
X128539240Y-113315750D01*
X128536168Y-113830100D01*
X127127000Y-113830100D01*
X127127000Y-112229900D01*
X128536168Y-112229900D01*
X128539240Y-112744250D01*
X128697990Y-112903000D01*
X130797300Y-112903000D01*
X130797300Y-111753650D01*
X131051300Y-111753650D01*
X131051300Y-112903000D01*
X133150610Y-112903000D01*
X133309360Y-112744250D01*
X133312432Y-112229900D01*
X133300172Y-112105418D01*
X133263862Y-111985720D01*
X133204897Y-111875406D01*
X133125545Y-111778715D01*
X133028854Y-111699363D01*
X132918540Y-111640398D01*
X132798842Y-111604088D01*
X132674360Y-111591828D01*
X131210050Y-111594900D01*
X131051300Y-111753650D01*
X130797300Y-111753650D01*
X130638550Y-111594900D01*
X129174240Y-111591828D01*
X129049758Y-111604088D01*
X128930060Y-111640398D01*
X128819746Y-111699363D01*
X128723055Y-111778715D01*
X128643703Y-111875406D01*
X128584738Y-111985720D01*
X128548428Y-112105418D01*
X128536168Y-112229900D01*
X127127000Y-112229900D01*
X127127000Y-110167802D01*
X128584802Y-108710000D01*
X128949080Y-108710000D01*
X129028377Y-108806623D01*
X129161058Y-108915512D01*
X129312433Y-108996423D01*
X129476684Y-109046248D01*
X129647500Y-109063072D01*
X130247500Y-109063072D01*
X130418316Y-109046248D01*
X130582567Y-108996423D01*
X130733942Y-108915512D01*
X130810000Y-108853093D01*
X130886058Y-108915512D01*
X131037433Y-108996423D01*
X131201684Y-109046248D01*
X131372500Y-109063072D01*
X131972500Y-109063072D01*
X132143316Y-109046248D01*
X132307567Y-108996423D01*
X132458942Y-108915512D01*
X132591623Y-108806623D01*
X132700512Y-108673942D01*
X132781423Y-108522567D01*
X132831248Y-108358316D01*
X132848072Y-108187500D01*
X132848072Y-107712500D01*
X132840000Y-107630544D01*
X132840000Y-105955535D01*
X132908586Y-105852889D01*
X132979068Y-105682729D01*
X133015000Y-105502089D01*
X133015000Y-105317911D01*
X132979068Y-105137271D01*
X132908586Y-104967111D01*
X132806262Y-104813972D01*
X132676028Y-104683738D01*
X132522889Y-104581414D01*
X132352729Y-104510932D01*
X132172089Y-104475000D01*
X131987911Y-104475000D01*
X131807271Y-104510932D01*
X131637111Y-104581414D01*
X131483972Y-104683738D01*
X131353738Y-104813972D01*
X131251414Y-104967111D01*
X131180932Y-105137271D01*
X131145000Y-105317911D01*
X131145000Y-105502089D01*
X131180932Y-105682729D01*
X131251414Y-105852889D01*
X131320001Y-105955537D01*
X131320000Y-106842099D01*
X131201684Y-106853752D01*
X131037433Y-106903577D01*
X130886058Y-106984488D01*
X130810000Y-107046907D01*
X130733942Y-106984488D01*
X130582567Y-106903577D01*
X130418316Y-106853752D01*
X130247500Y-106836928D01*
X129647500Y-106836928D01*
X129476684Y-106853752D01*
X129312433Y-106903577D01*
X129161058Y-106984488D01*
X129028377Y-107093377D01*
X128949080Y-107190000D01*
X128307322Y-107190000D01*
X128269999Y-107186324D01*
X128232676Y-107190000D01*
X128232667Y-107190000D01*
X128121014Y-107200997D01*
X127977753Y-107244454D01*
X127845724Y-107315026D01*
X127729999Y-107409999D01*
X127706201Y-107438997D01*
X127127000Y-108018198D01*
X127127000Y-98590100D01*
X128536168Y-98590100D01*
X128548428Y-98714582D01*
X128584738Y-98834280D01*
X128643703Y-98944594D01*
X128723055Y-99041285D01*
X128819746Y-99120637D01*
X128930060Y-99179602D01*
X129049758Y-99215912D01*
X129174240Y-99228172D01*
X130638550Y-99225100D01*
X130797300Y-99066350D01*
X130797300Y-97917000D01*
X131051300Y-97917000D01*
X131051300Y-99066350D01*
X131210050Y-99225100D01*
X132674360Y-99228172D01*
X132798842Y-99215912D01*
X132918540Y-99179602D01*
X133028854Y-99120637D01*
X133125545Y-99041285D01*
X133204897Y-98944594D01*
X133263862Y-98834280D01*
X133300172Y-98714582D01*
X133312432Y-98590100D01*
X133309360Y-98075750D01*
X133150610Y-97917000D01*
X131051300Y-97917000D01*
X130797300Y-97917000D01*
X128697990Y-97917000D01*
X128539240Y-98075750D01*
X128536168Y-98590100D01*
X127127000Y-98590100D01*
X127127000Y-96989900D01*
X128536168Y-96989900D01*
X128539240Y-97504250D01*
X128697990Y-97663000D01*
X130797300Y-97663000D01*
X130797300Y-96513650D01*
X131051300Y-96513650D01*
X131051300Y-97663000D01*
X133150610Y-97663000D01*
X133309360Y-97504250D01*
X133312432Y-96989900D01*
X133300172Y-96865418D01*
X133263862Y-96745720D01*
X133204897Y-96635406D01*
X133125545Y-96538715D01*
X133028854Y-96459363D01*
X132918540Y-96400398D01*
X132798842Y-96364088D01*
X132674360Y-96351828D01*
X131210050Y-96354900D01*
X131051300Y-96513650D01*
X130797300Y-96513650D01*
X130638550Y-96354900D01*
X129174240Y-96351828D01*
X129049758Y-96364088D01*
X128930060Y-96400398D01*
X128819746Y-96459363D01*
X128723055Y-96538715D01*
X128643703Y-96635406D01*
X128584738Y-96745720D01*
X128548428Y-96865418D01*
X128536168Y-96989900D01*
X127127000Y-96989900D01*
X127127000Y-94927802D01*
X128584802Y-93470000D01*
X128949080Y-93470000D01*
X129028377Y-93566623D01*
%TA.AperFunction,Conductor*%
D26*
G36*
X129028377Y-93566623D02*
G01*
X129161058Y-93675512D01*
X129312433Y-93756423D01*
X129476684Y-93806248D01*
X129647500Y-93823072D01*
X130247500Y-93823072D01*
X130418316Y-93806248D01*
X130582567Y-93756423D01*
X130733942Y-93675512D01*
X130810000Y-93613093D01*
X130886058Y-93675512D01*
X131037433Y-93756423D01*
X131201684Y-93806248D01*
X131372500Y-93823072D01*
X131972500Y-93823072D01*
X132143316Y-93806248D01*
X132307567Y-93756423D01*
X132458942Y-93675512D01*
X132591623Y-93566623D01*
X132670920Y-93470000D01*
X134074465Y-93470000D01*
X134177111Y-93538586D01*
X134347271Y-93609068D01*
X134527911Y-93645000D01*
X134712089Y-93645000D01*
X134892729Y-93609068D01*
X135062889Y-93538586D01*
X135130001Y-93493743D01*
X135130001Y-94411670D01*
X135126324Y-94449002D01*
X135127884Y-94464842D01*
X135062889Y-94421414D01*
X134892729Y-94350932D01*
X134712089Y-94315000D01*
X134527911Y-94315000D01*
X134347271Y-94350932D01*
X134177111Y-94421414D01*
X134023972Y-94523738D01*
X133893738Y-94653972D01*
X133791414Y-94807111D01*
X133720932Y-94977271D01*
X133685000Y-95157911D01*
X133685000Y-95342089D01*
X133720932Y-95522729D01*
X133791414Y-95692889D01*
X133893738Y-95846028D01*
X134023972Y-95976262D01*
X134177111Y-96078586D01*
X134347271Y-96149068D01*
X134527911Y-96185000D01*
X134712089Y-96185000D01*
X134820132Y-96163509D01*
X134789188Y-96265518D01*
X134776928Y-96390000D01*
X134780000Y-96641750D01*
X134938750Y-96800500D01*
X135763000Y-96800500D01*
X135763000Y-97054500D01*
X134938750Y-97054500D01*
X134780000Y-97213250D01*
X134776928Y-97465000D01*
X134789188Y-97589482D01*
X134825498Y-97709180D01*
X134884463Y-97819494D01*
X134923774Y-97867394D01*
X134843577Y-98017433D01*
X134793752Y-98181684D01*
X134776928Y-98352500D01*
X134776928Y-98952500D01*
X134793752Y-99123316D01*
X134843577Y-99287567D01*
X134924488Y-99438942D01*
X134930885Y-99446737D01*
X134892729Y-99430932D01*
X134712089Y-99395000D01*
X134527911Y-99395000D01*
X134347271Y-99430932D01*
X134177111Y-99501414D01*
X134023972Y-99603738D01*
X133893738Y-99733972D01*
X133791414Y-99887111D01*
X133720932Y-100057271D01*
X133685000Y-100237911D01*
X133685000Y-100422089D01*
X133720932Y-100602729D01*
X133791414Y-100772889D01*
X133836256Y-100840000D01*
X133387322Y-100840000D01*
X133349999Y-100836324D01*
X133312676Y-100840000D01*
X133312667Y-100840000D01*
X133201014Y-100850997D01*
X133057753Y-100894454D01*
X132925724Y-100965026D01*
X132809999Y-101059999D01*
X132786201Y-101088997D01*
X132443370Y-101431828D01*
X129174240Y-101431828D01*
X129049758Y-101444088D01*
X128930060Y-101480398D01*
X128819746Y-101539363D01*
X128723055Y-101618715D01*
X128643703Y-101715406D01*
X128584738Y-101825720D01*
X128548428Y-101945418D01*
X128536168Y-102069900D01*
X128536168Y-103670100D01*
X128548428Y-103794582D01*
X128584738Y-103914280D01*
X128643703Y-104024594D01*
X128723055Y-104121285D01*
X128819746Y-104200637D01*
X128930060Y-104259602D01*
X129049758Y-104295912D01*
X129174240Y-104308172D01*
X132674360Y-104308172D01*
X132798842Y-104295912D01*
X132918540Y-104259602D01*
X133028854Y-104200637D01*
X133125545Y-104121285D01*
X133204897Y-104024594D01*
X133263862Y-103914280D01*
X133300172Y-103794582D01*
X133312432Y-103670100D01*
X133312432Y-102712370D01*
X133664802Y-102360000D01*
X134782099Y-102360000D01*
X134793752Y-102478316D01*
X134843577Y-102642567D01*
X134924488Y-102793942D01*
X134986907Y-102870000D01*
X134924488Y-102946058D01*
X134843577Y-103097433D01*
X134793752Y-103261684D01*
X134776928Y-103432500D01*
X134776928Y-104032500D01*
X134793752Y-104203316D01*
X134843577Y-104367567D01*
X134924488Y-104518942D01*
X135033377Y-104651623D01*
X135130001Y-104730920D01*
X135130001Y-105372667D01*
X135126324Y-105410000D01*
X135140998Y-105558985D01*
X135184454Y-105702246D01*
X135255026Y-105834276D01*
X135349999Y-105950001D01*
X135465724Y-106044974D01*
X135597754Y-106115546D01*
X135741015Y-106159003D01*
X135763000Y-106161168D01*
X135763000Y-107021944D01*
X135617271Y-107050932D01*
X135447111Y-107121414D01*
X135293972Y-107223738D01*
X135163738Y-107353972D01*
X135061414Y-107507111D01*
X134990932Y-107677271D01*
X134955000Y-107857911D01*
X134955000Y-108042089D01*
X134990932Y-108222729D01*
X135061414Y-108392889D01*
X135143186Y-108515269D01*
X135060506Y-108559463D01*
X134963815Y-108638815D01*
X134884463Y-108735506D01*
X134825498Y-108845820D01*
X134789188Y-108965518D01*
X134776928Y-109090000D01*
X134780000Y-109341750D01*
X134938750Y-109500500D01*
X135763000Y-109500500D01*
X135763000Y-109754500D01*
X134938750Y-109754500D01*
X134780000Y-109913250D01*
X134776928Y-110165000D01*
X134789188Y-110289482D01*
X134825498Y-110409180D01*
X134884463Y-110519494D01*
X134923774Y-110567394D01*
X134843577Y-110717433D01*
X134793752Y-110881684D01*
X134776928Y-111052500D01*
X134776928Y-111652500D01*
X134793752Y-111823316D01*
X134843577Y-111987567D01*
X134924488Y-112138942D01*
X135033377Y-112271623D01*
X135130001Y-112350920D01*
X135130001Y-112829497D01*
X131287671Y-116671828D01*
X129174240Y-116671828D01*
X129049758Y-116684088D01*
X128930060Y-116720398D01*
X128819746Y-116779363D01*
X128723055Y-116858715D01*
X128643703Y-116955406D01*
X128584738Y-117065720D01*
X128548428Y-117185418D01*
X128536168Y-117309900D01*
X128536168Y-118910100D01*
X128548428Y-119034582D01*
X128584738Y-119154280D01*
X128643703Y-119264594D01*
X128723055Y-119361285D01*
X128819746Y-119440637D01*
X128930060Y-119499602D01*
X129049758Y-119535912D01*
X129174240Y-119548172D01*
X132445964Y-119548172D01*
X132518224Y-119607474D01*
X132650253Y-119678046D01*
X132793514Y-119721503D01*
X132905167Y-119732500D01*
X132905176Y-119732500D01*
X132942499Y-119736176D01*
X132979822Y-119732500D01*
X134910355Y-119732500D01*
X134924488Y-119758942D01*
X135033377Y-119891623D01*
X135166058Y-120000512D01*
X135317433Y-120081423D01*
X135481684Y-120131248D01*
X135652500Y-120148072D01*
X135763000Y-120148072D01*
X135763000Y-123063000D01*
X127127000Y-123063000D01*
X127127000Y-113830100D01*
X128536168Y-113830100D01*
X128548428Y-113954582D01*
X128584738Y-114074280D01*
X128643703Y-114184594D01*
X128723055Y-114281285D01*
X128819746Y-114360637D01*
X128930060Y-114419602D01*
X129049758Y-114455912D01*
X129174240Y-114468172D01*
X130638550Y-114465100D01*
X130797300Y-114306350D01*
X130797300Y-113157000D01*
X131051300Y-113157000D01*
X131051300Y-114306350D01*
X131210050Y-114465100D01*
X132674360Y-114468172D01*
X132798842Y-114455912D01*
X132918540Y-114419602D01*
X133028854Y-114360637D01*
X133125545Y-114281285D01*
X133204897Y-114184594D01*
X133263862Y-114074280D01*
X133300172Y-113954582D01*
X133312432Y-113830100D01*
X133309360Y-113315750D01*
X133150610Y-113157000D01*
X131051300Y-113157000D01*
X130797300Y-113157000D01*
X128697990Y-113157000D01*
X128539240Y-113315750D01*
X128536168Y-113830100D01*
X127127000Y-113830100D01*
X127127000Y-112229900D01*
X128536168Y-112229900D01*
X128539240Y-112744250D01*
X128697990Y-112903000D01*
X130797300Y-112903000D01*
X130797300Y-111753650D01*
X131051300Y-111753650D01*
X131051300Y-112903000D01*
X133150610Y-112903000D01*
X133309360Y-112744250D01*
X133312432Y-112229900D01*
X133300172Y-112105418D01*
X133263862Y-111985720D01*
X133204897Y-111875406D01*
X133125545Y-111778715D01*
X133028854Y-111699363D01*
X132918540Y-111640398D01*
X132798842Y-111604088D01*
X132674360Y-111591828D01*
X131210050Y-111594900D01*
X131051300Y-111753650D01*
X130797300Y-111753650D01*
X130638550Y-111594900D01*
X129174240Y-111591828D01*
X129049758Y-111604088D01*
X128930060Y-111640398D01*
X128819746Y-111699363D01*
X128723055Y-111778715D01*
X128643703Y-111875406D01*
X128584738Y-111985720D01*
X128548428Y-112105418D01*
X128536168Y-112229900D01*
X127127000Y-112229900D01*
X127127000Y-110167802D01*
X128584802Y-108710000D01*
X128949080Y-108710000D01*
X129028377Y-108806623D01*
X129161058Y-108915512D01*
X129312433Y-108996423D01*
X129476684Y-109046248D01*
X129647500Y-109063072D01*
X130247500Y-109063072D01*
X130418316Y-109046248D01*
X130582567Y-108996423D01*
X130733942Y-108915512D01*
X130810000Y-108853093D01*
X130886058Y-108915512D01*
X131037433Y-108996423D01*
X131201684Y-109046248D01*
X131372500Y-109063072D01*
X131972500Y-109063072D01*
X132143316Y-109046248D01*
X132307567Y-108996423D01*
X132458942Y-108915512D01*
X132591623Y-108806623D01*
X132700512Y-108673942D01*
X132781423Y-108522567D01*
X132831248Y-108358316D01*
X132848072Y-108187500D01*
X132848072Y-107712500D01*
X132840000Y-107630544D01*
X132840000Y-105955535D01*
X132908586Y-105852889D01*
X132979068Y-105682729D01*
X133015000Y-105502089D01*
X133015000Y-105317911D01*
X132979068Y-105137271D01*
X132908586Y-104967111D01*
X132806262Y-104813972D01*
X132676028Y-104683738D01*
X132522889Y-104581414D01*
X132352729Y-104510932D01*
X132172089Y-104475000D01*
X131987911Y-104475000D01*
X131807271Y-104510932D01*
X131637111Y-104581414D01*
X131483972Y-104683738D01*
X131353738Y-104813972D01*
X131251414Y-104967111D01*
X131180932Y-105137271D01*
X131145000Y-105317911D01*
X131145000Y-105502089D01*
X131180932Y-105682729D01*
X131251414Y-105852889D01*
X131320001Y-105955537D01*
X131320000Y-106842099D01*
X131201684Y-106853752D01*
X131037433Y-106903577D01*
X130886058Y-106984488D01*
X130810000Y-107046907D01*
X130733942Y-106984488D01*
X130582567Y-106903577D01*
X130418316Y-106853752D01*
X130247500Y-106836928D01*
X129647500Y-106836928D01*
X129476684Y-106853752D01*
X129312433Y-106903577D01*
X129161058Y-106984488D01*
X129028377Y-107093377D01*
X128949080Y-107190000D01*
X128307322Y-107190000D01*
X128269999Y-107186324D01*
X128232676Y-107190000D01*
X128232667Y-107190000D01*
X128121014Y-107200997D01*
X127977753Y-107244454D01*
X127845724Y-107315026D01*
X127729999Y-107409999D01*
X127706201Y-107438997D01*
X127127000Y-108018198D01*
X127127000Y-98590100D01*
X128536168Y-98590100D01*
X128548428Y-98714582D01*
X128584738Y-98834280D01*
X128643703Y-98944594D01*
X128723055Y-99041285D01*
X128819746Y-99120637D01*
X128930060Y-99179602D01*
X129049758Y-99215912D01*
X129174240Y-99228172D01*
X130638550Y-99225100D01*
X130797300Y-99066350D01*
X130797300Y-97917000D01*
X131051300Y-97917000D01*
X131051300Y-99066350D01*
X131210050Y-99225100D01*
X132674360Y-99228172D01*
X132798842Y-99215912D01*
X132918540Y-99179602D01*
X133028854Y-99120637D01*
X133125545Y-99041285D01*
X133204897Y-98944594D01*
X133263862Y-98834280D01*
X133300172Y-98714582D01*
X133312432Y-98590100D01*
X133309360Y-98075750D01*
X133150610Y-97917000D01*
X131051300Y-97917000D01*
X130797300Y-97917000D01*
X128697990Y-97917000D01*
X128539240Y-98075750D01*
X128536168Y-98590100D01*
X127127000Y-98590100D01*
X127127000Y-96989900D01*
X128536168Y-96989900D01*
X128539240Y-97504250D01*
X128697990Y-97663000D01*
X130797300Y-97663000D01*
X130797300Y-96513650D01*
X131051300Y-96513650D01*
X131051300Y-97663000D01*
X133150610Y-97663000D01*
X133309360Y-97504250D01*
X133312432Y-96989900D01*
X133300172Y-96865418D01*
X133263862Y-96745720D01*
X133204897Y-96635406D01*
X133125545Y-96538715D01*
X133028854Y-96459363D01*
X132918540Y-96400398D01*
X132798842Y-96364088D01*
X132674360Y-96351828D01*
X131210050Y-96354900D01*
X131051300Y-96513650D01*
X130797300Y-96513650D01*
X130638550Y-96354900D01*
X129174240Y-96351828D01*
X129049758Y-96364088D01*
X128930060Y-96400398D01*
X128819746Y-96459363D01*
X128723055Y-96538715D01*
X128643703Y-96635406D01*
X128584738Y-96745720D01*
X128548428Y-96865418D01*
X128536168Y-96989900D01*
X127127000Y-96989900D01*
X127127000Y-94927802D01*
X128584802Y-93470000D01*
X128949080Y-93470000D01*
X129028377Y-93566623D01*
G37*
%TD.AperFunction*%
D25*
X133245877Y-79596623D02*
X133378558Y-79705512D01*
X133529933Y-79786423D01*
X133694184Y-79836248D01*
X133865000Y-79853072D01*
X134465000Y-79853072D01*
X134635816Y-79836248D01*
X134800067Y-79786423D01*
X134951442Y-79705512D01*
X135027500Y-79643093D01*
X135103558Y-79705512D01*
X135254933Y-79786423D01*
X135419184Y-79836248D01*
X135590000Y-79853072D01*
X135763000Y-79853072D01*
X135763000Y-81377500D01*
X135762998Y-81377500D01*
X135762998Y-81536248D01*
X135604250Y-81377500D01*
X135415000Y-81374428D01*
X135290518Y-81386688D01*
X135170820Y-81422998D01*
X135060506Y-81481963D01*
X134963815Y-81561315D01*
X134884463Y-81658006D01*
X134825498Y-81768320D01*
X134789188Y-81888018D01*
X134776928Y-82012500D01*
X134780000Y-82264250D01*
X134938750Y-82423000D01*
X135763000Y-82423000D01*
X135763000Y-82677000D01*
X134938750Y-82677000D01*
X134780000Y-82835750D01*
X134776928Y-83087500D01*
X134789188Y-83211982D01*
X134825498Y-83331680D01*
X134884463Y-83441994D01*
X134923774Y-83489894D01*
X134843577Y-83639933D01*
X134793752Y-83804184D01*
X134776928Y-83975000D01*
X134776928Y-84575000D01*
X134793752Y-84745816D01*
X134843577Y-84910067D01*
X134924488Y-85061442D01*
X135033377Y-85194123D01*
X135130000Y-85273420D01*
X135130001Y-86631580D01*
X135033377Y-86710877D01*
X134924488Y-86843558D01*
X134910355Y-86870000D01*
X133312432Y-86870000D01*
X133312432Y-86829900D01*
X133300172Y-86705418D01*
X133263862Y-86585720D01*
X133204897Y-86475406D01*
X133125545Y-86378715D01*
X133028854Y-86299363D01*
X132918540Y-86240398D01*
X132798842Y-86204088D01*
X132674360Y-86191828D01*
X129174240Y-86191828D01*
X129049758Y-86204088D01*
X128930060Y-86240398D01*
X128819746Y-86299363D01*
X128723055Y-86378715D01*
X128643703Y-86475406D01*
X128584738Y-86585720D01*
X128548428Y-86705418D01*
X128536168Y-86829900D01*
X128536168Y-88430100D01*
X128548428Y-88554582D01*
X128584738Y-88674280D01*
X128643703Y-88784594D01*
X128723055Y-88881285D01*
X128819746Y-88960637D01*
X128930060Y-89019602D01*
X129049758Y-89055912D01*
X129174240Y-89068172D01*
X132674360Y-89068172D01*
X132798842Y-89055912D01*
X132918540Y-89019602D01*
X133028854Y-88960637D01*
X133125545Y-88881285D01*
X133204897Y-88784594D01*
X133263862Y-88674280D01*
X133300172Y-88554582D01*
X133312432Y-88430100D01*
X133312432Y-88390000D01*
X134910355Y-88390000D01*
X134924488Y-88416442D01*
X134986907Y-88492500D01*
X134924488Y-88568558D01*
X134843577Y-88719933D01*
X134793752Y-88884184D01*
X134776928Y-89055000D01*
X134776928Y-89655000D01*
X134793752Y-89825816D01*
X134843577Y-89990067D01*
X134924488Y-90141442D01*
X135033377Y-90274123D01*
X135130000Y-90353420D01*
X135130001Y-91926256D01*
X135062889Y-91881414D01*
X134892729Y-91810932D01*
X134712089Y-91775000D01*
X134527911Y-91775000D01*
X134347271Y-91810932D01*
X134177111Y-91881414D01*
X134074465Y-91950000D01*
X132670920Y-91950000D01*
X132591623Y-91853377D01*
X132458942Y-91744488D01*
X132307567Y-91663577D01*
X132143316Y-91613752D01*
X131972500Y-91596928D01*
X131372500Y-91596928D01*
X131201684Y-91613752D01*
X131037433Y-91663577D01*
X130886058Y-91744488D01*
X130810000Y-91806907D01*
X130733942Y-91744488D01*
X130582567Y-91663577D01*
X130418316Y-91613752D01*
X130247500Y-91596928D01*
X129647500Y-91596928D01*
X129476684Y-91613752D01*
X129312433Y-91663577D01*
X129161058Y-91744488D01*
X129028377Y-91853377D01*
X128949080Y-91950000D01*
X128307322Y-91950000D01*
X128269999Y-91946324D01*
X128232676Y-91950000D01*
X128232667Y-91950000D01*
X128121014Y-91960997D01*
X127977753Y-92004454D01*
X127845724Y-92075026D01*
X127729999Y-92169999D01*
X127706201Y-92198997D01*
X127127000Y-92778198D01*
X127127000Y-83350100D01*
X128536168Y-83350100D01*
X128548428Y-83474582D01*
X128584738Y-83594280D01*
X128643703Y-83704594D01*
X128723055Y-83801285D01*
X128819746Y-83880637D01*
X128930060Y-83939602D01*
X129049758Y-83975912D01*
X129174240Y-83988172D01*
X130638550Y-83985100D01*
X130797300Y-83826350D01*
X130797300Y-82677000D01*
X131051300Y-82677000D01*
X131051300Y-83826350D01*
X131210050Y-83985100D01*
X132674360Y-83988172D01*
X132798842Y-83975912D01*
X132918540Y-83939602D01*
X133028854Y-83880637D01*
X133125545Y-83801285D01*
X133204897Y-83704594D01*
X133263862Y-83594280D01*
X133300172Y-83474582D01*
X133312432Y-83350100D01*
X133309360Y-82835750D01*
X133150610Y-82677000D01*
X131051300Y-82677000D01*
X130797300Y-82677000D01*
X128697990Y-82677000D01*
X128539240Y-82835750D01*
X128536168Y-83350100D01*
X127127000Y-83350100D01*
X127127000Y-81749900D01*
X128536168Y-81749900D01*
X128539240Y-82264250D01*
X128697990Y-82423000D01*
X130797300Y-82423000D01*
X130797300Y-81273650D01*
X131051300Y-81273650D01*
X131051300Y-82423000D01*
X133150610Y-82423000D01*
X133309360Y-82264250D01*
X133312432Y-81749900D01*
X133300172Y-81625418D01*
X133263862Y-81505720D01*
X133204897Y-81395406D01*
X133125545Y-81298715D01*
X133028854Y-81219363D01*
X132918540Y-81160398D01*
X132798842Y-81124088D01*
X132674360Y-81111828D01*
X131210050Y-81114900D01*
X131051300Y-81273650D01*
X130797300Y-81273650D01*
X130638550Y-81114900D01*
X129174240Y-81111828D01*
X129049758Y-81124088D01*
X128930060Y-81160398D01*
X128819746Y-81219363D01*
X128723055Y-81298715D01*
X128643703Y-81395406D01*
X128584738Y-81505720D01*
X128548428Y-81625418D01*
X128536168Y-81749900D01*
X127127000Y-81749900D01*
X127127000Y-79687802D01*
X127314802Y-79500000D01*
X133166580Y-79500000D01*
X133245877Y-79596623D01*
%TA.AperFunction,Conductor*%
D26*
G36*
X133245877Y-79596623D02*
G01*
X133378558Y-79705512D01*
X133529933Y-79786423D01*
X133694184Y-79836248D01*
X133865000Y-79853072D01*
X134465000Y-79853072D01*
X134635816Y-79836248D01*
X134800067Y-79786423D01*
X134951442Y-79705512D01*
X135027500Y-79643093D01*
X135103558Y-79705512D01*
X135254933Y-79786423D01*
X135419184Y-79836248D01*
X135590000Y-79853072D01*
X135763000Y-79853072D01*
X135763000Y-81377500D01*
X135762998Y-81377500D01*
X135762998Y-81536248D01*
X135604250Y-81377500D01*
X135415000Y-81374428D01*
X135290518Y-81386688D01*
X135170820Y-81422998D01*
X135060506Y-81481963D01*
X134963815Y-81561315D01*
X134884463Y-81658006D01*
X134825498Y-81768320D01*
X134789188Y-81888018D01*
X134776928Y-82012500D01*
X134780000Y-82264250D01*
X134938750Y-82423000D01*
X135763000Y-82423000D01*
X135763000Y-82677000D01*
X134938750Y-82677000D01*
X134780000Y-82835750D01*
X134776928Y-83087500D01*
X134789188Y-83211982D01*
X134825498Y-83331680D01*
X134884463Y-83441994D01*
X134923774Y-83489894D01*
X134843577Y-83639933D01*
X134793752Y-83804184D01*
X134776928Y-83975000D01*
X134776928Y-84575000D01*
X134793752Y-84745816D01*
X134843577Y-84910067D01*
X134924488Y-85061442D01*
X135033377Y-85194123D01*
X135130000Y-85273420D01*
X135130001Y-86631580D01*
X135033377Y-86710877D01*
X134924488Y-86843558D01*
X134910355Y-86870000D01*
X133312432Y-86870000D01*
X133312432Y-86829900D01*
X133300172Y-86705418D01*
X133263862Y-86585720D01*
X133204897Y-86475406D01*
X133125545Y-86378715D01*
X133028854Y-86299363D01*
X132918540Y-86240398D01*
X132798842Y-86204088D01*
X132674360Y-86191828D01*
X129174240Y-86191828D01*
X129049758Y-86204088D01*
X128930060Y-86240398D01*
X128819746Y-86299363D01*
X128723055Y-86378715D01*
X128643703Y-86475406D01*
X128584738Y-86585720D01*
X128548428Y-86705418D01*
X128536168Y-86829900D01*
X128536168Y-88430100D01*
X128548428Y-88554582D01*
X128584738Y-88674280D01*
X128643703Y-88784594D01*
X128723055Y-88881285D01*
X128819746Y-88960637D01*
X128930060Y-89019602D01*
X129049758Y-89055912D01*
X129174240Y-89068172D01*
X132674360Y-89068172D01*
X132798842Y-89055912D01*
X132918540Y-89019602D01*
X133028854Y-88960637D01*
X133125545Y-88881285D01*
X133204897Y-88784594D01*
X133263862Y-88674280D01*
X133300172Y-88554582D01*
X133312432Y-88430100D01*
X133312432Y-88390000D01*
X134910355Y-88390000D01*
X134924488Y-88416442D01*
X134986907Y-88492500D01*
X134924488Y-88568558D01*
X134843577Y-88719933D01*
X134793752Y-88884184D01*
X134776928Y-89055000D01*
X134776928Y-89655000D01*
X134793752Y-89825816D01*
X134843577Y-89990067D01*
X134924488Y-90141442D01*
X135033377Y-90274123D01*
X135130000Y-90353420D01*
X135130001Y-91926256D01*
X135062889Y-91881414D01*
X134892729Y-91810932D01*
X134712089Y-91775000D01*
X134527911Y-91775000D01*
X134347271Y-91810932D01*
X134177111Y-91881414D01*
X134074465Y-91950000D01*
X132670920Y-91950000D01*
X132591623Y-91853377D01*
X132458942Y-91744488D01*
X132307567Y-91663577D01*
X132143316Y-91613752D01*
X131972500Y-91596928D01*
X131372500Y-91596928D01*
X131201684Y-91613752D01*
X131037433Y-91663577D01*
X130886058Y-91744488D01*
X130810000Y-91806907D01*
X130733942Y-91744488D01*
X130582567Y-91663577D01*
X130418316Y-91613752D01*
X130247500Y-91596928D01*
X129647500Y-91596928D01*
X129476684Y-91613752D01*
X129312433Y-91663577D01*
X129161058Y-91744488D01*
X129028377Y-91853377D01*
X128949080Y-91950000D01*
X128307322Y-91950000D01*
X128269999Y-91946324D01*
X128232676Y-91950000D01*
X128232667Y-91950000D01*
X128121014Y-91960997D01*
X127977753Y-92004454D01*
X127845724Y-92075026D01*
X127729999Y-92169999D01*
X127706201Y-92198997D01*
X127127000Y-92778198D01*
X127127000Y-83350100D01*
X128536168Y-83350100D01*
X128548428Y-83474582D01*
X128584738Y-83594280D01*
X128643703Y-83704594D01*
X128723055Y-83801285D01*
X128819746Y-83880637D01*
X128930060Y-83939602D01*
X129049758Y-83975912D01*
X129174240Y-83988172D01*
X130638550Y-83985100D01*
X130797300Y-83826350D01*
X130797300Y-82677000D01*
X131051300Y-82677000D01*
X131051300Y-83826350D01*
X131210050Y-83985100D01*
X132674360Y-83988172D01*
X132798842Y-83975912D01*
X132918540Y-83939602D01*
X133028854Y-83880637D01*
X133125545Y-83801285D01*
X133204897Y-83704594D01*
X133263862Y-83594280D01*
X133300172Y-83474582D01*
X133312432Y-83350100D01*
X133309360Y-82835750D01*
X133150610Y-82677000D01*
X131051300Y-82677000D01*
X130797300Y-82677000D01*
X128697990Y-82677000D01*
X128539240Y-82835750D01*
X128536168Y-83350100D01*
X127127000Y-83350100D01*
X127127000Y-81749900D01*
X128536168Y-81749900D01*
X128539240Y-82264250D01*
X128697990Y-82423000D01*
X130797300Y-82423000D01*
X130797300Y-81273650D01*
X131051300Y-81273650D01*
X131051300Y-82423000D01*
X133150610Y-82423000D01*
X133309360Y-82264250D01*
X133312432Y-81749900D01*
X133300172Y-81625418D01*
X133263862Y-81505720D01*
X133204897Y-81395406D01*
X133125545Y-81298715D01*
X133028854Y-81219363D01*
X132918540Y-81160398D01*
X132798842Y-81124088D01*
X132674360Y-81111828D01*
X131210050Y-81114900D01*
X131051300Y-81273650D01*
X130797300Y-81273650D01*
X130638550Y-81114900D01*
X129174240Y-81111828D01*
X129049758Y-81124088D01*
X128930060Y-81160398D01*
X128819746Y-81219363D01*
X128723055Y-81298715D01*
X128643703Y-81395406D01*
X128584738Y-81505720D01*
X128548428Y-81625418D01*
X128536168Y-81749900D01*
X127127000Y-81749900D01*
X127127000Y-79687802D01*
X127314802Y-79500000D01*
X133166580Y-79500000D01*
X133245877Y-79596623D01*
G37*
%TD.AperFunction*%
D25*
X135763000Y-64005000D02*
X135762998Y-64005000D01*
X135762998Y-64163748D01*
X135604250Y-64005000D01*
X135415000Y-64001928D01*
X135290518Y-64014188D01*
X135170820Y-64050498D01*
X135060506Y-64109463D01*
X134963815Y-64188815D01*
X134884463Y-64285506D01*
X134825498Y-64395820D01*
X134789188Y-64515518D01*
X134776928Y-64640000D01*
X134780000Y-64891750D01*
X134938750Y-65050500D01*
X135763000Y-65050500D01*
X135763000Y-65304500D01*
X134938750Y-65304500D01*
X134780000Y-65463250D01*
X134776928Y-65715000D01*
X134789188Y-65839482D01*
X134825498Y-65959180D01*
X134884463Y-66069494D01*
X134923774Y-66117394D01*
X134843577Y-66267433D01*
X134793752Y-66431684D01*
X134776928Y-66602500D01*
X134776928Y-67202500D01*
X134793752Y-67373316D01*
X134843577Y-67537567D01*
X134924488Y-67688942D01*
X135033377Y-67821623D01*
X135130000Y-67900920D01*
X135130001Y-67989080D01*
X135033377Y-68068377D01*
X134924488Y-68201058D01*
X134910355Y-68227500D01*
X131824122Y-68227500D01*
X131786799Y-68223824D01*
X131749476Y-68227500D01*
X131749467Y-68227500D01*
X131637814Y-68238497D01*
X131494553Y-68281954D01*
X131362524Y-68352526D01*
X131290264Y-68411828D01*
X129174240Y-68411828D01*
X129049758Y-68424088D01*
X128930060Y-68460398D01*
X128819746Y-68519363D01*
X128723055Y-68598715D01*
X128643703Y-68695406D01*
X128584738Y-68805720D01*
X128548428Y-68925418D01*
X128536168Y-69049900D01*
X128536168Y-70650100D01*
X128548428Y-70774582D01*
X128584738Y-70894280D01*
X128643703Y-71004594D01*
X128723055Y-71101285D01*
X128819746Y-71180637D01*
X128930060Y-71239602D01*
X129049758Y-71275912D01*
X129174240Y-71288172D01*
X132674360Y-71288172D01*
X132798842Y-71275912D01*
X132918540Y-71239602D01*
X133028854Y-71180637D01*
X133125545Y-71101285D01*
X133204897Y-71004594D01*
X133263862Y-70894280D01*
X133300172Y-70774582D01*
X133312432Y-70650100D01*
X133312432Y-69747500D01*
X134910355Y-69747500D01*
X134924488Y-69773942D01*
X134986907Y-69850000D01*
X134924488Y-69926058D01*
X134843577Y-70077433D01*
X134793752Y-70241684D01*
X134776928Y-70412500D01*
X134776928Y-71012500D01*
X134793752Y-71183316D01*
X134843577Y-71347567D01*
X134924488Y-71498942D01*
X135033377Y-71631623D01*
X135166058Y-71740512D01*
X135317433Y-71821423D01*
X135481684Y-71871248D01*
X135652500Y-71888072D01*
X135763000Y-71888072D01*
X135763000Y-72731944D01*
X135617271Y-72760932D01*
X135447111Y-72831414D01*
X135293972Y-72933738D01*
X135163738Y-73063972D01*
X135061414Y-73217111D01*
X134990932Y-73387271D01*
X134955000Y-73567911D01*
X134955000Y-73752089D01*
X134990932Y-73932729D01*
X135061414Y-74102889D01*
X135106256Y-74170000D01*
X133940920Y-74170000D01*
X133861623Y-74073377D01*
X133728942Y-73964488D01*
X133577567Y-73883577D01*
X133413316Y-73833752D01*
X133242500Y-73816928D01*
X132642500Y-73816928D01*
X132471684Y-73833752D01*
X132307433Y-73883577D01*
X132156058Y-73964488D01*
X132080000Y-74026907D01*
X132003942Y-73964488D01*
X131852567Y-73883577D01*
X131688316Y-73833752D01*
X131517500Y-73816928D01*
X131179230Y-73816928D01*
X130511304Y-73149003D01*
X130487501Y-73119999D01*
X130371776Y-73025026D01*
X130239747Y-72954454D01*
X130096486Y-72910997D01*
X129984833Y-72900000D01*
X129984822Y-72900000D01*
X129947500Y-72896324D01*
X129910178Y-72900000D01*
X127314802Y-72900000D01*
X127127000Y-72712198D01*
X127127000Y-65570100D01*
X128536168Y-65570100D01*
X128548428Y-65694582D01*
X128584738Y-65814280D01*
X128643703Y-65924594D01*
X128723055Y-66021285D01*
X128819746Y-66100637D01*
X128930060Y-66159602D01*
X129049758Y-66195912D01*
X129174240Y-66208172D01*
X130638550Y-66205100D01*
X130797300Y-66046350D01*
X130797300Y-64897000D01*
X131051300Y-64897000D01*
X131051300Y-66046350D01*
X131210050Y-66205100D01*
X132674360Y-66208172D01*
X132798842Y-66195912D01*
X132918540Y-66159602D01*
X133028854Y-66100637D01*
X133125545Y-66021285D01*
X133204897Y-65924594D01*
X133263862Y-65814280D01*
X133300172Y-65694582D01*
X133312432Y-65570100D01*
X133309360Y-65055750D01*
X133150610Y-64897000D01*
X131051300Y-64897000D01*
X130797300Y-64897000D01*
X128697990Y-64897000D01*
X128539240Y-65055750D01*
X128536168Y-65570100D01*
X127127000Y-65570100D01*
X127127000Y-63969900D01*
X128536168Y-63969900D01*
X128539240Y-64484250D01*
X128697990Y-64643000D01*
X130797300Y-64643000D01*
X130797300Y-63493650D01*
X131051300Y-63493650D01*
X131051300Y-64643000D01*
X133150610Y-64643000D01*
X133309360Y-64484250D01*
X133312432Y-63969900D01*
X133300172Y-63845418D01*
X133263862Y-63725720D01*
X133204897Y-63615406D01*
X133125545Y-63518715D01*
X133028854Y-63439363D01*
X132918540Y-63380398D01*
X132798842Y-63344088D01*
X132674360Y-63331828D01*
X131210050Y-63334900D01*
X131051300Y-63493650D01*
X130797300Y-63493650D01*
X130638550Y-63334900D01*
X129174240Y-63331828D01*
X129049758Y-63344088D01*
X128930060Y-63380398D01*
X128819746Y-63439363D01*
X128723055Y-63518715D01*
X128643703Y-63615406D01*
X128584738Y-63725720D01*
X128548428Y-63845418D01*
X128536168Y-63969900D01*
X127127000Y-63969900D01*
X127127000Y-61087000D01*
X135763000Y-61087000D01*
X135763000Y-64005000D01*
%TA.AperFunction,Conductor*%
D26*
G36*
X135763000Y-64005000D02*
G01*
X135762998Y-64005000D01*
X135762998Y-64163748D01*
X135604250Y-64005000D01*
X135415000Y-64001928D01*
X135290518Y-64014188D01*
X135170820Y-64050498D01*
X135060506Y-64109463D01*
X134963815Y-64188815D01*
X134884463Y-64285506D01*
X134825498Y-64395820D01*
X134789188Y-64515518D01*
X134776928Y-64640000D01*
X134780000Y-64891750D01*
X134938750Y-65050500D01*
X135763000Y-65050500D01*
X135763000Y-65304500D01*
X134938750Y-65304500D01*
X134780000Y-65463250D01*
X134776928Y-65715000D01*
X134789188Y-65839482D01*
X134825498Y-65959180D01*
X134884463Y-66069494D01*
X134923774Y-66117394D01*
X134843577Y-66267433D01*
X134793752Y-66431684D01*
X134776928Y-66602500D01*
X134776928Y-67202500D01*
X134793752Y-67373316D01*
X134843577Y-67537567D01*
X134924488Y-67688942D01*
X135033377Y-67821623D01*
X135130000Y-67900920D01*
X135130001Y-67989080D01*
X135033377Y-68068377D01*
X134924488Y-68201058D01*
X134910355Y-68227500D01*
X131824122Y-68227500D01*
X131786799Y-68223824D01*
X131749476Y-68227500D01*
X131749467Y-68227500D01*
X131637814Y-68238497D01*
X131494553Y-68281954D01*
X131362524Y-68352526D01*
X131290264Y-68411828D01*
X129174240Y-68411828D01*
X129049758Y-68424088D01*
X128930060Y-68460398D01*
X128819746Y-68519363D01*
X128723055Y-68598715D01*
X128643703Y-68695406D01*
X128584738Y-68805720D01*
X128548428Y-68925418D01*
X128536168Y-69049900D01*
X128536168Y-70650100D01*
X128548428Y-70774582D01*
X128584738Y-70894280D01*
X128643703Y-71004594D01*
X128723055Y-71101285D01*
X128819746Y-71180637D01*
X128930060Y-71239602D01*
X129049758Y-71275912D01*
X129174240Y-71288172D01*
X132674360Y-71288172D01*
X132798842Y-71275912D01*
X132918540Y-71239602D01*
X133028854Y-71180637D01*
X133125545Y-71101285D01*
X133204897Y-71004594D01*
X133263862Y-70894280D01*
X133300172Y-70774582D01*
X133312432Y-70650100D01*
X133312432Y-69747500D01*
X134910355Y-69747500D01*
X134924488Y-69773942D01*
X134986907Y-69850000D01*
X134924488Y-69926058D01*
X134843577Y-70077433D01*
X134793752Y-70241684D01*
X134776928Y-70412500D01*
X134776928Y-71012500D01*
X134793752Y-71183316D01*
X134843577Y-71347567D01*
X134924488Y-71498942D01*
X135033377Y-71631623D01*
X135166058Y-71740512D01*
X135317433Y-71821423D01*
X135481684Y-71871248D01*
X135652500Y-71888072D01*
X135763000Y-71888072D01*
X135763000Y-72731944D01*
X135617271Y-72760932D01*
X135447111Y-72831414D01*
X135293972Y-72933738D01*
X135163738Y-73063972D01*
X135061414Y-73217111D01*
X134990932Y-73387271D01*
X134955000Y-73567911D01*
X134955000Y-73752089D01*
X134990932Y-73932729D01*
X135061414Y-74102889D01*
X135106256Y-74170000D01*
X133940920Y-74170000D01*
X133861623Y-74073377D01*
X133728942Y-73964488D01*
X133577567Y-73883577D01*
X133413316Y-73833752D01*
X133242500Y-73816928D01*
X132642500Y-73816928D01*
X132471684Y-73833752D01*
X132307433Y-73883577D01*
X132156058Y-73964488D01*
X132080000Y-74026907D01*
X132003942Y-73964488D01*
X131852567Y-73883577D01*
X131688316Y-73833752D01*
X131517500Y-73816928D01*
X131179230Y-73816928D01*
X130511304Y-73149003D01*
X130487501Y-73119999D01*
X130371776Y-73025026D01*
X130239747Y-72954454D01*
X130096486Y-72910997D01*
X129984833Y-72900000D01*
X129984822Y-72900000D01*
X129947500Y-72896324D01*
X129910178Y-72900000D01*
X127314802Y-72900000D01*
X127127000Y-72712198D01*
X127127000Y-65570100D01*
X128536168Y-65570100D01*
X128548428Y-65694582D01*
X128584738Y-65814280D01*
X128643703Y-65924594D01*
X128723055Y-66021285D01*
X128819746Y-66100637D01*
X128930060Y-66159602D01*
X129049758Y-66195912D01*
X129174240Y-66208172D01*
X130638550Y-66205100D01*
X130797300Y-66046350D01*
X130797300Y-64897000D01*
X131051300Y-64897000D01*
X131051300Y-66046350D01*
X131210050Y-66205100D01*
X132674360Y-66208172D01*
X132798842Y-66195912D01*
X132918540Y-66159602D01*
X133028854Y-66100637D01*
X133125545Y-66021285D01*
X133204897Y-65924594D01*
X133263862Y-65814280D01*
X133300172Y-65694582D01*
X133312432Y-65570100D01*
X133309360Y-65055750D01*
X133150610Y-64897000D01*
X131051300Y-64897000D01*
X130797300Y-64897000D01*
X128697990Y-64897000D01*
X128539240Y-65055750D01*
X128536168Y-65570100D01*
X127127000Y-65570100D01*
X127127000Y-63969900D01*
X128536168Y-63969900D01*
X128539240Y-64484250D01*
X128697990Y-64643000D01*
X130797300Y-64643000D01*
X130797300Y-63493650D01*
X131051300Y-63493650D01*
X131051300Y-64643000D01*
X133150610Y-64643000D01*
X133309360Y-64484250D01*
X133312432Y-63969900D01*
X133300172Y-63845418D01*
X133263862Y-63725720D01*
X133204897Y-63615406D01*
X133125545Y-63518715D01*
X133028854Y-63439363D01*
X132918540Y-63380398D01*
X132798842Y-63344088D01*
X132674360Y-63331828D01*
X131210050Y-63334900D01*
X131051300Y-63493650D01*
X130797300Y-63493650D01*
X130638550Y-63334900D01*
X129174240Y-63331828D01*
X129049758Y-63344088D01*
X128930060Y-63380398D01*
X128819746Y-63439363D01*
X128723055Y-63518715D01*
X128643703Y-63615406D01*
X128584738Y-63725720D01*
X128548428Y-63845418D01*
X128536168Y-63969900D01*
X127127000Y-63969900D01*
X127127000Y-61087000D01*
X135763000Y-61087000D01*
X135763000Y-64005000D01*
G37*
%TD.AperFunction*%
%TD*%
D25*
%TO.N,12V*%
X114173000Y-86856182D02*
X110727916Y-90301267D01*
X110669340Y-90349339D01*
X110621270Y-90407913D01*
X110477519Y-90583074D01*
X110334984Y-90849739D01*
X110247211Y-91139088D01*
X110217573Y-91440000D01*
X110225001Y-91515416D01*
X110225000Y-96393000D01*
X108179504Y-96393000D01*
X107913491Y-96126987D01*
X107596566Y-95915225D01*
X107244419Y-95769361D01*
X106870581Y-95695000D01*
X106489419Y-95695000D01*
X106115581Y-95769361D01*
X105763434Y-95915225D01*
X105494381Y-96095000D01*
X102075818Y-96095000D01*
X101865000Y-95884183D01*
X101865000Y-93979224D01*
X105510381Y-93979224D01*
X105642317Y-94274312D01*
X105983045Y-94445159D01*
X106350557Y-94546250D01*
X106730729Y-94573701D01*
X107108951Y-94526457D01*
X107470690Y-94406333D01*
X107717683Y-94274312D01*
X107849619Y-93979224D01*
X106680000Y-92809605D01*
X105510381Y-93979224D01*
X101865000Y-93979224D01*
X101865000Y-92680729D01*
X104736299Y-92680729D01*
X104783543Y-93058951D01*
X104903667Y-93420690D01*
X105035688Y-93667683D01*
X105330776Y-93799619D01*
X106500395Y-92630000D01*
X106859605Y-92630000D01*
X108029224Y-93799619D01*
X108324312Y-93667683D01*
X108495159Y-93326955D01*
X108596250Y-92959443D01*
X108623701Y-92579271D01*
X108576457Y-92201049D01*
X108456333Y-91839310D01*
X108324312Y-91592317D01*
X108029224Y-91460381D01*
X106859605Y-92630000D01*
X106500395Y-92630000D01*
X105330776Y-91460381D01*
X105035688Y-91592317D01*
X104864841Y-91933045D01*
X104763750Y-92300557D01*
X104736299Y-92680729D01*
X101865000Y-92680729D01*
X101865000Y-91280776D01*
X105510381Y-91280776D01*
X106680000Y-92450395D01*
X107849619Y-91280776D01*
X107717683Y-90985688D01*
X107376955Y-90814841D01*
X107009443Y-90713750D01*
X106629271Y-90686299D01*
X106251049Y-90733543D01*
X105889310Y-90853667D01*
X105642317Y-90985688D01*
X105510381Y-91280776D01*
X101865000Y-91280776D01*
X101865000Y-86330000D01*
X104741928Y-86330000D01*
X104741928Y-88930000D01*
X104754188Y-89054482D01*
X104790498Y-89174180D01*
X104849463Y-89284494D01*
X104928815Y-89381185D01*
X105025506Y-89460537D01*
X105135820Y-89519502D01*
X105255518Y-89555812D01*
X105380000Y-89568072D01*
X107980000Y-89568072D01*
X108104482Y-89555812D01*
X108224180Y-89519502D01*
X108334494Y-89460537D01*
X108431185Y-89381185D01*
X108510537Y-89284494D01*
X108569502Y-89174180D01*
X108605812Y-89054482D01*
X108618072Y-88930000D01*
X108618072Y-86330000D01*
X108605812Y-86205518D01*
X108569502Y-86085820D01*
X108510537Y-85975506D01*
X108431185Y-85878815D01*
X108334494Y-85799463D01*
X108224180Y-85740498D01*
X108104482Y-85704188D01*
X107980000Y-85691928D01*
X105380000Y-85691928D01*
X105255518Y-85704188D01*
X105135820Y-85740498D01*
X105025506Y-85799463D01*
X104928815Y-85878815D01*
X104849463Y-85975506D01*
X104790498Y-86085820D01*
X104754188Y-86205518D01*
X104741928Y-86330000D01*
X101865000Y-86330000D01*
X101865000Y-82815000D01*
X110414592Y-82815000D01*
X110490000Y-82822427D01*
X110565408Y-82815000D01*
X110790913Y-82792790D01*
X111080261Y-82705017D01*
X111346927Y-82562481D01*
X111580661Y-82370661D01*
X111772481Y-82136927D01*
X111915017Y-81870261D01*
X112002790Y-81580913D01*
X112032427Y-81280000D01*
X112025000Y-81204592D01*
X112025000Y-79375817D01*
X112533817Y-78867000D01*
X114173000Y-78867000D01*
X114173000Y-86856182D01*
%TA.AperFunction,Conductor*%
D26*
G36*
X114173000Y-86856182D02*
G01*
X110727916Y-90301267D01*
X110669340Y-90349339D01*
X110621270Y-90407913D01*
X110477519Y-90583074D01*
X110334984Y-90849739D01*
X110247211Y-91139088D01*
X110217573Y-91440000D01*
X110225001Y-91515416D01*
X110225000Y-96393000D01*
X108179504Y-96393000D01*
X107913491Y-96126987D01*
X107596566Y-95915225D01*
X107244419Y-95769361D01*
X106870581Y-95695000D01*
X106489419Y-95695000D01*
X106115581Y-95769361D01*
X105763434Y-95915225D01*
X105494381Y-96095000D01*
X102075818Y-96095000D01*
X101865000Y-95884183D01*
X101865000Y-93979224D01*
X105510381Y-93979224D01*
X105642317Y-94274312D01*
X105983045Y-94445159D01*
X106350557Y-94546250D01*
X106730729Y-94573701D01*
X107108951Y-94526457D01*
X107470690Y-94406333D01*
X107717683Y-94274312D01*
X107849619Y-93979224D01*
X106680000Y-92809605D01*
X105510381Y-93979224D01*
X101865000Y-93979224D01*
X101865000Y-92680729D01*
X104736299Y-92680729D01*
X104783543Y-93058951D01*
X104903667Y-93420690D01*
X105035688Y-93667683D01*
X105330776Y-93799619D01*
X106500395Y-92630000D01*
X106859605Y-92630000D01*
X108029224Y-93799619D01*
X108324312Y-93667683D01*
X108495159Y-93326955D01*
X108596250Y-92959443D01*
X108623701Y-92579271D01*
X108576457Y-92201049D01*
X108456333Y-91839310D01*
X108324312Y-91592317D01*
X108029224Y-91460381D01*
X106859605Y-92630000D01*
X106500395Y-92630000D01*
X105330776Y-91460381D01*
X105035688Y-91592317D01*
X104864841Y-91933045D01*
X104763750Y-92300557D01*
X104736299Y-92680729D01*
X101865000Y-92680729D01*
X101865000Y-91280776D01*
X105510381Y-91280776D01*
X106680000Y-92450395D01*
X107849619Y-91280776D01*
X107717683Y-90985688D01*
X107376955Y-90814841D01*
X107009443Y-90713750D01*
X106629271Y-90686299D01*
X106251049Y-90733543D01*
X105889310Y-90853667D01*
X105642317Y-90985688D01*
X105510381Y-91280776D01*
X101865000Y-91280776D01*
X101865000Y-86330000D01*
X104741928Y-86330000D01*
X104741928Y-88930000D01*
X104754188Y-89054482D01*
X104790498Y-89174180D01*
X104849463Y-89284494D01*
X104928815Y-89381185D01*
X105025506Y-89460537D01*
X105135820Y-89519502D01*
X105255518Y-89555812D01*
X105380000Y-89568072D01*
X107980000Y-89568072D01*
X108104482Y-89555812D01*
X108224180Y-89519502D01*
X108334494Y-89460537D01*
X108431185Y-89381185D01*
X108510537Y-89284494D01*
X108569502Y-89174180D01*
X108605812Y-89054482D01*
X108618072Y-88930000D01*
X108618072Y-86330000D01*
X108605812Y-86205518D01*
X108569502Y-86085820D01*
X108510537Y-85975506D01*
X108431185Y-85878815D01*
X108334494Y-85799463D01*
X108224180Y-85740498D01*
X108104482Y-85704188D01*
X107980000Y-85691928D01*
X105380000Y-85691928D01*
X105255518Y-85704188D01*
X105135820Y-85740498D01*
X105025506Y-85799463D01*
X104928815Y-85878815D01*
X104849463Y-85975506D01*
X104790498Y-86085820D01*
X104754188Y-86205518D01*
X104741928Y-86330000D01*
X101865000Y-86330000D01*
X101865000Y-82815000D01*
X110414592Y-82815000D01*
X110490000Y-82822427D01*
X110565408Y-82815000D01*
X110790913Y-82792790D01*
X111080261Y-82705017D01*
X111346927Y-82562481D01*
X111580661Y-82370661D01*
X111772481Y-82136927D01*
X111915017Y-81870261D01*
X112002790Y-81580913D01*
X112032427Y-81280000D01*
X112025000Y-81204592D01*
X112025000Y-79375817D01*
X112533817Y-78867000D01*
X114173000Y-78867000D01*
X114173000Y-86856182D01*
G37*
%TD.AperFunction*%
%TD*%
M02*
