G04 #@! TF.GenerationSoftware,KiCad,Pcbnew,5.1.9-73d0e3b20d~88~ubuntu20.04.1*
G04 #@! TF.CreationDate,2021-01-07T10:05:18+03:00*
G04 #@! TF.ProjectId,RGBschildSOT223,52474273-6368-4696-9c64-534f54323233,rev?*
G04 #@! TF.SameCoordinates,Original*
G04 #@! TF.FileFunction,Legend,Top*
G04 #@! TF.FilePolarity,Positive*
%FSLAX46Y46*%
G04 Gerber Fmt 4.6, Leading zero omitted, Abs format (unit mm)*
G04 Created by KiCad (PCBNEW 5.1.9-73d0e3b20d~88~ubuntu20.04.1) date 2021-01-07 10:05:18*
%MOMM*%
%LPD*%
G01*
G04 APERTURE LIST*
%ADD10C,0.150000*%
G04 #@! TA.AperFunction,Profile*
%ADD11C,0.100000*%
G04 #@! TD*
%ADD12C,0.120000*%
G04 APERTURE END LIST*
D10*
X126325714Y-79462380D02*
X126516190Y-79462380D01*
X126611428Y-79510000D01*
X126706666Y-79605238D01*
X126754285Y-79795714D01*
X126754285Y-80129047D01*
X126706666Y-80319523D01*
X126611428Y-80414761D01*
X126516190Y-80462380D01*
X126325714Y-80462380D01*
X126230476Y-80414761D01*
X126135238Y-80319523D01*
X126087619Y-80129047D01*
X126087619Y-79795714D01*
X126135238Y-79605238D01*
X126230476Y-79510000D01*
X126325714Y-79462380D01*
X127182857Y-79462380D02*
X127182857Y-80271904D01*
X127230476Y-80367142D01*
X127278095Y-80414761D01*
X127373333Y-80462380D01*
X127563809Y-80462380D01*
X127659047Y-80414761D01*
X127706666Y-80367142D01*
X127754285Y-80271904D01*
X127754285Y-79462380D01*
X128087619Y-79462380D02*
X128659047Y-79462380D01*
X128373333Y-80462380D02*
X128373333Y-79462380D01*
X128992380Y-80081428D02*
X129754285Y-80081428D01*
X130230476Y-79795714D02*
X130992380Y-80081428D01*
X130230476Y-80367142D01*
X131468571Y-80462380D02*
X131468571Y-79462380D01*
X131706666Y-79462380D01*
X131849523Y-79510000D01*
X131944761Y-79605238D01*
X131992380Y-79700476D01*
X132040000Y-79890952D01*
X132040000Y-80033809D01*
X131992380Y-80224285D01*
X131944761Y-80319523D01*
X131849523Y-80414761D01*
X131706666Y-80462380D01*
X131468571Y-80462380D01*
X132420952Y-79557619D02*
X132468571Y-79510000D01*
X132563809Y-79462380D01*
X132801904Y-79462380D01*
X132897142Y-79510000D01*
X132944761Y-79557619D01*
X132992380Y-79652857D01*
X132992380Y-79748095D01*
X132944761Y-79890952D01*
X132373333Y-80462380D01*
X132992380Y-80462380D01*
X129413333Y-84717380D02*
X129413333Y-83717380D01*
X130460952Y-84717380D02*
X130127619Y-84241190D01*
X129889523Y-84717380D02*
X129889523Y-83717380D01*
X130270476Y-83717380D01*
X130365714Y-83765000D01*
X130413333Y-83812619D01*
X130460952Y-83907857D01*
X130460952Y-84050714D01*
X130413333Y-84145952D01*
X130365714Y-84193571D01*
X130270476Y-84241190D01*
X129889523Y-84241190D01*
X132080000Y-84669761D02*
X131984761Y-84717380D01*
X131794285Y-84717380D01*
X131699047Y-84669761D01*
X131651428Y-84622142D01*
X131603809Y-84526904D01*
X131603809Y-84241190D01*
X131651428Y-84145952D01*
X131699047Y-84098333D01*
X131794285Y-84050714D01*
X131984761Y-84050714D01*
X132080000Y-84098333D01*
X132651428Y-84717380D02*
X132556190Y-84669761D01*
X132508571Y-84622142D01*
X132460952Y-84526904D01*
X132460952Y-84241190D01*
X132508571Y-84145952D01*
X132556190Y-84098333D01*
X132651428Y-84050714D01*
X132794285Y-84050714D01*
X132889523Y-84098333D01*
X132937142Y-84145952D01*
X132984761Y-84241190D01*
X132984761Y-84526904D01*
X132937142Y-84622142D01*
X132889523Y-84669761D01*
X132794285Y-84717380D01*
X132651428Y-84717380D01*
X133413333Y-84050714D02*
X133413333Y-84717380D01*
X133413333Y-84145952D02*
X133460952Y-84098333D01*
X133556190Y-84050714D01*
X133699047Y-84050714D01*
X133794285Y-84098333D01*
X133841904Y-84193571D01*
X133841904Y-84717380D01*
X134318095Y-84050714D02*
X134318095Y-84717380D01*
X134318095Y-84145952D02*
X134365714Y-84098333D01*
X134460952Y-84050714D01*
X134603809Y-84050714D01*
X134699047Y-84098333D01*
X134746666Y-84193571D01*
X134746666Y-84717380D01*
X129365714Y-85367380D02*
X129699047Y-86367380D01*
X130032380Y-85367380D01*
X130318095Y-86319761D02*
X130460952Y-86367380D01*
X130699047Y-86367380D01*
X130794285Y-86319761D01*
X130841904Y-86272142D01*
X130889523Y-86176904D01*
X130889523Y-86081666D01*
X130841904Y-85986428D01*
X130794285Y-85938809D01*
X130699047Y-85891190D01*
X130508571Y-85843571D01*
X130413333Y-85795952D01*
X130365714Y-85748333D01*
X130318095Y-85653095D01*
X130318095Y-85557857D01*
X130365714Y-85462619D01*
X130413333Y-85415000D01*
X130508571Y-85367380D01*
X130746666Y-85367380D01*
X130889523Y-85415000D01*
X131841904Y-86367380D02*
X131270476Y-86367380D01*
X131556190Y-86367380D02*
X131556190Y-85367380D01*
X131460952Y-85510238D01*
X131365714Y-85605476D01*
X131270476Y-85653095D01*
X132413333Y-85795952D02*
X132318095Y-85748333D01*
X132270476Y-85700714D01*
X132222857Y-85605476D01*
X132222857Y-85557857D01*
X132270476Y-85462619D01*
X132318095Y-85415000D01*
X132413333Y-85367380D01*
X132603809Y-85367380D01*
X132699047Y-85415000D01*
X132746666Y-85462619D01*
X132794285Y-85557857D01*
X132794285Y-85605476D01*
X132746666Y-85700714D01*
X132699047Y-85748333D01*
X132603809Y-85795952D01*
X132413333Y-85795952D01*
X132318095Y-85843571D01*
X132270476Y-85891190D01*
X132222857Y-85986428D01*
X132222857Y-86176904D01*
X132270476Y-86272142D01*
X132318095Y-86319761D01*
X132413333Y-86367380D01*
X132603809Y-86367380D01*
X132699047Y-86319761D01*
X132746666Y-86272142D01*
X132794285Y-86176904D01*
X132794285Y-85986428D01*
X132746666Y-85891190D01*
X132699047Y-85843571D01*
X132603809Y-85795952D01*
X133127619Y-85367380D02*
X133746666Y-85367380D01*
X133413333Y-85748333D01*
X133556190Y-85748333D01*
X133651428Y-85795952D01*
X133699047Y-85843571D01*
X133746666Y-85938809D01*
X133746666Y-86176904D01*
X133699047Y-86272142D01*
X133651428Y-86319761D01*
X133556190Y-86367380D01*
X133270476Y-86367380D01*
X133175238Y-86319761D01*
X133127619Y-86272142D01*
X134318095Y-85795952D02*
X134222857Y-85748333D01*
X134175238Y-85700714D01*
X134127619Y-85605476D01*
X134127619Y-85557857D01*
X134175238Y-85462619D01*
X134222857Y-85415000D01*
X134318095Y-85367380D01*
X134508571Y-85367380D01*
X134603809Y-85415000D01*
X134651428Y-85462619D01*
X134699047Y-85557857D01*
X134699047Y-85605476D01*
X134651428Y-85700714D01*
X134603809Y-85748333D01*
X134508571Y-85795952D01*
X134318095Y-85795952D01*
X134222857Y-85843571D01*
X134175238Y-85891190D01*
X134127619Y-85986428D01*
X134127619Y-86176904D01*
X134175238Y-86272142D01*
X134222857Y-86319761D01*
X134318095Y-86367380D01*
X134508571Y-86367380D01*
X134603809Y-86319761D01*
X134651428Y-86272142D01*
X134699047Y-86176904D01*
X134699047Y-85986428D01*
X134651428Y-85891190D01*
X134603809Y-85843571D01*
X134508571Y-85795952D01*
X138430000Y-68580000D02*
X138430000Y-69850000D01*
X156210000Y-68580000D02*
X138430000Y-68580000D01*
X156210000Y-69850000D02*
X156210000Y-68580000D01*
X159202380Y-96891904D02*
X158202380Y-96891904D01*
X158202380Y-96510952D01*
X158250000Y-96415714D01*
X158297619Y-96368095D01*
X158392857Y-96320476D01*
X158535714Y-96320476D01*
X158630952Y-96368095D01*
X158678571Y-96415714D01*
X158726190Y-96510952D01*
X158726190Y-96891904D01*
X159202380Y-95749047D02*
X159154761Y-95844285D01*
X159107142Y-95891904D01*
X159011904Y-95939523D01*
X158726190Y-95939523D01*
X158630952Y-95891904D01*
X158583333Y-95844285D01*
X158535714Y-95749047D01*
X158535714Y-95606190D01*
X158583333Y-95510952D01*
X158630952Y-95463333D01*
X158726190Y-95415714D01*
X159011904Y-95415714D01*
X159107142Y-95463333D01*
X159154761Y-95510952D01*
X159202380Y-95606190D01*
X159202380Y-95749047D01*
X158535714Y-95082380D02*
X159202380Y-94891904D01*
X158726190Y-94701428D01*
X159202380Y-94510952D01*
X158535714Y-94320476D01*
X159154761Y-93558571D02*
X159202380Y-93653809D01*
X159202380Y-93844285D01*
X159154761Y-93939523D01*
X159059523Y-93987142D01*
X158678571Y-93987142D01*
X158583333Y-93939523D01*
X158535714Y-93844285D01*
X158535714Y-93653809D01*
X158583333Y-93558571D01*
X158678571Y-93510952D01*
X158773809Y-93510952D01*
X158869047Y-93987142D01*
X159202380Y-93082380D02*
X158535714Y-93082380D01*
X158726190Y-93082380D02*
X158630952Y-93034761D01*
X158583333Y-92987142D01*
X158535714Y-92891904D01*
X158535714Y-92796666D01*
X159202380Y-91701428D02*
X158535714Y-91701428D01*
X158630952Y-91701428D02*
X158583333Y-91653809D01*
X158535714Y-91558571D01*
X158535714Y-91415714D01*
X158583333Y-91320476D01*
X158678571Y-91272857D01*
X159202380Y-91272857D01*
X158678571Y-91272857D02*
X158583333Y-91225238D01*
X158535714Y-91130000D01*
X158535714Y-90987142D01*
X158583333Y-90891904D01*
X158678571Y-90844285D01*
X159202380Y-90844285D01*
X159202380Y-90225238D02*
X159154761Y-90320476D01*
X159107142Y-90368095D01*
X159011904Y-90415714D01*
X158726190Y-90415714D01*
X158630952Y-90368095D01*
X158583333Y-90320476D01*
X158535714Y-90225238D01*
X158535714Y-90082380D01*
X158583333Y-89987142D01*
X158630952Y-89939523D01*
X158726190Y-89891904D01*
X159011904Y-89891904D01*
X159107142Y-89939523D01*
X159154761Y-89987142D01*
X159202380Y-90082380D01*
X159202380Y-90225238D01*
X158535714Y-89463333D02*
X159202380Y-89463333D01*
X158630952Y-89463333D02*
X158583333Y-89415714D01*
X158535714Y-89320476D01*
X158535714Y-89177619D01*
X158583333Y-89082380D01*
X158678571Y-89034761D01*
X159202380Y-89034761D01*
X159202380Y-88558571D02*
X158535714Y-88558571D01*
X158202380Y-88558571D02*
X158250000Y-88606190D01*
X158297619Y-88558571D01*
X158250000Y-88510952D01*
X158202380Y-88558571D01*
X158297619Y-88558571D01*
X158535714Y-88225238D02*
X158535714Y-87844285D01*
X158202380Y-88082380D02*
X159059523Y-88082380D01*
X159154761Y-88034761D01*
X159202380Y-87939523D01*
X159202380Y-87844285D01*
X159202380Y-87368095D02*
X159154761Y-87463333D01*
X159107142Y-87510952D01*
X159011904Y-87558571D01*
X158726190Y-87558571D01*
X158630952Y-87510952D01*
X158583333Y-87463333D01*
X158535714Y-87368095D01*
X158535714Y-87225238D01*
X158583333Y-87130000D01*
X158630952Y-87082380D01*
X158726190Y-87034761D01*
X159011904Y-87034761D01*
X159107142Y-87082380D01*
X159154761Y-87130000D01*
X159202380Y-87225238D01*
X159202380Y-87368095D01*
X159202380Y-86606190D02*
X158535714Y-86606190D01*
X158726190Y-86606190D02*
X158630952Y-86558571D01*
X158583333Y-86510952D01*
X158535714Y-86415714D01*
X158535714Y-86320476D01*
X159202380Y-85987142D02*
X158535714Y-85987142D01*
X158202380Y-85987142D02*
X158250000Y-86034761D01*
X158297619Y-85987142D01*
X158250000Y-85939523D01*
X158202380Y-85987142D01*
X158297619Y-85987142D01*
X158535714Y-85510952D02*
X159202380Y-85510952D01*
X158630952Y-85510952D02*
X158583333Y-85463333D01*
X158535714Y-85368095D01*
X158535714Y-85225238D01*
X158583333Y-85130000D01*
X158678571Y-85082380D01*
X159202380Y-85082380D01*
X158535714Y-84177619D02*
X159345238Y-84177619D01*
X159440476Y-84225238D01*
X159488095Y-84272857D01*
X159535714Y-84368095D01*
X159535714Y-84510952D01*
X159488095Y-84606190D01*
X159154761Y-84177619D02*
X159202380Y-84272857D01*
X159202380Y-84463333D01*
X159154761Y-84558571D01*
X159107142Y-84606190D01*
X159011904Y-84653809D01*
X158726190Y-84653809D01*
X158630952Y-84606190D01*
X158583333Y-84558571D01*
X158535714Y-84463333D01*
X158535714Y-84272857D01*
X158583333Y-84177619D01*
X158821428Y-82939523D02*
X158821428Y-82177619D01*
X158535714Y-81701428D02*
X158821428Y-80939523D01*
X159107142Y-81701428D01*
X158916666Y-79749047D02*
X158916666Y-79272857D01*
X159202380Y-79844285D02*
X158202380Y-79510952D01*
X159202380Y-79177619D01*
X158202380Y-78653809D02*
X158202380Y-78558571D01*
X158250000Y-78463333D01*
X158297619Y-78415714D01*
X158392857Y-78368095D01*
X158583333Y-78320476D01*
X158821428Y-78320476D01*
X159011904Y-78368095D01*
X159107142Y-78415714D01*
X159154761Y-78463333D01*
X159202380Y-78558571D01*
X159202380Y-78653809D01*
X159154761Y-78749047D01*
X159107142Y-78796666D01*
X159011904Y-78844285D01*
X158821428Y-78891904D01*
X158583333Y-78891904D01*
X158392857Y-78844285D01*
X158297619Y-78796666D01*
X158250000Y-78749047D01*
X158202380Y-78653809D01*
X156210000Y-107950000D02*
X156210000Y-110490000D01*
X138370000Y-108010000D02*
X138370000Y-110490000D01*
X143510000Y-74930000D02*
X143510000Y-69850000D01*
X151130000Y-74930000D02*
X143510000Y-74930000D01*
X151130000Y-69850000D02*
X151130000Y-74930000D01*
X143510000Y-69850000D02*
X151130000Y-69850000D01*
X143891428Y-112482380D02*
X143891428Y-113291904D01*
X143939047Y-113387142D01*
X143986666Y-113434761D01*
X144081904Y-113482380D01*
X144272380Y-113482380D01*
X144367619Y-113434761D01*
X144415238Y-113387142D01*
X144462857Y-113291904D01*
X144462857Y-112482380D01*
X144891428Y-113434761D02*
X145034285Y-113482380D01*
X145272380Y-113482380D01*
X145367619Y-113434761D01*
X145415238Y-113387142D01*
X145462857Y-113291904D01*
X145462857Y-113196666D01*
X145415238Y-113101428D01*
X145367619Y-113053809D01*
X145272380Y-113006190D01*
X145081904Y-112958571D01*
X144986666Y-112910952D01*
X144939047Y-112863333D01*
X144891428Y-112768095D01*
X144891428Y-112672857D01*
X144939047Y-112577619D01*
X144986666Y-112530000D01*
X145081904Y-112482380D01*
X145320000Y-112482380D01*
X145462857Y-112530000D01*
X146224761Y-112958571D02*
X146367619Y-113006190D01*
X146415238Y-113053809D01*
X146462857Y-113149047D01*
X146462857Y-113291904D01*
X146415238Y-113387142D01*
X146367619Y-113434761D01*
X146272380Y-113482380D01*
X145891428Y-113482380D01*
X145891428Y-112482380D01*
X146224761Y-112482380D01*
X146320000Y-112530000D01*
X146367619Y-112577619D01*
X146415238Y-112672857D01*
X146415238Y-112768095D01*
X146367619Y-112863333D01*
X146320000Y-112910952D01*
X146224761Y-112958571D01*
X145891428Y-112958571D01*
X148081904Y-113434761D02*
X147986666Y-113482380D01*
X147796190Y-113482380D01*
X147700952Y-113434761D01*
X147653333Y-113387142D01*
X147605714Y-113291904D01*
X147605714Y-113006190D01*
X147653333Y-112910952D01*
X147700952Y-112863333D01*
X147796190Y-112815714D01*
X147986666Y-112815714D01*
X148081904Y-112863333D01*
X148653333Y-113482380D02*
X148558095Y-113434761D01*
X148510476Y-113387142D01*
X148462857Y-113291904D01*
X148462857Y-113006190D01*
X148510476Y-112910952D01*
X148558095Y-112863333D01*
X148653333Y-112815714D01*
X148796190Y-112815714D01*
X148891428Y-112863333D01*
X148939047Y-112910952D01*
X148986666Y-113006190D01*
X148986666Y-113291904D01*
X148939047Y-113387142D01*
X148891428Y-113434761D01*
X148796190Y-113482380D01*
X148653333Y-113482380D01*
X149415238Y-112815714D02*
X149415238Y-113482380D01*
X149415238Y-112910952D02*
X149462857Y-112863333D01*
X149558095Y-112815714D01*
X149700952Y-112815714D01*
X149796190Y-112863333D01*
X149843809Y-112958571D01*
X149843809Y-113482380D01*
X150320000Y-112815714D02*
X150320000Y-113482380D01*
X150320000Y-112910952D02*
X150367619Y-112863333D01*
X150462857Y-112815714D01*
X150605714Y-112815714D01*
X150700952Y-112863333D01*
X150748571Y-112958571D01*
X150748571Y-113482380D01*
X138430000Y-110490000D02*
X156210000Y-110490000D01*
X113800000Y-84581904D02*
X113752380Y-84677142D01*
X113752380Y-84820000D01*
X113800000Y-84962857D01*
X113895238Y-85058095D01*
X113990476Y-85105714D01*
X114180952Y-85153333D01*
X114323809Y-85153333D01*
X114514285Y-85105714D01*
X114609523Y-85058095D01*
X114704761Y-84962857D01*
X114752380Y-84820000D01*
X114752380Y-84724761D01*
X114704761Y-84581904D01*
X114657142Y-84534285D01*
X114323809Y-84534285D01*
X114323809Y-84724761D01*
X114752380Y-84105714D02*
X113752380Y-84105714D01*
X114752380Y-83534285D01*
X113752380Y-83534285D01*
X114752380Y-83058095D02*
X113752380Y-83058095D01*
X113752380Y-82820000D01*
X113800000Y-82677142D01*
X113895238Y-82581904D01*
X113990476Y-82534285D01*
X114180952Y-82486666D01*
X114323809Y-82486666D01*
X114514285Y-82534285D01*
X114609523Y-82581904D01*
X114704761Y-82677142D01*
X114752380Y-82820000D01*
X114752380Y-83058095D01*
X113752380Y-90090476D02*
X114752380Y-89757142D01*
X113752380Y-89423809D01*
X114704761Y-88661904D02*
X114752380Y-88757142D01*
X114752380Y-88947619D01*
X114704761Y-89042857D01*
X114657142Y-89090476D01*
X114561904Y-89138095D01*
X114276190Y-89138095D01*
X114180952Y-89090476D01*
X114133333Y-89042857D01*
X114085714Y-88947619D01*
X114085714Y-88757142D01*
X114133333Y-88661904D01*
X114704761Y-87804761D02*
X114752380Y-87900000D01*
X114752380Y-88090476D01*
X114704761Y-88185714D01*
X114657142Y-88233333D01*
X114561904Y-88280952D01*
X114276190Y-88280952D01*
X114180952Y-88233333D01*
X114133333Y-88185714D01*
X114085714Y-88090476D01*
X114085714Y-87900000D01*
X114133333Y-87804761D01*
X114752380Y-93670476D02*
X114276190Y-94003809D01*
X114752380Y-94241904D02*
X113752380Y-94241904D01*
X113752380Y-93860952D01*
X113800000Y-93765714D01*
X113847619Y-93718095D01*
X113942857Y-93670476D01*
X114085714Y-93670476D01*
X114180952Y-93718095D01*
X114228571Y-93765714D01*
X114276190Y-93860952D01*
X114276190Y-94241904D01*
X113800000Y-98798095D02*
X113752380Y-98893333D01*
X113752380Y-99036190D01*
X113800000Y-99179047D01*
X113895238Y-99274285D01*
X113990476Y-99321904D01*
X114180952Y-99369523D01*
X114323809Y-99369523D01*
X114514285Y-99321904D01*
X114609523Y-99274285D01*
X114704761Y-99179047D01*
X114752380Y-99036190D01*
X114752380Y-98940952D01*
X114704761Y-98798095D01*
X114657142Y-98750476D01*
X114323809Y-98750476D01*
X114323809Y-98940952D01*
X114228571Y-104068571D02*
X114276190Y-103925714D01*
X114323809Y-103878095D01*
X114419047Y-103830476D01*
X114561904Y-103830476D01*
X114657142Y-103878095D01*
X114704761Y-103925714D01*
X114752380Y-104020952D01*
X114752380Y-104401904D01*
X113752380Y-104401904D01*
X113752380Y-104068571D01*
X113800000Y-103973333D01*
X113847619Y-103925714D01*
X113942857Y-103878095D01*
X114038095Y-103878095D01*
X114133333Y-103925714D01*
X114180952Y-103973333D01*
X114228571Y-104068571D01*
X114228571Y-104401904D01*
X113752380Y-109648571D02*
X114752380Y-109410476D01*
X114038095Y-109220000D01*
X114752380Y-109029523D01*
X113752380Y-108791428D01*
X128778095Y-64912857D02*
X130301904Y-64912857D01*
X129540000Y-65674761D02*
X129540000Y-64150952D01*
D11*
X159080000Y-116840000D02*
G75*
G03*
X159080000Y-116840000I-1600000J0D01*
G01*
X119710000Y-116840000D02*
G75*
G03*
X119710000Y-116840000I-1600000J0D01*
G01*
X159080000Y-64770000D02*
G75*
G03*
X159080000Y-64770000I-1600000J0D01*
G01*
X119710000Y-64770000D02*
G75*
G03*
X119710000Y-64770000I-1600000J0D01*
G01*
X112776000Y-60960000D02*
X161290000Y-60960000D01*
D10*
X142017714Y-71699380D02*
X141446285Y-71699380D01*
X141732000Y-71699380D02*
X141732000Y-70699380D01*
X141636761Y-70842238D01*
X141541523Y-70937476D01*
X141446285Y-70985095D01*
X150622000Y-102997000D02*
X150622000Y-111760000D01*
X143510000Y-102997000D02*
X150622000Y-102997000D01*
X143510000Y-110617000D02*
X143510000Y-102997000D01*
X143510000Y-110617000D02*
X143510000Y-111760000D01*
X143510000Y-111760000D02*
X150622000Y-111760000D01*
D11*
X112776000Y-60960000D02*
X112776000Y-120650000D01*
X161290000Y-120650000D02*
X161290000Y-60960000D01*
X112776000Y-120650000D02*
X161290000Y-120650000D01*
D12*
G04 #@! TO.C,R14*
X159260000Y-100183733D02*
X159260000Y-100476267D01*
X158240000Y-100183733D02*
X158240000Y-100476267D01*
G04 #@! TO.C,R13*
X159260000Y-72243733D02*
X159260000Y-72536267D01*
X158240000Y-72243733D02*
X158240000Y-72536267D01*
G04 #@! TO.C,C1*
X147581252Y-92175000D02*
X147058748Y-92175000D01*
X147581252Y-90705000D02*
X147058748Y-90705000D01*
G04 #@! TO.C,D1*
X131510000Y-75990000D02*
X130630000Y-75990000D01*
X130630000Y-75990000D02*
X130630000Y-66250000D01*
X130630000Y-66250000D02*
X131510000Y-66250000D01*
X135190000Y-75990000D02*
X136070000Y-75990000D01*
X136070000Y-75990000D02*
X136070000Y-66250000D01*
X136070000Y-66250000D02*
X135190000Y-66250000D01*
X130630000Y-74445000D02*
X136070000Y-74445000D01*
X130630000Y-74325000D02*
X136070000Y-74325000D01*
X130630000Y-74565000D02*
X136070000Y-74565000D01*
G04 #@! TO.C,P2*
X154686000Y-69790000D02*
X156016000Y-69790000D01*
X156016000Y-69790000D02*
X156016000Y-71120000D01*
X156016000Y-72390000D02*
X156016000Y-108010000D01*
X153356000Y-108010000D02*
X156016000Y-108010000D01*
X153356000Y-72390000D02*
X153356000Y-108010000D01*
X153356000Y-72390000D02*
X156016000Y-72390000D01*
G04 #@! TO.C,R12*
X134766267Y-111000000D02*
X134473733Y-111000000D01*
X134766267Y-109980000D02*
X134473733Y-109980000D01*
G04 #@! TO.C,R11*
X134766267Y-94490000D02*
X134473733Y-94490000D01*
X134766267Y-93470000D02*
X134473733Y-93470000D01*
G04 #@! TO.C,R10*
X133860000Y-115423733D02*
X133860000Y-115716267D01*
X132840000Y-115423733D02*
X132840000Y-115716267D01*
G04 #@! TO.C,R9*
X132840000Y-99206267D02*
X132840000Y-98913733D01*
X133860000Y-99206267D02*
X133860000Y-98913733D01*
G04 #@! TO.C,R8*
X137670000Y-115016233D02*
X137670000Y-115308767D01*
X136650000Y-115016233D02*
X136650000Y-115308767D01*
G04 #@! TO.C,R7*
X135380000Y-99206267D02*
X135380000Y-98913733D01*
X136400000Y-99206267D02*
X136400000Y-98913733D01*
G04 #@! TO.C,R6*
X129393733Y-109980000D02*
X129686267Y-109980000D01*
X129393733Y-111000000D02*
X129686267Y-111000000D01*
G04 #@! TO.C,R5*
X129393733Y-93470000D02*
X129686267Y-93470000D01*
X129393733Y-94490000D02*
X129686267Y-94490000D01*
G04 #@! TO.C,R4*
X133860000Y-105263733D02*
X133860000Y-105556267D01*
X132840000Y-105263733D02*
X132840000Y-105556267D01*
G04 #@! TO.C,R3*
X132840000Y-89046267D02*
X132840000Y-88753733D01*
X133860000Y-89046267D02*
X133860000Y-88753733D01*
G04 #@! TO.C,R2*
X136400000Y-105263733D02*
X136400000Y-105556267D01*
X135380000Y-105263733D02*
X135380000Y-105556267D01*
G04 #@! TO.C,R1*
X136400000Y-88753733D02*
X136400000Y-89046267D01*
X135380000Y-88753733D02*
X135380000Y-89046267D01*
G04 #@! TO.C,Q4*
X128780000Y-113990000D02*
X128780000Y-114920000D01*
X128780000Y-117150000D02*
X128780000Y-116220000D01*
X128780000Y-117150000D02*
X130940000Y-117150000D01*
X128780000Y-113990000D02*
X130240000Y-113990000D01*
G04 #@! TO.C,Q3*
X128780000Y-97480000D02*
X128780000Y-98410000D01*
X128780000Y-100640000D02*
X128780000Y-99710000D01*
X128780000Y-100640000D02*
X130940000Y-100640000D01*
X128780000Y-97480000D02*
X130240000Y-97480000D01*
G04 #@! TO.C,Q2*
X129050000Y-103830000D02*
X129050000Y-104760000D01*
X129050000Y-106990000D02*
X129050000Y-106060000D01*
X129050000Y-106990000D02*
X131210000Y-106990000D01*
X129050000Y-103830000D02*
X130510000Y-103830000D01*
G04 #@! TO.C,Q1*
X128780000Y-87320000D02*
X128780000Y-88250000D01*
X128780000Y-90480000D02*
X128780000Y-89550000D01*
X128780000Y-90480000D02*
X130940000Y-90480000D01*
X128780000Y-87320000D02*
X130240000Y-87320000D01*
G04 #@! TO.C,P1*
X138370000Y-72390000D02*
X141030000Y-72390000D01*
X138370000Y-72390000D02*
X138370000Y-108010000D01*
X138370000Y-108010000D02*
X141030000Y-108010000D01*
X141030000Y-72390000D02*
X141030000Y-108010000D01*
X141030000Y-69790000D02*
X141030000Y-71120000D01*
X139700000Y-69790000D02*
X141030000Y-69790000D01*
G04 #@! TO.C,J3*
X121560000Y-109220000D02*
G75*
G03*
X121560000Y-109220000I-2180000J0D01*
G01*
X121560000Y-104220000D02*
G75*
G03*
X121560000Y-104220000I-2180000J0D01*
G01*
X121560000Y-99220000D02*
G75*
G03*
X121560000Y-99220000I-2180000J0D01*
G01*
X121560000Y-94220000D02*
G75*
G03*
X121560000Y-94220000I-2180000J0D01*
G01*
X121560000Y-89220000D02*
G75*
G03*
X121560000Y-89220000I-2180000J0D01*
G01*
X121560000Y-84220000D02*
G75*
G03*
X121560000Y-84220000I-2180000J0D01*
G01*
X123980000Y-111780000D02*
X123980000Y-81660000D01*
X122880000Y-111780000D02*
X122880000Y-81660000D01*
X115320000Y-111780000D02*
X115320000Y-81660000D01*
X124440000Y-111780000D02*
X124440000Y-81660000D01*
X115320000Y-111780000D02*
X124440000Y-111780000D01*
X115320000Y-81660000D02*
X124440000Y-81660000D01*
X117992000Y-107566000D02*
X118099000Y-107673000D01*
X120927000Y-110502000D02*
X121034000Y-110608000D01*
X117726000Y-107832000D02*
X117833000Y-107939000D01*
X120661000Y-110768000D02*
X120768000Y-110874000D01*
X117992000Y-102566000D02*
X118388000Y-102961000D01*
X120654000Y-105227000D02*
X121034000Y-105607000D01*
X117726000Y-102832000D02*
X118106000Y-103212000D01*
X120372000Y-105478000D02*
X120768000Y-105873000D01*
X117992000Y-97566000D02*
X118388000Y-97961000D01*
X120654000Y-100227000D02*
X121034000Y-100607000D01*
X117726000Y-97832000D02*
X118106000Y-98212000D01*
X120372000Y-100478000D02*
X120768000Y-100873000D01*
X117992000Y-92566000D02*
X118388000Y-92961000D01*
X120654000Y-95227000D02*
X121034000Y-95607000D01*
X117726000Y-92832000D02*
X118106000Y-93212000D01*
X120372000Y-95478000D02*
X120768000Y-95873000D01*
X117992000Y-87566000D02*
X118388000Y-87961000D01*
X120654000Y-90227000D02*
X121034000Y-90607000D01*
X117726000Y-87832000D02*
X118106000Y-88212000D01*
X120372000Y-90478000D02*
X120768000Y-90873000D01*
X117992000Y-82566000D02*
X118388000Y-82961000D01*
X120654000Y-85227000D02*
X121034000Y-85607000D01*
X117726000Y-82832000D02*
X118106000Y-83212000D01*
X120372000Y-85478000D02*
X120768000Y-85873000D01*
X124040000Y-112020000D02*
X124680000Y-112020000D01*
X124680000Y-112020000D02*
X124680000Y-111620000D01*
G04 #@! TO.C,J2*
X127900000Y-69060000D02*
X127900000Y-71660000D01*
X113200000Y-69060000D02*
X127900000Y-69060000D01*
X127900000Y-78260000D02*
X126000000Y-78260000D01*
X127900000Y-75560000D02*
X127900000Y-78260000D01*
X113200000Y-78260000D02*
X113200000Y-69060000D01*
X122000000Y-78260000D02*
X113200000Y-78260000D01*
X127050000Y-68860000D02*
X128100000Y-68860000D01*
X128100000Y-69910000D02*
X128100000Y-68860000D01*
G04 #@! TD*
G04 #@! TO.C,R14*
D10*
X159202380Y-104782857D02*
X158726190Y-105116190D01*
X159202380Y-105354285D02*
X158202380Y-105354285D01*
X158202380Y-104973333D01*
X158250000Y-104878095D01*
X158297619Y-104830476D01*
X158392857Y-104782857D01*
X158535714Y-104782857D01*
X158630952Y-104830476D01*
X158678571Y-104878095D01*
X158726190Y-104973333D01*
X158726190Y-105354285D01*
X159202380Y-103830476D02*
X159202380Y-104401904D01*
X159202380Y-104116190D02*
X158202380Y-104116190D01*
X158345238Y-104211428D01*
X158440476Y-104306666D01*
X158488095Y-104401904D01*
X158535714Y-102973333D02*
X159202380Y-102973333D01*
X158154761Y-103211428D02*
X158869047Y-103449523D01*
X158869047Y-102830476D01*
G04 #@! TO.C,R13*
X159202380Y-76842857D02*
X158726190Y-77176190D01*
X159202380Y-77414285D02*
X158202380Y-77414285D01*
X158202380Y-77033333D01*
X158250000Y-76938095D01*
X158297619Y-76890476D01*
X158392857Y-76842857D01*
X158535714Y-76842857D01*
X158630952Y-76890476D01*
X158678571Y-76938095D01*
X158726190Y-77033333D01*
X158726190Y-77414285D01*
X159202380Y-75890476D02*
X159202380Y-76461904D01*
X159202380Y-76176190D02*
X158202380Y-76176190D01*
X158345238Y-76271428D01*
X158440476Y-76366666D01*
X158488095Y-76461904D01*
X158202380Y-75557142D02*
X158202380Y-74938095D01*
X158583333Y-75271428D01*
X158583333Y-75128571D01*
X158630952Y-75033333D01*
X158678571Y-74985714D01*
X158773809Y-74938095D01*
X159011904Y-74938095D01*
X159107142Y-74985714D01*
X159154761Y-75033333D01*
X159202380Y-75128571D01*
X159202380Y-75414285D01*
X159154761Y-75509523D01*
X159107142Y-75557142D01*
G04 #@! TO.C,C1*
X147153333Y-93477142D02*
X147105714Y-93524761D01*
X146962857Y-93572380D01*
X146867619Y-93572380D01*
X146724761Y-93524761D01*
X146629523Y-93429523D01*
X146581904Y-93334285D01*
X146534285Y-93143809D01*
X146534285Y-93000952D01*
X146581904Y-92810476D01*
X146629523Y-92715238D01*
X146724761Y-92620000D01*
X146867619Y-92572380D01*
X146962857Y-92572380D01*
X147105714Y-92620000D01*
X147153333Y-92667619D01*
X148105714Y-93572380D02*
X147534285Y-93572380D01*
X147820000Y-93572380D02*
X147820000Y-92572380D01*
X147724761Y-92715238D01*
X147629523Y-92810476D01*
X147534285Y-92858095D01*
G04 #@! TO.C,D1*
X130082380Y-71858095D02*
X129082380Y-71858095D01*
X129082380Y-71620000D01*
X129130000Y-71477142D01*
X129225238Y-71381904D01*
X129320476Y-71334285D01*
X129510952Y-71286666D01*
X129653809Y-71286666D01*
X129844285Y-71334285D01*
X129939523Y-71381904D01*
X130034761Y-71477142D01*
X130082380Y-71620000D01*
X130082380Y-71858095D01*
X130082380Y-70334285D02*
X130082380Y-70905714D01*
X130082380Y-70620000D02*
X129082380Y-70620000D01*
X129225238Y-70715238D01*
X129320476Y-70810476D01*
X129368095Y-70905714D01*
X131202380Y-77731904D02*
X130202380Y-77731904D01*
X131202380Y-77160476D02*
X130630952Y-77589047D01*
X130202380Y-77160476D02*
X130773809Y-77731904D01*
G04 #@! TO.C,P2*
X153947904Y-68802380D02*
X153947904Y-67802380D01*
X154328857Y-67802380D01*
X154424095Y-67850000D01*
X154471714Y-67897619D01*
X154519333Y-67992857D01*
X154519333Y-68135714D01*
X154471714Y-68230952D01*
X154424095Y-68278571D01*
X154328857Y-68326190D01*
X153947904Y-68326190D01*
X154900285Y-67897619D02*
X154947904Y-67850000D01*
X155043142Y-67802380D01*
X155281238Y-67802380D01*
X155376476Y-67850000D01*
X155424095Y-67897619D01*
X155471714Y-67992857D01*
X155471714Y-68088095D01*
X155424095Y-68230952D01*
X154852666Y-68802380D01*
X155471714Y-68802380D01*
G04 #@! TO.C,R12*
X133977142Y-112372380D02*
X133643809Y-111896190D01*
X133405714Y-112372380D02*
X133405714Y-111372380D01*
X133786666Y-111372380D01*
X133881904Y-111420000D01*
X133929523Y-111467619D01*
X133977142Y-111562857D01*
X133977142Y-111705714D01*
X133929523Y-111800952D01*
X133881904Y-111848571D01*
X133786666Y-111896190D01*
X133405714Y-111896190D01*
X134929523Y-112372380D02*
X134358095Y-112372380D01*
X134643809Y-112372380D02*
X134643809Y-111372380D01*
X134548571Y-111515238D01*
X134453333Y-111610476D01*
X134358095Y-111658095D01*
X135310476Y-111467619D02*
X135358095Y-111420000D01*
X135453333Y-111372380D01*
X135691428Y-111372380D01*
X135786666Y-111420000D01*
X135834285Y-111467619D01*
X135881904Y-111562857D01*
X135881904Y-111658095D01*
X135834285Y-111800952D01*
X135262857Y-112372380D01*
X135881904Y-112372380D01*
G04 #@! TO.C,R11*
X133977142Y-95862380D02*
X133643809Y-95386190D01*
X133405714Y-95862380D02*
X133405714Y-94862380D01*
X133786666Y-94862380D01*
X133881904Y-94910000D01*
X133929523Y-94957619D01*
X133977142Y-95052857D01*
X133977142Y-95195714D01*
X133929523Y-95290952D01*
X133881904Y-95338571D01*
X133786666Y-95386190D01*
X133405714Y-95386190D01*
X134929523Y-95862380D02*
X134358095Y-95862380D01*
X134643809Y-95862380D02*
X134643809Y-94862380D01*
X134548571Y-95005238D01*
X134453333Y-95100476D01*
X134358095Y-95148095D01*
X135881904Y-95862380D02*
X135310476Y-95862380D01*
X135596190Y-95862380D02*
X135596190Y-94862380D01*
X135500952Y-95005238D01*
X135405714Y-95100476D01*
X135310476Y-95148095D01*
G04 #@! TO.C,R10*
X133977142Y-118562380D02*
X133643809Y-118086190D01*
X133405714Y-118562380D02*
X133405714Y-117562380D01*
X133786666Y-117562380D01*
X133881904Y-117610000D01*
X133929523Y-117657619D01*
X133977142Y-117752857D01*
X133977142Y-117895714D01*
X133929523Y-117990952D01*
X133881904Y-118038571D01*
X133786666Y-118086190D01*
X133405714Y-118086190D01*
X134929523Y-118562380D02*
X134358095Y-118562380D01*
X134643809Y-118562380D02*
X134643809Y-117562380D01*
X134548571Y-117705238D01*
X134453333Y-117800476D01*
X134358095Y-117848095D01*
X135548571Y-117562380D02*
X135643809Y-117562380D01*
X135739047Y-117610000D01*
X135786666Y-117657619D01*
X135834285Y-117752857D01*
X135881904Y-117943333D01*
X135881904Y-118181428D01*
X135834285Y-118371904D01*
X135786666Y-118467142D01*
X135739047Y-118514761D01*
X135643809Y-118562380D01*
X135548571Y-118562380D01*
X135453333Y-118514761D01*
X135405714Y-118467142D01*
X135358095Y-118371904D01*
X135310476Y-118181428D01*
X135310476Y-117943333D01*
X135358095Y-117752857D01*
X135405714Y-117657619D01*
X135453333Y-117610000D01*
X135548571Y-117562380D01*
G04 #@! TO.C,R9*
X132372380Y-99226666D02*
X131896190Y-99560000D01*
X132372380Y-99798095D02*
X131372380Y-99798095D01*
X131372380Y-99417142D01*
X131420000Y-99321904D01*
X131467619Y-99274285D01*
X131562857Y-99226666D01*
X131705714Y-99226666D01*
X131800952Y-99274285D01*
X131848571Y-99321904D01*
X131896190Y-99417142D01*
X131896190Y-99798095D01*
X132372380Y-98750476D02*
X132372380Y-98560000D01*
X132324761Y-98464761D01*
X132277142Y-98417142D01*
X132134285Y-98321904D01*
X131943809Y-98274285D01*
X131562857Y-98274285D01*
X131467619Y-98321904D01*
X131420000Y-98369523D01*
X131372380Y-98464761D01*
X131372380Y-98655238D01*
X131420000Y-98750476D01*
X131467619Y-98798095D01*
X131562857Y-98845714D01*
X131800952Y-98845714D01*
X131896190Y-98798095D01*
X131943809Y-98750476D01*
X131991428Y-98655238D01*
X131991428Y-98464761D01*
X131943809Y-98369523D01*
X131896190Y-98321904D01*
X131800952Y-98274285D01*
G04 #@! TO.C,R8*
X139042380Y-115329166D02*
X138566190Y-115662500D01*
X139042380Y-115900595D02*
X138042380Y-115900595D01*
X138042380Y-115519642D01*
X138090000Y-115424404D01*
X138137619Y-115376785D01*
X138232857Y-115329166D01*
X138375714Y-115329166D01*
X138470952Y-115376785D01*
X138518571Y-115424404D01*
X138566190Y-115519642D01*
X138566190Y-115900595D01*
X138470952Y-114757738D02*
X138423333Y-114852976D01*
X138375714Y-114900595D01*
X138280476Y-114948214D01*
X138232857Y-114948214D01*
X138137619Y-114900595D01*
X138090000Y-114852976D01*
X138042380Y-114757738D01*
X138042380Y-114567261D01*
X138090000Y-114472023D01*
X138137619Y-114424404D01*
X138232857Y-114376785D01*
X138280476Y-114376785D01*
X138375714Y-114424404D01*
X138423333Y-114472023D01*
X138470952Y-114567261D01*
X138470952Y-114757738D01*
X138518571Y-114852976D01*
X138566190Y-114900595D01*
X138661428Y-114948214D01*
X138851904Y-114948214D01*
X138947142Y-114900595D01*
X138994761Y-114852976D01*
X139042380Y-114757738D01*
X139042380Y-114567261D01*
X138994761Y-114472023D01*
X138947142Y-114424404D01*
X138851904Y-114376785D01*
X138661428Y-114376785D01*
X138566190Y-114424404D01*
X138518571Y-114472023D01*
X138470952Y-114567261D01*
G04 #@! TO.C,R7*
X136342380Y-101766666D02*
X135866190Y-102100000D01*
X136342380Y-102338095D02*
X135342380Y-102338095D01*
X135342380Y-101957142D01*
X135390000Y-101861904D01*
X135437619Y-101814285D01*
X135532857Y-101766666D01*
X135675714Y-101766666D01*
X135770952Y-101814285D01*
X135818571Y-101861904D01*
X135866190Y-101957142D01*
X135866190Y-102338095D01*
X135342380Y-101433333D02*
X135342380Y-100766666D01*
X136342380Y-101195238D01*
G04 #@! TO.C,R6*
X129373333Y-109512380D02*
X129040000Y-109036190D01*
X128801904Y-109512380D02*
X128801904Y-108512380D01*
X129182857Y-108512380D01*
X129278095Y-108560000D01*
X129325714Y-108607619D01*
X129373333Y-108702857D01*
X129373333Y-108845714D01*
X129325714Y-108940952D01*
X129278095Y-108988571D01*
X129182857Y-109036190D01*
X128801904Y-109036190D01*
X130230476Y-108512380D02*
X130040000Y-108512380D01*
X129944761Y-108560000D01*
X129897142Y-108607619D01*
X129801904Y-108750476D01*
X129754285Y-108940952D01*
X129754285Y-109321904D01*
X129801904Y-109417142D01*
X129849523Y-109464761D01*
X129944761Y-109512380D01*
X130135238Y-109512380D01*
X130230476Y-109464761D01*
X130278095Y-109417142D01*
X130325714Y-109321904D01*
X130325714Y-109083809D01*
X130278095Y-108988571D01*
X130230476Y-108940952D01*
X130135238Y-108893333D01*
X129944761Y-108893333D01*
X129849523Y-108940952D01*
X129801904Y-108988571D01*
X129754285Y-109083809D01*
G04 #@! TO.C,R5*
X129373333Y-93002380D02*
X129040000Y-92526190D01*
X128801904Y-93002380D02*
X128801904Y-92002380D01*
X129182857Y-92002380D01*
X129278095Y-92050000D01*
X129325714Y-92097619D01*
X129373333Y-92192857D01*
X129373333Y-92335714D01*
X129325714Y-92430952D01*
X129278095Y-92478571D01*
X129182857Y-92526190D01*
X128801904Y-92526190D01*
X130278095Y-92002380D02*
X129801904Y-92002380D01*
X129754285Y-92478571D01*
X129801904Y-92430952D01*
X129897142Y-92383333D01*
X130135238Y-92383333D01*
X130230476Y-92430952D01*
X130278095Y-92478571D01*
X130325714Y-92573809D01*
X130325714Y-92811904D01*
X130278095Y-92907142D01*
X130230476Y-92954761D01*
X130135238Y-93002380D01*
X129897142Y-93002380D01*
X129801904Y-92954761D01*
X129754285Y-92907142D01*
G04 #@! TO.C,R4*
X135232380Y-105576666D02*
X134756190Y-105910000D01*
X135232380Y-106148095D02*
X134232380Y-106148095D01*
X134232380Y-105767142D01*
X134280000Y-105671904D01*
X134327619Y-105624285D01*
X134422857Y-105576666D01*
X134565714Y-105576666D01*
X134660952Y-105624285D01*
X134708571Y-105671904D01*
X134756190Y-105767142D01*
X134756190Y-106148095D01*
X134565714Y-104719523D02*
X135232380Y-104719523D01*
X134184761Y-104957619D02*
X134899047Y-105195714D01*
X134899047Y-104576666D01*
G04 #@! TO.C,R3*
X132372380Y-89066666D02*
X131896190Y-89400000D01*
X132372380Y-89638095D02*
X131372380Y-89638095D01*
X131372380Y-89257142D01*
X131420000Y-89161904D01*
X131467619Y-89114285D01*
X131562857Y-89066666D01*
X131705714Y-89066666D01*
X131800952Y-89114285D01*
X131848571Y-89161904D01*
X131896190Y-89257142D01*
X131896190Y-89638095D01*
X131372380Y-88733333D02*
X131372380Y-88114285D01*
X131753333Y-88447619D01*
X131753333Y-88304761D01*
X131800952Y-88209523D01*
X131848571Y-88161904D01*
X131943809Y-88114285D01*
X132181904Y-88114285D01*
X132277142Y-88161904D01*
X132324761Y-88209523D01*
X132372380Y-88304761D01*
X132372380Y-88590476D01*
X132324761Y-88685714D01*
X132277142Y-88733333D01*
G04 #@! TO.C,R2*
X137772380Y-105576666D02*
X137296190Y-105910000D01*
X137772380Y-106148095D02*
X136772380Y-106148095D01*
X136772380Y-105767142D01*
X136820000Y-105671904D01*
X136867619Y-105624285D01*
X136962857Y-105576666D01*
X137105714Y-105576666D01*
X137200952Y-105624285D01*
X137248571Y-105671904D01*
X137296190Y-105767142D01*
X137296190Y-106148095D01*
X136867619Y-105195714D02*
X136820000Y-105148095D01*
X136772380Y-105052857D01*
X136772380Y-104814761D01*
X136820000Y-104719523D01*
X136867619Y-104671904D01*
X136962857Y-104624285D01*
X137058095Y-104624285D01*
X137200952Y-104671904D01*
X137772380Y-105243333D01*
X137772380Y-104624285D01*
G04 #@! TO.C,R1*
X137772380Y-89066666D02*
X137296190Y-89400000D01*
X137772380Y-89638095D02*
X136772380Y-89638095D01*
X136772380Y-89257142D01*
X136820000Y-89161904D01*
X136867619Y-89114285D01*
X136962857Y-89066666D01*
X137105714Y-89066666D01*
X137200952Y-89114285D01*
X137248571Y-89161904D01*
X137296190Y-89257142D01*
X137296190Y-89638095D01*
X137772380Y-88114285D02*
X137772380Y-88685714D01*
X137772380Y-88400000D02*
X136772380Y-88400000D01*
X136915238Y-88495238D01*
X137010476Y-88590476D01*
X137058095Y-88685714D01*
G04 #@! TO.C,Q4*
X129444761Y-118617619D02*
X129349523Y-118570000D01*
X129254285Y-118474761D01*
X129111428Y-118331904D01*
X129016190Y-118284285D01*
X128920952Y-118284285D01*
X128968571Y-118522380D02*
X128873333Y-118474761D01*
X128778095Y-118379523D01*
X128730476Y-118189047D01*
X128730476Y-117855714D01*
X128778095Y-117665238D01*
X128873333Y-117570000D01*
X128968571Y-117522380D01*
X129159047Y-117522380D01*
X129254285Y-117570000D01*
X129349523Y-117665238D01*
X129397142Y-117855714D01*
X129397142Y-118189047D01*
X129349523Y-118379523D01*
X129254285Y-118474761D01*
X129159047Y-118522380D01*
X128968571Y-118522380D01*
X130254285Y-117855714D02*
X130254285Y-118522380D01*
X130016190Y-117474761D02*
X129778095Y-118189047D01*
X130397142Y-118189047D01*
G04 #@! TO.C,Q3*
X129444761Y-102107619D02*
X129349523Y-102060000D01*
X129254285Y-101964761D01*
X129111428Y-101821904D01*
X129016190Y-101774285D01*
X128920952Y-101774285D01*
X128968571Y-102012380D02*
X128873333Y-101964761D01*
X128778095Y-101869523D01*
X128730476Y-101679047D01*
X128730476Y-101345714D01*
X128778095Y-101155238D01*
X128873333Y-101060000D01*
X128968571Y-101012380D01*
X129159047Y-101012380D01*
X129254285Y-101060000D01*
X129349523Y-101155238D01*
X129397142Y-101345714D01*
X129397142Y-101679047D01*
X129349523Y-101869523D01*
X129254285Y-101964761D01*
X129159047Y-102012380D01*
X128968571Y-102012380D01*
X129730476Y-101012380D02*
X130349523Y-101012380D01*
X130016190Y-101393333D01*
X130159047Y-101393333D01*
X130254285Y-101440952D01*
X130301904Y-101488571D01*
X130349523Y-101583809D01*
X130349523Y-101821904D01*
X130301904Y-101917142D01*
X130254285Y-101964761D01*
X130159047Y-102012380D01*
X129873333Y-102012380D01*
X129778095Y-101964761D01*
X129730476Y-101917142D01*
G04 #@! TO.C,Q2*
X129714761Y-108457619D02*
X129619523Y-108410000D01*
X129524285Y-108314761D01*
X129381428Y-108171904D01*
X129286190Y-108124285D01*
X129190952Y-108124285D01*
X129238571Y-108362380D02*
X129143333Y-108314761D01*
X129048095Y-108219523D01*
X129000476Y-108029047D01*
X129000476Y-107695714D01*
X129048095Y-107505238D01*
X129143333Y-107410000D01*
X129238571Y-107362380D01*
X129429047Y-107362380D01*
X129524285Y-107410000D01*
X129619523Y-107505238D01*
X129667142Y-107695714D01*
X129667142Y-108029047D01*
X129619523Y-108219523D01*
X129524285Y-108314761D01*
X129429047Y-108362380D01*
X129238571Y-108362380D01*
X130048095Y-107457619D02*
X130095714Y-107410000D01*
X130190952Y-107362380D01*
X130429047Y-107362380D01*
X130524285Y-107410000D01*
X130571904Y-107457619D01*
X130619523Y-107552857D01*
X130619523Y-107648095D01*
X130571904Y-107790952D01*
X130000476Y-108362380D01*
X130619523Y-108362380D01*
G04 #@! TO.C,Q1*
X129444761Y-91947619D02*
X129349523Y-91900000D01*
X129254285Y-91804761D01*
X129111428Y-91661904D01*
X129016190Y-91614285D01*
X128920952Y-91614285D01*
X128968571Y-91852380D02*
X128873333Y-91804761D01*
X128778095Y-91709523D01*
X128730476Y-91519047D01*
X128730476Y-91185714D01*
X128778095Y-90995238D01*
X128873333Y-90900000D01*
X128968571Y-90852380D01*
X129159047Y-90852380D01*
X129254285Y-90900000D01*
X129349523Y-90995238D01*
X129397142Y-91185714D01*
X129397142Y-91519047D01*
X129349523Y-91709523D01*
X129254285Y-91804761D01*
X129159047Y-91852380D01*
X128968571Y-91852380D01*
X130349523Y-91852380D02*
X129778095Y-91852380D01*
X130063809Y-91852380D02*
X130063809Y-90852380D01*
X129968571Y-90995238D01*
X129873333Y-91090476D01*
X129778095Y-91138095D01*
G04 #@! TO.C,P1*
X138961904Y-68802380D02*
X138961904Y-67802380D01*
X139342857Y-67802380D01*
X139438095Y-67850000D01*
X139485714Y-67897619D01*
X139533333Y-67992857D01*
X139533333Y-68135714D01*
X139485714Y-68230952D01*
X139438095Y-68278571D01*
X139342857Y-68326190D01*
X138961904Y-68326190D01*
X140485714Y-68802380D02*
X139914285Y-68802380D01*
X140200000Y-68802380D02*
X140200000Y-67802380D01*
X140104761Y-67945238D01*
X140009523Y-68040476D01*
X139914285Y-68088095D01*
G04 #@! TO.C,J3*
X113772380Y-97053333D02*
X114486666Y-97053333D01*
X114629523Y-97100952D01*
X114724761Y-97196190D01*
X114772380Y-97339047D01*
X114772380Y-97434285D01*
X113772380Y-96672380D02*
X113772380Y-96053333D01*
X114153333Y-96386666D01*
X114153333Y-96243809D01*
X114200952Y-96148571D01*
X114248571Y-96100952D01*
X114343809Y-96053333D01*
X114581904Y-96053333D01*
X114677142Y-96100952D01*
X114724761Y-96148571D01*
X114772380Y-96243809D01*
X114772380Y-96529523D01*
X114724761Y-96624761D01*
X114677142Y-96672380D01*
G04 #@! TO.C,J2*
X118216666Y-78862380D02*
X118216666Y-79576666D01*
X118169047Y-79719523D01*
X118073809Y-79814761D01*
X117930952Y-79862380D01*
X117835714Y-79862380D01*
X118645238Y-78957619D02*
X118692857Y-78910000D01*
X118788095Y-78862380D01*
X119026190Y-78862380D01*
X119121428Y-78910000D01*
X119169047Y-78957619D01*
X119216666Y-79052857D01*
X119216666Y-79148095D01*
X119169047Y-79290952D01*
X118597619Y-79862380D01*
X119216666Y-79862380D01*
G04 #@! TD*
M02*
