M48
; DRILL file {KiCad 5.1.9-73d0e3b20d~88~ubuntu20.04.1} date Thu Jan  7 10:05:08 2021
; FORMAT={-:-/ absolute / inch / decimal}
; #@! TF.CreationDate,2021-01-07T10:05:08+03:00
; #@! TF.GenerationSoftware,Kicad,Pcbnew,5.1.9-73d0e3b20d~88~ubuntu20.04.1
; #@! TF.FileFunction,Plated,1,2,PTH
FMAT,2
INCH
T1C0.0157
T2C0.0394
T3C0.0512
T4C0.0630
%
G90
G05
T1
X5.2Y-3.4
X5.2Y-3.75
X5.2Y-4.3
X5.3Y-3.8
X5.3Y-4.05
X5.3Y-4.5
X6.25Y-4.1
T2
X5.1Y-3.25
X5.2Y-3.25
X5.3Y-3.25
X5.5Y-2.8
X5.5Y-2.9
X5.5Y-3.0
X5.5Y-3.1
X5.5Y-3.2
X5.5Y-3.3
X5.5Y-3.4
X5.5Y-3.5
X5.5Y-3.6
X5.5Y-3.7
X5.5Y-3.8
X5.5Y-3.9
X5.5Y-4.0
X5.5Y-4.1
X5.5Y-4.2
X6.09Y-2.8
X6.09Y-2.9
X6.09Y-3.0
X6.09Y-3.1
X6.09Y-3.2
X6.09Y-3.3
X6.09Y-3.4
X6.09Y-3.5
X6.09Y-3.6
X6.09Y-3.7
X6.09Y-3.8
X6.09Y-3.9
X6.09Y-4.0
X6.09Y-4.1
X6.09Y-4.2
T3
X4.7Y-3.3157
X4.7Y-3.5126
X4.7Y-3.7094
X4.7Y-3.9063
X4.7Y-4.1031
X4.7Y-4.3
X5.7Y-2.6
X5.7Y-3.0921
X5.7Y-3.3
X5.7Y-3.7921
X5.7Y-4.1
X5.7Y-4.5921
X5.8969Y-2.6
X5.8969Y-3.0921
X5.8969Y-3.3
X5.8969Y-3.7921
X5.8969Y-4.1
X5.8969Y-4.5921
T4
X5.25Y-2.55
X5.25Y-3.05
T2
G00X4.7638Y-2.8606
M15
G01X4.7638Y-2.9394
M16
G05
G00X4.8425Y-3.085
M15
G01X4.9213Y-3.085
M16
G05
G00X5.0Y-2.8606
M15
G01X5.0Y-2.9394
M16
G05
T0
M30
